<svg width="1200" height="1200" viewBox="0 0 1200 1200" fill="none" xmlns="http://www.w3.org/2000/svg">
<g clip-path="url(#clip0_51_77)">
<rect width="1200" height="1200" fill="white"/>
<rect width="1200" height="1200" fill="#0F0F0F"/>
<g opacity="0.05">
<line x1="74.5" y1="2.18557e-08" x2="74.4999" y2="1200" stroke="white"/>
<line x1="501.5" y1="2.18557e-08" x2="501.5" y2="1200" stroke="white"/>
<line x1="284.5" y1="2.18557e-08" x2="284.5" y2="1200" stroke="white"/>
<line x1="711.5" y1="2.18557e-08" x2="711.5" y2="1200" stroke="white"/>
<line x1="184.5" y1="2.18557e-08" x2="184.5" y2="1200" stroke="white"/>
<line x1="611.5" y1="2.18557e-08" x2="611.5" y2="1200" stroke="white"/>
<line x1="394.5" y1="2.18557e-08" x2="394.5" y2="1200" stroke="white"/>
<line x1="821.5" y1="2.18557e-08" x2="821.5" y2="1200" stroke="white"/>
<line x1="916.5" y1="2.18557e-08" x2="916.5" y2="1200" stroke="white"/>
<line x1="1126.5" y1="2.18557e-08" x2="1126.5" y2="1200" stroke="white"/>
<line x1="1026.5" y1="2.18557e-08" x2="1026.5" y2="1200" stroke="white"/>
<line y1="1125.5" x2="1200" y2="1125.5" stroke="white"/>
<line y1="698.5" x2="1200" y2="698.5" stroke="white"/>
<line y1="915.5" x2="1200" y2="915.5" stroke="white"/>
<line y1="488.5" x2="1200" y2="488.5" stroke="white"/>
<line y1="1015.5" x2="1200" y2="1015.5" stroke="white"/>
<line y1="588.5" x2="1200" y2="588.5" stroke="white"/>
<line y1="805.5" x2="1200" y2="805.5" stroke="white"/>
<line y1="378.5" x2="1200" y2="378.5" stroke="white"/>
<line y1="283.5" x2="1200" y2="283.5" stroke="white"/>
<line y1="73.4999" x2="1200" y2="73.4999" stroke="white"/>
<line y1="173.5" x2="1200" y2="173.5" stroke="white"/>
</g>
<g filter="url(#filter0_f_51_77)">
<circle cx="1177.5" cy="195.5" r="230.5" fill="#7070DD" fill-opacity="0.15"/>
</g>
<g filter="url(#filter1_f_51_77)">
<circle cx="731" cy="873" r="154" fill="#7070DD" fill-opacity="0.15"/>
</g>
<g filter="url(#filter2_f_51_77)">
<circle cx="57" cy="473" r="98" fill="#F2B244" fill-opacity="0.1"/>
</g>
<g filter="url(#filter3_f_51_77)">
<circle cx="161" cy="1005" r="56" fill="#D64E23" fill-opacity="0.2"/>
</g>
<rect x="139" y="307" width="921" height="586" fill="url(#paint0_linear_51_77)" stroke="url(#paint1_linear_51_77)" stroke-width="10"/>
<g opacity="0.2">
<path d="M981.401 673.051C981.401 716.669 945.947 752.031 902.21 752.031C858.473 752.031 823.019 716.669 823.019 673.051C823.019 629.434 858.473 594.072 902.21 594.072C945.947 594.072 981.401 629.434 981.401 673.051Z" stroke="url(#paint2_linear_51_77)"/>
<path d="M981.401 798.61C981.401 842.228 945.947 877.589 902.21 877.589C858.473 877.589 823.019 842.228 823.019 798.61C823.019 754.992 858.473 719.631 902.21 719.631C945.947 719.631 981.401 754.992 981.401 798.61Z" stroke="url(#paint3_linear_51_77)"/>
<circle r="79.0852" transform="matrix(0.708046 0.706166 -0.708046 0.706166 946.72 691.439)" stroke="url(#paint4_linear_51_77)"/>
<circle r="79.0852" transform="matrix(0.708046 0.706166 -0.708046 0.706166 857.7 780.222)" stroke="url(#paint5_linear_51_77)"/>
<path d="M839.263 656.851C883 656.851 918.454 692.213 918.454 735.831C918.454 779.449 883 814.81 839.263 814.81C795.526 814.81 760.072 779.449 760.072 735.831C760.072 692.213 795.526 656.851 839.263 656.851Z" stroke="url(#paint6_linear_51_77)"/>
<path d="M965.156 656.851C1008.89 656.851 1044.35 692.213 1044.35 735.831C1044.35 779.449 1008.89 814.81 965.156 814.81C921.419 814.81 885.965 779.449 885.965 735.831C885.965 692.213 921.419 656.851 965.156 656.851Z" stroke="url(#paint7_linear_51_77)"/>
<circle r="79.0852" transform="matrix(0.708046 -0.706166 0.708046 0.706166 863.28 697.313)" stroke="url(#paint8_linear_51_77)"/>
<circle r="79.0852" transform="matrix(0.708046 -0.706166 0.708046 0.706166 952.3 786.097)" stroke="url(#paint9_linear_51_77)"/>
<path d="M375.401 673.051C375.401 716.669 339.947 752.031 296.21 752.031C252.473 752.031 217.019 716.669 217.019 673.051C217.019 629.434 252.473 594.072 296.21 594.072C339.947 594.072 375.401 629.434 375.401 673.051Z" stroke="url(#paint10_linear_51_77)"/>
<path d="M375.401 798.61C375.401 842.228 339.947 877.589 296.21 877.589C252.473 877.589 217.019 842.228 217.019 798.61C217.019 754.992 252.473 719.631 296.21 719.631C339.947 719.631 375.401 754.992 375.401 798.61Z" stroke="url(#paint11_linear_51_77)"/>
<circle r="79.0852" transform="matrix(0.708046 0.706166 -0.708046 0.706166 340.72 691.439)" stroke="url(#paint12_linear_51_77)"/>
<circle r="79.0852" transform="matrix(0.708046 0.706166 -0.708046 0.706166 251.7 780.222)" stroke="url(#paint13_linear_51_77)"/>
<path d="M233.263 656.851C277 656.851 312.454 692.213 312.454 735.831C312.454 779.449 277 814.81 233.263 814.81C189.526 814.81 154.072 779.449 154.072 735.831C154.072 692.213 189.526 656.851 233.263 656.851Z" stroke="url(#paint14_linear_51_77)"/>
<path d="M359.156 656.851C402.893 656.851 438.347 692.213 438.347 735.831C438.347 779.449 402.893 814.81 359.156 814.81C315.419 814.81 279.965 779.449 279.965 735.831C279.965 692.213 315.419 656.851 359.156 656.851Z" stroke="url(#paint15_linear_51_77)"/>
<circle r="79.0852" transform="matrix(0.708046 -0.706166 0.708046 0.706166 257.28 697.313)" stroke="url(#paint16_linear_51_77)"/>
<circle r="79.0852" transform="matrix(0.708046 -0.706166 0.708046 0.706166 346.3 786.097)" stroke="url(#paint17_linear_51_77)"/>
<path d="M981.401 402.013C981.401 445.631 945.947 480.992 902.21 480.992C858.473 480.992 823.019 445.631 823.019 402.013C823.019 358.395 858.473 323.034 902.21 323.034C945.947 323.034 981.401 358.395 981.401 402.013Z" stroke="url(#paint18_linear_51_77)"/>
<path d="M981.401 527.572C981.401 571.19 945.947 606.551 902.21 606.551C858.473 606.551 823.019 571.19 823.019 527.572C823.019 483.954 858.473 448.593 902.21 448.593C945.947 448.593 981.401 483.954 981.401 527.572Z" stroke="url(#paint19_linear_51_77)"/>
<circle r="79.0852" transform="matrix(0.708046 0.706166 -0.708046 0.706166 946.72 420.401)" stroke="url(#paint20_linear_51_77)"/>
<circle r="79.0852" transform="matrix(0.708046 0.706166 -0.708046 0.706166 857.7 509.184)" stroke="url(#paint21_linear_51_77)"/>
<path d="M839.263 385.813C883 385.813 918.454 421.175 918.454 464.792C918.454 508.41 883 543.772 839.263 543.772C795.526 543.772 760.072 508.41 760.072 464.792C760.072 421.175 795.526 385.813 839.263 385.813Z" stroke="url(#paint22_linear_51_77)"/>
<path d="M965.156 385.813C1008.89 385.813 1044.35 421.175 1044.35 464.792C1044.35 508.41 1008.89 543.772 965.156 543.772C921.419 543.772 885.965 508.41 885.965 464.792C885.965 421.175 921.419 385.813 965.156 385.813Z" stroke="url(#paint23_linear_51_77)"/>
<circle r="79.0852" transform="matrix(0.708046 -0.706166 0.708046 0.706166 863.28 426.275)" stroke="url(#paint24_linear_51_77)"/>
<circle r="79.0852" transform="matrix(0.708046 -0.706166 0.708046 0.706166 952.3 515.059)" stroke="url(#paint25_linear_51_77)"/>
<path d="M375.401 402.013C375.401 445.631 339.947 480.992 296.21 480.992C252.473 480.992 217.019 445.631 217.019 402.013C217.019 358.395 252.473 323.034 296.21 323.034C339.947 323.034 375.401 358.395 375.401 402.013Z" stroke="url(#paint26_linear_51_77)"/>
<path d="M375.401 527.572C375.401 571.19 339.947 606.551 296.21 606.551C252.473 606.551 217.019 571.19 217.019 527.572C217.019 483.954 252.473 448.593 296.21 448.593C339.947 448.593 375.401 483.954 375.401 527.572Z" stroke="url(#paint27_linear_51_77)"/>
<circle r="79.0852" transform="matrix(0.708046 0.706166 -0.708046 0.706166 340.72 420.401)" stroke="url(#paint28_linear_51_77)"/>
<circle r="79.0852" transform="matrix(0.708046 0.706166 -0.708046 0.706166 251.7 509.184)" stroke="url(#paint29_linear_51_77)"/>
<path d="M233.263 385.813C277 385.813 312.454 421.175 312.454 464.792C312.454 508.41 277 543.772 233.263 543.772C189.526 543.772 154.072 508.41 154.072 464.792C154.072 421.175 189.526 385.813 233.263 385.813Z" stroke="url(#paint30_linear_51_77)"/>
<path d="M359.156 385.813C402.893 385.813 438.347 421.175 438.347 464.792C438.347 508.41 402.893 543.772 359.156 543.772C315.419 543.772 279.965 508.41 279.965 464.792C279.965 421.175 315.419 385.813 359.156 385.813Z" stroke="url(#paint31_linear_51_77)"/>
<circle r="79.0852" transform="matrix(0.708046 -0.706166 0.708046 0.706166 257.28 426.275)" stroke="url(#paint32_linear_51_77)"/>
<circle r="79.0852" transform="matrix(0.708046 -0.706166 0.708046 0.706166 346.3 515.059)" stroke="url(#paint33_linear_51_77)"/>
</g>
<path d="M538 647L552.111 632.889V647H538ZM594.444 647V625.833L580.333 639.944V647H566.222V618.778L580.333 604.667V618.778V625.833L594.444 611.722V590.556L608.556 576.444V590.556V618.778V647H594.444ZM650.889 590.556V562.333V548.222L636.778 562.333V590.556V632.889H650.889V590.556ZM650.889 647H636.778H622.667V590.556V562.333L636.778 548.222L650.889 534.111L665 520V534.111V562.333V590.556V647H650.889Z" fill="url(#paint34_linear_51_77)"/>
<path d="M530.233 677V666.818H531.466V671.352H536.895V666.818H538.128V677H536.895V672.446H531.466V677H530.233ZM540.437 677V669.364H541.61V677H540.437ZM541.034 668.091C540.805 668.091 540.608 668.013 540.442 667.857C540.28 667.701 540.199 667.514 540.199 667.295C540.199 667.077 540.28 666.889 540.442 666.734C540.608 666.578 540.805 666.5 541.034 666.5C541.262 666.5 541.458 666.578 541.62 666.734C541.786 666.889 541.869 667.077 541.869 667.295C541.869 667.514 541.786 667.701 541.62 667.857C541.458 668.013 541.262 668.091 541.034 668.091ZM546.842 680.023C546.275 680.023 545.788 679.95 545.38 679.804C544.972 679.661 544.633 679.473 544.361 679.237C544.093 679.005 543.879 678.757 543.72 678.491L544.654 677.835C544.76 677.974 544.895 678.134 545.057 678.312C545.219 678.495 545.441 678.652 545.723 678.785C546.008 678.921 546.381 678.989 546.842 678.989C547.458 678.989 547.967 678.839 548.368 678.541C548.769 678.243 548.97 677.776 548.97 677.139V675.588H548.87C548.784 675.727 548.661 675.9 548.502 676.105C548.347 676.307 548.121 676.488 547.826 676.647C547.535 676.803 547.14 676.881 546.643 676.881C546.026 676.881 545.473 676.735 544.982 676.443C544.495 676.152 544.109 675.727 543.824 675.17C543.542 674.614 543.401 673.937 543.401 673.142C543.401 672.36 543.539 671.679 543.814 671.099C544.089 670.515 544.472 670.065 544.963 669.746C545.453 669.425 546.02 669.264 546.663 669.264C547.16 669.264 547.554 669.347 547.846 669.513C548.141 669.675 548.366 669.861 548.522 670.07C548.681 670.275 548.804 670.444 548.89 670.577H549.009V669.364H550.143V677.219C550.143 677.875 549.994 678.409 549.695 678.82C549.401 679.234 549.003 679.537 548.502 679.729C548.005 679.925 547.452 680.023 546.842 680.023ZM546.802 675.827C547.273 675.827 547.67 675.719 547.995 675.504C548.32 675.288 548.567 674.978 548.736 674.574C548.905 674.17 548.99 673.686 548.99 673.122C548.99 672.572 548.907 672.086 548.741 671.665C548.575 671.245 548.33 670.915 548.005 670.676C547.68 670.437 547.279 670.318 546.802 670.318C546.305 670.318 545.891 670.444 545.559 670.696C545.231 670.948 544.984 671.286 544.818 671.71C544.656 672.134 544.575 672.605 544.575 673.122C544.575 673.652 544.658 674.121 544.823 674.529C544.992 674.933 545.241 675.252 545.569 675.484C545.901 675.712 546.311 675.827 546.802 675.827ZM553.464 672.406V677H552.291V666.818H553.464V670.557H553.563C553.742 670.162 554.011 669.849 554.369 669.617C554.73 669.382 555.211 669.264 555.811 669.264C556.331 669.264 556.787 669.369 557.178 669.577C557.569 669.783 557.872 670.099 558.088 670.527C558.306 670.951 558.416 671.491 558.416 672.148V677H557.242V672.227C557.242 671.621 557.085 671.152 556.77 670.82C556.459 670.486 556.026 670.318 555.472 670.318C555.088 670.318 554.743 670.399 554.438 670.562C554.137 670.724 553.898 670.961 553.722 671.273C553.55 671.584 553.464 671.962 553.464 672.406ZM573.25 671.909C573.25 672.983 573.056 673.911 572.668 674.693C572.28 675.475 571.748 676.079 571.072 676.503C570.396 676.927 569.624 677.139 568.755 677.139C567.887 677.139 567.115 676.927 566.439 676.503C565.762 676.079 565.23 675.475 564.843 674.693C564.455 673.911 564.261 672.983 564.261 671.909C564.261 670.835 564.455 669.907 564.843 669.125C565.23 668.343 565.762 667.74 566.439 667.315C567.115 666.891 567.887 666.679 568.755 666.679C569.624 666.679 570.396 666.891 571.072 667.315C571.748 667.74 572.28 668.343 572.668 669.125C573.056 669.907 573.25 670.835 573.25 671.909ZM572.056 671.909C572.056 671.027 571.909 670.283 571.614 669.677C571.322 669.07 570.926 668.611 570.426 668.3C569.929 667.988 569.372 667.832 568.755 667.832C568.139 667.832 567.58 667.988 567.08 668.3C566.583 668.611 566.187 669.07 565.892 669.677C565.6 670.283 565.454 671.027 565.454 671.909C565.454 672.791 565.6 673.535 565.892 674.141C566.187 674.748 566.583 675.207 567.08 675.518C567.58 675.83 568.139 675.986 568.755 675.986C569.372 675.986 569.929 675.83 570.426 675.518C570.926 675.207 571.322 674.748 571.614 674.141C571.909 673.535 572.056 672.791 572.056 671.909ZM579.976 673.878V669.364H581.15V677H579.976V675.707H579.897C579.718 676.095 579.439 676.425 579.061 676.697C578.684 676.965 578.206 677.099 577.63 677.099C577.152 677.099 576.728 676.995 576.357 676.786C575.986 676.574 575.694 676.256 575.482 675.832C575.27 675.404 575.164 674.866 575.164 674.216V669.364H576.337V674.136C576.337 674.693 576.493 675.137 576.804 675.469C577.119 675.8 577.52 675.966 578.007 675.966C578.299 675.966 578.596 675.891 578.897 675.742C579.202 675.593 579.458 675.364 579.663 675.056C579.872 674.748 579.976 674.355 579.976 673.878ZM586.619 669.364V670.358H582.662V669.364H586.619ZM583.816 667.534H584.989V674.812C584.989 675.144 585.037 675.393 585.133 675.558C585.232 675.721 585.358 675.83 585.511 675.886C585.667 675.939 585.831 675.966 586.003 675.966C586.132 675.966 586.238 675.959 586.321 675.946C586.404 675.929 586.47 675.916 586.52 675.906L586.759 676.96C586.679 676.99 586.568 677.02 586.426 677.05C586.283 677.083 586.102 677.099 585.884 677.099C585.552 677.099 585.227 677.028 584.909 676.886C584.594 676.743 584.333 676.526 584.124 676.234C583.918 675.943 583.816 675.575 583.816 675.131V667.534ZM588.384 679.864V669.364H589.518V670.577H589.657C589.743 670.444 589.863 670.275 590.015 670.07C590.171 669.861 590.393 669.675 590.681 669.513C590.973 669.347 591.367 669.264 591.865 669.264C592.508 669.264 593.074 669.425 593.565 669.746C594.055 670.068 594.438 670.524 594.713 671.114C594.988 671.704 595.126 672.4 595.126 673.202C595.126 674.01 594.988 674.711 594.713 675.305C594.438 675.895 594.057 676.352 593.57 676.677C593.083 676.998 592.521 677.159 591.884 677.159C591.394 677.159 591.001 677.078 590.706 676.915C590.411 676.75 590.184 676.562 590.025 676.354C589.866 676.142 589.743 675.966 589.657 675.827H589.558V679.864H588.384ZM589.538 673.182C589.538 673.759 589.622 674.267 589.791 674.708C589.96 675.146 590.207 675.489 590.532 675.737C590.857 675.982 591.255 676.105 591.725 676.105C592.216 676.105 592.625 675.976 592.953 675.717C593.285 675.455 593.533 675.104 593.699 674.663C593.868 674.219 593.953 673.725 593.953 673.182C593.953 672.645 593.87 672.161 593.704 671.73C593.542 671.296 593.295 670.953 592.963 670.701C592.635 670.446 592.222 670.318 591.725 670.318C591.248 670.318 590.847 670.439 590.522 670.681C590.197 670.92 589.952 671.254 589.786 671.685C589.621 672.113 589.538 672.612 589.538 673.182ZM601.728 673.878V669.364H602.901V677H601.728V675.707H601.649C601.47 676.095 601.191 676.425 600.813 676.697C600.436 676.965 599.958 677.099 599.382 677.099C598.904 677.099 598.48 676.995 598.109 676.786C597.738 676.574 597.446 676.256 597.234 675.832C597.022 675.404 596.916 674.866 596.916 674.216V669.364H598.089V674.136C598.089 674.693 598.245 675.137 598.556 675.469C598.871 675.8 599.272 675.966 599.759 675.966C600.051 675.966 600.348 675.891 600.649 675.742C600.954 675.593 601.209 675.364 601.415 675.056C601.624 674.748 601.728 674.355 601.728 673.878ZM608.371 669.364V670.358H604.414V669.364H608.371ZM605.567 667.534H606.741V674.812C606.741 675.144 606.789 675.393 606.885 675.558C606.984 675.721 607.11 675.83 607.263 675.886C607.419 675.939 607.583 675.966 607.755 675.966C607.884 675.966 607.99 675.959 608.073 675.946C608.156 675.929 608.222 675.916 608.272 675.906L608.511 676.96C608.431 676.99 608.32 677.02 608.178 677.05C608.035 677.083 607.854 677.099 607.636 677.099C607.304 677.099 606.979 677.028 606.661 676.886C606.346 676.743 606.085 676.526 605.876 676.234C605.67 675.943 605.567 675.575 605.567 675.131V667.534ZM614.651 666.818L617.673 675.389H617.793L620.815 666.818H622.108L618.369 677H617.097L613.358 666.818H614.651ZM626.026 677.159C625.29 677.159 624.655 676.997 624.121 676.672C623.591 676.344 623.182 675.886 622.893 675.3C622.608 674.71 622.466 674.024 622.466 673.241C622.466 672.459 622.608 671.77 622.893 671.173C623.182 670.573 623.583 670.106 624.097 669.771C624.614 669.433 625.217 669.264 625.906 669.264C626.304 669.264 626.697 669.33 627.085 669.463C627.472 669.596 627.825 669.811 628.143 670.109C628.462 670.404 628.715 670.795 628.904 671.283C629.093 671.77 629.188 672.37 629.188 673.082V673.58H623.301V672.565H627.994C627.994 672.134 627.908 671.75 627.736 671.412C627.567 671.074 627.325 670.807 627.01 670.612C626.698 670.416 626.33 670.318 625.906 670.318C625.439 670.318 625.035 670.434 624.693 670.666C624.355 670.895 624.095 671.193 623.913 671.561C623.73 671.929 623.639 672.323 623.639 672.744V673.42C623.639 673.997 623.739 674.486 623.938 674.887C624.14 675.285 624.42 675.588 624.778 675.797C625.136 676.002 625.552 676.105 626.026 676.105C626.334 676.105 626.612 676.062 626.861 675.976C627.113 675.886 627.33 675.754 627.512 675.578C627.694 675.399 627.835 675.177 627.935 674.912L629.068 675.23C628.949 675.615 628.748 675.953 628.467 676.244C628.185 676.533 627.837 676.758 627.423 676.92C627.008 677.08 626.543 677.159 626.026 677.159ZM632.146 672.406V677H630.972V669.364H632.106V670.557H632.205C632.384 670.169 632.656 669.857 633.021 669.622C633.385 669.384 633.856 669.264 634.433 669.264C634.95 669.264 635.402 669.37 635.79 669.582C636.178 669.791 636.479 670.109 636.695 670.537C636.91 670.961 637.018 671.498 637.018 672.148V677H635.844V672.227C635.844 671.627 635.689 671.16 635.377 670.825C635.066 670.487 634.638 670.318 634.094 670.318C633.72 670.318 633.385 670.399 633.09 670.562C632.799 670.724 632.568 670.961 632.399 671.273C632.23 671.584 632.146 671.962 632.146 672.406ZM642.483 669.364V670.358H638.525V669.364H642.483ZM639.679 667.534H640.852V674.812C640.852 675.144 640.9 675.393 640.996 675.558C641.096 675.721 641.222 675.83 641.374 675.886C641.53 675.939 641.694 675.966 641.866 675.966C641.996 675.966 642.102 675.959 642.184 675.946C642.267 675.929 642.334 675.916 642.383 675.906L642.622 676.96C642.542 676.99 642.431 677.02 642.289 677.05C642.146 677.083 641.966 677.099 641.747 677.099C641.416 677.099 641.091 677.028 640.773 676.886C640.458 676.743 640.196 676.526 639.987 676.234C639.782 675.943 639.679 675.575 639.679 675.131V667.534ZM649.06 673.878V669.364H650.233V677H649.06V675.707H648.981C648.802 676.095 648.523 676.425 648.145 676.697C647.768 676.965 647.29 677.099 646.714 677.099C646.236 677.099 645.812 676.995 645.441 676.786C645.07 676.574 644.778 676.256 644.566 675.832C644.354 675.404 644.248 674.866 644.248 674.216V669.364H645.421V674.136C645.421 674.693 645.577 675.137 645.888 675.469C646.203 675.8 646.604 675.966 647.091 675.966C647.383 675.966 647.68 675.891 647.981 675.742C648.286 675.593 648.541 675.364 648.747 675.056C648.956 674.748 649.06 674.355 649.06 673.878ZM652.382 677V669.364H653.516V670.517H653.596C653.735 670.139 653.987 669.833 654.351 669.597C654.716 669.362 655.127 669.244 655.584 669.244C655.67 669.244 655.778 669.246 655.907 669.249C656.037 669.253 656.134 669.258 656.201 669.264V670.457C656.161 670.447 656.07 670.433 655.927 670.413C655.788 670.389 655.641 670.378 655.485 670.378C655.114 670.378 654.782 670.456 654.49 670.612C654.202 670.764 653.973 670.976 653.804 671.248C653.639 671.516 653.556 671.823 653.556 672.168V677H652.382ZM660.561 677.159C659.825 677.159 659.19 676.997 658.657 676.672C658.126 676.344 657.717 675.886 657.429 675.3C657.144 674.71 657.001 674.024 657.001 673.241C657.001 672.459 657.144 671.77 657.429 671.173C657.717 670.573 658.118 670.106 658.632 669.771C659.149 669.433 659.752 669.264 660.441 669.264C660.839 669.264 661.232 669.33 661.62 669.463C662.007 669.596 662.36 669.811 662.679 670.109C662.997 670.404 663.25 670.795 663.439 671.283C663.628 671.77 663.723 672.37 663.723 673.082V673.58H657.836V672.565H662.529C662.529 672.134 662.443 671.75 662.271 671.412C662.102 671.074 661.86 670.807 661.545 670.612C661.234 670.416 660.866 670.318 660.441 670.318C659.974 670.318 659.57 670.434 659.228 670.666C658.89 670.895 658.63 671.193 658.448 671.561C658.266 671.929 658.174 672.323 658.174 672.744V673.42C658.174 673.997 658.274 674.486 658.473 674.887C658.675 675.285 658.955 675.588 659.313 675.797C659.671 676.002 660.087 676.105 660.561 676.105C660.869 676.105 661.147 676.062 661.396 675.976C661.648 675.886 661.865 675.754 662.047 675.578C662.23 675.399 662.37 675.177 662.47 674.912L663.603 675.23C663.484 675.615 663.283 675.953 663.002 676.244C662.72 676.533 662.372 676.758 661.958 676.92C661.543 677.08 661.078 677.159 660.561 677.159ZM670.917 671.074L669.863 671.372C669.796 671.196 669.699 671.026 669.569 670.86C669.443 670.691 669.271 670.552 669.052 670.442C668.833 670.333 668.553 670.278 668.212 670.278C667.745 670.278 667.355 670.386 667.044 670.602C666.735 670.814 666.581 671.084 666.581 671.412C666.581 671.704 666.687 671.934 666.9 672.103C667.112 672.272 667.443 672.413 667.894 672.526L669.027 672.804C669.71 672.97 670.219 673.223 670.554 673.565C670.888 673.903 671.056 674.339 671.056 674.872C671.056 675.31 670.93 675.701 670.678 676.045C670.429 676.39 670.081 676.662 669.634 676.861C669.186 677.06 668.666 677.159 668.073 677.159C667.294 677.159 666.649 676.99 666.139 676.652C665.628 676.314 665.305 675.82 665.169 675.17L666.283 674.892C666.389 675.303 666.59 675.611 666.885 675.817C667.183 676.022 667.572 676.125 668.053 676.125C668.6 676.125 669.034 676.009 669.355 675.777C669.68 675.542 669.843 675.26 669.843 674.932C669.843 674.667 669.75 674.445 669.564 674.266C669.379 674.083 669.094 673.947 668.709 673.858L667.436 673.56C666.737 673.394 666.223 673.137 665.895 672.789C665.57 672.438 665.408 671.999 665.408 671.472C665.408 671.041 665.529 670.66 665.771 670.328C666.016 669.997 666.349 669.737 666.77 669.548C667.194 669.359 667.675 669.264 668.212 669.264C668.968 669.264 669.561 669.43 669.992 669.761C670.426 670.093 670.734 670.53 670.917 671.074Z" fill="#9DD0C3"/>
</g>
<text style="font-style:bold;font-size:32px;font-family: 'Playfair Display', serif;fill:#F2F2F2;fill-opacity:1;stroke:none;" x="50%" y="720" alignment-baseline="middle" text-anchor="middle" id="target">OLORMEISTER</text>
<defs>
<style>
@import url('https://fonts.googleapis.com/css2?family=Playfair+Display:wght@700');
</style>
<filter id="filter0_f_51_77" x="697" y="-285" width="961" height="961" filterUnits="userSpaceOnUse" color-interpolation-filters="sRGB">
<feFlood flood-opacity="0" result="BackgroundImageFix"/>
<feBlend mode="normal" in="SourceGraphic" in2="BackgroundImageFix" result="shape"/>
<feGaussianBlur stdDeviation="125" result="effect1_foregroundBlur_51_77"/>
</filter>
<filter id="filter1_f_51_77" x="327" y="469" width="808" height="808" filterUnits="userSpaceOnUse" color-interpolation-filters="sRGB">
<feFlood flood-opacity="0" result="BackgroundImageFix"/>
<feBlend mode="normal" in="SourceGraphic" in2="BackgroundImageFix" result="shape"/>
<feGaussianBlur stdDeviation="125" result="effect1_foregroundBlur_51_77"/>
</filter>
<filter id="filter2_f_51_77" x="-201" y="215" width="516" height="516" filterUnits="userSpaceOnUse" color-interpolation-filters="sRGB">
<feFlood flood-opacity="0" result="BackgroundImageFix"/>
<feBlend mode="normal" in="SourceGraphic" in2="BackgroundImageFix" result="shape"/>
<feGaussianBlur stdDeviation="80" result="effect1_foregroundBlur_51_77"/>
</filter>
<filter id="filter3_f_51_77" x="-55" y="789" width="432" height="432" filterUnits="userSpaceOnUse" color-interpolation-filters="sRGB">
<feFlood flood-opacity="0" result="BackgroundImageFix"/>
<feBlend mode="normal" in="SourceGraphic" in2="BackgroundImageFix" result="shape"/>
<feGaussianBlur stdDeviation="80" result="effect1_foregroundBlur_51_77"/>
</filter>
<linearGradient id="paint0_linear_51_77" x1="1056.35" y1="886.648" x2="143.816" y2="312.292" gradientUnits="userSpaceOnUse">
<stop stop-color="#131010"/>
<stop offset="1" stop-color="#585353"/>
</linearGradient>
<linearGradient id="paint1_linear_51_77" x1="-70" y1="172" x2="1118.59" y2="938.081" gradientUnits="userSpaceOnUse">
<stop stop-color="#808080"/>
<stop offset="0.567757" stop-color="#3E4249"/>
<stop offset="1" stop-color="#808080"/>
</linearGradient>
<linearGradient id="paint2_linear_51_77" x1="785.079" y1="554.936" x2="1037.3" y2="657.995" gradientUnits="userSpaceOnUse">
<stop stop-color="#808080"/>
<stop offset="0.567757" stop-color="#3E4249"/>
<stop offset="1" stop-color="#808080"/>
</linearGradient>
<linearGradient id="paint3_linear_51_77" x1="785.079" y1="680.495" x2="1037.3" y2="783.554" gradientUnits="userSpaceOnUse">
<stop stop-color="#808080"/>
<stop offset="0.567757" stop-color="#3E4249"/>
<stop offset="1" stop-color="#808080"/>
</linearGradient>
<linearGradient id="paint4_linear_51_77" x1="-37.3902" y1="-38.6873" x2="214.689" y2="64.0392" gradientUnits="userSpaceOnUse">
<stop stop-color="#808080"/>
<stop offset="0.567757" stop-color="#3E4249"/>
<stop offset="1" stop-color="#808080"/>
</linearGradient>
<linearGradient id="paint5_linear_51_77" x1="-37.3902" y1="-38.6873" x2="214.689" y2="64.0392" gradientUnits="userSpaceOnUse">
<stop stop-color="#808080"/>
<stop offset="0.567757" stop-color="#3E4249"/>
<stop offset="1" stop-color="#808080"/>
</linearGradient>
<linearGradient id="paint6_linear_51_77" x1="720.834" y1="852.65" x2="823.228" y2="600.717" gradientUnits="userSpaceOnUse">
<stop stop-color="#808080"/>
<stop offset="0.567757" stop-color="#3E4249"/>
<stop offset="1" stop-color="#808080"/>
</linearGradient>
<linearGradient id="paint7_linear_51_77" x1="846.727" y1="852.65" x2="949.121" y2="600.717" gradientUnits="userSpaceOnUse">
<stop stop-color="#808080"/>
<stop offset="0.567757" stop-color="#3E4249"/>
<stop offset="1" stop-color="#808080"/>
</linearGradient>
<linearGradient id="paint8_linear_51_77" x1="-37.3902" y1="-38.6873" x2="214.689" y2="64.0392" gradientUnits="userSpaceOnUse">
<stop stop-color="#808080"/>
<stop offset="0.567757" stop-color="#3E4249"/>
<stop offset="1" stop-color="#808080"/>
</linearGradient>
<linearGradient id="paint9_linear_51_77" x1="-37.3902" y1="-38.6873" x2="214.689" y2="64.0392" gradientUnits="userSpaceOnUse">
<stop stop-color="#808080"/>
<stop offset="0.567757" stop-color="#3E4249"/>
<stop offset="1" stop-color="#808080"/>
</linearGradient>
<linearGradient id="paint10_linear_51_77" x1="179.079" y1="554.936" x2="431.301" y2="657.995" gradientUnits="userSpaceOnUse">
<stop stop-color="#808080"/>
<stop offset="0.567757" stop-color="#3E4249"/>
<stop offset="1" stop-color="#808080"/>
</linearGradient>
<linearGradient id="paint11_linear_51_77" x1="179.079" y1="680.495" x2="431.301" y2="783.554" gradientUnits="userSpaceOnUse">
<stop stop-color="#808080"/>
<stop offset="0.567757" stop-color="#3E4249"/>
<stop offset="1" stop-color="#808080"/>
</linearGradient>
<linearGradient id="paint12_linear_51_77" x1="-37.3902" y1="-38.6873" x2="214.689" y2="64.0392" gradientUnits="userSpaceOnUse">
<stop stop-color="#808080"/>
<stop offset="0.567757" stop-color="#3E4249"/>
<stop offset="1" stop-color="#808080"/>
</linearGradient>
<linearGradient id="paint13_linear_51_77" x1="-37.3902" y1="-38.6873" x2="214.689" y2="64.0392" gradientUnits="userSpaceOnUse">
<stop stop-color="#808080"/>
<stop offset="0.567757" stop-color="#3E4249"/>
<stop offset="1" stop-color="#808080"/>
</linearGradient>
<linearGradient id="paint14_linear_51_77" x1="114.834" y1="852.65" x2="217.228" y2="600.717" gradientUnits="userSpaceOnUse">
<stop stop-color="#808080"/>
<stop offset="0.567757" stop-color="#3E4249"/>
<stop offset="1" stop-color="#808080"/>
</linearGradient>
<linearGradient id="paint15_linear_51_77" x1="240.727" y1="852.65" x2="343.121" y2="600.717" gradientUnits="userSpaceOnUse">
<stop stop-color="#808080"/>
<stop offset="0.567757" stop-color="#3E4249"/>
<stop offset="1" stop-color="#808080"/>
</linearGradient>
<linearGradient id="paint16_linear_51_77" x1="-37.3902" y1="-38.6873" x2="214.689" y2="64.0392" gradientUnits="userSpaceOnUse">
<stop stop-color="#808080"/>
<stop offset="0.567757" stop-color="#3E4249"/>
<stop offset="1" stop-color="#808080"/>
</linearGradient>
<linearGradient id="paint17_linear_51_77" x1="-37.3902" y1="-38.6873" x2="214.689" y2="64.0392" gradientUnits="userSpaceOnUse">
<stop stop-color="#808080"/>
<stop offset="0.567757" stop-color="#3E4249"/>
<stop offset="1" stop-color="#808080"/>
</linearGradient>
<linearGradient id="paint18_linear_51_77" x1="785.079" y1="283.898" x2="1037.3" y2="386.957" gradientUnits="userSpaceOnUse">
<stop stop-color="#808080"/>
<stop offset="0.567757" stop-color="#3E4249"/>
<stop offset="1" stop-color="#808080"/>
</linearGradient>
<linearGradient id="paint19_linear_51_77" x1="785.079" y1="409.457" x2="1037.3" y2="512.515" gradientUnits="userSpaceOnUse">
<stop stop-color="#808080"/>
<stop offset="0.567757" stop-color="#3E4249"/>
<stop offset="1" stop-color="#808080"/>
</linearGradient>
<linearGradient id="paint20_linear_51_77" x1="-37.3902" y1="-38.6873" x2="214.689" y2="64.0392" gradientUnits="userSpaceOnUse">
<stop stop-color="#808080"/>
<stop offset="0.567757" stop-color="#3E4249"/>
<stop offset="1" stop-color="#808080"/>
</linearGradient>
<linearGradient id="paint21_linear_51_77" x1="-37.3902" y1="-38.6873" x2="214.689" y2="64.0392" gradientUnits="userSpaceOnUse">
<stop stop-color="#808080"/>
<stop offset="0.567757" stop-color="#3E4249"/>
<stop offset="1" stop-color="#808080"/>
</linearGradient>
<linearGradient id="paint22_linear_51_77" x1="720.834" y1="581.612" x2="823.228" y2="329.678" gradientUnits="userSpaceOnUse">
<stop stop-color="#808080"/>
<stop offset="0.567757" stop-color="#3E4249"/>
<stop offset="1" stop-color="#808080"/>
</linearGradient>
<linearGradient id="paint23_linear_51_77" x1="846.727" y1="581.612" x2="949.121" y2="329.678" gradientUnits="userSpaceOnUse">
<stop stop-color="#808080"/>
<stop offset="0.567757" stop-color="#3E4249"/>
<stop offset="1" stop-color="#808080"/>
</linearGradient>
<linearGradient id="paint24_linear_51_77" x1="-37.3902" y1="-38.6873" x2="214.689" y2="64.0392" gradientUnits="userSpaceOnUse">
<stop stop-color="#808080"/>
<stop offset="0.567757" stop-color="#3E4249"/>
<stop offset="1" stop-color="#808080"/>
</linearGradient>
<linearGradient id="paint25_linear_51_77" x1="-37.3902" y1="-38.6873" x2="214.689" y2="64.0392" gradientUnits="userSpaceOnUse">
<stop stop-color="#808080"/>
<stop offset="0.567757" stop-color="#3E4249"/>
<stop offset="1" stop-color="#808080"/>
</linearGradient>
<linearGradient id="paint26_linear_51_77" x1="179.079" y1="283.898" x2="431.301" y2="386.957" gradientUnits="userSpaceOnUse">
<stop stop-color="#808080"/>
<stop offset="0.567757" stop-color="#3E4249"/>
<stop offset="1" stop-color="#808080"/>
</linearGradient>
<linearGradient id="paint27_linear_51_77" x1="179.079" y1="409.457" x2="431.301" y2="512.515" gradientUnits="userSpaceOnUse">
<stop stop-color="#808080"/>
<stop offset="0.567757" stop-color="#3E4249"/>
<stop offset="1" stop-color="#808080"/>
</linearGradient>
<linearGradient id="paint28_linear_51_77" x1="-37.3902" y1="-38.6873" x2="214.689" y2="64.0392" gradientUnits="userSpaceOnUse">
<stop stop-color="#808080"/>
<stop offset="0.567757" stop-color="#3E4249"/>
<stop offset="1" stop-color="#808080"/>
</linearGradient>
<linearGradient id="paint29_linear_51_77" x1="-37.3902" y1="-38.6873" x2="214.689" y2="64.0392" gradientUnits="userSpaceOnUse">
<stop stop-color="#808080"/>
<stop offset="0.567757" stop-color="#3E4249"/>
<stop offset="1" stop-color="#808080"/>
</linearGradient>
<linearGradient id="paint30_linear_51_77" x1="114.834" y1="581.612" x2="217.228" y2="329.678" gradientUnits="userSpaceOnUse">
<stop stop-color="#808080"/>
<stop offset="0.567757" stop-color="#3E4249"/>
<stop offset="1" stop-color="#808080"/>
</linearGradient>
<linearGradient id="paint31_linear_51_77" x1="240.727" y1="581.612" x2="343.121" y2="329.678" gradientUnits="userSpaceOnUse">
<stop stop-color="#808080"/>
<stop offset="0.567757" stop-color="#3E4249"/>
<stop offset="1" stop-color="#808080"/>
</linearGradient>
<linearGradient id="paint32_linear_51_77" x1="-37.3902" y1="-38.6873" x2="214.689" y2="64.0392" gradientUnits="userSpaceOnUse">
<stop stop-color="#808080"/>
<stop offset="0.567757" stop-color="#3E4249"/>
<stop offset="1" stop-color="#808080"/>
</linearGradient>
<linearGradient id="paint33_linear_51_77" x1="-37.3902" y1="-38.6873" x2="214.689" y2="64.0392" gradientUnits="userSpaceOnUse">
<stop stop-color="#808080"/>
<stop offset="0.567757" stop-color="#3E4249"/>
<stop offset="1" stop-color="#808080"/>
</linearGradient>
<linearGradient id="paint34_linear_51_77" x1="508.167" y1="489.132" x2="709.297" y2="571.096" gradientUnits="userSpaceOnUse">
<stop stop-color="#808080"/>
<stop offset="1" stop-color="#808080"/>
</linearGradient>
<clipPath id="clip0_51_77">
<rect width="1200" height="1200" fill="white"/>
</clipPath>
</defs>
</svg>
