<svg width="1200" height="1200" viewBox="0 0 1200 1200" fill="none" xmlns="http://www.w3.org/2000/svg">
  <g clip-path="url(#clip0_7_256)">
    <rect width="1200" height="1200" fill="white" />
    <rect width="1200" height="1200" fill="#0F0F0F" />
    <g opacity="0.05">
      <line x1="74.5" y1="2.18557e-08" x2="74.4999" y2="1200" stroke="white" />
      <line x1="501.5" y1="2.18557e-08" x2="501.5" y2="1200" stroke="white" />
      <line x1="284.5" y1="2.18557e-08" x2="284.5" y2="1200" stroke="white" />
      <line x1="711.5" y1="2.18557e-08" x2="711.5" y2="1200" stroke="white" />
      <line x1="184.5" y1="2.18557e-08" x2="184.5" y2="1200" stroke="white" />
      <line x1="611.5" y1="2.18557e-08" x2="611.5" y2="1200" stroke="white" />
      <line x1="394.5" y1="2.18557e-08" x2="394.5" y2="1200" stroke="white" />
      <line x1="821.5" y1="2.18557e-08" x2="821.5" y2="1200" stroke="white" />
      <line x1="916.5" y1="2.18557e-08" x2="916.5" y2="1200" stroke="white" />
      <line x1="1126.5" y1="2.18557e-08" x2="1126.5" y2="1200" stroke="white" />
      <line x1="1026.5" y1="2.18557e-08" x2="1026.5" y2="1200" stroke="white" />
      <line y1="1125.5" x2="1200" y2="1125.5" stroke="white" />
      <line y1="698.5" x2="1200" y2="698.5" stroke="white" />
      <line y1="915.5" x2="1200" y2="915.5" stroke="white" />
      <line y1="488.5" x2="1200" y2="488.5" stroke="white" />
      <line y1="1015.5" x2="1200" y2="1015.5" stroke="white" />
      <line y1="588.5" x2="1200" y2="588.5" stroke="white" />
      <line y1="805.5" x2="1200" y2="805.5" stroke="white" />
      <line y1="378.5" x2="1200" y2="378.5" stroke="white" />
      <line y1="283.5" x2="1200" y2="283.5" stroke="white" />
      <line y1="73.5" x2="1200" y2="73.5" stroke="white" />
      <line y1="173.5" x2="1200" y2="173.5" stroke="white" />
    </g>
    <g filter="url(#filter0_f_7_256)">
      <circle cx="1177.5" cy="195.5" r="230.5" fill="#7070DD" fill-opacity="0.15" />
    </g>
    <g filter="url(#filter1_f_7_256)">
      <circle cx="731" cy="873" r="154" fill="#7070DD" fill-opacity="0.15" />
    </g>
    <g filter="url(#filter2_f_7_256)">
      <circle cx="57" cy="473" r="98" fill="#F2B244" fill-opacity="0.1" />
    </g>
    <g filter="url(#filter3_f_7_256)">
      <circle cx="161" cy="1005" r="56" fill="#D64E23" fill-opacity="0.2" />
    </g>
    <rect x="139" y="307" width="921" height="586" fill="url(#paint0_linear_7_256)" stroke="url(#paint1_linear_7_256)"
      stroke-width="10" />
    <g opacity="0.2">
      <path
        d="M981.401 673.051C981.401 716.669 945.947 752.031 902.21 752.031C858.473 752.031 823.019 716.669 823.019 673.051C823.019 629.434 858.473 594.072 902.21 594.072C945.947 594.072 981.401 629.434 981.401 673.051Z"
        stroke="url(#paint2_linear_7_256)" />
      <path
        d="M981.401 798.61C981.401 842.228 945.947 877.589 902.21 877.589C858.473 877.589 823.019 842.228 823.019 798.61C823.019 754.992 858.473 719.631 902.21 719.631C945.947 719.631 981.401 754.992 981.401 798.61Z"
        stroke="url(#paint3_linear_7_256)" />
      <circle r="79.0852" transform="matrix(0.708046 0.706166 -0.708046 0.706166 946.72 691.439)"
        stroke="url(#paint4_linear_7_256)" />
      <circle r="79.0852" transform="matrix(0.708046 0.706166 -0.708046 0.706166 857.7 780.223)"
        stroke="url(#paint5_linear_7_256)" />
      <path
        d="M839.263 656.851C883 656.851 918.454 692.213 918.454 735.831C918.454 779.449 883 814.81 839.263 814.81C795.526 814.81 760.072 779.449 760.072 735.831C760.072 692.213 795.526 656.851 839.263 656.851Z"
        stroke="url(#paint6_linear_7_256)" />
      <path
        d="M965.156 656.851C1008.89 656.851 1044.35 692.213 1044.35 735.831C1044.35 779.449 1008.89 814.81 965.156 814.81C921.419 814.81 885.965 779.449 885.965 735.831C885.965 692.213 921.419 656.851 965.156 656.851Z"
        stroke="url(#paint7_linear_7_256)" />
      <circle r="79.0852" transform="matrix(0.708046 -0.706166 0.708046 0.706166 863.28 697.314)"
        stroke="url(#paint8_linear_7_256)" />
      <circle r="79.0852" transform="matrix(0.708046 -0.706166 0.708046 0.706166 952.3 786.097)"
        stroke="url(#paint9_linear_7_256)" />
      <path
        d="M375.401 673.051C375.401 716.669 339.947 752.031 296.21 752.031C252.473 752.031 217.019 716.669 217.019 673.051C217.019 629.434 252.473 594.072 296.21 594.072C339.947 594.072 375.401 629.434 375.401 673.051Z"
        stroke="url(#paint10_linear_7_256)" />
      <path
        d="M375.401 798.61C375.401 842.228 339.947 877.589 296.21 877.589C252.473 877.589 217.019 842.228 217.019 798.61C217.019 754.992 252.473 719.631 296.21 719.631C339.947 719.631 375.401 754.992 375.401 798.61Z"
        stroke="url(#paint11_linear_7_256)" />
      <circle r="79.0852" transform="matrix(0.708046 0.706166 -0.708046 0.706166 340.72 691.439)"
        stroke="url(#paint12_linear_7_256)" />
      <circle r="79.0852" transform="matrix(0.708046 0.706166 -0.708046 0.706166 251.7 780.223)"
        stroke="url(#paint13_linear_7_256)" />
      <path
        d="M233.263 656.851C277 656.851 312.454 692.213 312.454 735.831C312.454 779.449 277 814.81 233.263 814.81C189.526 814.81 154.072 779.449 154.072 735.831C154.072 692.213 189.526 656.851 233.263 656.851Z"
        stroke="url(#paint14_linear_7_256)" />
      <path
        d="M359.156 656.851C402.893 656.851 438.347 692.213 438.347 735.831C438.347 779.449 402.893 814.81 359.156 814.81C315.419 814.81 279.965 779.449 279.965 735.831C279.965 692.213 315.419 656.851 359.156 656.851Z"
        stroke="url(#paint15_linear_7_256)" />
      <circle r="79.0852" transform="matrix(0.708046 -0.706166 0.708046 0.706166 257.28 697.314)"
        stroke="url(#paint16_linear_7_256)" />
      <circle r="79.0852" transform="matrix(0.708046 -0.706166 0.708046 0.706166 346.3 786.097)"
        stroke="url(#paint17_linear_7_256)" />
      <path
        d="M981.401 402.013C981.401 445.631 945.947 480.992 902.21 480.992C858.473 480.992 823.019 445.631 823.019 402.013C823.019 358.395 858.473 323.034 902.21 323.034C945.947 323.034 981.401 358.395 981.401 402.013Z"
        stroke="url(#paint18_linear_7_256)" />
      <path
        d="M981.401 527.572C981.401 571.19 945.947 606.551 902.21 606.551C858.473 606.551 823.019 571.19 823.019 527.572C823.019 483.954 858.473 448.592 902.21 448.592C945.947 448.592 981.401 483.954 981.401 527.572Z"
        stroke="url(#paint19_linear_7_256)" />
      <circle r="79.0852" transform="matrix(0.708046 0.706166 -0.708046 0.706166 946.72 420.401)"
        stroke="url(#paint20_linear_7_256)" />
      <circle r="79.0852" transform="matrix(0.708046 0.706166 -0.708046 0.706166 857.7 509.184)"
        stroke="url(#paint21_linear_7_256)" />
      <path
        d="M839.263 385.813C883 385.813 918.454 421.175 918.454 464.792C918.454 508.41 883 543.772 839.263 543.772C795.526 543.772 760.072 508.41 760.072 464.792C760.072 421.175 795.526 385.813 839.263 385.813Z"
        stroke="url(#paint22_linear_7_256)" />
      <path
        d="M965.156 385.813C1008.89 385.813 1044.35 421.175 1044.35 464.792C1044.35 508.41 1008.89 543.772 965.156 543.772C921.419 543.772 885.965 508.41 885.965 464.792C885.965 421.175 921.419 385.813 965.156 385.813Z"
        stroke="url(#paint23_linear_7_256)" />
      <circle r="79.0852" transform="matrix(0.708046 -0.706166 0.708046 0.706166 863.28 426.275)"
        stroke="url(#paint24_linear_7_256)" />
      <circle r="79.0852" transform="matrix(0.708046 -0.706166 0.708046 0.706166 952.3 515.059)"
        stroke="url(#paint25_linear_7_256)" />
      <path
        d="M375.401 402.013C375.401 445.631 339.947 480.992 296.21 480.992C252.473 480.992 217.019 445.631 217.019 402.013C217.019 358.395 252.473 323.034 296.21 323.034C339.947 323.034 375.401 358.395 375.401 402.013Z"
        stroke="url(#paint26_linear_7_256)" />
      <path
        d="M375.401 527.572C375.401 571.19 339.947 606.551 296.21 606.551C252.473 606.551 217.019 571.19 217.019 527.572C217.019 483.954 252.473 448.592 296.21 448.592C339.947 448.592 375.401 483.954 375.401 527.572Z"
        stroke="url(#paint27_linear_7_256)" />
      <circle r="79.0852" transform="matrix(0.708046 0.706166 -0.708046 0.706166 340.72 420.401)"
        stroke="url(#paint28_linear_7_256)" />
      <circle r="79.0852" transform="matrix(0.708046 0.706166 -0.708046 0.706166 251.7 509.184)"
        stroke="url(#paint29_linear_7_256)" />
      <path
        d="M233.263 385.813C277 385.813 312.454 421.175 312.454 464.792C312.454 508.41 277 543.772 233.263 543.772C189.526 543.772 154.072 508.41 154.072 464.792C154.072 421.175 189.526 385.813 233.263 385.813Z"
        stroke="url(#paint30_linear_7_256)" />
      <path
        d="M359.156 385.813C402.893 385.813 438.347 421.175 438.347 464.792C438.347 508.41 402.893 543.772 359.156 543.772C315.419 543.772 279.965 508.41 279.965 464.792C279.965 421.175 315.419 385.813 359.156 385.813Z"
        stroke="url(#paint31_linear_7_256)" />
      <circle r="79.0852" transform="matrix(0.708046 -0.706166 0.708046 0.706166 257.28 426.275)"
        stroke="url(#paint32_linear_7_256)" />
      <circle r="79.0852" transform="matrix(0.708046 -0.706166 0.708046 0.706166 346.3 515.059)"
        stroke="url(#paint33_linear_7_256)" />
    </g>
    <path
      d="M538 619L552.111 604.889V619H538ZM594.444 619V597.833L580.333 611.944V619H566.222V590.778L580.333 576.667V590.778V597.833L594.444 583.722V562.556L608.556 548.444V562.556V590.778V619H594.444ZM650.889 562.556V534.333V520.222L636.778 534.333V562.556V604.889H650.889V562.556ZM650.889 619H636.778H622.667V562.556V534.333L636.778 520.222L650.889 506.111L665 492V506.111V534.333V562.556V619H650.889Z"
      fill="url(#paint34_linear_7_256)" />
    <path
      d="M530.233 649V638.818H531.466V643.352H536.895V638.818H538.128V649H536.895V644.446H531.466V649H530.233ZM540.437 649V641.364H541.61V649H540.437ZM541.034 640.091C540.805 640.091 540.608 640.013 540.442 639.857C540.28 639.701 540.199 639.514 540.199 639.295C540.199 639.077 540.28 638.889 540.442 638.734C540.608 638.578 540.805 638.5 541.034 638.5C541.262 638.5 541.458 638.578 541.62 638.734C541.786 638.889 541.869 639.077 541.869 639.295C541.869 639.514 541.786 639.701 541.62 639.857C541.458 640.013 541.262 640.091 541.034 640.091ZM546.842 652.023C546.275 652.023 545.788 651.95 545.38 651.804C544.972 651.661 544.633 651.473 544.361 651.237C544.093 651.005 543.879 650.757 543.72 650.491L544.654 649.835C544.76 649.974 544.895 650.134 545.057 650.312C545.219 650.495 545.441 650.652 545.723 650.785C546.008 650.921 546.381 650.989 546.842 650.989C547.458 650.989 547.967 650.839 548.368 650.541C548.769 650.243 548.97 649.776 548.97 649.139V647.588H548.87C548.784 647.727 548.661 647.9 548.502 648.105C548.347 648.307 548.121 648.488 547.826 648.647C547.535 648.803 547.14 648.881 546.643 648.881C546.026 648.881 545.473 648.735 544.982 648.443C544.495 648.152 544.109 647.727 543.824 647.17C543.542 646.614 543.401 645.937 543.401 645.142C543.401 644.36 543.539 643.679 543.814 643.099C544.089 642.515 544.472 642.065 544.963 641.746C545.453 641.425 546.02 641.264 546.663 641.264C547.16 641.264 547.554 641.347 547.846 641.513C548.141 641.675 548.366 641.861 548.522 642.07C548.681 642.275 548.804 642.444 548.89 642.577H549.009V641.364H550.143V649.219C550.143 649.875 549.994 650.409 549.695 650.82C549.401 651.234 549.003 651.537 548.502 651.729C548.005 651.925 547.452 652.023 546.842 652.023ZM546.802 647.827C547.273 647.827 547.67 647.719 547.995 647.504C548.32 647.288 548.567 646.978 548.736 646.574C548.905 646.17 548.99 645.686 548.99 645.122C548.99 644.572 548.907 644.086 548.741 643.665C548.575 643.245 548.33 642.915 548.005 642.676C547.68 642.437 547.279 642.318 546.802 642.318C546.305 642.318 545.891 642.444 545.559 642.696C545.231 642.948 544.984 643.286 544.818 643.71C544.656 644.134 544.575 644.605 544.575 645.122C544.575 645.652 544.658 646.121 544.823 646.529C544.992 646.933 545.241 647.252 545.569 647.484C545.901 647.712 546.311 647.827 546.802 647.827ZM553.464 644.406V649H552.291V638.818H553.464V642.557H553.563C553.742 642.162 554.011 641.849 554.369 641.617C554.73 641.382 555.211 641.264 555.811 641.264C556.331 641.264 556.787 641.369 557.178 641.577C557.569 641.783 557.872 642.099 558.088 642.527C558.306 642.951 558.416 643.491 558.416 644.148V649H557.242V644.227C557.242 643.621 557.085 643.152 556.77 642.82C556.459 642.486 556.026 642.318 555.472 642.318C555.088 642.318 554.743 642.399 554.438 642.562C554.137 642.724 553.898 642.961 553.722 643.273C553.55 643.584 553.464 643.962 553.464 644.406ZM573.25 643.909C573.25 644.983 573.056 645.911 572.668 646.693C572.28 647.475 571.748 648.079 571.072 648.503C570.396 648.927 569.624 649.139 568.755 649.139C567.887 649.139 567.115 648.927 566.439 648.503C565.762 648.079 565.23 647.475 564.843 646.693C564.455 645.911 564.261 644.983 564.261 643.909C564.261 642.835 564.455 641.907 564.843 641.125C565.23 640.343 565.762 639.74 566.439 639.315C567.115 638.891 567.887 638.679 568.755 638.679C569.624 638.679 570.396 638.891 571.072 639.315C571.748 639.74 572.28 640.343 572.668 641.125C573.056 641.907 573.25 642.835 573.25 643.909ZM572.056 643.909C572.056 643.027 571.909 642.283 571.614 641.677C571.322 641.07 570.926 640.611 570.426 640.3C569.929 639.988 569.372 639.832 568.755 639.832C568.139 639.832 567.58 639.988 567.08 640.3C566.583 640.611 566.187 641.07 565.892 641.677C565.6 642.283 565.454 643.027 565.454 643.909C565.454 644.791 565.6 645.535 565.892 646.141C566.187 646.748 566.583 647.207 567.08 647.518C567.58 647.83 568.139 647.986 568.755 647.986C569.372 647.986 569.929 647.83 570.426 647.518C570.926 647.207 571.322 646.748 571.614 646.141C571.909 645.535 572.056 644.791 572.056 643.909ZM579.976 645.878V641.364H581.15V649H579.976V647.707H579.897C579.718 648.095 579.439 648.425 579.061 648.697C578.684 648.965 578.206 649.099 577.63 649.099C577.152 649.099 576.728 648.995 576.357 648.786C575.986 648.574 575.694 648.256 575.482 647.832C575.27 647.404 575.164 646.866 575.164 646.216V641.364H576.337V646.136C576.337 646.693 576.493 647.137 576.804 647.469C577.119 647.8 577.52 647.966 578.007 647.966C578.299 647.966 578.596 647.891 578.897 647.742C579.202 647.593 579.458 647.364 579.663 647.056C579.872 646.748 579.976 646.355 579.976 645.878ZM586.619 641.364V642.358H582.662V641.364H586.619ZM583.816 639.534H584.989V646.812C584.989 647.144 585.037 647.393 585.133 647.558C585.232 647.721 585.358 647.83 585.511 647.886C585.667 647.939 585.831 647.966 586.003 647.966C586.132 647.966 586.238 647.959 586.321 647.946C586.404 647.929 586.47 647.916 586.52 647.906L586.759 648.96C586.679 648.99 586.568 649.02 586.426 649.05C586.283 649.083 586.102 649.099 585.884 649.099C585.552 649.099 585.227 649.028 584.909 648.886C584.594 648.743 584.333 648.526 584.124 648.234C583.918 647.943 583.816 647.575 583.816 647.131V639.534ZM588.384 651.864V641.364H589.518V642.577H589.657C589.743 642.444 589.863 642.275 590.015 642.07C590.171 641.861 590.393 641.675 590.681 641.513C590.973 641.347 591.367 641.264 591.865 641.264C592.508 641.264 593.074 641.425 593.565 641.746C594.055 642.068 594.438 642.524 594.713 643.114C594.988 643.704 595.126 644.4 595.126 645.202C595.126 646.01 594.988 646.711 594.713 647.305C594.438 647.895 594.057 648.352 593.57 648.677C593.083 648.998 592.521 649.159 591.884 649.159C591.394 649.159 591.001 649.078 590.706 648.915C590.411 648.75 590.184 648.562 590.025 648.354C589.866 648.142 589.743 647.966 589.657 647.827H589.558V651.864H588.384ZM589.538 645.182C589.538 645.759 589.622 646.267 589.791 646.708C589.96 647.146 590.207 647.489 590.532 647.737C590.857 647.982 591.255 648.105 591.725 648.105C592.216 648.105 592.625 647.976 592.953 647.717C593.285 647.455 593.533 647.104 593.699 646.663C593.868 646.219 593.953 645.725 593.953 645.182C593.953 644.645 593.87 644.161 593.704 643.73C593.542 643.296 593.295 642.953 592.963 642.701C592.635 642.446 592.222 642.318 591.725 642.318C591.248 642.318 590.847 642.439 590.522 642.681C590.197 642.92 589.952 643.254 589.786 643.685C589.621 644.113 589.538 644.612 589.538 645.182ZM601.728 645.878V641.364H602.901V649H601.728V647.707H601.649C601.47 648.095 601.191 648.425 600.813 648.697C600.436 648.965 599.958 649.099 599.382 649.099C598.904 649.099 598.48 648.995 598.109 648.786C597.738 648.574 597.446 648.256 597.234 647.832C597.022 647.404 596.916 646.866 596.916 646.216V641.364H598.089V646.136C598.089 646.693 598.245 647.137 598.556 647.469C598.871 647.8 599.272 647.966 599.759 647.966C600.051 647.966 600.348 647.891 600.649 647.742C600.954 647.593 601.209 647.364 601.415 647.056C601.624 646.748 601.728 646.355 601.728 645.878ZM608.371 641.364V642.358H604.414V641.364H608.371ZM605.567 639.534H606.741V646.812C606.741 647.144 606.789 647.393 606.885 647.558C606.984 647.721 607.11 647.83 607.263 647.886C607.419 647.939 607.583 647.966 607.755 647.966C607.884 647.966 607.99 647.959 608.073 647.946C608.156 647.929 608.222 647.916 608.272 647.906L608.511 648.96C608.431 648.99 608.32 649.02 608.178 649.05C608.035 649.083 607.854 649.099 607.636 649.099C607.304 649.099 606.979 649.028 606.661 648.886C606.346 648.743 606.085 648.526 605.876 648.234C605.67 647.943 605.567 647.575 605.567 647.131V639.534ZM614.651 638.818L617.673 647.389H617.793L620.815 638.818H622.108L618.369 649H617.097L613.358 638.818H614.651ZM626.026 649.159C625.29 649.159 624.655 648.997 624.121 648.672C623.591 648.344 623.182 647.886 622.893 647.3C622.608 646.71 622.466 646.024 622.466 645.241C622.466 644.459 622.608 643.77 622.893 643.173C623.182 642.573 623.583 642.106 624.097 641.771C624.614 641.433 625.217 641.264 625.906 641.264C626.304 641.264 626.697 641.33 627.085 641.463C627.472 641.596 627.825 641.811 628.143 642.109C628.462 642.404 628.715 642.795 628.904 643.283C629.093 643.77 629.188 644.37 629.188 645.082V645.58H623.301V644.565H627.994C627.994 644.134 627.908 643.75 627.736 643.412C627.567 643.074 627.325 642.807 627.01 642.612C626.698 642.416 626.33 642.318 625.906 642.318C625.439 642.318 625.035 642.434 624.693 642.666C624.355 642.895 624.095 643.193 623.913 643.561C623.73 643.929 623.639 644.323 623.639 644.744V645.42C623.639 645.997 623.739 646.486 623.938 646.887C624.14 647.285 624.42 647.588 624.778 647.797C625.136 648.002 625.552 648.105 626.026 648.105C626.334 648.105 626.612 648.062 626.861 647.976C627.113 647.886 627.33 647.754 627.512 647.578C627.694 647.399 627.835 647.177 627.935 646.912L629.068 647.23C628.949 647.615 628.748 647.953 628.467 648.244C628.185 648.533 627.837 648.758 627.423 648.92C627.008 649.08 626.543 649.159 626.026 649.159ZM632.146 644.406V649H630.972V641.364H632.106V642.557H632.205C632.384 642.169 632.656 641.857 633.021 641.622C633.385 641.384 633.856 641.264 634.433 641.264C634.95 641.264 635.402 641.37 635.79 641.582C636.178 641.791 636.479 642.109 636.695 642.537C636.91 642.961 637.018 643.498 637.018 644.148V649H635.844V644.227C635.844 643.627 635.689 643.16 635.377 642.825C635.066 642.487 634.638 642.318 634.094 642.318C633.72 642.318 633.385 642.399 633.09 642.562C632.799 642.724 632.568 642.961 632.399 643.273C632.23 643.584 632.146 643.962 632.146 644.406ZM642.483 641.364V642.358H638.525V641.364H642.483ZM639.679 639.534H640.852V646.812C640.852 647.144 640.9 647.393 640.996 647.558C641.096 647.721 641.222 647.83 641.374 647.886C641.53 647.939 641.694 647.966 641.866 647.966C641.996 647.966 642.102 647.959 642.184 647.946C642.267 647.929 642.334 647.916 642.383 647.906L642.622 648.96C642.542 648.99 642.431 649.02 642.289 649.05C642.146 649.083 641.966 649.099 641.747 649.099C641.416 649.099 641.091 649.028 640.773 648.886C640.458 648.743 640.196 648.526 639.987 648.234C639.782 647.943 639.679 647.575 639.679 647.131V639.534ZM649.06 645.878V641.364H650.233V649H649.06V647.707H648.981C648.802 648.095 648.523 648.425 648.145 648.697C647.768 648.965 647.29 649.099 646.714 649.099C646.236 649.099 645.812 648.995 645.441 648.786C645.07 648.574 644.778 648.256 644.566 647.832C644.354 647.404 644.248 646.866 644.248 646.216V641.364H645.421V646.136C645.421 646.693 645.577 647.137 645.888 647.469C646.203 647.8 646.604 647.966 647.091 647.966C647.383 647.966 647.68 647.891 647.981 647.742C648.286 647.593 648.541 647.364 648.747 647.056C648.956 646.748 649.06 646.355 649.06 645.878ZM652.382 649V641.364H653.516V642.517H653.596C653.735 642.139 653.987 641.833 654.351 641.597C654.716 641.362 655.127 641.244 655.584 641.244C655.67 641.244 655.778 641.246 655.907 641.249C656.037 641.253 656.134 641.258 656.201 641.264V642.457C656.161 642.447 656.07 642.433 655.927 642.413C655.788 642.389 655.641 642.378 655.485 642.378C655.114 642.378 654.782 642.456 654.49 642.612C654.202 642.764 653.973 642.976 653.804 643.248C653.639 643.516 653.556 643.823 653.556 644.168V649H652.382ZM660.561 649.159C659.825 649.159 659.19 648.997 658.657 648.672C658.126 648.344 657.717 647.886 657.429 647.3C657.144 646.71 657.001 646.024 657.001 645.241C657.001 644.459 657.144 643.77 657.429 643.173C657.717 642.573 658.118 642.106 658.632 641.771C659.149 641.433 659.752 641.264 660.441 641.264C660.839 641.264 661.232 641.33 661.62 641.463C662.007 641.596 662.36 641.811 662.679 642.109C662.997 642.404 663.25 642.795 663.439 643.283C663.628 643.77 663.723 644.37 663.723 645.082V645.58H657.836V644.565H662.529C662.529 644.134 662.443 643.75 662.271 643.412C662.102 643.074 661.86 642.807 661.545 642.612C661.234 642.416 660.866 642.318 660.441 642.318C659.974 642.318 659.57 642.434 659.228 642.666C658.89 642.895 658.63 643.193 658.448 643.561C658.266 643.929 658.174 644.323 658.174 644.744V645.42C658.174 645.997 658.274 646.486 658.473 646.887C658.675 647.285 658.955 647.588 659.313 647.797C659.671 648.002 660.087 648.105 660.561 648.105C660.869 648.105 661.147 648.062 661.396 647.976C661.648 647.886 661.865 647.754 662.047 647.578C662.23 647.399 662.37 647.177 662.47 646.912L663.603 647.23C663.484 647.615 663.283 647.953 663.002 648.244C662.72 648.533 662.372 648.758 661.958 648.92C661.543 649.08 661.078 649.159 660.561 649.159ZM670.917 643.074L669.863 643.372C669.796 643.196 669.699 643.026 669.569 642.86C669.443 642.691 669.271 642.552 669.052 642.442C668.833 642.333 668.553 642.278 668.212 642.278C667.745 642.278 667.355 642.386 667.044 642.602C666.735 642.814 666.581 643.084 666.581 643.412C666.581 643.704 666.687 643.934 666.9 644.103C667.112 644.272 667.443 644.413 667.894 644.526L669.027 644.804C669.71 644.97 670.219 645.223 670.554 645.565C670.888 645.903 671.056 646.339 671.056 646.872C671.056 647.31 670.93 647.701 670.678 648.045C670.429 648.39 670.081 648.662 669.634 648.861C669.186 649.06 668.666 649.159 668.073 649.159C667.294 649.159 666.649 648.99 666.139 648.652C665.628 648.314 665.305 647.82 665.169 647.17L666.283 646.892C666.389 647.303 666.59 647.611 666.885 647.817C667.183 648.022 667.572 648.125 668.053 648.125C668.6 648.125 669.034 648.009 669.355 647.777C669.68 647.542 669.843 647.26 669.843 646.932C669.843 646.667 669.75 646.445 669.564 646.266C669.379 646.083 669.094 645.947 668.709 645.858L667.436 645.56C666.737 645.394 666.223 645.137 665.895 644.789C665.57 644.438 665.408 643.999 665.408 643.472C665.408 643.041 665.529 642.66 665.771 642.328C666.016 641.997 666.349 641.737 666.77 641.548C667.194 641.359 667.675 641.264 668.212 641.264C668.968 641.264 669.561 641.43 669.992 641.761C670.426 642.093 670.734 642.53 670.917 643.074Z"
      fill="#9DD0C3" />
    <path
      d="M927.375 374.139C926.626 374.139 925.988 373.935 925.461 373.528C924.934 373.117 924.531 372.522 924.253 371.743C923.974 370.961 923.835 370.016 923.835 368.909C923.835 367.809 923.974 366.869 924.253 366.09C924.535 365.308 924.939 364.711 925.466 364.3C925.996 363.886 926.633 363.679 927.375 363.679C928.117 363.679 928.752 363.886 929.279 364.3C929.809 364.711 930.214 365.308 930.492 366.09C930.774 366.869 930.915 367.809 930.915 368.909C930.915 370.016 930.776 370.961 930.497 371.743C930.219 372.522 929.816 373.117 929.289 373.528C928.762 373.935 928.124 374.139 927.375 374.139ZM927.375 373.045C928.117 373.045 928.694 372.687 929.105 371.972C929.516 371.256 929.722 370.235 929.722 368.909C929.722 368.027 929.627 367.277 929.438 366.657C929.253 366.037 928.984 365.565 928.633 365.24C928.285 364.915 927.866 364.753 927.375 364.753C926.639 364.753 926.064 365.116 925.65 365.842C925.236 366.564 925.028 367.587 925.028 368.909C925.028 369.791 925.121 370.54 925.307 371.156C925.492 371.773 925.759 372.242 926.107 372.563C926.459 372.885 926.881 373.045 927.375 373.045ZM935.986 374.139C935.402 374.139 934.877 374.023 934.41 373.791C933.942 373.559 933.568 373.241 933.286 372.837C933.004 372.432 932.85 371.972 932.824 371.455H934.017C934.063 371.915 934.272 372.296 934.643 372.598C935.018 372.896 935.465 373.045 935.986 373.045C936.403 373.045 936.775 372.948 937.099 372.752C937.428 372.557 937.684 372.288 937.87 371.947C938.059 371.602 938.153 371.213 938.153 370.778C938.153 370.334 938.056 369.938 937.86 369.59C937.668 369.239 937.403 368.962 937.065 368.76C936.727 368.558 936.34 368.455 935.906 368.452C935.595 368.448 935.275 368.496 934.947 368.596C934.619 368.692 934.348 368.816 934.136 368.969L932.983 368.83L933.599 363.818H938.889V364.912H934.634L934.276 367.915H934.335C934.544 367.749 934.806 367.612 935.121 367.502C935.436 367.393 935.764 367.338 936.105 367.338C936.728 367.338 937.283 367.487 937.771 367.786C938.261 368.08 938.646 368.485 938.924 368.999C939.206 369.512 939.347 370.099 939.347 370.759C939.347 371.408 939.201 371.988 938.909 372.499C938.621 373.006 938.223 373.407 937.716 373.702C937.209 373.993 936.632 374.139 935.986 374.139ZM944.941 363.341L941.66 375.531H940.586L943.867 363.341H944.941ZM949.891 363.818V374H948.658V365.111H948.599L946.113 366.761V365.509L948.658 363.818H949.891ZM952.82 374V373.105L956.18 369.426C956.575 368.995 956.9 368.621 957.155 368.303C957.41 367.981 957.599 367.679 957.722 367.398C957.848 367.113 957.911 366.814 957.911 366.503C957.911 366.145 957.824 365.835 957.652 365.573C957.483 365.311 957.251 365.109 956.956 364.967C956.661 364.824 956.33 364.753 955.962 364.753C955.571 364.753 955.229 364.834 954.938 364.996C954.649 365.156 954.425 365.379 954.266 365.668C954.111 365.956 954.033 366.294 954.033 366.682H952.859C952.859 366.085 952.997 365.562 953.272 365.111C953.547 364.66 953.922 364.309 954.396 364.057C954.873 363.805 955.408 363.679 956.001 363.679C956.598 363.679 957.127 363.805 957.587 364.057C958.048 364.309 958.409 364.648 958.671 365.076C958.933 365.504 959.064 365.979 959.064 366.503C959.064 366.877 958.996 367.244 958.86 367.602C958.728 367.956 958.496 368.352 958.164 368.79C957.836 369.224 957.38 369.754 956.797 370.381L954.51 372.827V372.906H959.243V374H952.82ZM964.915 363.341L961.634 375.531H960.56L963.842 363.341H964.915ZM966.286 374V373.105L969.647 369.426C970.042 368.995 970.366 368.621 970.622 368.303C970.877 367.981 971.066 367.679 971.188 367.398C971.314 367.113 971.377 366.814 971.377 366.503C971.377 366.145 971.291 365.835 971.119 365.573C970.95 365.311 970.718 365.109 970.423 364.967C970.128 364.824 969.796 364.753 969.428 364.753C969.037 364.753 968.696 364.834 968.404 364.996C968.116 365.156 967.892 365.379 967.733 365.668C967.577 365.956 967.499 366.294 967.499 366.682H966.326C966.326 366.085 966.464 365.562 966.739 365.111C967.014 364.66 967.388 364.309 967.862 364.057C968.34 363.805 968.875 363.679 969.468 363.679C970.065 363.679 970.593 363.805 971.054 364.057C971.515 364.309 971.876 364.648 972.138 365.076C972.4 365.504 972.531 365.979 972.531 366.503C972.531 366.877 972.463 367.244 972.327 367.602C972.194 367.956 971.962 368.352 971.631 368.79C971.303 369.224 970.847 369.754 970.264 370.381L967.977 372.827V372.906H972.71V374H966.286ZM978.084 374.139C977.335 374.139 976.697 373.935 976.17 373.528C975.643 373.117 975.24 372.522 974.962 371.743C974.683 370.961 974.544 370.016 974.544 368.909C974.544 367.809 974.683 366.869 974.962 366.09C975.244 365.308 975.648 364.711 976.175 364.3C976.705 363.886 977.342 363.679 978.084 363.679C978.826 363.679 979.461 363.886 979.988 364.3C980.518 364.711 980.923 365.308 981.201 366.09C981.483 366.869 981.624 367.809 981.624 368.909C981.624 370.016 981.485 370.961 981.206 371.743C980.928 372.522 980.525 373.117 979.998 373.528C979.471 373.935 978.833 374.139 978.084 374.139ZM978.084 373.045C978.826 373.045 979.403 372.687 979.814 371.972C980.225 371.256 980.431 370.235 980.431 368.909C980.431 368.027 980.336 367.277 980.147 366.657C979.962 366.037 979.693 365.565 979.342 365.24C978.994 364.915 978.575 364.753 978.084 364.753C977.348 364.753 976.773 365.116 976.359 365.842C975.945 366.564 975.737 367.587 975.737 368.909C975.737 369.791 975.83 370.54 976.016 371.156C976.201 371.773 976.468 372.242 976.816 372.563C977.168 372.885 977.59 373.045 978.084 373.045ZM983.513 374V373.105L986.874 369.426C987.268 368.995 987.593 368.621 987.848 368.303C988.103 367.981 988.292 367.679 988.415 367.398C988.541 367.113 988.604 366.814 988.604 366.503C988.604 366.145 988.518 365.835 988.345 365.573C988.176 365.311 987.944 365.109 987.649 364.967C987.354 364.824 987.023 364.753 986.655 364.753C986.264 364.753 985.923 364.834 985.631 364.996C985.343 365.156 985.119 365.379 984.96 365.668C984.804 365.956 984.726 366.294 984.726 366.682H983.553C983.553 366.085 983.69 365.562 983.965 365.111C984.24 364.66 984.615 364.309 985.089 364.057C985.566 363.805 986.102 363.679 986.695 363.679C987.291 363.679 987.82 363.805 988.281 364.057C988.741 364.309 989.103 364.648 989.365 365.076C989.626 365.504 989.757 365.979 989.757 366.503C989.757 366.877 989.689 367.244 989.553 367.602C989.421 367.956 989.189 368.352 988.857 368.79C988.529 369.224 988.074 369.754 987.49 370.381L985.203 372.827V372.906H989.936V374H983.513ZM991.99 374V373.105L995.35 369.426C995.745 368.995 996.07 368.621 996.325 368.303C996.58 367.981 996.769 367.679 996.892 367.398C997.017 367.113 997.08 366.814 997.08 366.503C997.08 366.145 996.994 365.835 996.822 365.573C996.653 365.311 996.421 365.109 996.126 364.967C995.831 364.824 995.499 364.753 995.132 364.753C994.74 364.753 994.399 364.834 994.107 364.996C993.819 365.156 993.595 365.379 993.436 365.668C993.28 365.956 993.203 366.294 993.203 366.682H992.029C992.029 366.085 992.167 365.562 992.442 365.111C992.717 364.66 993.092 364.309 993.566 364.057C994.043 363.805 994.578 363.679 995.171 363.679C995.768 363.679 996.297 363.805 996.757 364.057C997.218 364.309 997.579 364.648 997.841 365.076C998.103 365.504 998.234 365.979 998.234 366.503C998.234 366.877 998.166 367.244 998.03 367.602C997.897 367.956 997.665 368.352 997.334 368.79C997.006 369.224 996.55 369.754 995.967 370.381L993.68 372.827V372.906H998.413V374H991.99Z"
      fill="#808080" />
  </g>
  <text
    style="font-style:bold;font-size:32px;font-family: 'Playfair Display', serif;fill:#F2F2F2;fill-opacity:1;stroke:none;"
    x="50%" y="690" alignment-baseline="middle" text-anchor="middle" id="target">OLORMEISTER</text>
  <defs>
    <style>
      @import url('https://fonts.googleapis.com/css2?family=Playfair+Display:wght@700');
    </style>
    <filter id="filter0_f_7_256" x="697" y="-285" width="961" height="961" filterUnits="userSpaceOnUse"
      color-interpolation-filters="sRGB">
      <feFlood flood-opacity="0" result="BackgroundImageFix" />
      <feBlend mode="normal" in="SourceGraphic" in2="BackgroundImageFix" result="shape" />
      <feGaussianBlur stdDeviation="125" result="effect1_foregroundBlur_7_256" />
    </filter>
    <filter id="filter1_f_7_256" x="327" y="469" width="808" height="808" filterUnits="userSpaceOnUse"
      color-interpolation-filters="sRGB">
      <feFlood flood-opacity="0" result="BackgroundImageFix" />
      <feBlend mode="normal" in="SourceGraphic" in2="BackgroundImageFix" result="shape" />
      <feGaussianBlur stdDeviation="125" result="effect1_foregroundBlur_7_256" />
    </filter>
    <filter id="filter2_f_7_256" x="-201" y="215" width="516" height="516" filterUnits="userSpaceOnUse"
      color-interpolation-filters="sRGB">
      <feFlood flood-opacity="0" result="BackgroundImageFix" />
      <feBlend mode="normal" in="SourceGraphic" in2="BackgroundImageFix" result="shape" />
      <feGaussianBlur stdDeviation="80" result="effect1_foregroundBlur_7_256" />
    </filter>
    <filter id="filter3_f_7_256" x="-55" y="789" width="432" height="432" filterUnits="userSpaceOnUse"
      color-interpolation-filters="sRGB">
      <feFlood flood-opacity="0" result="BackgroundImageFix" />
      <feBlend mode="normal" in="SourceGraphic" in2="BackgroundImageFix" result="shape" />
      <feGaussianBlur stdDeviation="80" result="effect1_foregroundBlur_7_256" />
    </filter>
    <linearGradient id="paint0_linear_7_256" x1="1056.35" y1="886.648" x2="143.816" y2="312.292"
      gradientUnits="userSpaceOnUse">
      <stop stop-color="#131010" />
      <stop offset="1" stop-color="#585353" />
    </linearGradient>
    <linearGradient id="paint1_linear_7_256" x1="-70" y1="172" x2="1118.59" y2="938.081" gradientUnits="userSpaceOnUse">
      <stop stop-color="#808080" />
      <stop offset="0.567757" stop-color="#3E4249" />
      <stop offset="1" stop-color="#808080" />
    </linearGradient>
    <linearGradient id="paint2_linear_7_256" x1="785.079" y1="554.936" x2="1037.3" y2="657.995"
      gradientUnits="userSpaceOnUse">
      <stop stop-color="#808080" />
      <stop offset="0.567757" stop-color="#3E4249" />
      <stop offset="1" stop-color="#808080" />
    </linearGradient>
    <linearGradient id="paint3_linear_7_256" x1="785.079" y1="680.495" x2="1037.3" y2="783.554"
      gradientUnits="userSpaceOnUse">
      <stop stop-color="#808080" />
      <stop offset="0.567757" stop-color="#3E4249" />
      <stop offset="1" stop-color="#808080" />
    </linearGradient>
    <linearGradient id="paint4_linear_7_256" x1="-37.3902" y1="-38.6873" x2="214.689" y2="64.0392"
      gradientUnits="userSpaceOnUse">
      <stop stop-color="#808080" />
      <stop offset="0.567757" stop-color="#3E4249" />
      <stop offset="1" stop-color="#808080" />
    </linearGradient>
    <linearGradient id="paint5_linear_7_256" x1="-37.3902" y1="-38.6873" x2="214.689" y2="64.0392"
      gradientUnits="userSpaceOnUse">
      <stop stop-color="#808080" />
      <stop offset="0.567757" stop-color="#3E4249" />
      <stop offset="1" stop-color="#808080" />
    </linearGradient>
    <linearGradient id="paint6_linear_7_256" x1="720.834" y1="852.65" x2="823.228" y2="600.717"
      gradientUnits="userSpaceOnUse">
      <stop stop-color="#808080" />
      <stop offset="0.567757" stop-color="#3E4249" />
      <stop offset="1" stop-color="#808080" />
    </linearGradient>
    <linearGradient id="paint7_linear_7_256" x1="846.727" y1="852.65" x2="949.121" y2="600.717"
      gradientUnits="userSpaceOnUse">
      <stop stop-color="#808080" />
      <stop offset="0.567757" stop-color="#3E4249" />
      <stop offset="1" stop-color="#808080" />
    </linearGradient>
    <linearGradient id="paint8_linear_7_256" x1="-37.3902" y1="-38.6873" x2="214.689" y2="64.0392"
      gradientUnits="userSpaceOnUse">
      <stop stop-color="#808080" />
      <stop offset="0.567757" stop-color="#3E4249" />
      <stop offset="1" stop-color="#808080" />
    </linearGradient>
    <linearGradient id="paint9_linear_7_256" x1="-37.3902" y1="-38.6873" x2="214.689" y2="64.0392"
      gradientUnits="userSpaceOnUse">
      <stop stop-color="#808080" />
      <stop offset="0.567757" stop-color="#3E4249" />
      <stop offset="1" stop-color="#808080" />
    </linearGradient>
    <linearGradient id="paint10_linear_7_256" x1="179.079" y1="554.936" x2="431.301" y2="657.995"
      gradientUnits="userSpaceOnUse">
      <stop stop-color="#808080" />
      <stop offset="0.567757" stop-color="#3E4249" />
      <stop offset="1" stop-color="#808080" />
    </linearGradient>
    <linearGradient id="paint11_linear_7_256" x1="179.079" y1="680.495" x2="431.301" y2="783.554"
      gradientUnits="userSpaceOnUse">
      <stop stop-color="#808080" />
      <stop offset="0.567757" stop-color="#3E4249" />
      <stop offset="1" stop-color="#808080" />
    </linearGradient>
    <linearGradient id="paint12_linear_7_256" x1="-37.3902" y1="-38.6873" x2="214.689" y2="64.0392"
      gradientUnits="userSpaceOnUse">
      <stop stop-color="#808080" />
      <stop offset="0.567757" stop-color="#3E4249" />
      <stop offset="1" stop-color="#808080" />
    </linearGradient>
    <linearGradient id="paint13_linear_7_256" x1="-37.3902" y1="-38.6873" x2="214.689" y2="64.0392"
      gradientUnits="userSpaceOnUse">
      <stop stop-color="#808080" />
      <stop offset="0.567757" stop-color="#3E4249" />
      <stop offset="1" stop-color="#808080" />
    </linearGradient>
    <linearGradient id="paint14_linear_7_256" x1="114.834" y1="852.65" x2="217.228" y2="600.717"
      gradientUnits="userSpaceOnUse">
      <stop stop-color="#808080" />
      <stop offset="0.567757" stop-color="#3E4249" />
      <stop offset="1" stop-color="#808080" />
    </linearGradient>
    <linearGradient id="paint15_linear_7_256" x1="240.727" y1="852.65" x2="343.121" y2="600.717"
      gradientUnits="userSpaceOnUse">
      <stop stop-color="#808080" />
      <stop offset="0.567757" stop-color="#3E4249" />
      <stop offset="1" stop-color="#808080" />
    </linearGradient>
    <linearGradient id="paint16_linear_7_256" x1="-37.3902" y1="-38.6873" x2="214.689" y2="64.0392"
      gradientUnits="userSpaceOnUse">
      <stop stop-color="#808080" />
      <stop offset="0.567757" stop-color="#3E4249" />
      <stop offset="1" stop-color="#808080" />
    </linearGradient>
    <linearGradient id="paint17_linear_7_256" x1="-37.3902" y1="-38.6873" x2="214.689" y2="64.0392"
      gradientUnits="userSpaceOnUse">
      <stop stop-color="#808080" />
      <stop offset="0.567757" stop-color="#3E4249" />
      <stop offset="1" stop-color="#808080" />
    </linearGradient>
    <linearGradient id="paint18_linear_7_256" x1="785.079" y1="283.898" x2="1037.3" y2="386.957"
      gradientUnits="userSpaceOnUse">
      <stop stop-color="#808080" />
      <stop offset="0.567757" stop-color="#3E4249" />
      <stop offset="1" stop-color="#808080" />
    </linearGradient>
    <linearGradient id="paint19_linear_7_256" x1="785.079" y1="409.457" x2="1037.3" y2="512.515"
      gradientUnits="userSpaceOnUse">
      <stop stop-color="#808080" />
      <stop offset="0.567757" stop-color="#3E4249" />
      <stop offset="1" stop-color="#808080" />
    </linearGradient>
    <linearGradient id="paint20_linear_7_256" x1="-37.3902" y1="-38.6873" x2="214.689" y2="64.0392"
      gradientUnits="userSpaceOnUse">
      <stop stop-color="#808080" />
      <stop offset="0.567757" stop-color="#3E4249" />
      <stop offset="1" stop-color="#808080" />
    </linearGradient>
    <linearGradient id="paint21_linear_7_256" x1="-37.3902" y1="-38.6873" x2="214.689" y2="64.0392"
      gradientUnits="userSpaceOnUse">
      <stop stop-color="#808080" />
      <stop offset="0.567757" stop-color="#3E4249" />
      <stop offset="1" stop-color="#808080" />
    </linearGradient>
    <linearGradient id="paint22_linear_7_256" x1="720.834" y1="581.612" x2="823.228" y2="329.678"
      gradientUnits="userSpaceOnUse">
      <stop stop-color="#808080" />
      <stop offset="0.567757" stop-color="#3E4249" />
      <stop offset="1" stop-color="#808080" />
    </linearGradient>
    <linearGradient id="paint23_linear_7_256" x1="846.727" y1="581.612" x2="949.121" y2="329.678"
      gradientUnits="userSpaceOnUse">
      <stop stop-color="#808080" />
      <stop offset="0.567757" stop-color="#3E4249" />
      <stop offset="1" stop-color="#808080" />
    </linearGradient>
    <linearGradient id="paint24_linear_7_256" x1="-37.3902" y1="-38.6873" x2="214.689" y2="64.0392"
      gradientUnits="userSpaceOnUse">
      <stop stop-color="#808080" />
      <stop offset="0.567757" stop-color="#3E4249" />
      <stop offset="1" stop-color="#808080" />
    </linearGradient>
    <linearGradient id="paint25_linear_7_256" x1="-37.3902" y1="-38.6873" x2="214.689" y2="64.0392"
      gradientUnits="userSpaceOnUse">
      <stop stop-color="#808080" />
      <stop offset="0.567757" stop-color="#3E4249" />
      <stop offset="1" stop-color="#808080" />
    </linearGradient>
    <linearGradient id="paint26_linear_7_256" x1="179.079" y1="283.898" x2="431.301" y2="386.957"
      gradientUnits="userSpaceOnUse">
      <stop stop-color="#808080" />
      <stop offset="0.567757" stop-color="#3E4249" />
      <stop offset="1" stop-color="#808080" />
    </linearGradient>
    <linearGradient id="paint27_linear_7_256" x1="179.079" y1="409.457" x2="431.301" y2="512.515"
      gradientUnits="userSpaceOnUse">
      <stop stop-color="#808080" />
      <stop offset="0.567757" stop-color="#3E4249" />
      <stop offset="1" stop-color="#808080" />
    </linearGradient>
    <linearGradient id="paint28_linear_7_256" x1="-37.3902" y1="-38.6873" x2="214.689" y2="64.0392"
      gradientUnits="userSpaceOnUse">
      <stop stop-color="#808080" />
      <stop offset="0.567757" stop-color="#3E4249" />
      <stop offset="1" stop-color="#808080" />
    </linearGradient>
    <linearGradient id="paint29_linear_7_256" x1="-37.3902" y1="-38.6873" x2="214.689" y2="64.0392"
      gradientUnits="userSpaceOnUse">
      <stop stop-color="#808080" />
      <stop offset="0.567757" stop-color="#3E4249" />
      <stop offset="1" stop-color="#808080" />
    </linearGradient>
    <linearGradient id="paint30_linear_7_256" x1="114.834" y1="581.612" x2="217.228" y2="329.678"
      gradientUnits="userSpaceOnUse">
      <stop stop-color="#808080" />
      <stop offset="0.567757" stop-color="#3E4249" />
      <stop offset="1" stop-color="#808080" />
    </linearGradient>
    <linearGradient id="paint31_linear_7_256" x1="240.727" y1="581.612" x2="343.121" y2="329.678"
      gradientUnits="userSpaceOnUse">
      <stop stop-color="#808080" />
      <stop offset="0.567757" stop-color="#3E4249" />
      <stop offset="1" stop-color="#808080" />
    </linearGradient>
    <linearGradient id="paint32_linear_7_256" x1="-37.3902" y1="-38.6873" x2="214.689" y2="64.0392"
      gradientUnits="userSpaceOnUse">
      <stop stop-color="#808080" />
      <stop offset="0.567757" stop-color="#3E4249" />
      <stop offset="1" stop-color="#808080" />
    </linearGradient>
    <linearGradient id="paint33_linear_7_256" x1="-37.3902" y1="-38.6873" x2="214.689" y2="64.0392"
      gradientUnits="userSpaceOnUse">
      <stop stop-color="#808080" />
      <stop offset="0.567757" stop-color="#3E4249" />
      <stop offset="1" stop-color="#808080" />
    </linearGradient>
    <linearGradient id="paint34_linear_7_256" x1="508.167" y1="461.132" x2="709.297" y2="543.096"
      gradientUnits="userSpaceOnUse">
      <stop stop-color="#808080" />
      <stop offset="1" stop-color="#808080" />
    </linearGradient>
    <clipPath id="clip0_7_256">
      <rect width="1200" height="1200" fill="white" />
    </clipPath>
  </defs>
</svg>