<svg width="1920" height="1920" viewBox="0 0 1920 1920" fill="none" xmlns="http://www.w3.org/2000/svg">
<rect width="1920" height="1920" fill="#E5E5E5"/>
<g clip-path="url(#clip0_122_143)">
<rect width="1920" height="1920" fill="white"/>
<path d="M588.438 -427.308L-86.7139 247.861L407.537 2092.43M588.438 -427.308L1510.72 -180.171L2004.97 1664.4M588.438 -427.308L712.004 33.8449M2004.97 1664.4L1329.82 2339.57M2004.97 1664.4L1543.85 1540.84M1329.82 2339.57L407.537 2092.43M1329.82 2339.57L1206.25 1878.41M407.537 2092.43L745.099 1754.87M-86.7142 247.858L374.405 371.417L712.004 33.8426L1173.16 157.392L1510.72 -180.173M745.099 1754.87L1206.26 1878.42L1543.85 1540.84M745.099 1754.87L374.407 371.421M1543.85 1540.84L1173.16 157.395M1667.4 -89.7122L2342.57 585.438L2095.43 1507.72M1667.4 -89.7122L-177.171 404.538M1667.4 -89.7122L1543.84 371.407L1881.41 709.006L1757.86 1170.16M2095.43 1507.72L250.86 2001.97M2095.43 1507.72L1757.86 1170.16M250.86 2001.97L-424.309 1326.82L-177.171 404.538M250.86 2001.97L374.42 1540.85M-177.171 404.538L160.394 742.1L36.845 1203.26L374.42 1540.85M1757.86 1170.16L374.42 1540.85M1543.84 371.41L160.394 742.103M2342.57 585.44L1881.41 709.008M36.8452 1203.26L-424.308 1326.82M2199.86 719.371L2198.35 1674.22L1370.68 2150.31M2199.86 719.371L547.572 -238.052M2199.86 719.371L1786.03 957.433L1785.27 1434.86L1371.45 1672.92L1370.68 2150.31M1370.68 2150.31L-281.6 1192.9M-281.6 1192.9L-280.099 238.06M-281.6 1192.9L132.228 954.835L132.983 477.412M-280.099 238.06L547.572 -238.052M-280.099 238.06L132.983 477.412M547.572 -238.052L546.811 239.35L132.983 477.412M1786.03 957.432L546.811 239.347M1371.45 1672.92L132.229 954.838M2198.35 1674.22L1785.28 1434.86M-233.756 1371.46L244.965 2197.63L1199.8 2196.09M-233.756 1371.46L718.455 -283.84M-233.756 1371.46L243.661 1370.71L483.026 1783.79L960.443 1783.05L1199.8 2196.09M1199.8 2196.09L2152.01 540.813M2152.01 540.813L1673.28 -285.347M2152.01 540.813L1674.6 541.559L1435.23 128.476M1673.28 -285.347L718.455 -283.84M1673.28 -285.347L1435.23 128.476M718.455 -283.84L957.814 129.222L1435.23 128.476M243.661 1370.71L957.815 129.219M960.445 1783.05L1674.6 541.561M244.966 2197.62L483.028 1783.79" stroke="black" stroke-opacity="0.1" stroke-width="3" stroke-miterlimit="10" stroke-linecap="round" stroke-linejoin="round"/>
<g filter="url(#filter0_d_122_143)">
<g clip-path="url(#clip1_122_143)">
<rect x="248.633" y="777.911" width="1280" height="720" rx="50" transform="rotate(-15 248.633 777.911)" fill="#171717"/>
<path d="M793.319 337.944L491.627 639.644L712.483 1463.89M793.319 337.944L1205.44 448.378L1426.3 1272.63M793.319 337.944L848.535 544.011M1426.3 1272.63L1124.61 1574.33M1426.3 1272.63L1220.25 1217.41M1124.61 1574.33L712.483 1463.89M1124.61 1574.33L1069.39 1368.26M712.483 1463.89L863.323 1313.05M491.626 639.643L697.678 694.856L848.534 544.01L1054.6 599.218L1205.44 448.377M863.323 1313.05L1069.39 1368.26L1220.25 1217.41M863.323 1313.05L697.679 694.857M1220.25 1217.41L1054.6 599.22M1275.45 488.799L1577.16 790.491L1466.72 1202.62M1275.45 488.799L451.206 709.656M1275.45 488.799L1220.24 694.851L1371.09 845.708L1315.88 1051.78M1466.72 1202.62L642.472 1423.47M1466.72 1202.62L1315.88 1051.78M642.472 1423.47L340.772 1121.78L451.206 709.656M642.472 1423.47L697.685 1217.42M451.206 709.656L602.047 860.496L546.839 1066.56L697.685 1217.42M1315.88 1051.78L697.685 1217.42M1220.24 694.852L602.047 860.497M1577.16 790.492L1371.09 845.708M546.839 1066.57L340.772 1121.78M1513.38 850.339L1512.71 1277.01L1142.87 1489.75M1513.38 850.339L775.058 422.514M1513.38 850.339L1328.46 956.718L1328.13 1170.06L1143.21 1276.43L1142.87 1489.75M1142.87 1489.75L404.541 1061.94M404.541 1061.94L405.212 635.265M404.541 1061.94L589.461 955.557L589.798 742.219M405.212 635.265L775.058 422.514M405.212 635.265L589.798 742.219M775.058 422.514L774.718 635.841L589.798 742.219M1328.46 956.717L774.718 635.84M1143.21 1276.43L589.462 955.558M1512.71 1277.01L1328.13 1170.05M425.921 1141.72L639.838 1510.9L1066.51 1510.21M425.921 1141.72L851.417 402.053M425.921 1141.72L639.255 1141.39L746.216 1325.98L959.55 1325.64L1066.51 1510.21M1066.51 1510.21L1492 770.55M1492 770.55L1278.08 401.38M1492 770.55L1278.67 770.884L1171.71 586.297M1278.08 401.38L851.417 402.053M1278.08 401.38L1171.71 586.297M851.417 402.053L958.375 586.63L1171.71 586.297M639.255 1141.39L958.375 586.629M959.551 1325.65L1278.67 770.885M639.838 1510.9L746.216 1325.98" stroke="url(#paint0_radial_122_143)" stroke-opacity="0.5" stroke-width="6" stroke-miterlimit="10" stroke-linecap="round" stroke-linejoin="round"/>
<ellipse opacity="0.2" cx="430.895" cy="874.703" rx="591.667" ry="579.333" transform="rotate(-15 430.895 874.703)" fill="url(#paint1_radial_122_143)"/>
<text transform="translate(455.515 1383.87) rotate(-15)" fill="#E8E8E8" xml:space="preserve" style="white-space: pre" font-family="Inter" font-size="32.03" letter-spacing="0em"><tspan x="0" y="31.1473">High Output Ventures</tspan></text>
<text transform="translate(1431.74 1122.29) rotate(-15)" fill="#E8E8E8" xml:space="preserve" style="white-space: pre" font-family="Inter" font-size="32.03" letter-spacing="0em"><tspan x="0.859726" y="31.1473">Gold Edition</tspan></text>
<text transform="translate(576.325 1108.36) rotate(-15)" fill="#E8E8E8" xml:space="preserve" style="white-space: pre" font-family="Aleo" font-size="32.03" font-weight="bold" letter-spacing="0.2em"><tspan x="312.329" y="28.7691">ALEXANDER LUIE JHAMES SARITA PBD</tspan></text>
<path d="M859.474 982.795L875.773 955.191L881.583 976.871L859.474 982.795ZM947.909 959.099L939.196 926.579L922.896 954.183L925.801 965.023L903.692 970.947L892.073 927.587L908.373 899.983L914.183 921.663L917.087 932.503L933.387 904.899L924.673 872.38L940.973 844.776L946.782 866.456L958.4 909.815L970.019 953.174L947.909 959.099ZM1013.11 848.684L1001.49 805.325L995.682 783.645L979.382 811.248L991 854.608L1008.43 919.646L1030.54 913.722L1013.11 848.684ZM1036.35 935.402L1014.24 941.326L992.127 947.25L968.891 860.532L957.273 817.173L973.573 789.569L989.873 761.965L1006.17 734.361L1011.98 756.041L1023.6 799.4L1035.22 842.76L1058.45 929.478L1036.35 935.402Z" fill="#E8E8E8"/>
</g>
</g>
</g>
<defs>
<filter id="filter0_d_122_143" x="228.633" y="406.622" width="1622.73" height="1226.75" filterUnits="userSpaceOnUse" color-interpolation-filters="sRGB">
<feFlood flood-opacity="0" result="BackgroundImageFix"/>
<feColorMatrix in="SourceAlpha" type="matrix" values="0 0 0 0 0 0 0 0 0 0 0 0 0 0 0 0 0 0 127 0" result="hardAlpha"/>
<feOffset dx="80" dy="60"/>
<feGaussianBlur stdDeviation="50"/>
<feComposite in2="hardAlpha" operator="out"/>
<feColorMatrix type="matrix" values="0 0 0 0 0 0 0 0 0 0 0 0 0 0 0 0 0 0 0.5 0"/>
<feBlend mode="normal" in2="BackgroundImageFix" result="effect1_dropShadow_122_143"/>
<feBlend mode="normal" in="SourceGraphic" in2="effect1_dropShadow_122_143" result="shape"/>
</filter>
<radialGradient id="paint0_radial_122_143" cx="0" cy="0" r="1" gradientUnits="userSpaceOnUse" gradientTransform="translate(215.101 784.135) rotate(13.7391) scale(1540.42)">
<stop offset="0.168894" stop-color="#FFC045"/>
<stop offset="0.336213" stop-color="#F1A026"/>
<stop offset="0.501662" stop-color="#F99909"/>
<stop offset="0.822917"/>
</radialGradient>
<radialGradient id="paint1_radial_122_143" cx="0" cy="0" r="1" gradientUnits="userSpaceOnUse" gradientTransform="translate(430.895 874.703) rotate(90) scale(579.333 591.667)">
<stop stop-color="white" stop-opacity="0.5"/>
<stop offset="1" stop-color="#D9D9D9" stop-opacity="0"/>
</radialGradient>
<clipPath id="clip0_122_143">
<rect width="1920" height="1920" fill="white"/>
</clipPath>
<clipPath id="clip1_122_143">
<rect x="248.633" y="777.911" width="1280" height="720" rx="50" transform="rotate(-15 248.633 777.911)" fill="white"/>
</clipPath>
</defs>
</svg>
