<svg width="1920" height="1920" viewBox="0 0 1920 1920" fill="none" xmlns="http://www.w3.org/2000/svg">
<rect width="1920" height="1920" fill="#E5E5E5"/>
<g clip-path="url(#clip0_122_143)">
<rect width="1920" height="1920" fill="white"/>
<path fill-rule="evenodd" clip-rule="evenodd" d="M-3624.34 97.2213L-757.152 1524.22L-870.117 431.789L-3624.34 97.2213Z" stroke="black" stroke-opacity="0.1" stroke-width="3" stroke-miterlimit="10" stroke-linecap="square"/>
<path fill-rule="evenodd" clip-rule="evenodd" d="M-1280.05 -530.623L-12.5377 -692.453L-679.633 1757.17L-1280.05 -530.623Z" stroke="black" stroke-opacity="0.1" stroke-width="3" stroke-miterlimit="10" stroke-linecap="square"/>
<path fill-rule="evenodd" clip-rule="evenodd" d="M285.735 -617.483L-339.852 1620.5L1804.7 -604.462L285.735 -617.483Z" stroke="black" stroke-opacity="0.1" stroke-width="3" stroke-miterlimit="10" stroke-linecap="square"/>
<path fill-rule="evenodd" clip-rule="evenodd" d="M849.126 -323.179L2366.09 -249.072L-467.871 1829.78L849.126 -323.179Z" stroke="black" stroke-opacity="0.1" stroke-width="3" stroke-miterlimit="10" stroke-linecap="square"/>
<path fill-rule="evenodd" clip-rule="evenodd" d="M2110.5 214.5L2731.84 611.358L-286.452 1802.93L2110.5 214.5Z" stroke="black" stroke-opacity="0.1" stroke-width="3" stroke-miterlimit="10" stroke-linecap="square"/>
<path fill-rule="evenodd" clip-rule="evenodd" d="M2967.39 946.423L-180.321 1819.43L2974.03 1521.21L2967.39 946.423Z" stroke="black" stroke-opacity="0.1" stroke-width="3" stroke-miterlimit="10" stroke-linecap="square"/>
<path fill-rule="evenodd" clip-rule="evenodd" d="M2527.55 1682.53L-540.122 1895.5L2713.49 2169.74L2527.55 1682.53Z" stroke="black" stroke-opacity="0.1" stroke-width="3" stroke-miterlimit="10" stroke-linecap="square"/>
<path fill-rule="evenodd" clip-rule="evenodd" d="M2433.46 2413.11L-676.296 1921.11L1816.74 3373.25L2433.46 2413.11Z" stroke="black" stroke-opacity="0.1" stroke-width="3" stroke-miterlimit="10" stroke-linecap="square"/>
<path fill-rule="evenodd" clip-rule="evenodd" d="M1394.32 2953.52L-417.759 2011.55L144.432 3901.11L1394.32 2953.52Z" stroke="black" stroke-opacity="0.1" stroke-width="3" stroke-miterlimit="10" stroke-linecap="square"/>
<g filter="url(#filter0_d_122_143)">
<g clip-path="url(#clip1_122_143)">
<rect x="248.633" y="777.911" width="1280" height="720" rx="50" transform="rotate(-15 248.633 777.911)" fill="#171717"/>
<path fill-rule="evenodd" clip-rule="evenodd" d="M-162.259 343.03L484.847 989.696L486.18 578.704L-162.259 343.03Z" stroke="url(#paint0_radial_122_143)" stroke-opacity="0.5" stroke-width="6" stroke-miterlimit="10" stroke-linecap="square"/>
<path fill-rule="evenodd" clip-rule="evenodd" d="M413.296 204.096L719.889 195.064L497.31 1079.49L413.296 204.096Z" stroke="url(#paint1_radial_122_143)" stroke-opacity="0.5" stroke-width="6" stroke-miterlimit="10" stroke-linecap="square"/>
<path fill-rule="evenodd" clip-rule="evenodd" d="M789.109 234.998L548.975 988.339L1151.17 301.17L789.109 234.998Z" stroke="url(#paint2_radial_122_143)" stroke-opacity="0.5" stroke-width="6" stroke-miterlimit="10" stroke-linecap="square"/>
<path fill-rule="evenodd" clip-rule="evenodd" d="M915.903 367.238L1275.9 456.056L545.953 1115.05L915.903 367.238Z" stroke="url(#paint3_radial_122_143)" stroke-opacity="0.5" stroke-width="6" stroke-miterlimit="10" stroke-linecap="square"/>
<path fill-rule="evenodd" clip-rule="evenodd" d="M1128.6 689.459L1340.88 790.939L589.931 1112.39L1128.6 689.459Z" stroke="url(#paint4_radial_122_143)" stroke-opacity="0.5" stroke-width="6" stroke-miterlimit="10" stroke-linecap="square"/>
<path fill-rule="evenodd" clip-rule="evenodd" d="M1388.41 925.107L614.824 1122.81L1375.11 1139.22L1388.41 925.107Z" stroke="url(#paint5_radial_122_143)" stroke-opacity="0.5" stroke-width="6" stroke-miterlimit="10" stroke-linecap="square"/>
<path fill-rule="evenodd" clip-rule="evenodd" d="M1264.41 1181.21L527.013 1136.59L1296.16 1369.98L1264.41 1181.21Z" stroke="url(#paint6_radial_122_143)" stroke-opacity="0.5" stroke-width="6" stroke-miterlimit="10" stroke-linecap="square"/>
<path fill-rule="evenodd" clip-rule="evenodd" d="M1223.05 1449.22L493.862 1140.62L1051.05 1781.53L1223.05 1449.22Z" stroke="url(#paint7_radial_122_143)" stroke-opacity="0.5" stroke-width="6" stroke-miterlimit="10" stroke-linecap="square"/>
<path fill-rule="evenodd" clip-rule="evenodd" d="M961.138 1608.32L553.202 1184.7L638.406 1910.4L961.138 1608.32Z" stroke="url(#paint8_radial_122_143)" stroke-opacity="0.5" stroke-width="6" stroke-miterlimit="10" stroke-linecap="square"/>
<ellipse opacity="0.2" cx="430.894" cy="874.702" rx="591.667" ry="579.333" transform="rotate(-15 430.894 874.702)" fill="url(#paint9_radial_122_143)"/>
<text transform="translate(455.514 1383.87) rotate(-15)" fill="#E8E8E8" xml:space="preserve" style="white-space: pre" font-family="Inter" font-size="32.03" letter-spacing="0em"><tspan x="0" y="31.1473">High Output Ventures</tspan></text>
<text transform="translate(1444.3 1118.92) rotate(-15)" fill="#E8E8E8" xml:space="preserve" style="white-space: pre" font-family="Inter" font-size="32.03" letter-spacing="0em"><tspan x="0.559113" y="31.1473">Iron Edition</tspan></text>
<text transform="translate(576.324 1108.36) rotate(-15)" fill="#E8E8E8" xml:space="preserve" style="white-space: pre" font-family="Aleo" font-size="32.03" font-weight="bold" letter-spacing="0.2em"><tspan x="312.329" y="28.7691">ALEXANDER LUIE JHAMES SARITA PBD</tspan></text>
<path d="M859.473 982.795L875.773 955.191L881.582 976.871L859.473 982.795ZM947.909 959.099L939.196 926.579L922.896 954.183L925.8 965.023L903.691 970.947L892.073 927.588L908.373 899.984L914.182 921.663L917.087 932.503L933.386 904.9L924.673 872.38L940.973 844.776L946.782 866.456L958.4 909.815L970.018 953.175L947.909 959.099ZM1013.11 848.684L1001.49 805.325L995.681 783.645L979.382 811.249L991 854.608L1008.43 919.647L1030.54 913.723L1013.11 848.684ZM1036.34 935.402L1014.24 941.326L992.127 947.251L968.891 860.532L957.273 817.173L973.573 789.569L989.872 761.965L1006.17 734.361L1011.98 756.041L1023.6 799.401L1035.22 842.76L1058.45 929.478L1036.34 935.402Z" fill="#E8E8E8"/>
</g>
</g>
</g>
<defs>
<filter id="filter0_d_122_143" x="228.633" y="406.622" width="1622.73" height="1226.75" filterUnits="userSpaceOnUse" color-interpolation-filters="sRGB">
<feFlood flood-opacity="0" result="BackgroundImageFix"/>
<feColorMatrix in="SourceAlpha" type="matrix" values="0 0 0 0 0 0 0 0 0 0 0 0 0 0 0 0 0 0 127 0" result="hardAlpha"/>
<feOffset dx="80" dy="60"/>
<feGaussianBlur stdDeviation="50"/>
<feComposite in2="hardAlpha" operator="out"/>
<feColorMatrix type="matrix" values="0 0 0 0 0 0 0 0 0 0 0 0 0 0 0 0 0 0 0.5 0"/>
<feBlend mode="normal" in2="BackgroundImageFix" result="effect1_dropShadow_122_143"/>
<feBlend mode="normal" in="SourceGraphic" in2="effect1_dropShadow_122_143" result="shape"/>
</filter>
<radialGradient id="paint0_radial_122_143" cx="0" cy="0" r="1" gradientUnits="userSpaceOnUse" gradientTransform="translate(287.02 810.416) rotate(13.3337) scale(1268.68 1146.89)">
<stop stop-color="#DEBC79"/>
<stop offset="0.385417" stop-color="#817254"/>
<stop offset="0.767564"/>
</radialGradient>
<radialGradient id="paint1_radial_122_143" cx="0" cy="0" r="1" gradientUnits="userSpaceOnUse" gradientTransform="translate(287.02 810.416) rotate(13.3337) scale(1268.68 1146.89)">
<stop stop-color="#DEBC79"/>
<stop offset="0.385417" stop-color="#817254"/>
<stop offset="0.767564"/>
</radialGradient>
<radialGradient id="paint2_radial_122_143" cx="0" cy="0" r="1" gradientUnits="userSpaceOnUse" gradientTransform="translate(287.02 810.416) rotate(13.3337) scale(1268.68 1146.89)">
<stop stop-color="#DEBC79"/>
<stop offset="0.385417" stop-color="#817254"/>
<stop offset="0.767564"/>
</radialGradient>
<radialGradient id="paint3_radial_122_143" cx="0" cy="0" r="1" gradientUnits="userSpaceOnUse" gradientTransform="translate(287.02 810.416) rotate(13.3337) scale(1268.68 1146.89)">
<stop stop-color="#DEBC79"/>
<stop offset="0.385417" stop-color="#817254"/>
<stop offset="0.767564"/>
</radialGradient>
<radialGradient id="paint4_radial_122_143" cx="0" cy="0" r="1" gradientUnits="userSpaceOnUse" gradientTransform="translate(287.02 810.416) rotate(13.3337) scale(1268.68 1146.89)">
<stop stop-color="#DEBC79"/>
<stop offset="0.385417" stop-color="#817254"/>
<stop offset="0.767564"/>
</radialGradient>
<radialGradient id="paint5_radial_122_143" cx="0" cy="0" r="1" gradientUnits="userSpaceOnUse" gradientTransform="translate(287.02 810.416) rotate(13.3337) scale(1268.68 1146.89)">
<stop stop-color="#DEBC79"/>
<stop offset="0.385417" stop-color="#817254"/>
<stop offset="0.767564"/>
</radialGradient>
<radialGradient id="paint6_radial_122_143" cx="0" cy="0" r="1" gradientUnits="userSpaceOnUse" gradientTransform="translate(287.02 810.416) rotate(13.3337) scale(1268.68 1146.89)">
<stop stop-color="#DEBC79"/>
<stop offset="0.385417" stop-color="#817254"/>
<stop offset="0.767564"/>
</radialGradient>
<radialGradient id="paint7_radial_122_143" cx="0" cy="0" r="1" gradientUnits="userSpaceOnUse" gradientTransform="translate(287.02 810.416) rotate(13.3337) scale(1268.68 1146.89)">
<stop stop-color="#DEBC79"/>
<stop offset="0.385417" stop-color="#817254"/>
<stop offset="0.767564"/>
</radialGradient>
<radialGradient id="paint8_radial_122_143" cx="0" cy="0" r="1" gradientUnits="userSpaceOnUse" gradientTransform="translate(287.02 810.416) rotate(13.3337) scale(1268.68 1146.89)">
<stop stop-color="#DEBC79"/>
<stop offset="0.385417" stop-color="#817254"/>
<stop offset="0.767564"/>
</radialGradient>
<radialGradient id="paint9_radial_122_143" cx="0" cy="0" r="1" gradientUnits="userSpaceOnUse" gradientTransform="translate(430.894 874.702) rotate(90) scale(579.333 591.667)">
<stop stop-color="white" stop-opacity="0.5"/>
<stop offset="1" stop-color="#D9D9D9" stop-opacity="0"/>
</radialGradient>
<clipPath id="clip0_122_143">
<rect width="1920" height="1920" fill="white"/>
</clipPath>
<clipPath id="clip1_122_143">
<rect x="248.633" y="777.911" width="1280" height="720" rx="50" transform="rotate(-15 248.633 777.911)" fill="white"/>
</clipPath>
</defs>
</svg>
