<svg width="1920" height="1920" viewBox="0 0 1920 1920" fill="none" xmlns="http://www.w3.org/2000/svg">
<rect width="1920" height="1920" fill="#E5E5E5"/>
<g clip-path="url(#clip0_122_143)">
<rect width="1920" height="1920" fill="white"/>
<path d="M2126.17 643.327L2127.61 642.933L2126.83 640.038L2125.38 640.433L2126.17 643.327ZM-205.179 1275.66L-206.626 1276.05L-205.837 1278.95L-204.39 1278.55L-205.179 1275.66ZM2608.16 512.63L2609.46 513.38L2610.21 512.081L2608.91 511.331L2608.16 512.63ZM2404.28 394.918L2405.03 393.619L2404.49 393.309L2403.89 393.469L2404.28 394.918ZM2243.48 438.004L2243.09 436.555L2242.49 436.716L2242.18 437.254L2243.48 438.004ZM2125.77 641.886L2124.47 641.136L2123.72 642.435L2125.02 643.185L2125.77 641.886ZM2329.65 759.597L2328.9 760.896L2329.44 761.207L2330.04 761.046L2329.65 759.597ZM2490.45 716.512L2490.84 717.961L2491.44 717.8L2491.75 717.262L2490.45 716.512ZM2286.57 598.806L2285.27 598.056L2284.52 599.355L2285.82 600.105L2286.57 598.806ZM-687.178 1406.38L-688.477 1405.63L-689.227 1406.93L-687.928 1407.68L-687.178 1406.38ZM-569.466 1202.49L-569.854 1201.04L-570.454 1201.21L-570.765 1201.74L-569.466 1202.49ZM-408.669 1159.41L-407.919 1158.11L-408.457 1157.8L-409.057 1157.96L-408.669 1159.41ZM-204.786 1277.12L-203.488 1277.87L-202.737 1276.57L-204.036 1275.82L-204.786 1277.12ZM-322.498 1481L-322.11 1482.45L-321.51 1482.29L-321.199 1481.75L-322.498 1481ZM-483.295 1524.09L-484.045 1525.39L-483.507 1525.7L-482.907 1525.54L-483.295 1524.09ZM90.0299 122.205L88.9476 121.167L86.8706 123.331L87.953 124.37L90.0299 122.205ZM1830.98 1796.77L1832.06 1797.8L1834.14 1795.64L1833.05 1794.6L1830.98 1796.77ZM-272.869 -220.899L-272.907 -222.398L-274.406 -222.361L-274.369 -220.861L-272.869 -220.899ZM-37.5236 -226.78L-36.4896 -227.867L-36.9398 -228.295L-37.561 -228.28L-37.5236 -226.78ZM83.079 -112.043L84.5785 -112.081L84.5629 -112.702L84.1128 -113.13L83.079 -112.043ZM88.9901 123.298L89.0276 124.797L90.5273 124.76L90.4896 123.26L88.9901 123.298ZM-146.372 129.183L-147.406 130.27L-146.955 130.698L-146.334 130.683L-146.372 129.183ZM-266.988 14.45L-268.487 14.4874L-268.472 15.1085L-268.021 15.5367L-266.988 14.45ZM-31.6434 8.56653L-31.606 10.066L-30.1064 10.0286L-30.1438 8.52905L-31.6434 8.56653ZM2193.89 2139.9L2193.93 2141.4L2195.43 2141.36L2195.39 2139.86L2193.89 2139.9ZM2188.01 1904.54L2189.51 1904.5L2189.49 1903.88L2189.04 1903.45L2188.01 1904.54ZM2067.37 1789.82L2068.41 1788.73L2067.96 1788.3L2067.34 1788.32L2067.37 1789.82ZM1832.01 1795.7L1831.98 1794.2L1830.48 1794.24L1830.52 1795.74L1832.01 1795.7ZM1837.92 2031.02L1836.42 2031.06L1836.44 2031.68L1836.89 2032.1L1837.92 2031.02ZM1958.53 2145.78L1957.49 2146.86L1957.94 2147.29L1958.57 2147.28L1958.53 2145.78ZM1952.65 1910.42L1952.61 1908.92L1951.11 1908.96L1951.15 1910.46L1952.65 1910.42ZM225.766 535.848L225.378 534.399C224.994 534.502 224.666 534.754 224.467 535.098C224.269 535.443 224.215 535.852 224.318 536.236L225.766 535.848ZM1383.63 225.599L1385.08 225.211C1384.87 224.41 1384.05 223.935 1383.25 224.15L1383.63 225.599ZM1693.88 1383.46L1694.27 1384.91C1694.66 1384.81 1694.98 1384.56 1695.18 1384.21C1695.38 1383.87 1695.44 1383.46 1695.33 1383.08L1693.88 1383.46ZM536.016 1693.71L534.567 1694.1C534.782 1694.9 535.604 1695.38 536.404 1695.16L536.016 1693.71ZM-13.8929 396.913L-14.2811 395.464C-14.6654 395.567 -14.993 395.818 -15.192 396.163C-15.3909 396.507 -15.4448 396.917 -15.3418 397.301L-13.8929 396.913ZM1523.07 -14.9143L1524.52 -15.3025C1524.3 -16.1027 1523.48 -16.5775 1522.68 -16.3632L1523.07 -14.9143ZM1934.9 1522.05L1935.29 1523.49C1935.67 1523.39 1936 1523.14 1936.2 1522.8C1936.39 1522.45 1936.45 1522.04 1936.35 1521.66L1934.9 1522.05ZM397.935 1933.87L396.486 1934.26C396.7 1935.06 397.523 1935.54 398.323 1935.32L397.935 1933.87ZM444.066 -973.642L443.677 -975.09L440.78 -974.314L441.168 -972.865L444.066 -973.642ZM959.052 959.903L959.44 961.352L962.338 960.575L961.95 959.127L959.052 959.903ZM312.462 -1459L313.212 -1460.3L311.913 -1461.05L311.163 -1459.75L312.462 -1459ZM194.751 -1255.12L193.452 -1255.87L193.141 -1255.33L193.302 -1254.73L194.751 -1255.12ZM237.836 -1094.32L236.387 -1093.93L236.548 -1093.33L237.086 -1093.02L237.836 -1094.32ZM441.719 -976.61L440.969 -975.31L442.268 -974.56L443.018 -975.86L441.719 -976.61ZM559.43 -1180.49L560.729 -1179.74L561.04 -1180.28L560.879 -1180.88L559.43 -1180.49ZM516.345 -1341.29L517.794 -1341.68L517.633 -1342.28L517.095 -1342.59L516.345 -1341.29ZM486.406 -813.296L487.161 -814.593L485.865 -815.348L485.11 -814.051L486.406 -813.296ZM315.539 -519.9L314.243 -520.654L313.488 -519.358L314.785 -518.603L315.539 -519.9ZM608.946 -349.026L608.191 -347.729L609.487 -346.974L610.242 -348.271L608.946 -349.026ZM779.812 -642.422L781.108 -641.667L781.863 -642.964L780.567 -643.719L779.812 -642.422ZM579.388 -620.261L580.387 -621.38L580.387 -621.38L579.388 -620.261ZM512.061 -544.918L513.06 -546.036L513.06 -546.036L512.061 -544.918ZM1476.93 2892.66L1477.32 2894.11L1480.22 2893.33L1479.83 2891.88L1476.93 2892.66ZM961.946 959.105L961.557 957.656L958.659 958.433L959.048 959.882L961.946 959.105ZM1608.54 3378L1607.79 3379.3L1609.09 3380.05L1609.84 3378.75L1608.54 3378ZM1726.25 3174.12L1727.55 3174.87L1727.86 3174.33L1727.7 3173.73L1726.25 3174.12ZM1683.16 3013.32L1684.61 3012.93L1684.45 3012.33L1683.91 3012.02L1683.16 3013.32ZM1479.28 2895.61L1480.03 2894.31L1478.73 2893.56L1477.98 2894.86L1479.28 2895.61ZM1361.57 3099.49L1360.27 3098.74L1359.96 3099.28L1360.12 3099.88L1361.57 3099.49ZM1404.66 3260.29L1403.21 3260.68L1403.37 3261.28L1403.91 3261.59L1404.66 3260.29ZM1522.37 3056.4L1523.12 3055.1L1521.82 3054.35L1521.07 3055.65L1522.37 3056.4ZM1434.59 2732.29L1433.83 2733.58L1435.13 2734.34L1435.88 2733.04L1434.59 2732.29ZM1605.46 2438.91L1606.76 2439.67L1607.51 2438.37L1606.21 2437.62L1605.46 2438.91ZM1312.05 2268.02L1312.8 2266.72L1311.51 2265.97L1310.75 2267.26L1312.05 2268.02ZM1141.18 2561.42L1139.89 2560.67L1139.13 2561.96L1140.43 2562.72L1141.18 2561.42ZM2376.45 -454.359L2377.51 -455.42L2375.39 -457.541L2374.33 -456.48L2376.45 -454.359ZM959.44 958.403L958.38 959.464L960.501 961.585L961.562 960.525L959.44 958.403ZM2730.96 -811.005H2732.46V-812.505H2730.96V-811.005ZM2495.54 -811.005V-812.505H2494.92L2494.48 -812.065L2495.54 -811.005ZM2377.83 -693.294L2376.77 -694.355L2376.33 -693.916V-693.294H2377.83ZM2377.84 -457.874L2376.34 -457.873V-456.374H2377.84V-457.874ZM2613.26 -457.873V-456.373H2613.88L2614.32 -456.813L2613.26 -457.873ZM2730.96 -575.584L2732.03 -574.523L2732.46 -574.962V-575.584L2730.96 -575.584ZM2495.55 -575.572H2494.05V-574.072H2495.55V-575.572ZM2258.77 -337.494L2260.27 -337.488L2260.28 -338.988L2258.78 -338.994L2258.77 -337.494ZM1919.23 -338.774L1919.23 -340.274L1917.73 -340.28L1917.73 -338.78L1919.23 -338.774ZM1917.93 0.751587L1916.43 0.74585L1916.43 2.24585L1917.93 2.25159L1917.93 0.751587ZM2257.48 2.04175L2257.47 3.54175L2258.97 3.54749L2258.98 2.04749L2257.48 2.04175ZM2098.93 -220.208L2099.24 -221.676H2099.24L2098.93 -220.208ZM2138.07 -160.453L2139.54 -160.146L2139.54 -160.147L2138.07 -160.453ZM2078.31 -121.312L2078.62 -122.78L2078.62 -122.781L2078.31 -121.312ZM2039.17 -181.071L2040.64 -180.764L2040.64 -180.765L2039.17 -181.071ZM-455.442 2373.32L-456.503 2374.38L-454.382 2376.5L-453.321 2375.44L-455.442 2373.32ZM961.565 960.55L962.626 959.489L960.505 957.367L959.444 958.428L961.565 960.55ZM-809.965 2729.95H-811.465V2731.45H-809.965V2729.95ZM-574.543 2729.95V2731.45H-573.922L-573.483 2731.01L-574.543 2729.95ZM-456.833 2612.24L-455.772 2613.3L-455.333 2612.86V2612.24H-456.833ZM-456.829 2376.82H-455.329V2375.32L-456.829 2375.32L-456.829 2376.82ZM-692.254 2376.82V2375.32H-692.875L-693.314 2375.76L-692.254 2376.82ZM-809.964 2494.54L-811.025 2493.48L-811.464 2493.91V2494.54H-809.964ZM-574.541 2494.54H-573.041V2493.04H-574.541V2494.54ZM-337.75 2256.49L-339.25 2256.48L-339.256 2257.98L-337.756 2257.99L-337.75 2256.49ZM1.77039 2257.75L1.76489 2259.25L3.26477 2259.26L3.27039 2257.76L1.77039 2257.75ZM3.05957 1918.24L4.55957 1918.24L4.56519 1916.74L3.06519 1916.74L3.05957 1918.24ZM-336.473 1916.94L-336.468 1915.44L-337.968 1915.44L-337.973 1916.94L-336.473 1916.94ZM-177.924 2139.2L-178.231 2140.67L-178.229 2140.67L-177.924 2139.2ZM-157.296 2040.3L-157.603 2041.76L-157.601 2041.76L-157.296 2040.3ZM2892.89 1478.82L2894.34 1479.21L2895.11 1476.31L2893.67 1475.92L2892.89 1478.82ZM960.889 958.036L959.44 957.648L958.664 960.546L960.113 960.934L960.889 958.036ZM3379 1607.54L3379.75 1608.84L3381.05 1608.09L3380.3 1606.79L3379 1607.54ZM3175.12 1725.25L3174.73 1726.69L3175.33 1726.86L3175.87 1726.54L3175.12 1725.25ZM3014.33 1682.16L3013.03 1682.91L3013.34 1683.45L3013.94 1683.61L3014.33 1682.16ZM2896.62 1478.28L2895.87 1476.98L2894.57 1477.73L2895.32 1479.03L2896.62 1478.28ZM3100.5 1360.57L3100.89 1359.12L3100.29 1358.96L3099.75 1359.27L3100.5 1360.57ZM3261.29 1403.66L3262.59 1402.91L3262.28 1402.37L3261.68 1402.21L3261.29 1403.66ZM3057.41 1521.36L3056.66 1520.06L3055.36 1520.81L3056.11 1522.11L3057.41 1521.36ZM2733.33 1433.57L2734.08 1434.86L2735.38 1434.11L2734.62 1432.81L2733.33 1433.57ZM2439.91 1604.43L2438.61 1605.18L2439.37 1606.48L2440.66 1605.72L2439.91 1604.43ZM2269.02 1311.05L2268.27 1309.75L2266.97 1310.5L2267.73 1311.8L2269.02 1311.05ZM2562.44 1140.15L2563.73 1139.4L2562.98 1138.1L2561.68 1138.86L2562.44 1140.15ZM2536.26 1411.91L2537.26 1413.03L2537.26 1413.03L2536.26 1411.91ZM2540.28 1340.59L2541.4 1339.59L2541.4 1339.59L2540.28 1340.59ZM2468.96 1336.57L2469.96 1337.69L2469.96 1337.69L2468.96 1336.57ZM2464.94 1407.9L2466.06 1406.9L2466.06 1406.9L2464.94 1407.9ZM-971.883 440.137L-973.332 439.749L-974.108 442.646L-972.659 443.034L-971.883 440.137ZM960.112 960.916L961.561 961.304L962.337 958.406L960.889 958.018L960.112 960.916ZM-1458 311.439L-1458.75 310.14L-1460.05 310.89L-1459.3 312.189L-1458 311.439ZM-1254.12 193.729L-1253.73 192.28L-1254.33 192.119L-1254.87 192.43L-1254.12 193.729ZM-1093.33 236.814L-1092.03 236.064L-1092.34 235.526L-1092.94 235.365L-1093.33 236.814ZM-975.612 440.695L-974.862 441.994L-973.563 441.244L-974.313 439.945L-975.612 440.695ZM-1179.5 558.406L-1179.88 559.855L-1179.28 560.016L-1178.75 559.705L-1179.5 558.406ZM-1340.29 515.321L-1341.59 516.071L-1341.28 516.609L-1340.68 516.769L-1340.29 515.321ZM-1136.41 397.605L-1135.66 398.904L-1134.36 398.154L-1135.11 396.855L-1136.41 397.605ZM-812.31 485.399L-813.065 484.103L-814.361 484.858L-813.606 486.154L-812.31 485.399ZM-518.914 314.523L-517.618 313.768L-518.373 312.472L-519.669 313.226L-518.914 314.523ZM-348.038 607.915L-347.283 609.211L-345.987 608.456L-346.742 607.16L-348.038 607.915ZM-641.435 778.802L-642.731 779.557L-641.976 780.853L-640.68 780.098L-641.435 778.802ZM-615.26 507.049L-616.259 505.93L-616.26 505.931L-615.26 507.049ZM-619.275 578.367L-620.393 579.367L-619.275 578.367ZM-547.946 582.383L-548.944 581.264L-548.945 581.265L-547.946 582.383ZM-543.931 511.061L-545.05 512.061L-545.05 512.061L-543.931 511.061ZM-1463 919.508L-1463.39 918.059L-1464.84 918.448L-1464.45 919.896L-1463 919.508ZM-1302.2 876.423L-1301.45 875.124L-1301.99 874.813L-1302.59 874.974L-1302.2 876.423ZM-1098.32 994.134L-1096.87 993.746L-1097.03 993.146L-1097.57 992.835L-1098.32 994.134ZM-839.808 1958.91L-838.509 1959.66L-838.198 1959.13L-838.359 1958.53L-839.808 1958.91ZM-957.52 2162.8L-957.131 2164.25L-956.531 2164.08L-956.221 2163.55L-957.52 2162.8ZM-1118.32 2205.88L-1119.77 2206.27L-1119.38 2207.72L-1117.93 2207.33L-1118.32 2205.88ZM3039.32 -286.902L3040.77 -287.29L3040.38 -288.739L3038.93 -288.351L3039.32 -286.902ZM2878.52 -243.816L2878.13 -245.265L2877.53 -245.104L2877.22 -244.566L2878.52 -243.816ZM2760.81 -39.9342L2759.51 -40.6842L2759.2 -40.1462L2759.36 -39.546L2760.81 -39.9342ZM3019.32 924.846L3017.87 925.235L3018.03 925.835L3018.57 926.146L3019.32 924.846ZM3223.2 1042.56L3222.45 1043.86L3222.99 1044.17L3223.59 1044.01L3223.2 1042.56ZM3384 999.473L3384.39 1000.92L3385.84 1000.53L3385.45 999.084L3384 999.473ZM1298.6 -200.021L1299.01 -201.461L1296.13 -202.297L1295.72 -200.857L1298.6 -200.021ZM622.411 2118.99L621.993 2120.43L624.874 2121.27L625.292 2119.83L622.411 2118.99ZM1438.45 -679.461L1439.77 -680.178L1439.05 -681.495L1437.73 -680.778L1438.45 -679.461ZM1231.68 -566.878L1230.96 -568.195L1230.42 -567.898L1230.24 -567.302L1231.68 -566.878ZM1184.6 -407.212L1183.16 -407.636L1182.99 -407.04L1183.29 -406.495L1184.6 -407.212ZM1297.15 -200.445L1295.84 -199.728L1296.55 -198.41L1297.87 -199.127L1297.15 -200.445ZM1503.92 -313.028L1504.64 -311.71L1505.19 -312.007L1505.36 -312.603L1503.92 -313.028ZM1551.03 -472.703L1552.47 -472.278L1552.65 -472.874L1552.35 -473.42L1551.03 -472.703ZM1344.26 -360.116L1342.95 -359.399L1343.66 -358.082L1344.98 -358.799L1344.26 -360.116ZM482.57 2598.42L481.252 2599.14L481.97 2600.46L483.287 2599.74L482.57 2598.42ZM369.987 2391.65L368.548 2391.23L368.372 2391.82L368.669 2392.37L369.987 2391.65ZM417.079 2231.99L416.361 2230.68L415.816 2230.97L415.64 2231.57L417.079 2231.99ZM623.85 2119.41L625.167 2118.69L624.45 2117.37L623.133 2118.09L623.85 2119.41ZM736.396 2326.15L737.834 2326.57L738.01 2325.98L737.713 2325.43L736.396 2326.15ZM689.325 2485.84L690.042 2487.16L690.588 2486.86L690.764 2486.26L689.325 2485.84ZM576.74 2279.07L578.057 2278.35L577.34 2277.03L576.023 2277.75L576.74 2279.07ZM-297.719 2943.82L-299.187 2943.52L-299.492 2944.99L-298.024 2945.29L-297.719 2943.82ZM-263.847 2780.81L-264.67 2779.56L-265.189 2779.9L-265.316 2780.51L-263.847 2780.81ZM-66.9802 2651.72L-66.6749 2650.25L-67.2833 2650.12L-67.8029 2650.46L-66.9802 2651.72ZM910.949 2855L912.203 2854.18L911.863 2853.66L911.254 2853.53L910.949 2855ZM1040.05 3051.87L1041.51 3052.17L1041.64 3051.56L1041.3 3051.04L1040.05 3051.87ZM1006.16 3214.85L1005.86 3216.31L1007.33 3216.62L1007.63 3215.15L1006.16 3214.85ZM3043.47 2048.58L3044.47 2049.7L3045.58 2048.7L3044.59 2047.58L3043.47 2048.58ZM2932.66 1924.33L2933.78 1923.33L2933.36 1922.87L2932.74 1922.84L2932.66 1924.33ZM2697.59 1910.97L2697.67 1909.47L2697.05 1909.44L2696.59 1909.85L2697.59 1910.97ZM1952.33 2575.98L1951.34 2574.86L1950.87 2575.28L1950.84 2575.9L1952.33 2575.98ZM1938.97 2811.02L1937.47 2810.94L1937.43 2811.56L1937.85 2812.02L1938.97 2811.02ZM2049.8 2935.22L2048.68 2936.22L2049.68 2937.34L2050.8 2936.34L2049.8 2935.22ZM-1153.72 -248.448L-1154.71 -249.567L-1155.83 -248.569L-1154.83 -247.449L-1153.72 -248.448ZM-1042.88 -124.241L-1044 -123.242L-1043.59 -122.779L-1042.97 -122.743L-1042.88 -124.241ZM-807.841 -110.863L-807.926 -109.365L-807.306 -109.33L-806.843 -109.744L-807.841 -110.863ZM-62.5706 -775.869L-61.5719 -774.75L-61.1083 -775.163L-61.073 -775.784L-62.5706 -775.869ZM-49.202 -1010.91L-47.7045 -1010.82L-47.6692 -1011.44L-48.0828 -1011.91L-49.202 -1010.91ZM-160.038 -1135.12L-158.919 -1136.12L-159.917 -1137.24L-161.036 -1136.24L-160.038 -1135.12ZM2187.5 -1143.71L2188.97 -1143.41L2189.27 -1144.88L2187.81 -1145.18L2187.5 -1143.71ZM2153.62 -980.729L2154.44 -979.474L2154.96 -979.815L2155.09 -980.423L2153.62 -980.729ZM1956.72 -851.614L1956.42 -850.145L1957.03 -850.019L1957.55 -850.36L1956.72 -851.614ZM978.814 -1054.9L977.56 -1054.07L977.901 -1053.55L978.509 -1053.43L978.814 -1054.9ZM849.717 -1251.76L848.248 -1252.07L848.122 -1251.46L848.462 -1250.94L849.717 -1251.76ZM883.598 -1414.75L883.904 -1416.22L882.435 -1416.52L882.13 -1415.05L883.598 -1414.75ZM2125.38 640.433L-205.179 1275.66L-204.39 1278.55L2126.17 643.327L2125.38 640.433ZM2608.91 511.331L2405.03 393.619L2403.53 396.217L2607.41 513.929L2608.91 511.331ZM2403.89 393.469L2243.09 436.555L2243.87 439.453L2404.67 396.367L2403.89 393.469ZM2242.18 437.254L2124.47 641.136L2127.07 642.636L2244.78 438.754L2242.18 437.254ZM2125.02 643.185L2328.9 760.896L2330.4 758.298L2126.52 640.587L2125.02 643.185ZM2330.04 761.046L2490.84 717.961L2490.06 715.063L2329.26 758.149L2330.04 761.046ZM2491.75 717.262L2609.46 513.38L2606.86 511.88L2489.15 715.762L2491.75 717.262ZM2402.98 394.173L2285.27 598.056L2287.86 599.556L2405.58 395.673L2402.98 394.173ZM2285.82 600.105L2489.7 717.816L2491.2 715.218L2287.32 597.507L2285.82 600.105ZM2286.18 597.346L2125.38 640.432L2126.16 643.329L2286.95 600.244L2286.18 597.346ZM-685.879 1407.13L-568.167 1203.24L-570.765 1201.74L-688.477 1405.63L-685.879 1407.13ZM-569.078 1203.94L-408.281 1160.86L-409.057 1157.96L-569.854 1201.04L-569.078 1203.94ZM-409.419 1160.71L-205.536 1278.42L-204.036 1275.82L-407.919 1158.11L-409.419 1160.71ZM-206.086 1276.37L-323.797 1480.25L-321.199 1481.75L-203.488 1277.87L-206.086 1276.37ZM-322.886 1479.55L-483.683 1522.64L-482.907 1525.54L-322.11 1482.45L-322.886 1479.55ZM-482.545 1522.79L-686.428 1405.08L-687.928 1407.68L-484.045 1525.39L-482.545 1522.79ZM-570.218 1203.8L-366.335 1321.51L-364.835 1318.91L-568.718 1201.2L-570.218 1203.8ZM-366.884 1319.46L-484.596 1523.34L-481.998 1524.84L-364.286 1320.96L-366.884 1319.46ZM-365.197 1321.66L-204.399 1278.57L-205.176 1275.68L-365.974 1318.76L-365.197 1321.66ZM87.953 124.37L1830.98 1796.77L1833.05 1794.6L90.0299 122.205L87.953 124.37ZM-272.832 -219.399L-37.4861 -225.281L-37.561 -228.28L-272.907 -222.398L-272.832 -219.399ZM-38.5574 -225.693L82.045 -110.956L84.1128 -113.13L-36.4896 -227.867L-38.5574 -225.693ZM81.5795 -112.005L87.4906 123.335L90.4896 123.26L84.5785 -112.081L81.5795 -112.005ZM88.9526 121.798L-146.409 127.684L-146.334 130.683L89.0276 124.797L88.9526 121.798ZM-145.338 128.096L-265.954 13.363L-268.021 15.5367L-147.406 130.27L-145.338 128.096ZM-265.488 14.4125L-271.37 -220.936L-274.369 -220.861L-268.487 14.4874L-265.488 14.4125ZM-39.0215 -226.746L-33.1429 8.604L-30.1438 8.52905L-36.0223 -226.821L-39.0215 -226.746ZM-31.6808 7.06702L-267.023 12.9473L-266.948 15.9463L-31.606 10.066L-31.6808 7.06702ZM-32.6772 9.64392L87.9579 124.372L90.0253 122.198L-30.6097 7.47009L-32.6772 9.64392ZM2195.39 2139.86L2189.51 1904.5L2186.51 1904.57L2192.39 2139.93L2195.39 2139.86ZM2189.04 1903.45L2068.41 1788.73L2066.34 1790.9L2186.97 1905.62L2189.04 1903.45ZM2067.34 1788.32L1831.98 1794.2L1832.05 1797.2L2067.41 1791.32L2067.34 1788.32ZM1830.52 1795.74L1836.42 2031.06L1839.42 2030.98L1833.51 1795.66L1830.52 1795.74ZM1836.89 2032.1L1957.49 2146.86L1959.56 2144.69L1838.95 2029.93L1836.89 2032.1ZM1958.57 2147.28L2193.93 2141.4L2193.85 2138.4L1958.49 2144.28L1958.57 2147.28ZM2187.97 1903.04L1952.61 1908.92L1952.69 1911.92L2188.05 1906.04L2187.97 1903.04ZM1951.15 1910.46L1957.03 2145.82L1960.03 2145.74L1954.15 1910.38L1951.15 1910.46ZM1953.68 1909.32L1833.05 1794.6L1830.98 1796.77L1951.61 1911.49L1953.68 1909.32ZM226.155 537.297L1384.02 227.048L1383.25 224.15L225.378 534.399L226.155 537.297ZM1382.19 225.987L1692.43 1383.85L1695.33 1383.08L1385.08 225.211L1382.19 225.987ZM1693.5 1382.02L535.628 1692.26L536.404 1695.16L1694.27 1384.91L1693.5 1382.02ZM537.465 1693.33L227.215 535.46L224.318 536.236L534.567 1694.1L537.465 1693.33ZM-13.5046 398.362L1523.46 -13.4653L1522.68 -16.3632L-14.2811 395.464L-13.5046 398.362ZM1521.62 -14.526L1933.45 1522.43L1936.35 1521.66L1524.52 -15.3025L1521.62 -14.526ZM1934.51 1520.6L397.547 1932.42L398.323 1935.32L1935.29 1523.49L1934.51 1520.6ZM399.384 1933.48L-12.4441 396.525L-15.3418 397.301L396.486 1934.26L399.384 1933.48ZM441.168 -972.865L959.052 959.903L961.95 959.127L444.066 -973.642L441.168 -972.865ZM311.163 -1459.75L193.452 -1255.87L196.05 -1254.37L313.761 -1458.25L311.163 -1459.75ZM193.302 -1254.73L236.387 -1093.93L239.285 -1094.71L196.2 -1255.51L193.302 -1254.73ZM237.086 -1093.02L440.969 -975.31L442.469 -977.909L238.586 -1095.62L237.086 -1093.02ZM443.018 -975.86L560.729 -1179.74L558.131 -1181.24L440.42 -977.36L443.018 -975.86ZM560.879 -1180.88L517.794 -1341.68L514.896 -1340.9L557.981 -1180.1L560.879 -1180.88ZM517.095 -1342.59L313.212 -1460.3L311.712 -1457.7L515.595 -1339.99L517.095 -1342.59ZM194 -1253.82L397.882 -1136.11L399.382 -1138.71L195.5 -1256.42L194 -1253.82ZM399.931 -1136.66L517.643 -1340.54L515.045 -1342.04L397.333 -1138.16L399.931 -1136.66ZM397.183 -1137.02L440.269 -976.227L443.167 -977.004L400.081 -1137.8L397.183 -1137.02ZM485.11 -814.051L314.243 -520.654L316.836 -519.145L487.702 -812.542L485.11 -814.051ZM314.785 -518.603L608.191 -347.729L609.7 -350.322L316.294 -521.196L314.785 -518.603ZM610.242 -348.271L781.108 -641.667L778.516 -643.177L607.649 -349.78L610.242 -348.271ZM780.567 -643.719L487.161 -814.593L485.651 -812L779.057 -641.126L780.567 -643.719ZM509.164 -615.246C527.2 -635.434 558.204 -637.179 578.388 -619.143L580.387 -621.38C558.967 -640.52 526.067 -638.668 506.927 -617.245L509.164 -615.246ZM578.388 -619.143C598.573 -601.103 600.32 -570.119 582.284 -549.932L584.521 -547.934C603.661 -569.357 601.807 -602.236 580.387 -621.38L578.388 -619.143ZM582.284 -549.932C564.248 -529.745 533.245 -527.997 513.06 -546.036L511.061 -543.799C532.482 -524.655 565.382 -526.511 584.521 -547.934L582.284 -549.932ZM513.06 -546.036C492.876 -564.073 491.129 -595.059 509.164 -615.246L506.927 -617.245C487.787 -595.822 489.642 -562.939 511.061 -543.799L513.06 -546.036ZM1479.83 2891.88L961.946 959.105L959.048 959.882L1476.93 2892.66L1479.83 2891.88ZM1609.84 3378.75L1727.55 3174.87L1724.95 3173.37L1607.24 3377.25L1609.84 3378.75ZM1727.7 3173.73L1684.61 3012.93L1681.71 3013.71L1724.8 3174.51L1727.7 3173.73ZM1683.91 3012.02L1480.03 2894.31L1478.53 2896.91L1682.41 3014.62L1683.91 3012.02ZM1477.98 2894.86L1360.27 3098.74L1362.87 3100.24L1480.58 2896.36L1477.98 2894.86ZM1360.12 3099.88L1403.21 3260.68L1406.1 3259.9L1363.02 3099.1L1360.12 3099.88ZM1403.91 3261.59L1607.79 3379.3L1609.29 3376.7L1405.41 3258.99L1403.91 3261.59ZM1727 3172.81L1523.12 3055.1L1521.62 3057.7L1725.5 3175.41L1727 3172.81ZM1521.07 3055.65L1403.35 3259.53L1405.95 3261.03L1523.66 3057.15L1521.07 3055.65ZM1523.82 3056.02L1480.73 2895.23L1477.83 2896L1520.92 3056.8L1523.82 3056.02ZM1435.88 2733.04L1606.76 2439.67L1604.16 2438.16L1433.29 2731.53L1435.88 2733.04ZM1606.21 2437.62L1312.8 2266.72L1311.29 2269.31L1604.7 2440.21L1606.21 2437.62ZM1310.75 2267.26L1139.89 2560.67L1142.48 2562.18L1313.34 2268.77L1310.75 2267.26ZM1140.43 2562.72L1433.83 2733.58L1435.34 2730.99L1141.94 2560.12L1140.43 2562.72ZM1411.83 2534.25C1393.79 2554.43 1362.79 2556.18 1342.61 2538.15L1340.61 2540.39C1362.03 2559.53 1394.93 2557.67 1414.07 2536.25L1411.83 2534.25ZM1342.61 2538.15C1322.42 2520.11 1320.68 2489.14 1338.71 2468.96L1336.48 2466.96C1317.34 2488.38 1319.19 2521.24 1340.61 2540.39L1342.61 2538.15ZM1338.71 2468.96C1356.75 2448.77 1387.75 2447.02 1407.94 2465.06L1409.94 2462.82C1388.52 2443.68 1355.62 2445.54 1336.48 2466.96L1338.71 2468.96ZM1407.94 2465.06C1428.12 2483.09 1429.87 2514.06 1411.83 2534.25L1414.07 2536.25C1433.21 2514.83 1431.36 2481.96 1409.94 2462.82L1407.94 2465.06ZM2374.33 -456.48L959.44 958.403L961.562 960.525L2376.45 -454.359L2374.33 -456.48ZM2730.96 -812.505L2495.54 -812.505V-809.505L2730.96 -809.505V-812.505ZM2494.48 -812.065L2376.77 -694.355L2378.9 -692.234L2496.6 -809.944L2494.48 -812.065ZM2376.33 -693.294L2376.34 -457.873L2379.34 -457.874L2379.33 -693.294L2376.33 -693.294ZM2377.84 -456.374L2613.26 -456.373V-459.373L2377.84 -459.374V-456.374ZM2614.32 -456.813L2732.03 -574.523L2729.9 -576.644L2612.2 -458.934L2614.32 -456.813ZM2732.46 -575.584L2732.46 -811.005L2729.46 -811.005L2729.46 -575.584L2732.46 -575.584ZM2494.04 -810.993L2494.05 -575.572L2497.05 -575.572L2497.04 -810.993L2494.04 -810.993ZM2495.55 -574.072L2730.97 -574.072V-577.072L2495.55 -577.072V-574.072ZM2494.49 -576.649L2376.78 -458.939L2378.9 -456.818L2496.61 -574.528L2494.49 -576.649ZM2258.78 -338.994L1919.23 -340.274L1919.22 -337.274L2258.77 -335.994L2258.78 -338.994ZM1917.73 -338.78L1916.43 0.74585L1919.43 0.757324L1920.73 -338.768L1917.73 -338.78ZM1917.93 2.25159L2257.47 3.54175L2257.48 0.541748L1917.94 -0.748413L1917.93 2.25159ZM2258.98 2.04749L2260.27 -337.488L2257.27 -337.5L2255.98 2.03601L2258.98 2.04749ZM2098.62 -218.74C2125.12 -213.202 2142.11 -187.251 2136.6 -160.758L2139.54 -160.147C2145.39 -188.261 2127.36 -215.799 2099.24 -221.676L2098.62 -218.74ZM2136.6 -160.76C2131.06 -134.256 2105.12 -117.24 2078.62 -122.78L2078 -119.844C2106.13 -113.963 2133.66 -132.024 2139.54 -160.146L2136.6 -160.76ZM2078.62 -122.781C2052.12 -128.29 2035.1 -154.263 2040.64 -180.764L2037.7 -181.378C2031.82 -153.253 2049.89 -125.691 2078.01 -119.843L2078.62 -122.781ZM2040.64 -180.765C2046.15 -207.26 2072.12 -224.268 2098.62 -218.74L2099.24 -221.676C2071.12 -227.543 2043.55 -209.495 2037.7 -181.376L2040.64 -180.765ZM-453.321 2375.44L961.565 960.55L959.444 958.428L-455.442 2373.32L-453.321 2375.44ZM-809.965 2731.45L-574.543 2731.45L-574.543 2728.45L-809.965 2728.45V2731.45ZM-573.483 2731.01L-455.772 2613.3L-457.893 2611.18L-575.604 2728.89L-573.483 2731.01ZM-455.333 2612.24L-455.329 2376.82L-458.329 2376.82L-458.333 2612.24H-455.333ZM-456.829 2375.32L-692.254 2375.32L-692.254 2378.32L-456.829 2378.32L-456.829 2375.32ZM-693.314 2375.76L-811.025 2493.48L-808.904 2495.6L-691.193 2377.89L-693.314 2375.76ZM-811.464 2494.54L-811.465 2729.95H-808.465L-808.464 2494.54H-811.464ZM-573.042 2729.96L-573.041 2494.54H-576.041L-576.042 2729.96H-573.042ZM-574.541 2493.04L-809.963 2493.04L-809.963 2496.04L-574.541 2496.04V2493.04ZM-573.481 2495.59L-455.769 2377.88L-457.89 2375.76L-575.602 2493.47L-573.481 2495.59ZM-337.756 2257.99L1.76489 2259.25L1.776 2256.25L-337.745 2254.99L-337.756 2257.99ZM3.27039 2257.76L4.55957 1918.24L1.55957 1918.23L0.270508 2257.74L3.27039 2257.76ZM3.06519 1916.74L-336.468 1915.44L-336.479 1918.44L3.05383 1919.74L3.06519 1916.74ZM-337.973 1916.94L-339.25 2256.48L-336.25 2256.49L-334.973 1916.95L-337.973 1916.94ZM-177.617 2137.73C-204.123 2132.19 -221.121 2106.24 -215.593 2079.74L-218.529 2079.13C-224.397 2107.25 -206.356 2134.79 -178.231 2140.67L-177.617 2137.73ZM-215.593 2079.74C-210.064 2053.25 -184.106 2036.22 -157.603 2041.76L-156.989 2038.83C-185.117 2032.95 -212.663 2051.01 -218.529 2079.13L-215.593 2079.74ZM-157.601 2041.76C-131.106 2047.27 -114.098 2073.25 -119.627 2099.75L-116.69 2100.36C-110.823 2072.24 -128.871 2044.67 -156.991 2038.83L-157.601 2041.76ZM-119.627 2099.75C-125.155 2126.25 -151.121 2143.24 -177.618 2137.73L-178.229 2140.67C-150.112 2146.51 -122.557 2128.48 -116.69 2100.36L-119.627 2099.75ZM2893.67 1475.92L960.889 958.036L960.113 960.934L2892.89 1478.82L2893.67 1475.92ZM3378.25 1606.24L3174.37 1723.95L3175.87 1726.54L3379.75 1608.84L3378.25 1606.24ZM3175.51 1723.8L3014.72 1680.71L3013.94 1683.61L3174.73 1726.69L3175.51 1723.8ZM3015.63 1681.41L2897.92 1477.53L2895.32 1479.03L3013.03 1682.91L3015.63 1681.41ZM2897.37 1479.58L3101.25 1361.87L3099.75 1359.27L2895.87 1476.98L2897.37 1479.58ZM3100.11 1362.02L3260.9 1405.11L3261.68 1402.21L3100.89 1359.12L3100.11 1362.02ZM3259.99 1404.41L3377.7 1608.29L3380.3 1606.79L3262.59 1402.91L3259.99 1404.41ZM3176.42 1724.49L3058.71 1520.61L3056.11 1522.11L3173.82 1725.99L3176.42 1724.49ZM3058.16 1522.66L3262.04 1404.95L3260.54 1402.36L3056.66 1520.06L3058.16 1522.66ZM3057.8 1519.92L2897.01 1476.83L2896.23 1479.73L3057.02 1522.82L3057.8 1519.92ZM2732.57 1432.27L2439.15 1603.13L2440.66 1605.72L2734.08 1434.86L2732.57 1432.27ZM2441.2 1603.67L2270.32 1310.29L2267.73 1311.8L2438.61 1605.18L2441.2 1603.67ZM2269.78 1312.34L2563.19 1141.45L2561.68 1138.86L2268.27 1309.75L2269.78 1312.34ZM2561.14 1140.91L2732.03 1434.32L2734.62 1432.81L2563.73 1139.4L2561.14 1140.91ZM2537.26 1413.03C2558.68 1393.88 2560.52 1361.01 2541.4 1339.59L2539.16 1341.59C2557.18 1361.78 2555.44 1392.74 2535.26 1410.79L2537.26 1413.03ZM2541.4 1339.59C2522.24 1318.18 2489.37 1316.3 2467.96 1335.45L2469.96 1337.69C2490.14 1319.64 2521.11 1321.41 2539.16 1341.59L2541.4 1339.59ZM2467.96 1335.45C2446.53 1354.57 2444.67 1387.48 2463.82 1408.9L2466.06 1406.9C2448.01 1386.72 2449.77 1355.71 2469.96 1337.69L2467.96 1335.45ZM2463.82 1408.89C2482.94 1430.32 2515.84 1432.15 2537.26 1413.03L2535.26 1410.79C2515.07 1428.81 2484.07 1427.08 2466.06 1406.9L2463.82 1408.89ZM-972.659 443.034L960.112 960.916L960.889 958.018L-971.883 440.137L-972.659 443.034ZM-1457.25 312.738L-1253.37 195.028L-1254.87 192.43L-1458.75 310.14L-1457.25 312.738ZM-1254.51 195.178L-1093.71 238.263L-1092.94 235.365L-1253.73 192.28L-1254.51 195.178ZM-1094.62 237.564L-976.911 441.445L-974.313 439.945L-1092.03 236.064L-1094.62 237.564ZM-976.362 439.396L-1180.25 557.107L-1178.75 559.705L-974.862 441.994L-976.362 439.396ZM-1179.11 556.957L-1339.9 513.872L-1340.68 516.769L-1179.88 559.855L-1179.11 556.957ZM-1338.99 514.571L-1456.7 310.689L-1459.3 312.189L-1341.59 516.071L-1338.99 514.571ZM-1255.42 194.474L-1137.71 398.355L-1135.11 396.855L-1252.82 192.974L-1255.42 194.474ZM-1137.16 396.306L-1341.04 514.017L-1339.54 516.615L-1135.66 398.904L-1137.16 396.306ZM-1136.8 399.049L-976 442.134L-975.224 439.236L-1136.02 396.152L-1136.8 399.049ZM-811.555 486.695L-518.159 315.819L-519.669 313.226L-813.065 484.103L-811.555 486.695ZM-520.21 315.278L-349.334 608.67L-346.742 607.16L-517.618 313.768L-520.21 315.278ZM-348.793 606.619L-642.19 777.506L-640.68 780.098L-347.283 609.211L-348.793 606.619ZM-640.139 778.047L-811.014 484.644L-813.606 486.154L-642.731 779.557L-640.139 778.047ZM-616.26 505.931C-637.678 525.082 -639.535 557.947 -620.393 579.367L-618.156 577.368C-636.193 557.185 -634.445 526.215 -614.26 508.167L-616.26 505.931ZM-620.393 579.367C-601.253 600.785 -568.366 602.657 -546.946 583.501L-548.945 581.265C-569.128 599.314 -600.119 597.552 -618.156 577.368L-620.393 579.367ZM-546.947 583.502C-525.518 564.38 -523.672 531.48 -542.813 510.062L-545.05 512.061C-527.013 532.245 -528.753 563.246 -548.944 581.264L-546.947 583.502ZM-542.813 510.062C-561.954 488.639 -594.837 486.788 -616.259 505.93L-614.26 508.167C-594.074 490.13 -563.088 491.874 -545.05 512.061L-542.813 510.062ZM-1462.61 920.957L-1301.81 877.872L-1302.59 874.974L-1463.39 918.059L-1462.61 920.957ZM-1302.95 877.722L-1099.07 995.433L-1097.57 992.835L-1301.45 875.124L-1302.95 877.722ZM-1099.77 994.522L-841.257 1959.3L-838.359 1958.53L-1096.87 993.746L-1099.77 994.522ZM-841.107 1958.16L-958.819 2162.05L-956.221 2163.55L-838.509 1959.66L-841.107 1958.16ZM-957.908 2161.35L-1118.7 2204.43L-1117.93 2207.33L-957.131 2164.25L-957.908 2161.35ZM-1116.87 2205.49L-1461.55 919.12L-1464.45 919.896L-1119.77 2206.27L-1116.87 2205.49ZM-1303.65 876.816L-958.97 2163.19L-956.072 2162.41L-1300.76 876.039L-1303.65 876.816ZM3038.93 -288.351L2878.13 -245.265L2878.91 -242.368L3039.71 -285.453L3038.93 -288.351ZM2877.22 -244.566L2759.51 -40.6842L2762.11 -39.1842L2879.82 -243.066L2877.22 -244.566ZM2759.36 -39.546L3017.87 925.235L3020.77 924.458L2762.26 -40.3225L2759.36 -39.546ZM3018.57 926.146L3222.45 1043.86L3223.95 1041.26L3020.07 923.547L3018.57 926.146ZM3223.59 1044.01L3384.39 1000.92L3383.61 998.024L3222.81 1041.11L3223.59 1044.01ZM3385.45 999.084L3040.77 -287.29L3037.87 -286.514L3382.55 999.861L3385.45 999.084ZM2877.07 -243.423L3221.75 1042.95L3224.65 1042.17L2879.97 -244.2L2877.07 -243.423ZM1295.72 -200.857L622.411 2118.99L625.292 2119.83L1298.6 -200.021L1295.72 -200.857ZM1437.73 -680.778L1230.96 -568.195L1232.4 -565.56L1439.17 -678.143L1437.73 -680.778ZM1230.24 -567.302L1183.16 -407.636L1186.04 -406.787L1233.12 -566.454L1230.24 -567.302ZM1183.29 -406.495L1295.84 -199.728L1298.47 -201.162L1185.92 -407.929L1183.29 -406.495ZM1297.87 -199.127L1504.64 -311.71L1503.21 -314.345L1296.44 -201.762L1297.87 -199.127ZM1505.36 -312.603L1552.47 -472.278L1549.59 -473.127L1502.48 -313.452L1505.36 -312.603ZM1552.35 -473.42L1439.77 -680.178L1437.13 -678.743L1549.72 -471.985L1552.35 -473.42ZM1230.36 -566.157L1342.95 -359.399L1345.58 -360.834L1233 -567.592L1230.36 -566.157ZM1344.98 -358.799L1551.75 -471.382L1550.32 -474.017L1343.55 -361.434L1344.98 -358.799ZM1342.83 -360.552L1295.72 -200.877L1298.6 -200.028L1345.7 -359.703L1342.83 -360.552ZM483.887 2597.7L371.304 2390.94L368.669 2392.37L481.252 2599.14L483.887 2597.7ZM371.425 2392.08L418.517 2232.42L415.64 2231.57L368.548 2391.23L371.425 2392.08ZM417.796 2233.31L624.567 2120.72L623.133 2118.09L416.361 2230.68L417.796 2233.31ZM622.532 2120.12L735.078 2326.87L737.713 2325.43L625.167 2118.69L622.532 2120.12ZM734.957 2325.73L687.886 2485.41L690.764 2486.26L737.834 2326.57L734.957 2325.73ZM688.608 2484.52L481.853 2597.1L483.287 2599.74L690.042 2487.16L688.608 2484.52ZM370.706 2392.97L577.457 2280.39L576.023 2277.75L369.271 2390.33L370.706 2392.97ZM575.423 2279.78L688.009 2486.55L690.644 2485.12L578.057 2278.35L575.423 2279.78ZM578.177 2279.51L625.288 2119.84L622.411 2118.99L575.299 2278.66L578.177 2279.51ZM-296.25 2944.13L-262.378 2781.12L-265.316 2780.51L-299.187 2943.52L-296.25 2944.13ZM-263.025 2782.07L-66.1577 2652.97L-67.8029 2650.46L-264.67 2779.56L-263.025 2782.07ZM-67.2855 2653.18L910.644 2856.47L911.254 2853.53L-66.6749 2650.25L-67.2855 2653.18ZM909.695 2855.82L1038.79 3052.69L1041.3 3051.04L912.203 2854.18L909.695 2855.82ZM1038.58 3051.56L1004.69 3214.54L1007.63 3215.15L1041.51 3052.17L1038.58 3051.56ZM1006.47 3213.38L-297.413 2942.36L-298.024 2945.29L1005.86 3216.31L1006.47 3213.38ZM-264.154 2782.28L1039.74 3053.33L1040.35 3050.39L-263.543 2779.34L-264.154 2782.28ZM3044.59 2047.58L2933.78 1923.33L2931.54 1925.33L3042.35 2049.58L3044.59 2047.58ZM2932.74 1922.84L2697.67 1909.47L2697.5 1912.47L2932.57 1925.83L2932.74 1922.84ZM2696.59 1909.85L1951.34 2574.86L1953.33 2577.1L2698.59 1912.09L2696.59 1909.85ZM1950.84 2575.9L1937.47 2810.94L1940.46 2811.11L1953.83 2576.07L1950.84 2575.9ZM1937.85 2812.02L2048.68 2936.22L2050.92 2934.23L1940.08 2810.02L1937.85 2812.02ZM2050.8 2936.34L3044.47 2049.7L3042.47 2047.46L2048.8 2934.1L2050.8 2936.34ZM2931.66 1923.21L1937.97 2809.9L1939.96 2812.14L2933.65 1925.45L2931.66 1923.21ZM-1154.83 -247.449L-1044 -123.242L-1041.77 -125.24L-1152.6 -249.447L-1154.83 -247.449ZM-1042.97 -122.743L-807.926 -109.365L-807.756 -112.36L-1042.8 -125.738L-1042.97 -122.743ZM-806.843 -109.744L-61.5719 -774.75L-63.5693 -776.988L-808.84 -111.982L-806.843 -109.744ZM-61.073 -775.784L-47.7045 -1010.82L-50.6996 -1010.99L-64.0682 -775.954L-61.073 -775.784ZM-48.0828 -1011.91L-158.919 -1136.12L-161.157 -1134.12L-50.3212 -1009.91L-48.0828 -1011.91ZM-161.036 -1136.24L-1154.71 -249.567L-1152.72 -247.329L-159.039 -1134L-161.036 -1136.24ZM-1041.89 -123.119L-48.2037 -1009.79L-50.201 -1012.03L-1043.88 -125.357L-1041.89 -123.119ZM2186.03 -1144.02L2152.15 -981.034L2155.09 -980.423L2188.97 -1143.41L2186.03 -1144.02ZM2152.8 -981.983L1955.9 -852.868L1957.55 -850.36L2154.44 -979.474L2152.8 -981.983ZM1957.03 -853.083L979.12 -1056.36L978.509 -1053.43L1956.42 -850.145L1957.03 -853.083ZM980.069 -1055.72L850.971 -1252.58L848.462 -1250.94L977.56 -1054.07L980.069 -1055.72ZM851.185 -1251.46L885.067 -1414.44L882.13 -1415.05L848.248 -1252.07L851.185 -1251.46ZM883.293 -1413.28L2187.2 -1142.24L2187.81 -1145.18L883.904 -1416.22L883.293 -1413.28ZM2153.92 -982.194L850.023 -1253.23L849.413 -1250.29L2153.31 -979.257L2153.92 -982.194Z" fill="black" fill-opacity="0.1"/>
<g filter="url(#filter0_d_122_143)">
<g clip-path="url(#clip1_122_143)">
<rect x="248.633" y="777.911" width="1280" height="720" rx="50" transform="rotate(-15 248.633 777.911)" fill="#171717"/>
<path d="M1412.29 836.984L1414.89 838.483L1416.39 835.886L1413.79 834.386L1412.29 836.984ZM1356.27 804.617L1357.77 802.019L1356.69 801.397L1355.49 801.719L1356.27 804.617ZM1312.09 816.455L1311.31 813.557L1310.11 813.879L1309.49 814.955L1312.09 816.455ZM1335.78 904.865L1334.28 907.462L1335.35 908.084L1336.55 907.763L1335.78 904.865ZM1379.96 893.027L1380.73 895.925L1381.93 895.603L1382.56 894.526L1379.96 893.027ZM506.886 1082.54L504.287 1081.04L502.789 1083.64L505.385 1085.14L506.886 1082.54ZM539.221 1026.5L538.444 1023.6L537.243 1023.92L536.622 1025L539.221 1026.5ZM583.4 1014.66L584.901 1012.06L583.825 1011.44L582.624 1011.76L583.4 1014.66ZM607.09 1103.07L607.866 1105.97L609.067 1105.65L609.688 1104.57L607.09 1103.07ZM562.91 1114.91L561.409 1117.51L562.486 1118.13L563.687 1117.81L562.91 1114.91ZM620.658 635.222L620.584 632.223L617.584 632.298L617.659 635.298L620.658 635.222ZM685.323 633.615L687.391 631.442L686.491 630.585L685.248 630.616L685.323 633.615ZM718.464 665.161L721.463 665.085L721.432 663.844L720.533 662.988L718.464 665.161ZM655.429 731.466L653.361 733.639L654.261 734.496L655.504 734.465L655.429 731.466ZM622.284 699.92L619.285 699.996L619.316 701.237L620.215 702.094L622.284 699.92ZM1298.53 1284.31L1298.6 1287.31L1301.6 1287.23L1301.53 1284.23L1298.53 1284.31ZM1296.9 1219.61L1299.9 1219.53L1299.87 1218.29L1298.97 1217.43L1296.9 1219.61ZM1263.75 1188.06L1265.82 1185.89L1264.92 1185.03L1263.68 1185.06L1263.75 1188.06ZM1200.72 1254.36L1197.72 1254.44L1197.75 1255.68L1198.65 1256.53L1200.72 1254.36ZM1233.86 1285.91L1231.79 1288.09L1232.69 1288.94L1233.94 1288.91L1233.86 1285.91ZM757.696 843.278L756.919 840.38C755.319 840.809 754.369 842.454 754.798 844.054L757.696 843.278ZM1075.82 758.035L1078.72 757.259C1078.29 755.659 1076.65 754.709 1075.05 755.138L1075.82 758.035ZM1161.12 1076.35L1161.89 1079.25C1163.49 1078.82 1164.44 1077.17 1164.01 1075.57L1161.12 1076.35ZM842.987 1161.59L840.089 1162.37C840.518 1163.97 842.163 1164.92 843.764 1164.49L842.987 1161.59ZM691.84 805.074L691.063 802.176C689.463 802.605 688.513 804.25 688.942 805.85L691.84 805.074ZM1114.13 691.922L1117.02 691.146C1116.59 689.545 1114.95 688.596 1113.35 689.024L1114.13 691.922ZM1227.34 1114.45L1228.12 1117.35C1229.72 1116.92 1230.67 1115.28 1230.24 1113.68L1227.34 1114.45ZM805.056 1227.6L802.159 1228.38C802.587 1229.98 804.232 1230.93 805.833 1230.5L805.056 1227.6ZM820.116 427.644L819.34 424.746L813.544 426.299L814.321 429.197L820.116 427.644ZM781.438 294.885L782.939 292.288L780.339 290.786L778.839 293.386L781.438 294.885ZM749.103 350.928L746.504 349.429L745.884 350.505L746.205 351.705L749.103 350.928ZM760.948 395.134L758.05 395.91L758.371 397.11L759.447 397.731L760.948 395.134ZM816.972 427.501L815.471 430.098L818.07 431.6L819.571 429L816.972 427.501ZM849.307 371.458L851.905 372.957L852.526 371.881L852.205 370.681L849.307 371.458ZM837.462 327.253L840.36 326.476L840.038 325.276L838.963 324.655L837.462 327.253ZM829.257 472.395L830.768 469.803L828.174 468.292L826.664 470.886L829.257 472.395ZM782.321 553.044L779.728 551.535L778.22 554.126L780.81 555.636L782.321 553.044ZM862.945 600.029L861.435 602.621L864.028 604.132L865.538 601.538L862.945 600.029ZM909.881 519.38L912.474 520.889L913.982 518.298L911.392 516.788L909.881 519.38ZM854.813 525.465L856.813 523.228L856.813 523.228L854.813 525.465ZM836.317 546.174L838.317 543.938L838.317 543.938L836.317 546.174ZM1099.07 1491.88L1099.84 1494.78L1105.64 1493.23L1104.86 1490.33L1099.07 1491.88ZM1137.75 1624.64L1136.24 1627.24L1138.84 1628.74L1140.34 1626.14L1137.75 1624.64ZM1170.08 1568.6L1172.68 1570.1L1173.3 1569.02L1172.98 1567.82L1170.08 1568.6ZM1158.24 1524.4L1161.13 1523.62L1160.81 1522.42L1159.74 1521.8L1158.24 1524.4ZM1102.21 1492.03L1103.71 1489.43L1101.11 1487.93L1099.61 1490.53L1102.21 1492.03ZM1069.88 1548.07L1067.28 1546.57L1066.66 1547.65L1066.98 1548.85L1069.88 1548.07ZM1081.72 1592.28L1078.82 1593.05L1079.14 1594.25L1080.22 1594.87L1081.72 1592.28ZM1089.92 1447.13L1088.41 1449.72L1091.01 1451.23L1092.52 1448.64L1089.92 1447.13ZM1136.86 1366.48L1139.46 1367.99L1140.96 1365.4L1138.37 1363.89L1136.86 1366.48ZM1056.24 1319.49L1057.75 1316.9L1055.15 1315.39L1053.64 1317.98L1056.24 1319.49ZM1009.3 1400.14L1006.71 1398.63L1005.2 1401.23L1007.79 1402.74L1009.3 1400.14ZM1350.42 572.985L1352.54 570.863L1348.3 566.622L1346.18 568.744L1350.42 572.985ZM1445.98 473.129L1448.98 473.129L1448.98 470.129L1445.98 470.129L1445.98 473.129ZM1381.3 473.12L1381.3 470.12L1380.05 470.12L1379.17 470.999L1381.3 473.12ZM1348.96 505.474L1346.84 503.353L1345.96 504.232L1345.96 505.474L1348.96 505.474ZM1348.97 570.192L1345.97 570.192L1345.97 573.191L1348.97 573.192L1348.97 570.192ZM1413.65 570.201L1413.65 573.201L1414.9 573.201L1415.78 572.322L1413.65 570.201ZM1445.99 537.847L1448.11 539.968L1448.99 539.089L1448.99 537.846L1445.99 537.847ZM1316.26 603.273L1319.26 603.284L1319.27 600.285L1316.27 600.273L1316.26 603.273ZM1222.96 602.908L1222.97 599.908L1219.97 599.896L1219.96 602.897L1222.96 602.908ZM1222.62 696.244L1219.62 696.233L1219.61 699.232L1222.61 699.244L1222.62 696.244ZM1315.92 696.612L1315.9 699.612L1318.91 699.624L1318.92 696.623L1315.92 696.612ZM1272.34 635.505L1272.96 632.568L1272.96 632.568L1272.34 635.505ZM1283.1 651.933L1286.04 652.547L1286.04 652.543L1283.1 651.933ZM1266.68 662.691L1267.3 659.754L1267.29 659.754L1266.68 662.691ZM1255.93 646.261L1258.86 646.875L1258.86 646.871L1255.93 646.261ZM568.765 1346.54L566.644 1348.66L570.888 1352.91L573.009 1350.78L568.765 1346.54ZM473.2 1446.4L470.2 1446.4L470.2 1449.4L473.2 1449.4L473.2 1446.4ZM537.885 1446.41L537.885 1449.41L539.128 1449.41L540.007 1448.53L537.885 1446.41ZM570.223 1414.05L572.345 1416.17L573.223 1415.3L573.223 1414.05L570.223 1414.05ZM570.215 1349.34L573.215 1349.34L573.215 1346.34L570.215 1346.34L570.215 1349.34ZM505.529 1349.33L505.529 1346.33L504.286 1346.33L503.407 1347.21L505.529 1349.33ZM473.191 1381.68L471.069 1379.56L470.19 1380.44L470.191 1381.68L473.191 1381.68ZM602.929 1316.26L599.929 1316.24L599.918 1319.24L602.917 1319.26L602.929 1316.26ZM696.217 1316.62L696.205 1319.62L699.206 1319.63L699.217 1316.63L696.217 1316.62ZM696.558 1223.28L699.558 1223.29L699.568 1220.3L696.569 1220.28L696.558 1223.28ZM603.266 1222.91L603.278 1219.91L600.277 1219.9L600.266 1222.9L603.266 1222.91ZM646.839 1284.02L646.224 1286.96L646.227 1286.96L646.839 1284.02ZM652.503 1256.83L651.888 1259.77L651.891 1259.77L652.503 1256.83ZM1489.89 1105.11L1492.79 1105.88L1494.34 1100.09L1491.45 1099.31L1489.89 1105.11ZM1624.13 1138.01L1625.63 1140.61L1628.23 1139.11L1626.73 1136.51L1624.13 1138.01ZM1568.12 1170.36L1567.34 1173.25L1568.54 1173.58L1569.62 1172.96L1568.12 1170.36ZM1523.94 1158.51L1521.34 1160.01L1521.96 1161.08L1523.16 1161.4L1523.94 1158.51ZM1491.59 1102.45L1490.09 1099.86L1487.49 1101.36L1488.99 1103.95L1491.59 1102.45ZM1547.6 1070.11L1548.38 1067.21L1547.18 1066.89L1546.1 1067.51L1547.6 1070.11ZM1591.78 1081.96L1594.38 1080.46L1593.76 1079.38L1592.56 1079.06L1591.78 1081.96ZM1446.72 1090.16L1448.23 1092.75L1450.82 1091.24L1449.31 1088.65L1446.72 1090.16ZM1366.11 1137.12L1363.51 1138.63L1365.02 1141.22L1367.61 1139.71L1366.11 1137.12ZM1319.14 1056.46L1317.63 1053.87L1315.04 1055.38L1316.55 1057.97L1319.14 1056.46ZM1399.75 1009.5L1402.35 1007.99L1400.84 1005.39L1398.24 1006.9L1399.75 1009.5ZM1392.57 1084.2L1394.57 1086.44L1394.57 1086.44L1392.57 1084.2ZM1393.67 1064.6L1395.91 1062.6L1395.91 1062.6L1393.67 1064.6ZM1374.08 1063.49L1376.07 1065.73L1376.08 1065.73L1374.08 1063.49ZM1372.98 1083.1L1375.21 1081.1L1375.21 1081.1L1372.98 1083.1ZM429.291 814.422L426.393 813.645L424.839 819.44L427.737 820.217L429.291 814.422ZM295.046 781.521L293.546 778.923L290.949 780.423L292.448 783.021L295.046 781.521ZM351.061 749.17L351.838 746.273L350.637 745.951L349.561 746.572L351.061 749.17ZM395.244 761.021L397.842 759.521L397.221 758.445L396.021 758.123L395.244 761.021ZM427.595 817.073L429.096 819.671L431.693 818.171L430.194 815.573L427.595 817.073ZM371.58 849.424L370.803 852.321L372.003 852.644L373.08 852.022L371.58 849.424ZM327.397 837.573L324.799 839.073L325.42 840.149L326.62 840.471L327.397 837.573ZM472.467 829.366L470.957 826.774L468.365 828.284L469.874 830.876L472.467 829.366ZM553.075 782.404L555.668 780.894L554.158 778.301L551.565 779.811L553.075 782.404ZM600.037 863.065L601.548 865.657L604.139 864.147L602.63 861.555L600.037 863.065ZM519.429 910.03L516.836 911.54L518.346 914.133L520.939 912.622L519.429 910.03ZM526.61 835.324L524.611 833.087L524.61 833.088L526.61 835.324ZM545.109 856.036L543.111 853.798L543.108 853.8L545.109 856.036ZM546.209 836.429L543.971 838.428L543.972 838.428L546.209 836.429ZM293.698 948.673L292.922 945.775L290.024 946.552L290.8 949.449L293.698 948.673ZM337.878 936.835L339.378 934.237L338.302 933.616L337.101 933.937L337.878 936.835ZM393.902 969.202L396.8 968.426L396.478 967.226L395.403 966.605L393.902 969.202ZM464.97 1234.43L467.569 1235.93L468.19 1234.86L467.868 1233.66L464.97 1234.43ZM432.635 1290.48L433.412 1293.37L434.613 1293.05L435.234 1291.98L432.635 1290.48ZM388.456 1302.31L385.558 1303.09L386.334 1305.99L389.232 1305.21L388.456 1302.31ZM1530.73 617.212L1533.62 616.436L1532.85 613.538L1529.95 614.314L1530.73 617.212ZM1486.55 629.05L1485.77 626.152L1484.57 626.474L1483.95 627.551L1486.55 629.05ZM1454.21 685.093L1451.61 683.594L1450.99 684.67L1451.31 685.869L1454.21 685.093ZM1525.28 950.324L1522.38 951.1L1522.7 952.3L1523.78 952.921L1525.28 950.324ZM1581.31 982.691L1579.8 985.289L1580.88 985.91L1582.08 985.589L1581.31 982.691ZM1625.48 970.853L1626.26 973.751L1629.16 972.974L1628.38 970.077L1625.48 970.853ZM1090.85 509.235L1093.48 507.801L1092.05 505.165L1089.41 506.6L1090.85 509.235ZM1034.04 540.176L1032.61 537.542L1031.51 538.136L1031.16 539.328L1034.04 540.176ZM1021.11 584.067L1018.23 583.219L1017.88 584.41L1018.48 585.501L1021.11 584.067ZM1108.85 609.971L1110.29 612.605L1111.38 612.011L1111.73 610.819L1108.85 609.971ZM1121.79 566.078L1124.67 566.926L1125.02 565.734L1124.43 564.643L1121.79 566.078ZM828.338 1410.29L825.703 1411.73L827.138 1414.36L829.773 1412.93L828.338 1410.29ZM797.396 1353.45L794.518 1352.6L794.167 1353.79L794.761 1354.88L797.396 1353.45ZM810.329 1309.56L808.894 1306.92L807.802 1307.52L807.451 1308.71L810.329 1309.56ZM898.069 1335.46L900.947 1336.3L901.298 1335.11L900.704 1334.02L898.069 1335.46ZM885.142 1379.35L886.577 1381.99L887.669 1381.39L888.02 1380.2L885.142 1379.35ZM613.956 1505.21L611.019 1504.6L610.409 1507.54L613.345 1508.15L613.956 1505.21ZM623.256 1460.4L621.611 1457.89L620.571 1458.58L620.319 1459.79L623.256 1460.4ZM677.343 1424.92L677.954 1421.98L676.737 1421.73L675.697 1422.41L677.343 1424.92ZM946.051 1480.84L948.56 1479.2L947.879 1478.16L946.663 1477.91L946.051 1480.84ZM981.53 1534.97L984.468 1535.58L984.72 1534.36L984.039 1533.32L981.53 1534.97ZM972.227 1579.77L971.616 1582.71L974.554 1583.32L975.164 1580.38L972.227 1579.77ZM1531.96 1259.24L1533.96 1261.47L1536.19 1259.48L1534.2 1257.24L1531.96 1259.24ZM1501.51 1225.08L1503.75 1223.08L1502.92 1222.15L1501.68 1222.08L1501.51 1225.08ZM1436.92 1221.39L1437.09 1218.4L1435.85 1218.33L1434.92 1219.16L1436.92 1221.39ZM1232.18 1404.18L1230.18 1401.94L1229.25 1402.77L1229.18 1404.01L1232.18 1404.18ZM1228.51 1468.79L1225.52 1468.62L1225.45 1469.86L1226.27 1470.79L1228.51 1468.79ZM1258.97 1502.94L1256.73 1504.93L1258.73 1507.17L1260.97 1505.18L1258.97 1502.94ZM378.632 627.61L376.634 625.372L374.397 627.369L376.393 629.607L378.632 627.61ZM409.09 661.759L406.851 663.756L407.678 664.683L408.919 664.754L409.09 661.759ZM473.672 665.446L473.501 668.441L474.742 668.512L475.67 667.684L473.672 665.446ZM678.419 482.664L680.417 484.902L681.344 484.074L681.414 482.834L678.419 482.664ZM682.083 418.051L685.078 418.221L685.148 416.981L684.322 416.055L682.083 418.051ZM651.624 383.902L653.863 381.905L651.865 379.665L649.626 381.664L651.624 383.902ZM1296.64 381.629L1299.58 382.239L1300.19 379.303L1297.26 378.692L1296.64 381.629ZM1287.34 426.432L1288.99 428.941L1290.03 428.259L1290.28 427.042L1287.34 426.432ZM1233.25 461.918L1232.64 464.855L1233.85 465.109L1234.89 464.427L1233.25 461.918ZM964.544 405.997L962.035 407.642L962.716 408.681L963.933 408.934L964.544 405.997ZM929.065 351.873L926.127 351.263L925.875 352.479L926.556 353.518L929.065 351.873ZM938.368 307.069L938.979 304.132L936.041 303.52L935.43 306.459L938.368 307.069ZM1278.96 869.603L638.636 1044.14L640.214 1049.92L1280.54 875.392L1278.96 869.603ZM1413.79 834.386L1357.77 802.019L1354.77 807.214L1410.79 839.582L1413.79 834.386ZM1355.49 801.719L1311.31 813.557L1312.86 819.352L1357.04 807.514L1355.49 801.719ZM1309.49 814.955L1277.16 870.998L1282.35 873.997L1314.69 817.954L1309.49 814.955ZM1278.25 875.095L1334.28 907.462L1337.28 902.267L1281.25 869.9L1278.25 875.095ZM1336.55 907.763L1380.73 895.925L1379.18 890.129L1335 901.967L1336.55 907.763ZM1382.56 894.526L1414.89 838.483L1409.69 835.485L1377.36 891.528L1382.56 894.526ZM1353.67 803.117L1321.33 859.16L1326.53 862.159L1358.87 806.116L1353.67 803.117ZM1322.43 863.257L1378.46 895.625L1381.46 890.429L1325.43 858.062L1322.43 863.257ZM1323.16 857.762L1278.98 869.6L1280.53 875.395L1324.71 863.557L1323.16 857.762ZM509.484 1084.04L541.819 1028L536.622 1025L504.287 1081.04L509.484 1084.04ZM539.997 1029.4L584.177 1017.56L582.624 1011.76L538.444 1023.6L539.997 1029.4ZM581.9 1017.26L637.924 1049.63L640.925 1044.43L584.901 1012.06L581.9 1017.26ZM636.826 1045.53L604.491 1101.57L609.688 1104.57L642.023 1048.53L636.826 1045.53ZM606.313 1100.17L562.134 1112.01L563.687 1117.81L607.866 1105.97L606.313 1100.17ZM564.411 1112.31L508.387 1079.95L505.385 1085.14L561.409 1117.51L564.411 1112.31ZM537.72 1029.1L593.744 1061.47L596.746 1056.27L540.721 1023.9L537.72 1029.1ZM592.646 1057.37L560.312 1113.41L565.509 1116.41L597.843 1060.37L592.646 1057.37ZM596.021 1061.77L640.201 1049.93L638.648 1044.13L594.469 1055.97L596.021 1061.77ZM718.02 732.021L1197.01 1191.84L1201.16 1187.51L722.175 727.693L718.02 732.021ZM620.733 638.221L685.397 636.614L685.248 630.616L620.584 632.223L620.733 638.221ZM683.254 635.788L716.396 667.334L720.533 662.988L687.391 631.442L683.254 635.788ZM715.465 665.237L717.099 729.933L723.097 729.781L721.463 665.085L715.465 665.237ZM720.023 726.858L655.354 728.467L655.504 734.465L720.173 732.856L720.023 726.858ZM657.497 729.293L624.352 697.747L620.215 702.094L653.361 733.639L657.497 729.293ZM625.283 699.845L623.657 635.147L617.659 635.298L619.285 699.996L625.283 699.845ZM682.324 633.69L683.948 698.389L689.946 698.238L688.322 633.54L682.324 633.69ZM686.873 695.314L622.209 696.921L622.358 702.92L687.022 701.312L686.873 695.314ZM684.879 700.487L718.03 732.03L722.166 727.684L689.015 696.14L684.879 700.487ZM1301.53 1284.23L1299.9 1219.53L1293.9 1219.68L1295.53 1284.38L1301.53 1284.23ZM1298.97 1217.43L1265.82 1185.89L1261.69 1190.24L1294.84 1221.78L1298.97 1217.43ZM1263.68 1185.06L1199.01 1186.67L1199.16 1192.67L1263.83 1191.06L1263.68 1185.06ZM1196.09 1189.75L1197.72 1254.44L1203.72 1254.29L1202.08 1189.6L1196.09 1189.75ZM1198.65 1256.53L1231.79 1288.09L1235.93 1283.74L1202.79 1252.19L1198.65 1256.53ZM1233.94 1288.91L1298.6 1287.31L1298.45 1281.31L1233.79 1282.91L1233.94 1288.91ZM1296.83 1216.61L1232.16 1218.21L1232.31 1224.21L1296.98 1222.6L1296.83 1216.61ZM1229.24 1221.29L1230.86 1285.99L1236.86 1285.84L1235.23 1221.14L1229.24 1221.29ZM1234.3 1219.04L1201.15 1187.5L1197.02 1191.84L1230.17 1223.39L1234.3 1219.04ZM758.472 846.176L1076.6 760.933L1075.05 755.138L756.919 840.38L758.472 846.176ZM1072.93 758.812L1158.22 1077.12L1164.01 1075.57L1078.72 757.259L1072.93 758.812ZM1160.34 1073.45L842.211 1158.69L843.764 1164.49L1161.89 1079.25L1160.34 1073.45ZM845.885 1160.81L760.594 842.501L754.798 844.054L840.089 1162.37L845.885 1160.81ZM692.616 807.971L1114.9 694.82L1113.35 689.024L691.063 802.176L692.616 807.971ZM1111.23 692.699L1224.44 1115.23L1230.24 1113.68L1117.02 691.146L1111.23 692.699ZM1226.57 1111.55L804.28 1224.71L805.833 1230.5L1228.12 1117.35L1226.57 1111.55ZM807.954 1226.83L694.738 804.297L688.942 805.85L802.159 1228.38L807.954 1226.83ZM814.321 429.197L956.693 960.54L962.489 958.987L820.116 427.644L814.321 429.197ZM778.839 293.386L746.504 349.429L751.701 352.428L784.036 296.385L778.839 293.386ZM746.205 351.705L758.05 395.91L763.845 394.357L752.001 350.152L746.205 351.705ZM759.447 397.731L815.471 430.098L818.473 424.903L762.448 392.536L759.447 397.731ZM819.571 429L851.905 372.957L846.708 369.958L814.373 426.001L819.571 429ZM852.205 370.681L840.36 326.476L834.564 328.029L846.409 372.234L852.205 370.681ZM838.963 324.655L782.939 292.288L779.937 297.483L835.961 329.85L838.963 324.655ZM747.602 353.526L803.627 385.893L806.628 380.698L750.604 348.331L747.602 353.526ZM807.726 384.795L840.061 328.752L834.864 325.753L802.529 381.796L807.726 384.795ZM802.229 384.072L814.074 428.277L819.87 426.724L808.025 382.519L802.229 384.072ZM826.664 470.886L779.728 551.535L784.914 554.553L831.85 473.904L826.664 470.886ZM780.81 555.636L861.435 602.621L864.456 597.437L783.831 550.452L780.81 555.636ZM865.538 601.538L912.474 520.889L907.289 517.871L860.352 598.52L865.538 601.538ZM911.392 516.788L830.768 469.803L827.747 474.987L908.371 521.972L911.392 516.788ZM837.449 528.564C841.451 524.082 848.333 523.695 852.814 527.701L856.813 523.228C849.861 517.013 839.184 517.612 832.973 524.568L837.449 528.564ZM852.813 527.701C857.296 531.71 857.684 538.593 853.681 543.075L858.157 547.071C864.367 540.117 863.763 529.443 856.813 523.228L852.813 527.701ZM853.681 543.075C849.679 547.557 842.798 547.945 838.317 543.938L834.317 548.41C841.27 554.627 851.946 554.026 858.157 547.071L853.681 543.075ZM838.317 543.938C833.834 539.93 833.446 533.046 837.449 528.564L832.973 524.568C826.763 531.522 827.367 542.197 834.317 548.411L838.317 543.938ZM1104.86 1490.33L962.489 958.987L956.693 960.54L1099.07 1491.88L1104.86 1490.33ZM1140.34 1626.14L1172.68 1570.1L1167.48 1567.1L1135.15 1623.14L1140.34 1626.14ZM1172.98 1567.82L1161.13 1523.62L1155.34 1525.17L1167.18 1569.38L1172.98 1567.82ZM1159.74 1521.8L1103.71 1489.43L1100.71 1494.63L1156.73 1526.99L1159.74 1521.8ZM1099.61 1490.53L1067.28 1546.57L1072.47 1549.57L1104.81 1493.53L1099.61 1490.53ZM1066.98 1548.85L1078.82 1593.05L1084.62 1591.5L1072.77 1547.29L1066.98 1548.85ZM1080.22 1594.87L1136.24 1627.24L1139.25 1622.05L1083.22 1589.68L1080.22 1594.87ZM1171.58 1566L1115.56 1533.64L1112.56 1538.83L1168.58 1571.2L1171.58 1566ZM1111.46 1534.73L1079.12 1590.78L1084.32 1593.78L1116.65 1537.73L1111.46 1534.73ZM1116.95 1535.46L1105.11 1491.25L1099.31 1492.8L1111.16 1537.01L1116.95 1535.46ZM1092.52 1448.64L1139.46 1367.99L1134.27 1364.98L1087.33 1445.62L1092.52 1448.64ZM1138.37 1363.89L1057.75 1316.9L1054.73 1322.09L1135.35 1369.08L1138.37 1363.89ZM1053.64 1317.98L1006.71 1398.63L1011.89 1401.65L1058.83 1321L1053.64 1317.98ZM1007.79 1402.74L1088.41 1449.72L1091.43 1444.53L1010.81 1397.55L1007.79 1402.74ZM1081.73 1390.96C1077.73 1395.44 1070.85 1395.83 1066.37 1391.82L1062.37 1396.3C1069.32 1402.51 1080 1401.91 1086.21 1394.96L1081.73 1390.96ZM1066.37 1391.82C1061.89 1387.81 1061.5 1380.94 1065.5 1376.45L1061.03 1372.46C1054.82 1379.41 1055.42 1390.08 1062.37 1396.3L1066.37 1391.82ZM1065.5 1376.45C1069.5 1371.97 1076.39 1371.58 1080.87 1375.59L1084.87 1371.12C1077.91 1364.9 1067.24 1365.5 1061.03 1372.46L1065.5 1376.45ZM1080.87 1375.59C1085.35 1379.6 1085.74 1386.48 1081.73 1390.96L1086.21 1394.96C1092.42 1388 1091.82 1377.33 1084.87 1371.12L1080.87 1375.59ZM1346.18 568.744L957.469 957.642L961.713 961.884L1350.42 572.985L1346.18 568.744ZM1445.98 470.129L1381.3 470.12L1381.3 476.12L1445.98 476.129L1445.98 470.129ZM1379.17 470.999L1346.84 503.353L1351.08 507.595L1383.42 475.24L1379.17 470.999ZM1345.96 505.474L1345.97 570.192L1351.97 570.191L1351.96 505.473L1345.96 505.474ZM1348.97 573.192L1413.65 573.201L1413.65 567.201L1348.97 567.192L1348.97 573.192ZM1415.78 572.322L1448.11 539.968L1443.87 535.726L1411.53 568.08L1415.78 572.322ZM1448.99 537.846L1448.98 473.129L1442.98 473.13L1442.99 537.847L1448.99 537.846ZM1378.3 473.12L1378.31 537.838L1384.31 537.837L1384.3 473.119L1378.3 473.12ZM1381.31 540.837L1445.99 540.847L1445.99 534.847L1381.31 534.837L1381.31 540.837ZM1379.18 535.717L1346.85 568.071L1351.09 572.312L1383.43 539.958L1379.18 535.717ZM1316.27 600.273L1222.97 599.908L1222.95 605.908L1316.25 606.273L1316.27 600.273ZM1219.96 602.897L1219.62 696.233L1225.62 696.255L1225.96 602.919L1219.96 602.897ZM1222.61 699.244L1315.9 699.612L1315.93 693.612L1222.63 693.244L1222.61 699.244ZM1318.92 696.623L1319.26 603.284L1313.26 603.262L1312.92 696.601L1318.92 696.623ZM1271.73 638.441C1277.61 639.672 1281.39 645.437 1280.16 651.323L1286.04 652.543C1287.93 643.419 1282.08 634.478 1272.96 632.568L1271.73 638.441ZM1280.16 651.32C1278.93 657.211 1273.17 660.985 1267.3 659.754L1266.07 665.627C1275.2 667.539 1284.13 661.672 1286.04 652.547L1280.16 651.32ZM1267.29 659.754C1261.41 658.529 1257.63 652.76 1258.86 646.875L1252.99 645.648C1251.08 654.779 1256.95 663.728 1266.07 665.628L1267.29 659.754ZM1258.86 646.871C1260.08 640.989 1265.85 637.213 1271.73 638.441L1272.96 632.568C1263.83 630.662 1254.88 636.521 1252.99 645.651L1258.86 646.871ZM573.009 1350.78L961.713 961.884L957.469 957.642L568.765 1346.54L573.009 1350.78ZM473.2 1449.4L537.885 1449.41L537.886 1443.41L473.2 1443.4L473.2 1449.4ZM540.007 1448.53L572.345 1416.17L568.101 1411.93L535.763 1444.29L540.007 1448.53ZM573.223 1414.05L573.215 1349.34L567.215 1349.34L567.223 1414.05L573.223 1414.05ZM570.215 1346.34L505.529 1346.33L505.528 1352.33L570.215 1352.34L570.215 1346.34ZM503.407 1347.21L471.069 1379.56L475.312 1383.8L507.651 1351.45L503.407 1347.21ZM470.191 1381.68L470.2 1446.4L476.2 1446.4L476.191 1381.68L470.191 1381.68ZM540.885 1446.41L540.876 1381.69L534.876 1381.69L534.885 1446.41L540.885 1446.41ZM537.876 1378.69L473.191 1378.68L473.19 1384.68L537.876 1384.69L537.876 1378.69ZM539.998 1383.81L572.337 1351.46L568.093 1347.22L535.754 1379.57L539.998 1383.81ZM602.917 1319.26L696.205 1319.62L696.228 1313.62L602.94 1313.26L602.917 1319.26ZM699.217 1316.63L699.558 1223.29L693.558 1223.27L693.217 1316.61L699.217 1316.63ZM696.569 1220.28L603.278 1219.91L603.254 1225.91L696.546 1226.28L696.569 1220.28ZM600.266 1222.9L599.929 1316.24L605.929 1316.27L606.266 1222.92L600.266 1222.9ZM647.453 1281.09C641.567 1279.85 637.793 1274.09 639.02 1268.2L633.146 1266.98C631.243 1276.11 637.099 1285.05 646.224 1286.96L647.453 1281.09ZM639.02 1268.2C640.247 1262.32 646.009 1258.54 651.888 1259.77L653.117 1253.9C643.985 1251.99 635.048 1257.85 633.146 1266.98L639.02 1268.2ZM651.891 1259.77C657.77 1261 661.548 1266.76 660.322 1272.65L666.195 1273.88C668.097 1264.75 662.242 1255.8 653.114 1253.9L651.891 1259.77ZM660.322 1272.65C659.095 1278.54 653.332 1282.31 647.45 1281.09L646.227 1286.96C655.351 1288.86 664.293 1283.01 666.195 1273.88L660.322 1272.65ZM1491.45 1099.31L960.368 956.865L958.814 962.661L1489.89 1105.11L1491.45 1099.31ZM1622.63 1135.41L1566.62 1167.76L1569.62 1172.96L1625.63 1140.61L1622.63 1135.41ZM1568.9 1167.46L1524.72 1155.61L1523.16 1161.4L1567.34 1173.25L1568.9 1167.46ZM1526.54 1157.01L1494.19 1100.96L1488.99 1103.95L1521.34 1160.01L1526.54 1157.01ZM1493.09 1105.05L1549.1 1072.7L1546.1 1067.51L1490.09 1099.86L1493.09 1105.05ZM1546.83 1073L1591.01 1084.85L1592.56 1079.06L1548.38 1067.21L1546.83 1073ZM1589.19 1083.46L1621.54 1139.51L1626.73 1136.51L1594.38 1080.46L1589.19 1083.46ZM1570.72 1168.86L1538.37 1112.81L1533.17 1115.81L1565.52 1171.86L1570.72 1168.86ZM1537.27 1116.9L1593.28 1084.55L1590.28 1079.36L1534.27 1111.71L1537.27 1116.9ZM1536.55 1111.41L1492.37 1099.56L1490.81 1105.35L1534.99 1117.2L1536.55 1111.41ZM1445.21 1087.57L1364.6 1134.53L1367.61 1139.71L1448.23 1092.75L1445.21 1087.57ZM1368.7 1135.61L1321.73 1054.95L1316.55 1057.97L1363.51 1138.63L1368.7 1135.61ZM1320.65 1059.05L1401.26 1012.09L1398.24 1006.9L1317.63 1053.87L1320.65 1059.05ZM1397.16 1011.01L1444.13 1091.67L1449.31 1088.65L1402.35 1007.99L1397.16 1011.01ZM1394.57 1086.44C1401.52 1080.22 1402.12 1069.55 1395.91 1062.6L1391.43 1066.59C1395.44 1071.08 1395.05 1077.96 1390.57 1081.97L1394.57 1086.44ZM1395.91 1062.6C1389.7 1055.65 1379.03 1055.03 1372.08 1061.25L1376.08 1065.73C1380.55 1061.72 1387.43 1062.11 1391.44 1066.6L1395.91 1062.6ZM1372.08 1061.25C1365.13 1067.46 1364.52 1078.14 1370.74 1085.1L1375.21 1081.1C1371.2 1076.61 1371.59 1069.73 1376.07 1065.73L1372.08 1061.25ZM1370.74 1085.09C1376.94 1092.05 1387.62 1092.65 1394.57 1086.44L1390.57 1081.97C1386.09 1085.97 1379.21 1085.58 1375.21 1081.1L1370.74 1085.09ZM427.737 820.217L958.814 962.661L960.368 956.865L429.291 814.422L427.737 820.217ZM296.547 784.119L352.561 751.768L349.561 746.572L293.546 778.923L296.547 784.119ZM350.284 752.068L394.467 763.919L396.021 758.123L351.838 746.273L350.284 752.068ZM392.646 762.521L424.997 818.572L430.194 815.573L397.842 759.521L392.646 762.521ZM426.095 814.475L370.079 846.826L373.08 852.022L429.096 819.671L426.095 814.475ZM372.357 846.526L328.174 834.676L326.62 840.471L370.803 852.321L372.357 846.526ZM329.995 836.074L297.645 780.021L292.448 783.021L324.799 839.073L329.995 836.074ZM348.463 750.67L380.813 806.722L386.01 803.723L353.659 747.671L348.463 750.67ZM381.911 802.625L325.897 834.975L328.897 840.171L384.912 807.82L381.911 802.625ZM382.635 808.12L426.818 819.97L428.373 814.175L384.189 802.325L382.635 808.12ZM473.977 831.958L554.585 784.996L551.565 779.811L470.957 826.774L473.977 831.958ZM550.482 783.913L597.445 864.574L602.63 861.555L555.668 780.894L550.482 783.913ZM598.527 860.473L517.919 907.438L520.939 912.622L601.548 865.657L598.527 860.473ZM522.022 908.521L475.06 827.857L469.874 830.876L516.836 911.54L522.022 908.521ZM524.61 833.088C517.661 839.303 517.06 849.973 523.272 856.928L527.747 852.931C523.743 848.447 524.129 841.568 528.61 837.559L524.61 833.088ZM523.272 856.928C529.483 863.88 540.156 864.493 547.109 858.272L543.108 853.8C538.632 857.805 531.754 857.416 527.747 852.931L523.272 856.928ZM547.107 858.274C554.062 852.064 554.657 841.384 548.446 834.431L543.972 838.428C547.978 842.913 547.59 849.799 543.111 853.798L547.107 858.274ZM548.446 834.431C542.235 827.476 531.563 826.872 524.611 833.087L528.61 837.56C533.089 833.556 539.966 833.943 543.971 838.428L548.446 834.431ZM294.474 951.571L338.654 939.733L337.101 933.937L292.922 945.775L294.474 951.571ZM336.377 939.433L392.401 971.8L395.403 966.605L339.378 934.237L336.377 939.433ZM391.004 969.979L462.072 1235.21L467.868 1233.66L396.8 968.426L391.004 969.979ZM462.372 1232.93L430.037 1288.98L435.234 1291.98L467.569 1235.93L462.372 1232.93ZM431.859 1287.58L387.679 1299.42L389.232 1305.21L433.412 1293.37L431.859 1287.58ZM391.354 1301.54L296.596 947.897L290.8 949.449L385.558 1303.09L391.354 1301.54ZM334.98 937.612L429.738 1291.25L435.533 1289.7L340.775 936.059L334.98 937.612ZM1529.95 614.314L1485.77 626.152L1487.32 631.948L1531.5 620.11L1529.95 614.314ZM1483.95 627.551L1451.61 683.594L1456.81 686.592L1489.15 630.549L1483.95 627.551ZM1451.31 685.869L1522.38 951.1L1528.18 949.547L1457.11 684.316L1451.31 685.869ZM1523.78 952.921L1579.8 985.289L1582.81 980.093L1526.78 947.726L1523.78 952.921ZM1582.08 985.589L1626.26 973.751L1624.71 967.955L1580.53 979.793L1582.08 985.589ZM1628.38 970.077L1533.62 616.436L1527.83 617.989L1622.59 971.629L1628.38 970.077ZM1483.65 629.826L1578.41 983.467L1584.2 981.914L1489.45 628.274L1483.65 629.826ZM1049.16 640.076L864.256 1277.78L870.019 1279.45L1054.93 641.747L1049.16 640.076ZM1089.41 506.6L1032.61 537.542L1035.48 542.811L1092.28 511.87L1089.41 506.6ZM1031.16 539.328L1018.23 583.219L1023.99 584.915L1036.92 541.024L1031.16 539.328ZM1018.48 585.501L1049.41 642.346L1054.68 639.478L1023.75 582.633L1018.48 585.501ZM1053.48 643.546L1110.29 612.605L1107.42 607.336L1050.61 638.277L1053.48 643.546ZM1111.73 610.819L1124.67 566.926L1118.91 565.23L1105.98 609.123L1111.73 610.819ZM1124.43 564.643L1093.48 507.801L1088.21 510.669L1119.16 567.512L1124.43 564.643ZM1031.41 541.61L1062.35 598.453L1067.62 595.585L1036.68 538.742L1031.41 541.61ZM1066.42 599.653L1123.23 568.712L1120.36 563.443L1063.55 594.384L1066.42 599.653ZM1062.11 596.171L1049.17 640.064L1054.92 641.76L1067.86 597.867L1062.11 596.171ZM830.973 1408.86L800.031 1352.01L794.761 1354.88L825.703 1411.73L830.973 1408.86ZM800.273 1354.3L813.206 1310.41L807.451 1308.71L794.518 1352.6L800.273 1354.3ZM811.764 1312.19L868.573 1281.25L865.703 1275.98L808.894 1306.92L811.764 1312.19ZM864.503 1280.05L895.434 1336.89L900.704 1334.02L869.773 1277.18L864.503 1280.05ZM895.191 1334.61L882.265 1378.5L888.02 1380.2L900.947 1336.3L895.191 1334.61ZM883.707 1376.72L826.903 1407.66L829.773 1412.93L886.577 1381.99L883.707 1376.72ZM798.831 1356.08L855.634 1325.14L852.764 1319.87L795.961 1350.81L798.831 1356.08ZM851.564 1323.94L882.507 1380.79L887.777 1377.92L856.834 1321.07L851.564 1323.94ZM857.077 1323.36L870.015 1279.46L864.26 1277.77L851.322 1321.66L857.077 1323.36ZM616.893 1505.82L626.194 1461.01L620.319 1459.79L611.019 1504.6L616.893 1505.82ZM624.902 1462.91L678.989 1427.43L675.697 1422.41L621.611 1457.89L624.902 1462.91ZM676.732 1427.86L945.44 1483.78L946.663 1477.91L677.954 1421.98L676.732 1427.86ZM943.542 1482.49L979.021 1536.61L984.039 1533.32L948.56 1479.2L943.542 1482.49ZM978.593 1534.36L969.29 1579.16L975.164 1580.38L984.468 1535.58L978.593 1534.36ZM972.838 1576.83L614.567 1502.28L613.345 1508.15L971.616 1582.71L972.838 1576.83ZM622.645 1463.34L980.919 1537.9L982.142 1532.03L623.867 1457.47L622.645 1463.34ZM1534.2 1257.24L1503.75 1223.08L1499.27 1227.07L1529.72 1261.23L1534.2 1257.24ZM1501.68 1222.08L1437.09 1218.4L1436.75 1224.39L1501.34 1228.07L1501.68 1222.08ZM1434.92 1219.16L1230.18 1401.94L1234.17 1406.42L1438.92 1223.63L1434.92 1219.16ZM1229.18 1404.01L1225.52 1468.62L1231.51 1468.96L1235.17 1404.35L1229.18 1404.01ZM1226.27 1470.79L1256.73 1504.93L1261.21 1500.94L1230.75 1466.79L1226.27 1470.79ZM1260.97 1505.18L1533.96 1261.47L1529.96 1257L1256.97 1500.7L1260.97 1505.18ZM1499.51 1222.84L1226.51 1466.55L1230.51 1471.03L1503.51 1227.31L1499.51 1222.84ZM376.393 629.607L406.851 663.756L411.329 659.762L380.871 625.613L376.393 629.607ZM408.919 664.754L473.501 668.441L473.843 662.451L409.261 658.764L408.919 664.754ZM475.67 667.684L680.417 484.902L676.421 480.426L471.674 663.208L475.67 667.684ZM681.414 482.834L685.078 418.221L679.088 417.882L675.424 482.494L681.414 482.834ZM684.322 416.055L653.863 381.905L649.385 385.898L679.844 420.048L684.322 416.055ZM649.626 381.664L376.634 625.372L380.63 629.848L653.622 386.139L649.626 381.664ZM411.088 663.997L684.081 420.289L680.085 415.813L407.092 659.521L411.088 663.997ZM1293.71 381.019L1284.4 425.822L1290.28 427.042L1299.58 382.239L1293.71 381.019ZM1285.7 423.924L1231.6 459.41L1234.89 464.427L1288.99 428.941L1285.7 423.924ZM1233.86 458.981L965.155 403.06L963.933 408.934L1232.64 464.855L1233.86 458.981ZM967.053 404.352L931.574 350.228L926.556 353.518L962.035 407.642L967.053 404.352ZM932.002 352.483L941.305 307.679L935.43 306.459L926.127 351.263L932.002 352.483ZM937.756 310.006L1296.03 384.566L1297.26 378.692L938.979 304.132L937.756 310.006ZM1287.95 423.495L929.676 348.936L928.453 354.81L1286.73 429.369L1287.95 423.495Z" fill="url(#paint0_radial_122_143)" fill-opacity="0.5"/>
<ellipse opacity="0.2" cx="430.895" cy="874.703" rx="591.667" ry="579.333" transform="rotate(-15 430.895 874.703)" fill="url(#paint1_radial_122_143)"/>
<text transform="translate(455.423 1383.53) rotate(-15)" fill="#E8E8E8" xml:space="preserve" style="white-space: pre" font-family="Inter" font-size="32.025" letter-spacing="0em"><tspan x="0" y="31.1455">High Output Ventures</tspan></text>
<text transform="translate(1419.1 1125.31) rotate(-15)" fill="#E8E8E8" xml:space="preserve" style="white-space: pre" font-family="Inter" font-size="32.025" letter-spacing="0em"><tspan x="0.909424" y="31.1455">Silver Edition</tspan></text>
<path d="M860.054 983.675L876.354 956.071L882.163 977.751L860.054 983.675ZM948.49 959.978L939.776 927.459L923.476 955.062L926.381 965.902L904.272 971.826L892.654 928.467L908.954 900.863L914.763 922.543L917.667 933.383L933.967 905.779L925.253 873.26L941.554 845.656L947.363 867.336L958.981 910.695L970.599 954.054L948.49 959.978ZM1013.69 849.564L1002.07 806.204L996.262 784.524L979.962 812.128L991.581 855.488L1009.01 920.526L1031.12 914.602L1013.69 849.564ZM1036.93 936.282L1014.82 942.206L992.707 948.13L969.471 861.412L957.853 818.052L974.153 790.448L990.453 762.845L1006.75 735.241L1012.56 756.921L1024.18 800.28L1035.8 843.639L1059.03 930.358L1036.93 936.282Z" fill="#E8E8E8"/>
</g>
</g>
</g>
<defs>
<filter id="filter0_d_122_143" x="228.633" y="406.622" width="1622.73" height="1226.75" filterUnits="userSpaceOnUse" color-interpolation-filters="sRGB">
<feFlood flood-opacity="0" result="BackgroundImageFix"/>
<feColorMatrix in="SourceAlpha" type="matrix" values="0 0 0 0 0 0 0 0 0 0 0 0 0 0 0 0 0 0 127 0" result="hardAlpha"/>
<feOffset dx="80" dy="60"/>
<feGaussianBlur stdDeviation="50"/>
<feComposite in2="hardAlpha" operator="out"/>
<feColorMatrix type="matrix" values="0 0 0 0 0 0 0 0 0 0 0 0 0 0 0 0 0 0 0.5 0"/>
<feBlend mode="normal" in2="BackgroundImageFix" result="effect1_dropShadow_122_143"/>
<feBlend mode="normal" in="SourceGraphic" in2="effect1_dropShadow_122_143" result="shape"/>
</filter>
<radialGradient id="paint0_radial_122_143" cx="0" cy="0" r="1" gradientUnits="userSpaceOnUse" gradientTransform="translate(247.73 777.118) rotate(14.3903) scale(1469.84 1367.34)">
<stop stop-color="white"/>
<stop offset="0.304315" stop-color="#9A9A9A"/>
<stop offset="0.645394" stop-color="#4A4A4A"/>
<stop offset="0.807759"/>
</radialGradient>
<radialGradient id="paint1_radial_122_143" cx="0" cy="0" r="1" gradientUnits="userSpaceOnUse" gradientTransform="translate(430.895 874.703) rotate(90) scale(579.333 591.667)">
<stop stop-color="white" stop-opacity="0.5"/>
<stop offset="1" stop-color="#D9D9D9" stop-opacity="0"/>
</radialGradient>
<clipPath id="clip0_122_143">
<rect width="1920" height="1920" fill="white"/>
</clipPath>
<clipPath id="clip1_122_143">
<rect x="248.633" y="777.911" width="1280" height="720" rx="50" transform="rotate(-15 248.633 777.911)" fill="white"/>
</clipPath>
</defs>
</svg>
