<svg width="1920" height="1080" viewBox="0 0 1920 1080" fill="none" xmlns="http://www.w3.org/2000/svg">
<rect width="1920" height="1080" fill="#E5E5E5"/>
<g clip-path="url(#clip0_122_143)">
<rect width="1920" height="1080" rx="50" fill="#171717"/>
<path fill-rule="evenodd" clip-rule="evenodd" d="M-426.504 -789.613L260.028 398.559L421.518 -196.405L-426.504 -789.613Z" stroke="url(#paint0_radial_122_143)" stroke-opacity="0.5" stroke-width="10" stroke-miterlimit="10" stroke-linecap="square"/>
<path fill-rule="evenodd" clip-rule="evenodd" d="M461.35 -767.466L909.076 -661.525L243.223 533.503L461.35 -767.466Z" stroke="url(#paint1_radial_122_143)" stroke-opacity="0.5" stroke-width="10" stroke-miterlimit="10" stroke-linecap="square"/>
<path fill-rule="evenodd" clip-rule="evenodd" d="M993.865 -576.791L353.468 421.49L1492.75 -340.355L993.865 -576.791Z" stroke="url(#paint2_radial_122_143)" stroke-opacity="0.5" stroke-width="10" stroke-miterlimit="10" stroke-linecap="square"/>
<path fill-rule="evenodd" clip-rule="evenodd" d="M1126.24 -335.964L1613.35 -67.5161L299.895 603.912L1126.24 -335.964Z" stroke="url(#paint3_radial_122_143)" stroke-opacity="0.5" stroke-width="10" stroke-miterlimit="10" stroke-linecap="square"/>
<path fill-rule="evenodd" clip-rule="evenodd" d="M1309.32 213.473L1577.49 442.92L364.649 617.123L1309.32 213.473Z" stroke="url(#paint4_radial_122_143)" stroke-opacity="0.5" stroke-width="10" stroke-miterlimit="10" stroke-linecap="square"/>
<path fill-rule="evenodd" clip-rule="evenodd" d="M1594.26 655.765L396.67 641.891L1491.87 960.83L1594.26 655.765Z" stroke="url(#paint5_radial_122_143)" stroke-opacity="0.5" stroke-width="10" stroke-miterlimit="10" stroke-linecap="square"/>
<path fill-rule="evenodd" clip-rule="evenodd" d="M1315.18 978.689L264.093 627.762L1287.89 1264.52L1315.18 978.689Z" stroke="url(#paint6_radial_122_143)" stroke-opacity="0.5" stroke-width="10" stroke-miterlimit="10" stroke-linecap="square"/>
<path fill-rule="evenodd" clip-rule="evenodd" d="M1151.2 1350.95L214.497 620.728L772.983 1765.66L1151.2 1350.95Z" stroke="url(#paint7_radial_122_143)" stroke-opacity="0.5" stroke-width="10" stroke-miterlimit="10" stroke-linecap="square"/>
<path fill-rule="evenodd" clip-rule="evenodd" d="M709.953 1479.78L283.359 707.64L125.075 1792.17L709.953 1479.78Z" stroke="url(#paint8_radial_122_143)" stroke-opacity="0.5" stroke-width="10" stroke-miterlimit="10" stroke-linecap="square"/>
<ellipse opacity="0.2" cx="226.5" cy="211" rx="887.5" ry="869" fill="url(#paint9_radial_122_143)"/>
<text fill="#E8E8E8" xml:space="preserve" style="white-space: pre" font-family="Inter" font-size="48" letter-spacing="0em"><tspan x="64" y="1008.45">High Output Ventures</tspan></text>
<text fill="#E8E8E8" xml:space="preserve" style="white-space: pre" font-family="Inter" font-size="48" letter-spacing="0em"><tspan x="1600.58" y="1008.45">Iron Edition</tspan></text>
<text fill="#E8E8E8" xml:space="preserve" style="white-space: pre" font-family="Aleo" font-size="48" font-weight="bold" letter-spacing="0.2em"><tspan x="814.63" y="657.64">BOTMIND</tspan></text>
<path d="M805 542L839.333 508.333V542H805ZM942.333 542V491.5L908 525.166V542H873.667V474.667L908 441V474.667V491.5L942.333 457.833V407.334L976.667 373.666V407.334V474.667V542H942.333ZM1079.67 407.334V340V306.333L1045.33 340V407.334V508.333H1079.67V407.334ZM1079.67 542H1045.33H1011V407.334V340L1045.33 306.333L1079.67 272.667L1114 239V272.667V340V407.334V542H1079.67Z" fill="#E8E8E8"/>
</g>
<defs>
<radialGradient id="paint0_radial_122_143" cx="0" cy="0" r="1" gradientUnits="userSpaceOnUse" gradientTransform="translate(42.9999 62) rotate(31.5109) scale(1535.41 1388.02)">
<stop stop-color="#A98F5B"/>
<stop offset="0.552083" stop-color="#7A7468"/>
<stop offset="1"/>
</radialGradient>
<radialGradient id="paint1_radial_122_143" cx="0" cy="0" r="1" gradientUnits="userSpaceOnUse" gradientTransform="translate(42.9999 62) rotate(31.5109) scale(1535.41 1388.02)">
<stop stop-color="#A98F5B"/>
<stop offset="0.552083" stop-color="#7A7468"/>
<stop offset="1"/>
</radialGradient>
<radialGradient id="paint2_radial_122_143" cx="0" cy="0" r="1" gradientUnits="userSpaceOnUse" gradientTransform="translate(42.9999 62) rotate(31.5109) scale(1535.41 1388.02)">
<stop stop-color="#A98F5B"/>
<stop offset="0.552083" stop-color="#7A7468"/>
<stop offset="1"/>
</radialGradient>
<radialGradient id="paint3_radial_122_143" cx="0" cy="0" r="1" gradientUnits="userSpaceOnUse" gradientTransform="translate(42.9999 62) rotate(31.5109) scale(1535.41 1388.02)">
<stop stop-color="#A98F5B"/>
<stop offset="0.552083" stop-color="#7A7468"/>
<stop offset="1"/>
</radialGradient>
<radialGradient id="paint4_radial_122_143" cx="0" cy="0" r="1" gradientUnits="userSpaceOnUse" gradientTransform="translate(42.9999 62) rotate(31.5109) scale(1535.41 1388.02)">
<stop stop-color="#A98F5B"/>
<stop offset="0.552083" stop-color="#7A7468"/>
<stop offset="1"/>
</radialGradient>
<radialGradient id="paint5_radial_122_143" cx="0" cy="0" r="1" gradientUnits="userSpaceOnUse" gradientTransform="translate(42.9999 62) rotate(31.5109) scale(1535.41 1388.02)">
<stop stop-color="#A98F5B"/>
<stop offset="0.552083" stop-color="#7A7468"/>
<stop offset="1"/>
</radialGradient>
<radialGradient id="paint6_radial_122_143" cx="0" cy="0" r="1" gradientUnits="userSpaceOnUse" gradientTransform="translate(42.9999 62) rotate(31.5109) scale(1535.41 1388.02)">
<stop stop-color="#A98F5B"/>
<stop offset="0.552083" stop-color="#7A7468"/>
<stop offset="1"/>
</radialGradient>
<radialGradient id="paint7_radial_122_143" cx="0" cy="0" r="1" gradientUnits="userSpaceOnUse" gradientTransform="translate(42.9999 62) rotate(31.5109) scale(1535.41 1388.02)">
<stop stop-color="#A98F5B"/>
<stop offset="0.552083" stop-color="#7A7468"/>
<stop offset="1"/>
</radialGradient>
<radialGradient id="paint8_radial_122_143" cx="0" cy="0" r="1" gradientUnits="userSpaceOnUse" gradientTransform="translate(42.9999 62) rotate(31.5109) scale(1535.41 1388.02)">
<stop stop-color="#A98F5B"/>
<stop offset="0.552083" stop-color="#7A7468"/>
<stop offset="1"/>
</radialGradient>
<radialGradient id="paint9_radial_122_143" cx="0" cy="0" r="1" gradientUnits="userSpaceOnUse" gradientTransform="translate(226.5 211) rotate(90) scale(869 887.5)">
<stop stop-color="white" stop-opacity="0.5"/>
<stop offset="1" stop-color="#D9D9D9" stop-opacity="0"/>
</radialGradient>
<clipPath id="clip0_122_143">
<rect width="1920" height="1080" rx="50" fill="white"/>
</clipPath>
</defs>
</svg>
