<svg width="1920" height="1080" viewBox="0 0 1920 1080" fill="none" xmlns="http://www.w3.org/2000/svg">
<g clip-path="url(#clip0_245_357)">
<rect width="1920" height="1080" rx="50" fill="#171717"/>
<path d="M1663.08 537.356L1666.62 540.891L1670.15 537.356L1666.62 533.822L1663.08 537.356ZM1594.47 468.709L1598.01 465.175L1596.54 463.709H1594.47V468.709ZM1525.87 468.709V463.709H1523.79L1522.33 465.175L1525.87 468.709ZM1525.87 606.003L1522.33 609.537L1523.79 611.003H1525.87V606.003ZM1594.47 606.003V611.003H1596.54L1598.01 609.537L1594.47 606.003ZM255.913 541.64L252.377 538.105L248.844 541.64L252.377 545.174L255.913 541.64ZM324.52 472.993V467.993H322.448L320.984 469.459L324.52 472.993ZM393.127 472.993L396.664 469.459L395.199 467.993H393.127V472.993ZM393.127 610.287V615.287H395.199L396.664 613.821L393.127 610.287ZM324.52 610.287L320.984 613.821L322.448 615.287H324.52V610.287ZM594.419 -62.3089L595.593 -67.1692L590.732 -68.3432L589.559 -63.4813L594.419 -62.3089ZM688.735 -39.5333L693.002 -42.1393L691.922 -43.9073L689.909 -44.3936L688.735 -39.5333ZM724.507 19.0403L729.367 20.212L729.852 18.2003L728.774 16.4342L724.507 19.0403ZM607.434 90.6361L603.167 93.2424L604.247 95.0102L606.261 95.4964L607.434 90.6361ZM571.657 32.0626L566.796 30.8901L566.311 32.9024L567.39 34.6689L571.657 32.0626ZM1324.59 1141.31L1323.41 1146.17L1328.27 1147.34L1329.45 1142.48L1324.59 1141.31ZM1347.35 1046.93L1352.21 1048.11L1352.7 1046.09L1351.62 1044.33L1347.35 1046.93ZM1311.56 988.365L1315.83 985.758L1314.75 983.991L1312.74 983.505L1311.56 988.365ZM1194.49 1059.95L1189.63 1058.78L1189.15 1060.79L1190.23 1062.56L1194.49 1059.95ZM1230.26 1118.53L1226 1121.14L1227.08 1122.91L1229.09 1123.39L1230.26 1118.53ZM712.199 292.342V287.342C709.437 287.342 707.199 289.581 707.199 292.342H712.199ZM1206.22 292.342H1211.22C1211.22 289.581 1208.99 287.342 1206.22 287.342V292.342ZM1206.22 786.654V791.654C1208.99 791.654 1211.22 789.415 1211.22 786.654H1206.22ZM712.199 786.654H707.199C707.199 789.415 709.437 791.654 712.199 791.654V786.654ZM631.613 211.421V206.421C628.851 206.421 626.613 208.66 626.613 211.421H631.613ZM1287.39 211.421H1292.39C1292.39 208.66 1290.15 206.421 1287.39 206.421V211.421ZM1287.39 867.574V872.574C1290.15 872.574 1292.39 870.336 1292.39 867.574H1287.39ZM631.613 867.574H626.613C626.613 870.336 628.851 872.574 631.613 872.574V867.574ZM964.5 -285.632V-290.632H954.5V-285.632H964.5ZM959.5 -493L963.036 -496.535L959.5 -500.073L955.963 -496.535L959.5 -493ZM890.893 -424.353L887.356 -427.888L885.893 -426.423V-424.353H890.893ZM890.893 -355.706H885.893V-353.636L887.356 -352.172L890.893 -355.706ZM959.5 -287.06L955.963 -283.525L959.5 -279.987L963.036 -283.525L959.5 -287.06ZM1028.11 -355.706L1031.64 -352.172L1033.11 -353.636V-355.706H1028.11ZM1028.11 -424.353H1033.11V-426.423L1031.64 -427.888L1028.11 -424.353ZM959.87 -217.243L963.42 -220.764L959.897 -224.316L956.347 -220.791L959.87 -217.243ZM860.555 -118.614L857.031 -122.162L853.486 -118.641L857.005 -115.093L860.555 -118.614ZM959.129 -19.2372L955.58 -15.716L959.103 -12.1641L962.653 -15.6894L959.129 -19.2372ZM1058.45 -117.866L1061.97 -114.318L1065.51 -117.84L1061.99 -121.387L1058.45 -117.866ZM976.295 -130.43L980.479 -133.167L980.479 -133.168L976.295 -130.43ZM941.456 -107.605L945.64 -110.342L945.64 -110.343L941.456 -107.605ZM954.5 1364.63V1369.63H964.5V1364.63H954.5ZM959.5 1572L955.963 1575.53L959.5 1579.07L963.036 1575.53L959.5 1572ZM1028.11 1503.35L1031.64 1506.89L1033.11 1505.42V1503.35H1028.11ZM1028.11 1434.71H1033.11V1432.64L1031.64 1431.17L1028.11 1434.71ZM959.5 1366.06L963.036 1362.53L959.5 1358.99L955.963 1362.53L959.5 1366.06ZM890.893 1434.71L887.356 1431.17L885.893 1432.64V1434.71H890.893ZM890.893 1503.35H885.893V1505.42L887.356 1506.89L890.893 1503.35ZM959.129 1296.23L955.58 1299.75L959.103 1303.31L962.652 1299.78L959.129 1296.23ZM1058.45 1197.61L1061.97 1201.16L1065.51 1197.64L1061.99 1194.09L1058.45 1197.61ZM959.87 1098.23L963.42 1094.71L959.897 1091.15L956.347 1094.68L959.87 1098.23ZM860.555 1196.86L857.031 1193.31L853.486 1196.83L857.005 1200.38L860.555 1196.86ZM1676.17 131.263L1680.5 128.762L1675.5 120.103L1671.17 122.604L1676.17 131.263ZM1853.15 23.2497L1857.98 24.543L1859.27 19.7147L1854.44 18.4203L1853.15 23.2497ZM1759.43 -1.87634L1760.73 -6.70578L1758.72 -7.2424L1756.93 -6.20581L1759.43 -1.87634ZM1700.02 32.4471L1697.52 28.1176L1695.72 29.1534L1695.19 31.1537L1700.02 32.4471ZM1674.91 126.22L1670.08 124.927L1668.78 129.755L1673.61 131.049L1674.91 126.22ZM1768.63 151.346L1767.33 156.175L1769.33 156.712L1771.13 155.675L1768.63 151.346ZM1828.04 117.023L1830.54 121.352L1832.33 120.316L1832.87 118.316L1828.04 117.023ZM1614.67 161.452L1619.5 162.764L1620.81 157.94L1615.98 156.628L1614.67 161.452ZM1479.64 124.703L1480.95 119.878L1476.13 118.565L1474.81 123.391L1479.64 124.703ZM1442.91 259.804L1438.08 258.492L1436.77 263.315L1441.59 264.628L1442.91 259.804ZM1577.94 296.557L1576.63 301.382L1581.45 302.695L1582.76 297.869L1577.94 296.557ZM1538.53 191.103L1540.79 186.641L1540.78 186.64L1538.53 191.103ZM1547.74 219.082L1552.2 221.337L1552.2 221.332L1547.74 219.082ZM1519.77 228.295L1522.03 223.833L1522.02 223.83L1519.77 228.295ZM1510.57 200.314L1515.03 202.568L1515.03 202.564L1510.57 200.314ZM242.827 947.735L238.498 950.237L243.5 958.896L247.829 956.394L242.827 947.735ZM65.8466 1055.75L61.0168 1054.46L59.7238 1059.28L64.5519 1060.58L65.8466 1055.75ZM159.565 1080.87L158.271 1085.7L160.272 1086.24L162.066 1085.2L159.565 1080.87ZM218.98 1046.55L221.482 1050.88L223.275 1049.84L223.81 1047.84L218.98 1046.55ZM244.093 952.779L248.923 954.073L250.216 949.244L245.388 947.95L244.093 952.779ZM150.373 927.654L151.668 922.825L149.667 922.288L147.872 923.325L150.373 927.654ZM90.9582 961.978L88.4571 957.648L86.6641 958.684L86.1284 960.684L90.9582 961.978ZM304.335 917.549L299.51 916.238L298.199 921.062L303.022 922.374L304.335 917.549ZM439.359 954.289L438.046 959.114L442.872 960.427L444.184 955.601L439.359 954.289ZM476.087 819.192L480.912 820.504L482.223 815.681L477.4 814.368L476.087 819.192ZM341.061 782.439L342.375 777.614L337.549 776.301L336.237 781.127L341.061 782.439ZM380.469 887.894L378.213 892.356L378.218 892.359L380.469 887.894ZM399.231 850.701L396.975 855.163L396.98 855.166L399.231 850.701ZM1671.17 956.394L1675.5 958.896L1680.5 950.236L1676.17 947.735L1671.17 956.394ZM1853.15 1055.75L1854.44 1060.58L1859.27 1059.28L1857.98 1054.46L1853.15 1055.75ZM1759.43 1080.87L1756.93 1085.2L1758.72 1086.24L1760.73 1085.7L1759.43 1080.87ZM1700.02 1046.55L1695.19 1047.84L1695.72 1049.84L1697.52 1050.88L1700.02 1046.55ZM1674.91 952.779L1673.61 947.95L1668.78 949.244L1670.08 954.072L1674.91 952.779ZM1768.63 927.654L1771.13 923.325L1769.33 922.288L1767.33 922.825L1768.63 927.654ZM1828.04 961.978L1832.87 960.684L1832.33 958.684L1830.54 957.648L1828.04 961.978ZM1614.67 917.549L1615.98 922.374L1620.81 921.062L1619.5 916.238L1614.67 917.549ZM1479.64 954.289L1474.81 955.601L1476.13 960.427L1480.95 959.114L1479.64 954.289ZM1442.91 819.192L1441.59 814.368L1436.77 815.681L1438.08 820.504L1442.91 819.192ZM1577.94 782.439L1582.76 781.127L1581.45 776.301L1576.63 777.614L1577.94 782.439ZM1538.53 887.894L1540.78 892.358L1540.79 892.356L1538.53 887.894ZM1547.74 859.914L1552.2 857.664L1552.2 857.659L1547.74 859.914ZM1519.77 850.701L1522.02 855.166L1522.03 855.163L1519.77 850.701ZM1510.57 878.682L1515.03 876.432L1515.03 876.428L1510.57 878.682ZM247.829 122.604L243.5 120.103L238.498 128.762L242.827 131.263L247.829 122.604ZM65.8466 23.2497L64.5518 18.4203L59.7238 19.7147L61.0168 24.5431L65.8466 23.2497ZM159.565 -1.87634L162.066 -6.20584L160.272 -7.2424L158.271 -6.70578L159.565 -1.87634ZM218.98 32.4471L223.81 31.1536L223.275 29.1534L221.482 28.1176L218.98 32.4471ZM244.093 126.22L245.388 131.049L250.216 129.755L248.923 124.926L244.093 126.22ZM150.373 151.346L147.872 155.675L149.667 156.712L151.668 156.175L150.373 151.346ZM90.9582 117.023L86.1284 118.316L86.6641 120.316L88.4572 121.352L90.9582 117.023ZM304.335 161.452L303.022 156.628L298.199 157.94L299.51 162.764L304.335 161.452ZM439.359 124.703L444.184 123.391L442.872 118.565L438.046 119.878L439.359 124.703ZM476.087 259.804L477.4 264.628L482.223 263.315L480.912 258.492L476.087 259.804ZM341.061 296.557L336.237 297.869L337.549 302.695L342.375 301.382L341.061 296.557ZM380.469 191.103L378.215 186.64L378.214 186.641L380.469 191.103ZM399.231 228.295L396.98 223.83L396.975 223.833L399.231 228.295ZM408.436 200.314L403.972 202.566L403.972 202.567L408.436 200.314ZM-1 264.911V259.911H-6V264.911H-1ZM67.6071 264.911L71.1437 261.377L69.679 259.911H67.6071V264.911ZM136.214 333.558H141.214V331.488L139.751 330.023L136.214 333.558ZM136.214 745.438L139.751 748.973L141.214 747.509V745.438H136.214ZM67.6071 814.085V819.085H69.679L71.1437 817.62L67.6071 814.085ZM-1 814.085H-6V819.085H-1V814.085ZM1920 264.911H1925V259.911H1920V264.911ZM1851.39 264.911V259.911H1849.32L1847.86 261.377L1851.39 264.911ZM1782.79 333.558L1779.25 330.023L1777.79 331.488V333.558H1782.79ZM1782.79 745.438H1777.79V747.509L1779.25 748.973L1782.79 745.438ZM1851.39 814.085L1847.86 817.62L1849.32 819.085H1851.39V814.085ZM1920 814.085V819.085H1925V814.085H1920ZM1324.59 -62.3089L1329.45 -63.4814L1328.27 -68.3431L1323.41 -67.1692L1324.59 -62.3089ZM1230.26 -39.5333L1229.09 -44.3936L1227.08 -43.9073L1226 -42.1393L1230.26 -39.5333ZM1194.49 19.0403L1190.23 16.4342L1189.15 18.2003L1189.63 20.212L1194.49 19.0403ZM1311.56 90.6361L1312.74 95.4964L1314.75 95.0103L1315.83 93.2429L1311.56 90.6361ZM1347.35 32.0626L1351.62 34.6693L1352.7 32.9026L1352.21 30.8901L1347.35 32.0626ZM594.419 1141.31L589.559 1142.48L590.732 1147.34L595.593 1146.17L594.419 1141.31ZM571.657 1046.93L567.39 1044.33L566.311 1046.09L566.796 1048.11L571.657 1046.93ZM607.434 988.365L606.261 983.505L604.247 983.991L603.167 985.759L607.434 988.365ZM724.507 1059.95L728.774 1062.56L729.852 1060.79L729.367 1058.78L724.507 1059.95ZM688.735 1118.53L689.909 1123.39L691.923 1122.91L693.002 1121.14L688.735 1118.53ZM246.953 1195.61L242.487 1193.36L240.24 1197.83L244.702 1200.07L246.953 1195.61ZM277.825 1134.29L276.258 1129.55L274.291 1130.2L273.359 1132.05L277.825 1134.29ZM369.966 1103.88L372.217 1099.42L370.366 1098.49L368.399 1099.14L369.966 1103.88ZM737.583 1289.23L742.332 1287.66L741.683 1285.7L739.834 1284.77L737.583 1289.23ZM767.976 1381.42L772.442 1383.67L773.373 1381.82L772.725 1379.86L767.976 1381.42ZM737.103 1442.72L734.852 1447.19L739.319 1449.44L741.569 1444.97L737.103 1442.72ZM1672.53 1195.61L1674.78 1200.07L1679.25 1197.83L1677 1193.36L1672.53 1195.61ZM1641.67 1134.29L1646.14 1132.05L1645.21 1130.2L1643.24 1129.55L1641.67 1134.29ZM1549.52 1103.88L1551.09 1099.14L1549.12 1098.49L1547.27 1099.42L1549.52 1103.88ZM1181.91 1289.23L1179.66 1284.77L1177.81 1285.7L1177.16 1287.67L1181.91 1289.23ZM1151.52 1381.42L1146.77 1379.86L1146.12 1381.82L1147.05 1383.67L1151.52 1381.42ZM1182.39 1442.72L1177.93 1444.97L1180.18 1449.44L1184.64 1447.19L1182.39 1442.72ZM246.706 -167.3L244.455 -171.765L239.993 -169.515L242.24 -165.051L246.706 -167.3ZM277.578 -105.997L273.112 -103.748L274.044 -101.898L276.011 -101.249L277.578 -105.997ZM369.719 -75.5825L368.151 -70.8345L370.119 -70.1849L371.97 -71.1179L369.719 -75.5825ZM737.336 -260.925L739.587 -256.46L741.436 -257.392L742.085 -259.359L737.336 -260.925ZM767.729 -353.118L772.478 -351.553L773.126 -353.519L772.195 -355.367L767.729 -353.118ZM736.856 -414.423L741.322 -416.672L739.072 -421.139L734.605 -418.887L736.856 -414.423ZM1672.3 -167.3L1676.77 -165.051L1679.01 -169.515L1674.55 -171.765L1672.3 -167.3ZM1641.43 -105.997L1642.99 -101.249L1644.96 -101.898L1645.89 -103.748L1641.43 -105.997ZM1549.27 -75.5825L1547.02 -71.1179L1548.87 -70.185L1550.84 -70.8344L1549.27 -75.5825ZM1181.66 -260.925L1176.91 -259.359L1177.56 -257.392L1179.41 -256.46L1181.66 -260.925ZM1151.27 -353.118L1146.8 -355.367L1145.87 -353.519L1146.52 -351.553L1151.27 -353.118ZM1182.14 -414.423L1184.39 -418.887L1179.93 -421.139L1177.68 -416.672L1182.14 -414.423ZM1457.24 532.356L461.713 536.64L461.756 546.64L1457.28 542.356L1457.24 532.356ZM1666.62 533.822L1598.01 465.175L1590.94 472.244L1659.54 540.891L1666.62 533.822ZM1594.47 463.709H1525.87V473.709H1594.47V463.709ZM1522.33 465.175L1453.72 533.822L1460.8 540.891L1529.4 472.244L1522.33 465.175ZM1453.72 540.891L1522.33 609.537L1529.4 602.469L1460.8 533.822L1453.72 540.891ZM1525.87 611.003H1594.47V601.003H1525.87V611.003ZM1598.01 609.537L1666.62 540.891L1659.54 533.822L1590.94 602.469L1598.01 609.537ZM1590.94 465.175L1522.33 533.822L1529.4 540.891L1598.01 472.244L1590.94 465.175ZM1522.33 540.891L1590.94 609.537L1598.01 602.469L1529.4 533.822L1522.33 540.891ZM1525.87 532.356H1457.26V542.356H1525.87V532.356ZM259.45 545.174L328.057 476.528L320.984 469.459L252.377 538.105L259.45 545.174ZM324.52 477.993H393.127V467.993H324.52V477.993ZM389.591 476.528L458.198 545.174L465.271 538.105L396.664 469.459L389.591 476.528ZM458.198 538.105L389.591 606.752L396.664 613.821L465.271 545.174L458.198 538.105ZM393.127 605.287H324.52V615.287H393.127V605.287ZM328.057 606.752L259.45 538.105L252.377 545.174L320.984 613.821L328.057 606.752ZM320.984 476.528L389.591 545.174L396.664 538.105L328.057 469.459L320.984 476.528ZM389.591 538.105L320.984 606.752L328.057 613.821L396.664 545.174L389.591 538.105ZM393.127 546.64H461.735V536.64H393.127V546.64ZM697.479 116L1212.97 968.176L1221.52 963L706.035 110.824L697.479 116ZM593.246 -57.4486L687.561 -34.673L689.909 -44.3936L595.593 -67.1692L593.246 -57.4486ZM684.468 -36.9273L720.24 21.6463L728.774 16.4342L693.002 -42.1393L684.468 -36.9273ZM719.646 17.8685L696.896 112.24L706.617 114.583L729.367 20.212L719.646 17.8685ZM702.93 108.551L608.608 85.7758L606.261 95.4964L700.583 118.272L702.93 108.551ZM611.701 88.0298L575.924 29.4562L567.39 34.6689L603.167 93.2424L611.701 88.0298ZM576.517 33.2349L599.28 -61.1365L589.559 -63.4813L566.796 30.8901L576.517 33.2349ZM683.874 -40.7057L661.111 53.6658L670.832 56.0107L693.596 -38.3608L683.874 -40.7057ZM667.145 49.9779L572.831 27.2023L570.483 36.9229L664.797 59.6985L667.145 49.9779ZM661.704 57.4449L697.49 116.018L706.023 110.805L670.238 52.2314L661.704 57.4449ZM1329.45 1142.48L1352.21 1048.11L1342.49 1045.76L1319.73 1140.14L1329.45 1142.48ZM1351.62 1044.33L1315.83 985.758L1307.3 990.972L1343.08 1049.54L1351.62 1044.33ZM1312.74 983.505L1218.42 960.728L1216.07 970.449L1310.39 993.226L1312.74 983.505ZM1212.38 964.416L1189.63 1058.78L1199.35 1061.12L1222.1 966.76L1212.38 964.416ZM1190.23 1062.56L1226 1121.14L1234.53 1115.93L1198.76 1057.34L1190.23 1062.56ZM1229.09 1123.39L1323.41 1146.17L1325.76 1136.45L1231.44 1113.67L1229.09 1123.39ZM1348.52 1042.07L1254.2 1019.3L1251.86 1029.02L1346.18 1051.8L1348.52 1042.07ZM1248.17 1022.99L1225.4 1117.36L1235.13 1119.71L1257.89 1025.33L1248.17 1022.99ZM1257.3 1021.55L1221.51 962.981L1212.98 968.195L1248.76 1026.76L1257.3 1021.55ZM712.199 297.342H1206.22V287.342H712.199V297.342ZM1201.22 292.342V786.654H1211.22V292.342H1201.22ZM1206.22 781.654H712.199V791.654H1206.22V781.654ZM717.199 786.654V292.342H707.199V786.654H717.199ZM631.613 216.421H1287.39V206.421H631.613V216.421ZM1282.39 211.421V867.574H1292.39V211.421H1282.39ZM1287.39 862.574H631.613V872.574H1287.39V862.574ZM636.613 867.574V211.421H626.613V867.574H636.613ZM954.5 -285.632V539.498H964.5V-285.632H954.5ZM955.963 -496.535L887.356 -427.888L894.429 -420.819L963.036 -489.465L955.963 -496.535ZM885.893 -424.353V-355.706H895.893V-424.353H885.893ZM887.356 -352.172L955.963 -283.525L963.036 -290.594L894.429 -359.241L887.356 -352.172ZM963.036 -283.525L1031.64 -352.172L1024.57 -359.241L955.963 -290.594L963.036 -283.525ZM1033.11 -355.706V-424.353H1023.11V-355.706H1033.11ZM1031.64 -427.888L963.036 -496.535L955.963 -489.465L1024.57 -420.819L1031.64 -427.888ZM887.356 -420.819L955.963 -352.172L963.036 -359.241L894.429 -427.888L887.356 -420.819ZM963.036 -352.172L1031.64 -420.819L1024.57 -427.888L955.963 -359.241L963.036 -352.172ZM954.5 -355.706V-287.06H964.5V-355.706H954.5ZM956.347 -220.791L857.031 -122.162L864.078 -115.067L963.394 -213.695L956.347 -220.791ZM857.005 -115.093L955.58 -15.716L962.679 -22.7584L864.104 -122.136L857.005 -115.093ZM962.653 -15.6894L1061.97 -114.318L1054.92 -121.414L955.606 -22.785L962.653 -15.6894ZM1061.99 -121.387L963.42 -220.764L956.32 -213.722L1054.9 -114.345L1061.99 -121.387ZM950.207 -132.263C957.514 -137.051 967.326 -135.005 972.111 -127.692L980.479 -133.168C972.668 -145.103 956.656 -148.444 944.726 -140.627L950.207 -132.263ZM972.111 -127.692C976.899 -120.374 974.853 -110.561 967.544 -105.772L973.025 -97.4079C984.954 -105.225 988.287 -121.234 980.479 -133.167L972.111 -127.692ZM967.544 -105.772C960.237 -100.983 950.426 -103.029 945.64 -110.342L937.272 -104.867C945.083 -92.9297 961.096 -89.5905 973.025 -97.4079L967.544 -105.772ZM945.64 -110.343C940.852 -117.659 942.898 -127.473 950.207 -132.263L944.726 -140.627C932.797 -132.81 929.464 -116.799 937.272 -104.867L945.64 -110.343ZM964.5 1364.63V539.498H954.5V1364.63H964.5ZM963.036 1575.53L1031.64 1506.89L1024.57 1499.82L955.963 1568.47L963.036 1575.53ZM1033.11 1503.35V1434.71H1023.11V1503.35H1033.11ZM1031.64 1431.17L963.036 1362.53L955.963 1369.59L1024.57 1438.24L1031.64 1431.17ZM955.963 1362.53L887.356 1431.17L894.429 1438.24L963.036 1369.59L955.963 1362.53ZM885.893 1434.71V1503.35H895.893V1434.71H885.893ZM887.356 1506.89L955.963 1575.53L963.036 1568.47L894.429 1499.82L887.356 1506.89ZM1031.64 1499.82L963.036 1431.17L955.963 1438.24L1024.57 1506.89L1031.64 1499.82ZM955.963 1431.17L887.356 1499.82L894.429 1506.89L963.036 1438.24L955.963 1431.17ZM964.5 1434.71V1366.06H954.5V1434.71H964.5ZM962.652 1299.78L1061.97 1201.16L1054.92 1194.07L955.606 1292.68L962.652 1299.78ZM1061.99 1194.09L963.42 1094.71L956.32 1101.75L1054.9 1201.14L1061.99 1194.09ZM956.347 1094.68L857.031 1193.31L864.078 1200.41L963.394 1101.78L956.347 1094.68ZM857.005 1200.38L955.58 1299.75L962.679 1292.71L864.104 1193.34L857.005 1200.38ZM968.794 1211.25C961.485 1216.04 951.674 1214 946.889 1206.68L938.521 1212.16C946.332 1224.1 962.345 1227.43 974.274 1219.62L968.794 1211.25ZM946.889 1206.68C942.101 1199.37 944.147 1189.56 951.455 1184.77L945.975 1176.41C934.046 1184.22 930.712 1200.23 938.521 1212.16L946.889 1206.68ZM951.455 1184.77C958.764 1179.98 968.575 1182.03 973.36 1189.34L981.727 1183.87C973.916 1171.93 957.904 1168.59 945.975 1176.41L951.455 1184.77ZM973.36 1189.34C978.147 1196.66 976.102 1206.46 968.794 1211.25L974.274 1219.62C986.203 1211.8 989.536 1195.8 981.727 1183.87L973.36 1189.34ZM1671.17 122.604L956.999 535.169L962.001 543.828L1676.17 131.263L1671.17 122.604ZM1854.44 18.4203L1760.73 -6.70578L1758.14 2.95309L1851.85 28.0792L1854.44 18.4203ZM1756.93 -6.20581L1697.52 28.1176L1702.52 36.7766L1761.93 2.45312L1756.93 -6.20581ZM1695.19 31.1537L1670.08 124.927L1679.74 127.513L1704.85 33.7404L1695.19 31.1537ZM1673.61 131.049L1767.33 156.175L1769.92 146.517L1676.2 121.39L1673.61 131.049ZM1771.13 155.675L1830.54 121.352L1825.54 112.693L1766.12 147.017L1771.13 155.675ZM1832.87 118.316L1857.98 24.543L1848.32 21.9564L1823.21 115.729L1832.87 118.316ZM1754.6 -3.16965L1729.49 90.6032L1739.15 93.1898L1764.26 -0.583038L1754.6 -3.16965ZM1733.03 96.726L1826.74 121.852L1829.33 112.193L1735.62 87.0671L1733.03 96.726ZM1731.82 87.567L1672.41 121.89L1677.41 130.549L1736.82 96.226L1731.82 87.567ZM1615.98 156.628L1480.95 119.878L1478.32 129.527L1613.36 166.277L1615.98 156.628ZM1474.81 123.391L1438.08 258.492L1447.73 261.116L1484.46 126.015L1474.81 123.391ZM1441.59 264.628L1576.63 301.382L1579.25 291.733L1444.22 254.979L1441.59 264.628ZM1582.76 297.869L1619.5 162.764L1609.85 160.14L1573.11 295.245L1582.76 297.869ZM1536.27 195.566C1544.07 199.508 1547.2 209.025 1543.27 216.833L1552.2 221.332C1558.62 208.601 1553.51 193.075 1540.79 186.641L1536.27 195.566ZM1543.27 216.828C1539.33 224.64 1529.82 227.772 1522.03 223.833L1517.52 232.757C1530.25 239.197 1545.77 234.064 1552.2 221.337L1543.27 216.828ZM1522.02 223.83C1514.23 219.898 1511.09 210.372 1515.03 202.568L1506.1 198.06C1499.67 210.796 1504.79 226.339 1517.52 232.759L1522.02 223.83ZM1515.03 202.564C1518.96 194.762 1528.48 191.628 1536.28 195.566L1540.78 186.64C1528.06 180.211 1512.52 185.325 1506.1 198.065L1515.03 202.564ZM247.829 956.394L962.001 543.828L956.999 535.169L242.827 947.735L247.829 956.394ZM64.5519 1060.58L158.271 1085.7L160.86 1076.04L67.1413 1050.92L64.5519 1060.58ZM162.066 1085.2L221.482 1050.88L216.479 1042.22L157.064 1076.54L162.066 1085.2ZM223.81 1047.84L248.923 954.073L239.264 951.486L214.151 1045.26L223.81 1047.84ZM245.388 947.95L151.668 922.825L149.079 932.484L242.799 957.609L245.388 947.95ZM147.872 923.325L88.4571 957.648L93.4593 966.307L152.874 931.984L147.872 923.325ZM86.1284 960.684L61.0168 1054.46L70.6764 1057.04L95.7881 963.271L86.1284 960.684ZM164.395 1082.17L189.507 988.396L179.847 985.809L154.736 1079.58L164.395 1082.17ZM185.972 982.273L92.253 957.148L89.6635 966.807L183.382 991.932L185.972 982.273ZM187.178 991.432L246.594 957.109L241.592 948.449L182.176 982.773L187.178 991.432ZM303.022 922.374L438.046 959.114L440.672 949.465L305.647 912.725L303.022 922.374ZM444.184 955.601L480.912 820.504L471.262 817.88L434.534 952.977L444.184 955.601ZM477.4 814.368L342.375 777.614L339.748 787.263L474.774 824.017L477.4 814.368ZM336.237 781.127L299.51 916.238L309.16 918.861L345.886 783.75L336.237 781.127ZM382.725 883.432C374.922 879.487 371.79 869.97 375.728 862.166L366.8 857.661C360.375 870.396 365.487 885.922 378.213 892.356L382.725 883.432ZM375.728 862.166C379.667 854.357 389.181 851.223 396.975 855.163L401.487 846.239C388.75 839.8 373.223 844.931 366.8 857.661L375.728 862.166ZM396.98 855.166C404.775 859.096 407.911 868.622 403.972 876.429L412.9 880.934C419.324 868.202 414.217 852.658 401.482 846.237L396.98 855.166ZM403.972 876.429C400.036 884.233 390.522 887.363 382.721 883.429L378.218 892.359C390.947 898.777 406.475 893.67 412.9 880.934L403.972 876.429ZM1676.17 947.735L962.001 535.169L956.999 543.828L1671.17 956.394L1676.17 947.735ZM1851.85 1050.92L1758.14 1076.04L1760.73 1085.7L1854.44 1060.58L1851.85 1050.92ZM1761.93 1076.54L1702.52 1042.22L1697.52 1050.88L1756.93 1085.2L1761.93 1076.54ZM1704.85 1045.26L1679.74 951.486L1670.08 954.072L1695.19 1047.84L1704.85 1045.26ZM1676.2 957.609L1769.92 932.484L1767.33 922.825L1673.61 947.95L1676.2 957.609ZM1766.12 931.984L1825.54 966.307L1830.54 957.648L1771.13 923.325L1766.12 931.984ZM1823.21 963.271L1848.32 1057.04L1857.98 1054.46L1832.87 960.684L1823.21 963.271ZM1764.26 1079.58L1739.15 985.809L1729.49 988.396L1754.6 1082.17L1764.26 1079.58ZM1735.62 991.932L1829.33 966.807L1826.74 957.148L1733.03 982.273L1735.62 991.932ZM1736.82 982.773L1677.41 948.45L1672.41 957.109L1731.82 991.432L1736.82 982.773ZM1613.36 912.725L1478.33 949.464L1480.95 959.114L1615.98 922.374L1613.36 912.725ZM1484.46 952.977L1447.73 817.88L1438.08 820.504L1474.81 955.601L1484.46 952.977ZM1444.22 824.017L1579.25 787.263L1576.63 777.614L1441.59 814.368L1444.22 824.017ZM1573.11 783.75L1609.85 918.861L1619.5 916.238L1582.76 781.127L1573.11 783.75ZM1540.79 892.356C1553.51 885.921 1558.62 870.396 1552.2 857.664L1543.27 862.163C1547.2 869.971 1544.07 879.488 1536.27 883.432L1540.79 892.356ZM1552.2 857.659C1545.77 844.932 1530.25 839.799 1517.52 846.239L1522.03 855.163C1529.82 851.224 1539.33 854.356 1543.27 862.168L1552.2 857.659ZM1517.52 846.237C1504.79 852.657 1499.67 868.2 1506.1 880.936L1515.03 876.428C1511.09 868.624 1514.23 859.098 1522.02 855.166L1517.52 846.237ZM1506.1 880.931C1512.52 893.672 1528.06 898.776 1540.78 892.358L1536.28 883.43C1528.48 887.364 1518.96 884.231 1515.03 876.432L1506.1 880.931ZM242.827 131.263L956.999 543.828L962.001 535.169L247.829 122.604L242.827 131.263ZM67.1414 28.0792L160.86 2.95312L158.271 -6.70578L64.5518 18.4203L67.1414 28.0792ZM157.064 2.45316L216.479 36.7766L221.482 28.1176L162.066 -6.20584L157.064 2.45316ZM214.151 33.7405L239.264 127.513L248.923 124.926L223.81 31.1536L214.151 33.7405ZM242.799 121.39L149.079 146.517L151.668 156.175L245.388 131.049L242.799 121.39ZM152.874 147.016L93.4593 112.693L88.4572 121.352L147.872 155.675L152.874 147.016ZM95.7881 115.729L70.6764 21.9564L61.0168 24.5431L86.1284 118.316L95.7881 115.729ZM154.736 -0.582947L179.847 93.1899L189.507 90.6031L164.395 -3.16971L154.736 -0.582947ZM183.382 87.0671L89.6635 112.193L92.253 121.852L185.972 96.726L183.382 87.0671ZM182.176 96.226L241.592 130.549L246.594 121.89L187.178 87.567L182.176 96.226ZM305.648 166.277L440.672 129.527L438.046 119.878L303.022 156.628L305.648 166.277ZM434.534 126.014L471.262 261.115L480.912 258.492L444.184 123.391L434.534 126.014ZM474.774 254.979L339.748 291.733L342.375 301.382L477.4 264.628L474.774 254.979ZM345.886 295.246L309.16 160.14L299.51 162.764L336.237 297.869L345.886 295.246ZM378.214 186.641C365.487 193.074 360.375 208.6 366.8 221.335L375.728 216.83C371.79 209.026 374.922 199.51 382.725 195.566L378.214 186.641ZM366.8 221.335C373.223 234.065 388.75 239.196 401.487 232.757L396.975 223.833C389.181 227.773 379.667 224.639 375.728 216.83L366.8 221.335ZM401.482 232.759C414.217 226.338 419.324 210.794 412.9 198.062L403.972 202.567C407.911 210.374 404.775 219.9 396.98 223.83L401.482 232.759ZM412.901 198.062C406.476 185.327 390.948 180.21 378.215 186.64L382.723 195.567C390.521 191.629 400.034 194.76 403.972 202.566L412.901 198.062ZM-1 269.911H67.6071V259.911H-1V269.911ZM64.0706 268.446L132.678 337.092L139.751 330.023L71.1437 261.377L64.0706 268.446ZM131.214 333.558V745.438H141.214V333.558H131.214ZM132.678 741.904L64.0706 810.551L71.1437 817.62L139.751 748.973L132.678 741.904ZM67.6071 809.085H-1V819.085H67.6071V809.085ZM4 814.085V264.911H-6V814.085H4ZM62.6071 264.911V814.085H72.6071V264.911H62.6071ZM1920 259.911H1851.39V269.911H1920V259.911ZM1847.86 261.377L1779.25 330.023L1786.32 337.092L1854.93 268.446L1847.86 261.377ZM1777.79 333.558V745.438H1787.79V333.558H1777.79ZM1779.25 748.973L1847.86 817.62L1854.93 810.551L1786.32 741.904L1779.25 748.973ZM1851.39 819.085H1920V809.085H1851.39V819.085ZM1925 814.085V264.911H1915V814.085H1925ZM1846.39 264.911V814.085H1856.39V264.911H1846.39ZM1212.97 110.824L697.479 963L706.035 968.176L1221.52 116L1212.97 110.824ZM1323.41 -67.1692L1229.09 -44.3936L1231.44 -34.673L1325.76 -57.4486L1323.41 -67.1692ZM1226 -42.1393L1190.23 16.4342L1198.76 21.6463L1234.53 -36.9273L1226 -42.1393ZM1189.63 20.212L1212.38 114.583L1222.1 112.24L1199.35 17.8685L1189.63 20.212ZM1218.42 118.272L1312.74 95.4964L1310.39 85.7758L1216.07 108.551L1218.42 118.272ZM1315.83 93.2429L1351.62 34.6693L1343.08 29.4558L1307.3 88.0294L1315.83 93.2429ZM1352.21 30.8901L1329.45 -63.4814L1319.73 -61.1364L1342.49 33.235L1352.21 30.8901ZM1225.4 -38.3608L1248.17 56.0107L1257.89 53.6658L1235.13 -40.7057L1225.4 -38.3608ZM1254.2 59.6985L1348.52 36.9229L1346.18 27.2022L1251.86 49.9779L1254.2 59.6985ZM1248.76 52.2314L1212.98 110.805L1221.51 116.018L1257.3 57.4449L1248.76 52.2314ZM599.28 1140.14L576.518 1045.76L566.796 1048.11L589.559 1142.48L599.28 1140.14ZM575.924 1049.54L611.701 990.972L603.167 985.759L567.39 1044.33L575.924 1049.54ZM608.608 993.226L702.93 970.449L700.583 960.728L606.261 983.505L608.608 993.226ZM696.896 966.76L719.646 1061.12L729.367 1058.78L706.617 964.416L696.896 966.76ZM720.239 1057.34L684.468 1115.93L693.002 1121.14L728.774 1062.56L720.239 1057.34ZM687.561 1113.67L593.246 1136.45L595.593 1146.17L689.909 1123.39L687.561 1113.67ZM572.831 1051.8L667.145 1029.02L664.797 1019.3L570.483 1042.07L572.831 1051.8ZM661.11 1025.33L683.874 1119.71L693.596 1117.36L670.832 1022.99L661.11 1025.33ZM670.238 1026.76L706.023 968.195L697.49 962.981L661.704 1021.55L670.238 1026.76ZM251.419 1197.86L282.291 1136.54L273.359 1132.05L242.487 1193.36L251.419 1197.86ZM279.392 1139.04L371.533 1108.63L368.399 1099.14L276.258 1129.55L279.392 1139.04ZM367.715 1108.35L735.332 1293.69L739.834 1284.77L372.217 1099.42L367.715 1108.35ZM732.835 1290.8L763.228 1382.99L772.725 1379.86L742.332 1287.66L732.835 1290.8ZM763.511 1379.17L732.637 1440.48L741.569 1444.97L772.442 1383.67L763.511 1379.17ZM739.354 1438.26L249.204 1191.15L244.702 1200.07L734.852 1447.19L739.354 1438.26ZM275.574 1138.76L765.725 1385.89L770.227 1376.96L280.076 1129.83L275.574 1138.76ZM1677 1193.36L1646.14 1132.05L1637.21 1136.54L1668.07 1197.86L1677 1193.36ZM1643.24 1129.55L1551.09 1099.14L1547.95 1108.63L1640.11 1139.04L1643.24 1129.55ZM1547.27 1099.42L1179.66 1284.77L1184.16 1293.7L1551.77 1108.35L1547.27 1099.42ZM1177.16 1287.67L1146.77 1379.86L1156.27 1382.99L1186.66 1290.8L1177.16 1287.67ZM1147.05 1383.67L1177.93 1444.97L1186.86 1440.48L1155.98 1379.17L1147.05 1383.67ZM1184.64 1447.19L1674.78 1200.07L1670.28 1191.15L1180.14 1438.26L1184.64 1447.19ZM1639.42 1129.83L1149.27 1376.96L1153.77 1385.89L1643.93 1138.76L1639.42 1129.83ZM242.24 -165.051L273.112 -103.748L282.044 -108.246L251.172 -169.549L242.24 -165.051ZM276.011 -101.249L368.151 -70.8345L371.286 -80.3305L279.145 -110.745L276.011 -101.249ZM371.97 -71.1179L739.587 -256.46L735.085 -265.389L367.468 -80.0472L371.97 -71.1179ZM742.085 -259.359L772.478 -351.553L762.981 -354.684L732.588 -262.49L742.085 -259.359ZM772.195 -355.367L741.322 -416.672L732.39 -412.174L763.264 -350.87L772.195 -355.367ZM734.605 -418.887L244.455 -171.765L248.957 -162.835L739.107 -409.958L734.605 -418.887ZM279.829 -101.532L769.98 -348.654L765.478 -357.583L275.327 -110.462L279.829 -101.532ZM1667.84 -169.549L1636.96 -108.246L1645.89 -103.748L1676.77 -165.051L1667.84 -169.549ZM1639.86 -110.745L1547.71 -80.3306L1550.84 -70.8344L1642.99 -101.249L1639.86 -110.745ZM1551.53 -80.0471L1183.91 -265.389L1179.41 -256.46L1547.02 -71.1179L1551.53 -80.0471ZM1186.41 -262.49L1156.02 -354.684L1146.52 -351.553L1176.91 -259.359L1186.41 -262.49ZM1155.74 -350.87L1186.61 -412.174L1177.68 -416.672L1146.8 -355.367L1155.74 -350.87ZM1179.89 -409.958L1670.05 -162.835L1674.55 -171.765L1184.39 -418.887L1179.89 -409.958ZM1643.68 -110.462L1153.52 -357.583L1149.02 -348.654L1639.18 -101.532L1643.68 -110.462Z" fill="url(#paint0_radial_245_357)" fill-opacity="0.5"/>
<ellipse opacity="0.2" cx="226.5" cy="211" rx="887.5" ry="869" fill="url(#paint1_radial_245_357)"/>
<path d="M68.2273 1008V973.091H72.4545V988.636H91.0682V973.091H95.2955V1008H91.0682V992.386H72.4545V1008H68.2273ZM103.213 1008V981.818H107.236V1008H103.213ZM105.259 977.455C104.474 977.455 103.798 977.188 103.23 976.653C102.673 976.119 102.395 975.477 102.395 974.727C102.395 973.977 102.673 973.335 103.23 972.801C103.798 972.267 104.474 972 105.259 972C106.043 972 106.713 972.267 107.27 972.801C107.838 973.335 108.122 973.977 108.122 974.727C108.122 975.477 107.838 976.119 107.27 976.653C106.713 977.188 106.043 977.455 105.259 977.455ZM125.172 1018.36C123.229 1018.36 121.558 1018.11 120.161 1017.61C118.763 1017.12 117.598 1016.48 116.666 1015.67C115.746 1014.88 115.013 1014.02 114.467 1013.11L117.672 1010.86C118.036 1011.34 118.496 1011.89 119.053 1012.5C119.609 1013.12 120.371 1013.66 121.337 1014.12C122.314 1014.59 123.592 1014.82 125.172 1014.82C127.286 1014.82 129.03 1014.31 130.405 1013.28C131.78 1012.26 132.467 1010.66 132.467 1008.48V1003.16H132.126C131.831 1003.64 131.411 1004.23 130.865 1004.93C130.331 1005.62 129.558 1006.24 128.547 1006.79C127.547 1007.32 126.195 1007.59 124.49 1007.59C122.376 1007.59 120.479 1007.09 118.797 1006.09C117.126 1005.09 115.803 1003.64 114.825 1001.73C113.859 999.818 113.376 997.5 113.376 994.773C113.376 992.091 113.848 989.756 114.791 987.767C115.734 985.767 117.047 984.222 118.729 983.131C120.411 982.028 122.354 981.477 124.558 981.477C126.263 981.477 127.615 981.761 128.615 982.33C129.626 982.886 130.399 983.523 130.933 984.239C131.479 984.943 131.899 985.523 132.195 985.977H132.604V981.818H136.49V1008.75C136.49 1011 135.979 1012.83 134.956 1014.24C133.945 1015.66 132.581 1016.7 130.865 1017.36C129.161 1018.03 127.263 1018.36 125.172 1018.36ZM125.036 1003.98C126.649 1003.98 128.013 1003.61 129.126 1002.87C130.24 1002.13 131.087 1001.07 131.666 999.682C132.246 998.295 132.536 996.636 132.536 994.705C132.536 992.818 132.251 991.153 131.683 989.71C131.115 988.267 130.274 987.136 129.161 986.318C128.047 985.5 126.672 985.091 125.036 985.091C123.331 985.091 121.911 985.523 120.774 986.386C119.649 987.25 118.803 988.409 118.234 989.864C117.678 991.318 117.399 992.932 117.399 994.705C117.399 996.523 117.683 998.131 118.251 999.528C118.831 1000.91 119.683 1002.01 120.808 1002.8C121.945 1003.59 123.354 1003.98 125.036 1003.98ZM147.876 992.25V1008H143.854V973.091H147.876V985.909H148.217C148.831 984.557 149.751 983.483 150.979 982.688C152.217 981.881 153.865 981.477 155.922 981.477C157.706 981.477 159.268 981.835 160.609 982.551C161.95 983.256 162.99 984.341 163.729 985.807C164.479 987.261 164.854 989.114 164.854 991.364V1008H160.831V991.636C160.831 989.557 160.291 987.949 159.212 986.812C158.143 985.665 156.661 985.091 154.763 985.091C153.445 985.091 152.263 985.369 151.217 985.926C150.183 986.483 149.365 987.295 148.763 988.364C148.172 989.432 147.876 990.727 147.876 992.25ZM215.713 990.545C215.713 994.227 215.048 997.409 213.719 1000.09C212.389 1002.77 210.565 1004.84 208.247 1006.3C205.929 1007.75 203.281 1008.48 200.304 1008.48C197.327 1008.48 194.679 1007.75 192.361 1006.3C190.043 1004.84 188.219 1002.77 186.889 1000.09C185.56 997.409 184.895 994.227 184.895 990.545C184.895 986.864 185.56 983.682 186.889 981C188.219 978.318 190.043 976.25 192.361 974.795C194.679 973.341 197.327 972.614 200.304 972.614C203.281 972.614 205.929 973.341 208.247 974.795C210.565 976.25 212.389 978.318 213.719 981C215.048 983.682 215.713 986.864 215.713 990.545ZM211.622 990.545C211.622 987.523 211.116 984.972 210.105 982.892C209.105 980.812 207.747 979.239 206.031 978.17C204.327 977.102 202.418 976.568 200.304 976.568C198.19 976.568 196.276 977.102 194.56 978.17C192.855 979.239 191.497 980.812 190.486 982.892C189.486 984.972 188.986 987.523 188.986 990.545C188.986 993.568 189.486 996.119 190.486 998.199C191.497 1000.28 192.855 1001.85 194.56 1002.92C196.276 1003.99 198.19 1004.52 200.304 1004.52C202.418 1004.52 204.327 1003.99 206.031 1002.92C207.747 1001.85 209.105 1000.28 210.105 998.199C211.116 996.119 211.622 993.568 211.622 990.545ZM238.776 997.295V981.818H242.798V1008H238.776V1003.57H238.503C237.889 1004.9 236.935 1006.03 235.639 1006.96C234.344 1007.88 232.707 1008.34 230.73 1008.34C229.094 1008.34 227.639 1007.98 226.366 1007.27C225.094 1006.54 224.094 1005.45 223.366 1003.99C222.639 1002.53 222.276 1000.68 222.276 998.455V981.818H226.298V998.182C226.298 1000.09 226.832 1001.61 227.901 1002.75C228.98 1003.89 230.355 1004.45 232.026 1004.45C233.026 1004.45 234.043 1004.2 235.077 1003.69C236.122 1003.18 236.997 1002.39 237.702 1001.34C238.418 1000.28 238.776 998.932 238.776 997.295ZM261.553 981.818V985.227H247.984V981.818H261.553ZM251.939 975.545H255.962V1000.5C255.962 1001.64 256.126 1002.49 256.456 1003.06C256.797 1003.61 257.229 1003.99 257.751 1004.18C258.286 1004.36 258.848 1004.45 259.439 1004.45C259.882 1004.45 260.246 1004.43 260.53 1004.39C260.814 1004.33 261.041 1004.28 261.212 1004.25L262.03 1007.86C261.757 1007.97 261.376 1008.07 260.888 1008.17C260.399 1008.28 259.78 1008.34 259.03 1008.34C257.893 1008.34 256.78 1008.1 255.689 1007.61C254.609 1007.12 253.712 1006.38 252.996 1005.38C252.291 1004.38 251.939 1003.11 251.939 1001.59V975.545ZM267.604 1017.82V981.818H271.49V985.977H271.967C272.263 985.523 272.672 984.943 273.195 984.239C273.729 983.523 274.49 982.886 275.479 982.33C276.479 981.761 277.831 981.477 279.536 981.477C281.74 981.477 283.683 982.028 285.365 983.131C287.047 984.233 288.359 985.795 289.303 987.818C290.246 989.841 290.717 992.227 290.717 994.977C290.717 997.75 290.246 1000.15 289.303 1002.19C288.359 1004.21 287.053 1005.78 285.382 1006.89C283.712 1007.99 281.786 1008.55 279.604 1008.55C277.922 1008.55 276.575 1008.27 275.564 1007.71C274.553 1007.14 273.774 1006.5 273.229 1005.78C272.683 1005.06 272.263 1004.45 271.967 1003.98H271.626V1017.82H267.604ZM271.558 994.909C271.558 996.886 271.848 998.631 272.428 1000.14C273.007 1001.64 273.854 1002.82 274.967 1003.67C276.081 1004.51 277.445 1004.93 279.058 1004.93C280.74 1004.93 282.143 1004.49 283.268 1003.6C284.405 1002.7 285.257 1001.5 285.825 999.989C286.405 998.466 286.695 996.773 286.695 994.909C286.695 993.068 286.411 991.409 285.842 989.932C285.286 988.443 284.439 987.267 283.303 986.403C282.178 985.528 280.763 985.091 279.058 985.091C277.422 985.091 276.047 985.506 274.933 986.335C273.82 987.153 272.979 988.301 272.411 989.778C271.842 991.244 271.558 992.955 271.558 994.909ZM313.354 997.295V981.818H317.376V1008H313.354V1003.57H313.081C312.467 1004.9 311.513 1006.03 310.217 1006.96C308.922 1007.88 307.286 1008.34 305.308 1008.34C303.672 1008.34 302.217 1007.98 300.945 1007.27C299.672 1006.54 298.672 1005.45 297.945 1003.99C297.217 1002.53 296.854 1000.68 296.854 998.455V981.818H300.876V998.182C300.876 1000.09 301.411 1001.61 302.479 1002.75C303.558 1003.89 304.933 1004.45 306.604 1004.45C307.604 1004.45 308.621 1004.2 309.655 1003.69C310.7 1003.18 311.575 1002.39 312.28 1001.34C312.996 1000.28 313.354 998.932 313.354 997.295ZM336.131 981.818V985.227H322.562V981.818H336.131ZM326.517 975.545H330.54V1000.5C330.54 1001.64 330.705 1002.49 331.034 1003.06C331.375 1003.61 331.807 1003.99 332.33 1004.18C332.864 1004.36 333.426 1004.45 334.017 1004.45C334.46 1004.45 334.824 1004.43 335.108 1004.39C335.392 1004.33 335.619 1004.28 335.79 1004.25L336.608 1007.86C336.335 1007.97 335.955 1008.07 335.466 1008.17C334.977 1008.28 334.358 1008.34 333.608 1008.34C332.472 1008.34 331.358 1008.1 330.267 1007.61C329.188 1007.12 328.29 1006.38 327.574 1005.38C326.869 1004.38 326.517 1003.11 326.517 1001.59V975.545ZM357.659 973.091L368.023 1002.48H368.432L378.795 973.091H383.227L370.409 1008H366.045L353.227 973.091H357.659ZM396.659 1008.55C394.136 1008.55 391.96 1007.99 390.131 1006.88C388.312 1005.75 386.909 1004.18 385.92 1002.17C384.943 1000.15 384.455 997.795 384.455 995.114C384.455 992.432 384.943 990.068 385.92 988.023C386.909 985.966 388.284 984.364 390.045 983.216C391.818 982.057 393.886 981.477 396.25 981.477C397.614 981.477 398.96 981.705 400.29 982.159C401.619 982.614 402.83 983.352 403.92 984.375C405.011 985.386 405.881 986.727 406.528 988.398C407.176 990.068 407.5 992.125 407.5 994.568V996.273H387.318V992.795H403.409C403.409 991.318 403.114 990 402.523 988.841C401.943 987.682 401.114 986.767 400.034 986.097C398.966 985.426 397.705 985.091 396.25 985.091C394.648 985.091 393.261 985.489 392.091 986.284C390.932 987.068 390.04 988.091 389.415 989.352C388.79 990.614 388.477 991.966 388.477 993.409V995.727C388.477 997.705 388.818 999.381 389.5 1000.76C390.193 1002.12 391.153 1003.16 392.381 1003.88C393.608 1004.58 395.034 1004.93 396.659 1004.93C397.716 1004.93 398.67 1004.78 399.523 1004.49C400.386 1004.18 401.131 1003.73 401.756 1003.12C402.381 1002.51 402.864 1001.75 403.205 1000.84L407.091 1001.93C406.682 1003.25 405.994 1004.41 405.028 1005.41C404.063 1006.4 402.869 1007.17 401.449 1007.73C400.028 1008.27 398.432 1008.55 396.659 1008.55ZM417.642 992.25V1008H413.619V981.818H417.506V985.909H417.847C418.46 984.58 419.392 983.511 420.642 982.705C421.892 981.886 423.506 981.477 425.483 981.477C427.256 981.477 428.807 981.841 430.136 982.568C431.466 983.284 432.5 984.375 433.239 985.841C433.977 987.295 434.347 989.136 434.347 991.364V1008H430.324V991.636C430.324 989.58 429.79 987.977 428.722 986.83C427.653 985.67 426.188 985.091 424.324 985.091C423.04 985.091 421.892 985.369 420.881 985.926C419.881 986.483 419.091 987.295 418.511 988.364C417.932 989.432 417.642 990.727 417.642 992.25ZM453.084 981.818V985.227H439.516V981.818H453.084ZM443.47 975.545H447.493V1000.5C447.493 1001.64 447.658 1002.49 447.987 1003.06C448.328 1003.61 448.76 1003.99 449.283 1004.18C449.817 1004.36 450.379 1004.45 450.97 1004.45C451.413 1004.45 451.777 1004.43 452.061 1004.39C452.345 1004.33 452.572 1004.28 452.743 1004.25L453.561 1007.86C453.288 1007.97 452.908 1008.07 452.419 1008.17C451.93 1008.28 451.311 1008.34 450.561 1008.34C449.425 1008.34 448.311 1008.1 447.22 1007.61C446.141 1007.12 445.243 1006.38 444.527 1005.38C443.822 1004.38 443.47 1003.11 443.47 1001.59V975.545ZM475.635 997.295V981.818H479.658V1008H475.635V1003.57H475.362C474.749 1004.9 473.794 1006.03 472.499 1006.96C471.203 1007.88 469.567 1008.34 467.589 1008.34C465.953 1008.34 464.499 1007.98 463.226 1007.27C461.953 1006.54 460.953 1005.45 460.226 1003.99C459.499 1002.53 459.135 1000.68 459.135 998.455V981.818H463.158V998.182C463.158 1000.09 463.692 1001.61 464.76 1002.75C465.839 1003.89 467.214 1004.45 468.885 1004.45C469.885 1004.45 470.902 1004.2 471.936 1003.69C472.982 1003.18 473.857 1002.39 474.561 1001.34C475.277 1000.28 475.635 998.932 475.635 997.295ZM487.026 1008V981.818H490.912V985.773H491.185C491.662 984.477 492.526 983.426 493.776 982.619C495.026 981.812 496.435 981.409 498.003 981.409C498.298 981.409 498.668 981.415 499.111 981.426C499.554 981.437 499.889 981.455 500.116 981.477V985.568C499.98 985.534 499.668 985.483 499.179 985.415C498.702 985.335 498.196 985.295 497.662 985.295C496.389 985.295 495.253 985.562 494.253 986.097C493.264 986.619 492.48 987.347 491.901 988.278C491.332 989.199 491.048 990.25 491.048 991.432V1008H487.026ZM515.065 1008.55C512.543 1008.55 510.366 1007.99 508.537 1006.88C506.719 1005.75 505.315 1004.18 504.327 1002.17C503.349 1000.15 502.861 997.795 502.861 995.114C502.861 992.432 503.349 990.068 504.327 988.023C505.315 985.966 506.69 984.364 508.452 983.216C510.224 982.057 512.293 981.477 514.656 981.477C516.02 981.477 517.366 981.705 518.696 982.159C520.026 982.614 521.236 983.352 522.327 984.375C523.418 985.386 524.287 986.727 524.935 988.398C525.582 990.068 525.906 992.125 525.906 994.568V996.273H505.724V992.795H521.815C521.815 991.318 521.52 990 520.929 988.841C520.349 987.682 519.52 986.767 518.44 986.097C517.372 985.426 516.111 985.091 514.656 985.091C513.054 985.091 511.668 985.489 510.497 986.284C509.338 987.068 508.446 988.091 507.821 989.352C507.196 990.614 506.884 991.966 506.884 993.409V995.727C506.884 997.705 507.224 999.381 507.906 1000.76C508.599 1002.12 509.56 1003.16 510.787 1003.88C512.014 1004.58 513.44 1004.93 515.065 1004.93C516.122 1004.93 517.077 1004.78 517.929 1004.49C518.793 1004.18 519.537 1003.73 520.162 1003.12C520.787 1002.51 521.27 1001.75 521.611 1000.84L525.497 1001.93C525.088 1003.25 524.401 1004.41 523.435 1005.41C522.469 1006.4 521.276 1007.17 519.855 1007.73C518.435 1008.27 516.838 1008.55 515.065 1008.55ZM550.571 987.682L546.957 988.705C546.73 988.102 546.395 987.517 545.952 986.949C545.52 986.369 544.929 985.892 544.179 985.517C543.429 985.142 542.469 984.955 541.298 984.955C539.696 984.955 538.361 985.324 537.293 986.062C536.236 986.79 535.707 987.716 535.707 988.841C535.707 989.841 536.071 990.631 536.798 991.21C537.526 991.79 538.662 992.273 540.207 992.659L544.094 993.614C546.435 994.182 548.179 995.051 549.327 996.222C550.474 997.381 551.048 998.875 551.048 1000.7C551.048 1002.2 550.616 1003.55 549.753 1004.73C548.901 1005.91 547.707 1006.84 546.173 1007.52C544.639 1008.2 542.855 1008.55 540.821 1008.55C538.151 1008.55 535.94 1007.97 534.19 1006.81C532.44 1005.65 531.332 1003.95 530.866 1001.73L534.685 1000.77C535.048 1002.18 535.736 1003.24 536.747 1003.94C537.77 1004.65 539.105 1005 540.753 1005C542.628 1005 544.116 1004.6 545.219 1003.81C546.332 1003 546.889 1002.03 546.889 1000.91C546.889 1000 546.571 999.239 545.935 998.625C545.298 998 544.321 997.534 543.003 997.227L538.639 996.205C536.241 995.636 534.48 994.756 533.355 993.562C532.241 992.358 531.685 990.852 531.685 989.045C531.685 987.568 532.099 986.261 532.929 985.125C533.77 983.989 534.912 983.097 536.355 982.449C537.81 981.801 539.457 981.477 541.298 981.477C543.889 981.477 545.923 982.045 547.401 983.182C548.889 984.318 549.946 985.818 550.571 987.682Z" fill="#E8E8E8"/>
<path d="M1585.41 981.818C1585.21 980.091 1584.38 978.75 1582.92 977.795C1581.47 976.841 1579.68 976.364 1577.57 976.364C1576.03 976.364 1574.67 976.614 1573.51 977.114C1572.37 977.614 1571.47 978.301 1570.82 979.176C1570.18 980.051 1569.87 981.045 1569.87 982.159C1569.87 983.091 1570.09 983.892 1570.53 984.562C1570.99 985.222 1571.57 985.773 1572.27 986.216C1572.97 986.648 1573.71 987.006 1574.49 987.29C1575.26 987.562 1575.97 987.784 1576.62 987.955L1580.16 988.909C1581.07 989.148 1582.08 989.477 1583.2 989.898C1584.32 990.318 1585.39 990.892 1586.42 991.619C1587.45 992.335 1588.3 993.256 1588.97 994.381C1589.64 995.506 1589.98 996.886 1589.98 998.523C1589.98 1000.41 1589.49 1002.11 1588.5 1003.64C1587.52 1005.16 1586.09 1006.37 1584.2 1007.27C1582.33 1008.16 1580.05 1008.61 1577.37 1008.61C1574.87 1008.61 1572.7 1008.21 1570.87 1007.4C1569.05 1006.6 1567.62 1005.47 1566.58 1004.03C1565.54 1002.59 1564.96 1000.91 1564.82 999H1569.18C1569.3 1000.32 1569.74 1001.41 1570.51 1002.27C1571.3 1003.12 1572.29 1003.76 1573.48 1004.18C1574.68 1004.59 1575.98 1004.8 1577.37 1004.8C1578.98 1004.8 1580.43 1004.53 1581.71 1004.01C1583 1003.48 1584.01 1002.74 1584.76 1001.8C1585.51 1000.84 1585.89 999.727 1585.89 998.455C1585.89 997.295 1585.57 996.352 1584.92 995.625C1584.27 994.898 1583.42 994.307 1582.36 993.852C1581.3 993.398 1580.16 993 1578.93 992.659L1574.64 991.432C1571.91 990.648 1569.75 989.528 1568.16 988.074C1566.57 986.619 1565.78 984.716 1565.78 982.364C1565.78 980.409 1566.3 978.705 1567.36 977.25C1568.43 975.784 1569.86 974.648 1571.66 973.841C1573.46 973.023 1575.48 972.614 1577.71 972.614C1579.96 972.614 1581.96 973.017 1583.71 973.824C1585.46 974.619 1586.84 975.71 1587.87 977.097C1588.9 978.483 1589.45 980.057 1589.5 981.818H1585.41ZM1596.38 1008V981.818H1600.41V1008H1596.38ZM1598.43 977.455C1597.65 977.455 1596.97 977.188 1596.4 976.653C1595.85 976.119 1595.57 975.477 1595.57 974.727C1595.57 973.977 1595.85 973.335 1596.4 972.801C1596.97 972.267 1597.65 972 1598.43 972C1599.21 972 1599.88 972.267 1600.44 972.801C1601.01 973.335 1601.29 973.977 1601.29 974.727C1601.29 975.477 1601.01 976.119 1600.44 976.653C1599.88 977.188 1599.21 977.455 1598.43 977.455ZM1611.8 973.091V1008H1607.78V973.091H1611.8ZM1640.58 981.818L1630.89 1008H1626.8L1617.12 981.818H1621.48L1628.71 1002.68H1628.98L1636.21 981.818H1640.58ZM1655.92 1008.55C1653.4 1008.55 1651.23 1007.99 1649.4 1006.88C1647.58 1005.75 1646.17 1004.18 1645.19 1002.17C1644.21 1000.15 1643.72 997.795 1643.72 995.114C1643.72 992.432 1644.21 990.068 1645.19 988.023C1646.17 985.966 1647.55 984.364 1649.31 983.216C1651.08 982.057 1653.15 981.477 1655.52 981.477C1656.88 981.477 1658.23 981.705 1659.56 982.159C1660.88 982.614 1662.1 983.352 1663.19 984.375C1664.28 985.386 1665.15 986.727 1665.79 988.398C1666.44 990.068 1666.77 992.125 1666.77 994.568V996.273H1646.58V992.795H1662.67C1662.67 991.318 1662.38 990 1661.79 988.841C1661.21 987.682 1660.38 986.767 1659.3 986.097C1658.23 985.426 1656.97 985.091 1655.52 985.091C1653.91 985.091 1652.53 985.489 1651.36 986.284C1650.2 987.068 1649.31 988.091 1648.68 989.352C1648.06 990.614 1647.74 991.966 1647.74 993.409V995.727C1647.74 997.705 1648.08 999.381 1648.77 1000.76C1649.46 1002.12 1650.42 1003.16 1651.65 1003.88C1652.87 1004.58 1654.3 1004.93 1655.92 1004.93C1656.98 1004.93 1657.94 1004.78 1658.79 1004.49C1659.65 1004.18 1660.4 1003.73 1661.02 1003.12C1661.65 1002.51 1662.13 1001.75 1662.47 1000.84L1666.36 1001.93C1665.95 1003.25 1665.26 1004.41 1664.29 1005.41C1663.33 1006.4 1662.13 1007.17 1660.71 1007.73C1659.29 1008.27 1657.7 1008.55 1655.92 1008.55ZM1672.88 1008V981.818H1676.77V985.773H1677.04C1677.52 984.477 1678.38 983.426 1679.63 982.619C1680.88 981.812 1682.29 981.409 1683.86 981.409C1684.16 981.409 1684.53 981.415 1684.97 981.426C1685.41 981.437 1685.75 981.455 1685.98 981.477V985.568C1685.84 985.534 1685.53 985.483 1685.04 985.415C1684.56 985.335 1684.06 985.295 1683.52 985.295C1682.25 985.295 1681.11 985.562 1680.11 986.097C1679.12 986.619 1678.34 987.347 1677.76 988.278C1677.19 989.199 1676.91 990.25 1676.91 991.432V1008H1672.88ZM1704.79 1008V973.091H1725.86V976.841H1709.02V988.636H1724.77V992.386H1709.02V1004.25H1726.13V1008H1704.79ZM1742.82 1008.55C1740.64 1008.55 1738.71 1007.99 1737.04 1006.89C1735.37 1005.78 1734.06 1004.21 1733.12 1002.19C1732.18 1000.15 1731.7 997.75 1731.7 994.977C1731.7 992.227 1732.18 989.841 1733.12 987.818C1734.06 985.795 1735.38 984.233 1737.06 983.131C1738.74 982.028 1740.68 981.477 1742.89 981.477C1744.59 981.477 1745.94 981.761 1746.93 982.33C1747.93 982.886 1748.69 983.523 1749.21 984.239C1749.74 984.943 1750.16 985.523 1750.45 985.977H1750.8V973.091H1754.82V1008H1750.93V1003.98H1750.45C1750.16 1004.45 1749.74 1005.06 1749.19 1005.78C1748.65 1006.5 1747.87 1007.14 1746.86 1007.71C1745.85 1008.27 1744.5 1008.55 1742.82 1008.55ZM1743.36 1004.93C1744.98 1004.93 1746.34 1004.51 1747.45 1003.67C1748.57 1002.82 1749.41 1001.64 1749.99 1000.14C1750.57 998.631 1750.86 996.886 1750.86 994.909C1750.86 992.955 1750.58 991.244 1750.01 989.778C1749.44 988.301 1748.6 987.153 1747.49 986.335C1746.38 985.506 1745 985.091 1743.36 985.091C1741.66 985.091 1740.24 985.528 1739.1 986.403C1737.98 987.267 1737.13 988.443 1736.56 989.932C1736.01 991.409 1735.73 993.068 1735.73 994.909C1735.73 996.773 1736.01 998.466 1736.58 999.989C1737.16 1001.5 1738.01 1002.7 1739.14 1003.6C1740.27 1004.49 1741.68 1004.93 1743.36 1004.93ZM1762.74 1008V981.818H1766.77V1008H1762.74ZM1764.79 977.455C1764.01 977.455 1763.33 977.188 1762.76 976.653C1762.2 976.119 1761.93 975.477 1761.93 974.727C1761.93 973.977 1762.2 973.335 1762.76 972.801C1763.33 972.267 1764.01 972 1764.79 972C1765.57 972 1766.24 972.267 1766.8 972.801C1767.37 973.335 1767.65 973.977 1767.65 974.727C1767.65 975.477 1767.37 976.119 1766.8 976.653C1766.24 977.188 1765.57 977.455 1764.79 977.455ZM1785.52 981.818V985.227H1771.95V981.818H1785.52ZM1775.91 975.545H1779.93V1000.5C1779.93 1001.64 1780.1 1002.49 1780.42 1003.06C1780.77 1003.61 1781.2 1003.99 1781.72 1004.18C1782.25 1004.36 1782.82 1004.45 1783.41 1004.45C1783.85 1004.45 1784.21 1004.43 1784.5 1004.39C1784.78 1004.33 1785.01 1004.28 1785.18 1004.25L1786 1007.86C1785.73 1007.97 1785.35 1008.07 1784.86 1008.17C1784.37 1008.28 1783.75 1008.34 1783 1008.34C1781.86 1008.34 1780.75 1008.1 1779.66 1007.61C1778.58 1007.12 1777.68 1006.38 1776.96 1005.38C1776.26 1004.38 1775.91 1003.11 1775.91 1001.59V975.545ZM1791.57 1008V981.818H1795.6V1008H1791.57ZM1793.62 977.455C1792.83 977.455 1792.16 977.188 1791.59 976.653C1791.03 976.119 1790.75 975.477 1790.75 974.727C1790.75 973.977 1791.03 973.335 1791.59 972.801C1792.16 972.267 1792.83 972 1793.62 972C1794.4 972 1795.07 972.267 1795.63 972.801C1796.2 973.335 1796.48 973.977 1796.48 974.727C1796.48 975.477 1796.2 976.119 1795.63 976.653C1795.07 977.188 1794.4 977.455 1793.62 977.455ZM1813.6 1008.55C1811.24 1008.55 1809.16 1007.98 1807.38 1006.86C1805.61 1005.73 1804.22 1004.16 1803.22 1002.14C1802.23 1000.11 1801.74 997.75 1801.74 995.045C1801.74 992.318 1802.23 989.937 1803.22 987.903C1804.22 985.869 1805.61 984.29 1807.38 983.165C1809.16 982.04 1811.24 981.477 1813.6 981.477C1815.96 981.477 1818.03 982.04 1819.8 983.165C1821.59 984.29 1822.97 985.869 1823.96 987.903C1824.96 989.937 1825.46 992.318 1825.46 995.045C1825.46 997.75 1824.96 1000.11 1823.96 1002.14C1822.97 1004.16 1821.59 1005.73 1819.8 1006.86C1818.03 1007.98 1815.96 1008.55 1813.6 1008.55ZM1813.6 1004.93C1815.39 1004.93 1816.87 1004.47 1818.03 1003.55C1819.19 1002.63 1820.05 1001.42 1820.61 999.92C1821.16 998.42 1821.44 996.795 1821.44 995.045C1821.44 993.295 1821.16 991.665 1820.61 990.153C1820.05 988.642 1819.19 987.42 1818.03 986.489C1816.87 985.557 1815.39 985.091 1813.6 985.091C1811.8 985.091 1810.33 985.557 1809.17 986.489C1808.01 987.42 1807.15 988.642 1806.59 990.153C1806.04 991.665 1805.76 993.295 1805.76 995.045C1805.76 996.795 1806.04 998.42 1806.59 999.92C1807.15 1001.42 1808.01 1002.63 1809.17 1003.55C1810.33 1004.47 1811.8 1004.93 1813.6 1004.93ZM1835.63 992.25V1008H1831.6V981.818H1835.49V985.909H1835.83C1836.44 984.58 1837.38 983.511 1838.63 982.705C1839.88 981.886 1841.49 981.477 1843.47 981.477C1845.24 981.477 1846.79 981.841 1848.12 982.568C1849.45 983.284 1850.48 984.375 1851.22 985.841C1851.96 987.295 1852.33 989.136 1852.33 991.364V1008H1848.31V991.636C1848.31 989.58 1847.77 987.977 1846.71 986.83C1845.64 985.67 1844.17 985.091 1842.31 985.091C1841.02 985.091 1839.88 985.369 1838.87 985.926C1837.87 986.483 1837.08 987.295 1836.5 988.364C1835.92 989.432 1835.63 990.727 1835.63 992.25Z" fill="#E8E8E8"/>
<path d="M383.172 654.304C383.78 654.528 384.084 654.944 384.084 655.552V658H372.372V655.552C372.372 655.008 372.692 654.592 373.332 654.304L374.292 653.92L372.372 648.688H358.548L356.628 653.92L357.588 654.304C358.228 654.592 358.548 655.008 358.548 655.552V658H346.836V655.552C346.836 655.008 347.156 654.592 347.796 654.304L350.436 653.2L362.148 623.296H368.772L380.532 653.2L383.172 654.304ZM370.74 644.128L366.756 633.328C366.372 632.272 365.94 630.912 365.46 629.248L365.028 630.736C364.772 631.6 364.484 632.48 364.164 633.376L360.228 644.128H370.74ZM420.685 658H395.533V655.168C395.533 654.368 395.933 653.872 396.733 653.68L397.021 653.632L397.741 653.488L399.181 653.248V628.048L397.741 627.808C397.581 627.776 397.437 627.744 397.309 627.712C397.213 627.68 397.117 627.664 397.021 627.664L396.733 627.616C395.933 627.424 395.533 626.928 395.533 626.128V623.296H409.261V626.128C409.261 626.928 408.861 627.424 408.061 627.616L407.773 627.664L407.053 627.808L405.613 628.048V652.672H416.797C416.893 651.392 416.957 650.704 416.989 650.608C417.149 650 417.517 649.696 418.093 649.696H420.685V658ZM457.81 632.416H455.026C454.45 632.416 454.082 632.112 453.922 631.504C453.762 630.256 453.65 629.232 453.586 628.432H442.402V638.032H454.162V643.024H442.402V652.816H453.586C453.65 652.016 453.762 650.992 453.922 649.744C454.082 649.136 454.45 648.832 455.026 648.832H457.81V658H432.274V655.168C432.274 654.368 432.674 653.872 433.474 653.68L433.762 653.632C433.858 653.632 433.954 653.616 434.05 653.584C434.178 653.552 434.322 653.52 434.482 653.488L435.922 653.248V628.048L434.482 627.808C434.322 627.776 434.178 627.744 434.05 627.712C433.954 627.68 433.858 627.664 433.762 627.664L433.474 627.616C432.674 627.424 432.274 626.928 432.274 626.128V623.296H457.81V632.416ZM503.757 653.68C504.557 653.872 504.957 654.368 504.957 655.168V658H490.221V655.168C490.221 654.368 490.621 653.872 491.421 653.68L492.861 653.392L486.957 643.6C486.925 643.792 486.845 643.968 486.717 644.128L486.477 644.608L481.053 653.248L483.069 653.68C483.869 653.872 484.269 654.368 484.269 655.168V658H469.341V655.168C469.341 654.368 469.757 653.872 470.589 653.68L474.189 653.248L482.685 640.144L474.717 628.048L471.021 627.616C470.221 627.424 469.821 626.928 469.821 626.128V623.296H484.749V626.128C484.749 626.928 484.349 627.424 483.549 627.616L481.965 627.952L487.437 636.832L487.725 636.208C487.885 635.856 487.997 635.648 488.061 635.584L492.861 628L491.037 627.616C490.237 627.424 489.837 626.928 489.837 626.128V623.296H504.477V626.128C504.477 626.928 504.077 627.424 503.277 627.616L499.629 628.048L491.661 639.856L500.109 653.248L503.757 653.68ZM552.635 654.304C553.243 654.528 553.547 654.944 553.547 655.552V658H541.835V655.552C541.835 655.008 542.155 654.592 542.795 654.304L543.755 653.92L541.835 648.688H528.011L526.091 653.92L527.051 654.304C527.691 654.592 528.011 655.008 528.011 655.552V658H516.299V655.552C516.299 655.008 516.619 654.592 517.259 654.304L519.899 653.2L531.611 623.296H538.235L549.995 653.2L552.635 654.304ZM540.203 644.128L536.219 633.328C535.835 632.272 535.403 630.912 534.923 629.248L534.491 630.736C534.235 631.6 533.947 632.48 533.627 633.376L529.691 644.128H540.203ZM601.524 626.128C601.524 626.928 601.124 627.424 600.324 627.616L600.036 627.664C599.94 627.664 599.828 627.68 599.7 627.712C599.604 627.744 599.476 627.776 599.316 627.808L597.924 628.048V658H594.564C594.116 658 593.7 657.92 593.316 657.76C592.996 657.632 592.66 657.344 592.308 656.896L574.164 633.808C574.228 634.512 574.26 635.008 574.26 635.296L574.308 636.688V653.248L577.428 653.68C578.228 653.872 578.628 654.368 578.628 655.168V658H564.996V655.168C564.996 654.368 565.396 653.872 566.196 653.68L566.484 653.632L567.204 653.488L568.644 653.248V628.048L567.204 627.808C567.044 627.776 566.9 627.744 566.772 627.712C566.676 627.68 566.58 627.664 566.484 627.664L566.196 627.616C565.396 627.424 564.996 626.928 564.996 626.128V623.296H572.004L572.724 623.344C572.948 623.344 573.124 623.392 573.252 623.488C573.38 623.52 573.524 623.616 573.684 623.776L574.164 624.352L592.404 647.536L592.26 645.904C592.228 645.552 592.212 645.04 592.212 644.368V628.048L589.092 627.616C588.292 627.424 587.892 626.928 587.892 626.128V623.296H601.524V626.128ZM645.439 633.616C646.303 635.728 646.735 638.064 646.735 640.624C646.735 643.184 646.303 645.52 645.439 647.632C644.543 649.84 643.359 651.68 641.887 653.152C640.415 654.624 638.559 655.808 636.319 656.704C634.175 657.568 631.791 658 629.167 658H612.799V655.168C612.799 654.368 613.199 653.872 613.999 653.68L614.287 653.632C614.383 653.632 614.479 653.616 614.575 653.584C614.703 653.552 614.847 653.52 615.007 653.488L616.447 653.248V628.048L615.007 627.808C614.847 627.776 614.703 627.744 614.575 627.712C614.479 627.68 614.383 627.664 614.287 627.664L613.999 627.616C613.199 627.424 612.799 626.928 612.799 626.128V623.296H629.167C631.791 623.296 634.175 623.728 636.319 624.592C638.559 625.488 640.415 626.672 641.887 628.144C643.359 629.616 644.543 631.44 645.439 633.616ZM639.343 645.76C639.855 644.256 640.111 642.544 640.111 640.624C640.111 638.736 639.855 637.04 639.343 635.536C638.767 633.936 638.047 632.656 637.183 631.696C636.255 630.704 635.103 629.904 633.727 629.296C632.383 628.72 630.863 628.432 629.167 628.432H622.927V652.864H629.167C630.863 652.864 632.383 652.576 633.727 652C635.103 651.392 636.255 650.592 637.183 649.6C638.079 648.608 638.799 647.328 639.343 645.76ZM683.56 632.416H680.776C680.2 632.416 679.832 632.112 679.672 631.504C679.512 630.256 679.4 629.232 679.336 628.432H668.152V638.032H679.912V643.024H668.152V652.816H679.336C679.4 652.016 679.512 650.992 679.672 649.744C679.832 649.136 680.2 648.832 680.776 648.832H683.56V658H658.024V655.168C658.024 654.368 658.424 653.872 659.224 653.68L659.512 653.632C659.608 653.632 659.704 653.616 659.8 653.584C659.928 653.552 660.072 653.52 660.232 653.488L661.672 653.248V628.048L660.232 627.808C660.072 627.776 659.928 627.744 659.8 627.712C659.704 627.68 659.608 627.664 659.512 627.664L659.224 627.616C658.424 627.424 658.024 626.928 658.024 626.128V623.296H683.56V632.416ZM725.043 653.68C725.843 653.872 726.243 654.368 726.243 655.168V658H719.763C719.155 658 718.675 657.888 718.323 657.664C717.971 657.44 717.651 657.12 717.363 656.704L710.067 645.568C709.811 645.184 709.507 644.896 709.155 644.704C708.803 644.512 708.323 644.416 707.715 644.416H705.267V653.248L706.707 653.488C706.867 653.52 706.995 653.552 707.091 653.584C707.219 653.616 707.331 653.632 707.427 653.632L707.715 653.68C708.515 653.872 708.915 654.368 708.915 655.168V658H695.187V655.168C695.187 654.368 695.587 653.872 696.387 653.68L696.675 653.632L697.395 653.488L698.835 653.248V628.048L697.395 627.808C697.235 627.776 697.091 627.744 696.963 627.712C696.867 627.68 696.771 627.664 696.675 627.664L696.387 627.616C695.587 627.424 695.187 626.928 695.187 626.128V623.296H709.059C711.427 623.296 713.459 623.536 715.155 624.016C716.787 624.496 718.163 625.184 719.283 626.08C720.403 627.008 721.203 628.064 721.683 629.248C722.195 630.464 722.451 631.808 722.451 633.28C722.451 634.368 722.275 635.472 721.923 636.592C721.635 637.52 721.139 638.464 720.435 639.424C719.859 640.224 719.059 640.96 718.035 641.632C717.043 642.272 715.955 642.784 714.771 643.168C715.603 643.648 716.307 644.32 716.883 645.184L722.355 653.248L723.843 653.488C724.003 653.52 724.147 653.552 724.275 653.584C724.435 653.616 724.563 653.632 724.659 653.632L725.043 653.68ZM712.131 639.328C713.027 639.04 713.779 638.624 714.387 638.08C714.931 637.568 715.363 636.928 715.683 636.16C715.971 635.424 716.115 634.624 716.115 633.76C716.115 632 715.539 630.64 714.387 629.68C713.267 628.752 711.491 628.288 709.059 628.288H705.267V639.808H708.963C710.051 639.808 711.107 639.648 712.131 639.328ZM783.507 658H758.355V655.168C758.355 654.368 758.755 653.872 759.555 653.68L759.843 653.632L760.563 653.488L762.003 653.248V628.048L760.563 627.808C760.403 627.776 760.259 627.744 760.131 627.712C760.035 627.68 759.939 627.664 759.843 627.664L759.555 627.616C758.755 627.424 758.355 626.928 758.355 626.128V623.296H772.083V626.128C772.083 626.928 771.683 627.424 770.883 627.616L770.595 627.664L769.875 627.808L768.435 628.048V652.672H779.619C779.715 651.392 779.779 650.704 779.811 650.608C779.971 650 780.339 649.696 780.915 649.696H783.507V658ZM830.904 626.128C830.904 626.928 830.504 627.424 829.704 627.616L829.416 627.664C829.32 627.664 829.208 627.68 829.08 627.712C828.984 627.744 828.856 627.776 828.696 627.808L827.256 628.048V644.08C827.256 646.16 826.92 648.064 826.248 649.792C825.544 651.616 824.6 653.136 823.416 654.352C822.168 655.6 820.648 656.592 818.856 657.328C817.128 658.032 815.128 658.384 812.856 658.384C810.584 658.384 808.584 658.032 806.856 657.328C805.128 656.624 803.624 655.632 802.344 654.352C801.096 653.072 800.136 651.552 799.464 649.792C798.824 648.16 798.504 646.256 798.504 644.08V628.048L797.064 627.808C796.904 627.776 796.76 627.744 796.632 627.712C796.536 627.68 796.44 627.664 796.344 627.664L796.056 627.616C795.256 627.424 794.856 626.928 794.856 626.128V623.296H808.776V626.128C808.776 626.928 808.376 627.424 807.576 627.616L807.24 627.664C807.144 627.664 807.032 627.68 806.904 627.712C806.776 627.744 806.616 627.776 806.424 627.808L804.936 628.048V644.032C804.936 645.472 805.112 646.672 805.464 647.632C805.784 648.656 806.312 649.584 807.048 650.416C807.656 651.12 808.472 651.696 809.496 652.144C810.424 652.56 811.544 652.768 812.856 652.768C814.168 652.768 815.288 652.56 816.216 652.144C817.304 651.664 818.136 651.088 818.712 650.416C819.32 649.712 819.832 648.8 820.248 647.68C820.632 646.464 820.824 645.264 820.824 644.08V628.048L819.336 627.808C819.144 627.776 818.984 627.744 818.856 627.712C818.728 627.68 818.616 627.664 818.52 627.664L818.184 627.616C817.384 627.424 816.984 626.928 816.984 626.128V623.296H830.904V626.128ZM854.436 627.664C854.34 627.664 854.228 627.68 854.1 627.712C854.004 627.744 853.876 627.776 853.716 627.808L852.324 628.048V653.248L853.716 653.488C853.876 653.52 854.004 653.552 854.1 653.584C854.228 653.616 854.34 653.632 854.436 653.632L854.724 653.68C855.524 653.872 855.924 654.368 855.924 655.168V658H842.196V655.168C842.196 654.368 842.596 653.872 843.396 653.68L843.684 653.632L844.404 653.488L845.844 653.248V628.048L844.404 627.808C844.244 627.776 844.1 627.744 843.972 627.712C843.876 627.68 843.78 627.664 843.684 627.664L843.396 627.616C842.596 627.424 842.196 626.928 842.196 626.128V623.296H855.924V626.128C855.924 626.928 855.524 627.424 854.724 627.616L854.436 627.664ZM892.988 632.416H890.204C889.628 632.416 889.26 632.112 889.1 631.504C888.94 630.256 888.828 629.232 888.764 628.432H877.58V638.032H889.34V643.024H877.58V652.816H888.764C888.828 652.016 888.94 650.992 889.1 649.744C889.26 649.136 889.628 648.832 890.204 648.832H892.988V658H867.452V655.168C867.452 654.368 867.852 653.872 868.652 653.68L868.94 653.632C869.036 653.632 869.132 653.616 869.228 653.584C869.356 653.552 869.5 653.52 869.66 653.488L871.1 653.248V628.048L869.66 627.808C869.5 627.776 869.356 627.744 869.228 627.712C869.132 627.68 869.036 627.664 868.94 627.664L868.652 627.616C867.852 627.424 867.452 626.928 867.452 626.128V623.296H892.988V632.416ZM945.34 626.128C945.34 626.928 944.94 627.424 944.14 627.616L943.852 627.664C943.756 627.664 943.644 627.68 943.516 627.712C943.42 627.744 943.292 627.776 943.132 627.808L941.692 628.048V645.664C941.692 647.584 941.452 649.344 940.972 650.944C940.492 652.544 939.788 653.872 938.86 654.928C937.868 656.048 936.668 656.896 935.26 657.472C933.756 658.08 932.108 658.384 930.316 658.384C929.452 658.384 928.604 658.336 927.772 658.24C927.004 658.144 926.124 657.968 925.132 657.712L925.468 653.872C925.5 653.584 925.644 653.312 925.9 653.056C926.188 652.832 926.524 652.72 926.908 652.72C927.164 652.72 927.516 652.768 927.964 652.864C928.54 652.992 929.1 653.056 929.644 653.056C930.604 653.056 931.404 652.928 932.044 652.672C932.684 652.448 933.276 652.016 933.82 651.376C934.268 650.832 934.62 650.096 934.876 649.168C935.132 648.208 935.26 647.088 935.26 645.808V628.048L933.724 627.808C933.532 627.776 933.356 627.744 933.196 627.712C933.036 627.68 932.908 627.664 932.812 627.664L932.38 627.616C931.58 627.424 931.18 626.928 931.18 626.128V623.296H945.34V626.128ZM991.667 627.664C991.571 627.664 991.459 627.68 991.331 627.712C991.235 627.744 991.107 627.776 990.947 627.808L989.555 628.048V653.248L990.947 653.488C991.107 653.52 991.235 653.552 991.331 653.584C991.459 653.616 991.571 653.632 991.667 653.632L991.955 653.68C992.755 653.872 993.155 654.368 993.155 655.168V658H979.427V655.168C979.427 654.368 979.827 653.872 980.627 653.68L980.915 653.632L981.635 653.488L983.027 653.248V642.832H966.755V653.248L968.195 653.488C968.355 653.52 968.483 653.552 968.579 653.584C968.707 653.616 968.819 653.632 968.915 653.632L969.203 653.68C970.003 653.872 970.403 654.368 970.403 655.168V658H956.627V655.168C956.627 654.368 957.027 653.872 957.827 653.68L958.115 653.632C958.211 653.632 958.307 653.616 958.403 653.584C958.531 653.552 958.675 653.52 958.835 653.488L960.275 653.248V628.048L958.835 627.808C958.675 627.776 958.531 627.744 958.403 627.712C958.307 627.68 958.211 627.664 958.115 627.664L957.827 627.616C957.027 627.424 956.627 626.928 956.627 626.128V623.296H970.403V626.128C970.403 626.928 970.003 627.424 969.203 627.616L968.915 627.664C968.819 627.664 968.707 627.68 968.579 627.712C968.483 627.744 968.355 627.776 968.195 627.808L966.755 628.048V638.224H983.027V628.048L981.635 627.808L980.915 627.664L980.627 627.616C979.827 627.424 979.427 626.928 979.427 626.128V623.296H993.155V626.128C993.155 626.928 992.755 627.424 991.955 627.616L991.667 627.664ZM1040.86 654.304C1041.46 654.528 1041.77 654.944 1041.77 655.552V658H1030.06V655.552C1030.06 655.008 1030.38 654.592 1031.02 654.304L1031.98 653.92L1030.06 648.688H1016.23L1014.31 653.92L1015.27 654.304C1015.91 654.592 1016.23 655.008 1016.23 655.552V658H1004.52V655.552C1004.52 655.008 1004.84 654.592 1005.48 654.304L1008.12 653.2L1019.83 623.296H1026.46L1038.22 653.2L1040.86 654.304ZM1028.42 644.128L1024.44 633.328C1024.06 632.272 1023.62 630.912 1023.14 629.248L1022.71 630.736C1022.46 631.6 1022.17 632.48 1021.85 633.376L1017.91 644.128H1028.42ZM1096.61 627.664C1096.51 627.664 1096.4 627.68 1096.27 627.712C1096.18 627.744 1096.05 627.776 1095.89 627.808L1094.5 628.048V653.248L1095.89 653.488C1096.05 653.52 1096.18 653.552 1096.27 653.584C1096.4 653.616 1096.51 653.632 1096.61 653.632L1096.9 653.68C1097.7 653.872 1098.1 654.368 1098.1 655.168V658H1084.47V655.168C1084.47 654.368 1084.87 653.872 1085.67 653.68L1088.79 653.248V635.584L1088.83 634.24C1088.83 633.92 1088.87 633.408 1088.93 632.704L1078.47 652.384C1078.21 652.864 1077.89 653.216 1077.51 653.44C1077.09 653.696 1076.64 653.824 1076.16 653.824H1075.3C1074.82 653.824 1074.37 653.696 1073.95 653.44C1073.57 653.216 1073.25 652.864 1072.99 652.384L1062.39 632.656L1062.48 634.192C1062.51 634.512 1062.53 634.976 1062.53 635.584V653.248L1065.65 653.68C1066.45 653.872 1066.85 654.368 1066.85 655.168V658H1053.22V655.168C1053.22 654.368 1053.62 653.872 1054.42 653.68L1054.71 653.632L1055.43 653.488L1056.87 653.248V628.048L1055.43 627.808C1055.27 627.776 1055.12 627.744 1054.99 627.712C1054.9 627.68 1054.8 627.664 1054.71 627.664L1054.42 627.616C1053.62 627.424 1053.22 626.928 1053.22 626.128V623.296H1061.71L1062.48 623.344C1062.67 623.344 1062.87 623.376 1063.06 623.44C1063.15 623.472 1063.3 623.584 1063.49 623.776C1063.62 623.904 1063.76 624.096 1063.92 624.352L1074.29 643.6C1074.48 643.952 1074.63 644.272 1074.72 644.56C1074.85 644.816 1074.95 645.024 1075.01 645.184L1075.73 646.864L1076.4 645.184C1076.66 644.544 1076.91 644 1077.17 643.552L1087.44 624.352C1087.63 624.032 1087.76 623.84 1087.83 623.776C1088.02 623.584 1088.18 623.472 1088.31 623.44C1088.56 623.376 1088.75 623.344 1088.88 623.344L1089.6 623.296H1098.1V626.128C1098.1 626.928 1097.7 627.424 1096.9 627.616L1096.61 627.664ZM1135.14 632.416H1132.35C1131.78 632.416 1131.41 632.112 1131.25 631.504C1131.09 630.256 1130.98 629.232 1130.91 628.432H1119.73V638.032H1131.49V643.024H1119.73V652.816H1130.91C1130.98 652.016 1131.09 650.992 1131.25 649.744C1131.41 649.136 1131.78 648.832 1132.35 648.832H1135.14V658H1109.6V655.168C1109.6 654.368 1110 653.872 1110.8 653.68L1111.09 653.632C1111.18 653.632 1111.28 653.616 1111.38 653.584C1111.5 653.552 1111.65 653.52 1111.81 653.488L1113.25 653.248V628.048L1111.81 627.808C1111.65 627.776 1111.5 627.744 1111.38 627.712C1111.28 627.68 1111.18 627.664 1111.09 627.664L1110.8 627.616C1110 627.424 1109.6 626.928 1109.6 626.128V623.296H1135.14V632.416ZM1168.7 643.456C1169.15 644.384 1169.37 645.616 1169.37 647.152C1169.37 648.624 1169.1 650.08 1168.55 651.52C1168.01 652.928 1167.23 654.128 1166.2 655.12C1165.18 656.144 1163.91 656.944 1162.41 657.52C1160.94 658.096 1159.24 658.384 1157.32 658.384H1156.6C1153.56 658.384 1150.25 657.776 1146.67 656.56V647.632H1149.4C1150.01 647.632 1150.38 647.92 1150.51 648.496C1150.6 648.912 1150.75 650.24 1150.94 652.48C1152.28 652.896 1154.47 653.104 1157.51 653.104C1159.34 653.104 1160.76 652.672 1161.79 651.808C1162.78 650.944 1163.27 649.696 1163.27 648.064C1163.27 647.168 1163.05 646.416 1162.6 645.808C1162.19 645.232 1161.58 644.752 1160.78 644.368C1159.98 643.952 1159.13 643.616 1158.23 643.36L1157.18 643.072L1155.31 642.496C1154.35 642.176 1153.37 641.792 1152.38 641.344C1151.48 640.928 1150.62 640.336 1149.79 639.568C1149.02 638.864 1148.43 637.968 1148.01 636.88C1147.53 635.696 1147.29 634.368 1147.29 632.896C1147.29 631.584 1147.55 630.352 1148.06 629.2C1148.54 627.984 1149.27 626.912 1150.27 625.984C1151.19 625.12 1152.38 624.384 1153.82 623.776C1155.23 623.2 1156.84 622.912 1158.67 622.912C1162.03 622.912 1165.34 623.568 1168.6 624.88V633.76H1165.87C1165.29 633.76 1164.92 633.456 1164.76 632.848C1164.67 632.4 1164.52 631.104 1164.33 628.96C1163.18 628.448 1161.31 628.192 1158.71 628.192C1157.85 628.192 1157.08 628.288 1156.41 628.48C1155.67 628.736 1155.11 629.04 1154.73 629.392C1154.25 629.808 1153.9 630.272 1153.67 630.784C1153.45 631.264 1153.34 631.856 1153.34 632.56C1153.34 633.328 1153.58 634 1154.06 634.576C1154.54 635.152 1155.13 635.616 1155.83 635.968C1156.76 636.416 1157.63 636.768 1158.43 637.024C1158.75 637.12 1159.72 637.44 1161.35 637.984C1162.03 638.208 1163 638.608 1164.28 639.184C1165.24 639.6 1166.11 640.176 1166.87 640.912C1167.71 641.68 1168.31 642.528 1168.7 643.456ZM1223.24 643.456C1223.69 644.384 1223.91 645.616 1223.91 647.152C1223.91 648.624 1223.64 650.08 1223.1 651.52C1222.55 652.928 1221.77 654.128 1220.75 655.12C1219.72 656.144 1218.46 656.944 1216.95 657.52C1215.48 658.096 1213.79 658.384 1211.87 658.384H1211.15C1208.11 658.384 1204.79 657.776 1201.21 656.56V647.632H1203.95C1204.55 647.632 1204.92 647.92 1205.05 648.496C1205.15 648.912 1205.29 650.24 1205.48 652.48C1206.83 652.896 1209.02 653.104 1212.06 653.104C1213.88 653.104 1215.31 652.672 1216.33 651.808C1217.32 650.944 1217.82 649.696 1217.82 648.064C1217.82 647.168 1217.59 646.416 1217.15 645.808C1216.73 645.232 1216.12 644.752 1215.32 644.368C1214.52 643.952 1213.67 643.616 1212.78 643.36L1211.72 643.072L1209.85 642.496C1208.89 642.176 1207.91 641.792 1206.92 641.344C1206.03 640.928 1205.16 640.336 1204.33 639.568C1203.56 638.864 1202.97 637.968 1202.55 636.88C1202.07 635.696 1201.83 634.368 1201.83 632.896C1201.83 631.584 1202.09 630.352 1202.6 629.2C1203.08 627.984 1203.82 626.912 1204.81 625.984C1205.74 625.12 1206.92 624.384 1208.36 623.776C1209.77 623.2 1211.39 622.912 1213.21 622.912C1216.57 622.912 1219.88 623.568 1223.15 624.88V633.76H1220.41C1219.83 633.76 1219.47 633.456 1219.31 632.848C1219.21 632.4 1219.07 631.104 1218.87 628.96C1217.72 628.448 1215.85 628.192 1213.26 628.192C1212.39 628.192 1211.63 628.288 1210.95 628.48C1210.22 628.736 1209.66 629.04 1209.27 629.392C1208.79 629.808 1208.44 630.272 1208.22 630.784C1207.99 631.264 1207.88 631.856 1207.88 632.56C1207.88 633.328 1208.12 634 1208.6 634.576C1209.08 635.152 1209.67 635.616 1210.38 635.968C1211.31 636.416 1212.17 636.768 1212.97 637.024C1213.29 637.12 1214.27 637.44 1215.9 637.984C1216.57 638.208 1217.55 638.608 1218.83 639.184C1219.79 639.6 1220.65 640.176 1221.42 640.912C1222.25 641.68 1222.86 642.528 1223.24 643.456ZM1271.33 654.304C1271.94 654.528 1272.24 654.944 1272.24 655.552V658H1260.53V655.552C1260.53 655.008 1260.85 654.592 1261.49 654.304L1262.45 653.92L1260.53 648.688H1246.71L1244.79 653.92L1245.75 654.304C1246.39 654.592 1246.71 655.008 1246.71 655.552V658H1235V655.552C1235 655.008 1235.32 654.592 1235.96 654.304L1238.6 653.2L1250.31 623.296H1256.93L1268.69 653.2L1271.33 654.304ZM1258.9 644.128L1254.92 633.328C1254.53 632.272 1254.1 630.912 1253.62 629.248L1253.19 630.736C1252.93 631.6 1252.64 632.48 1252.32 633.376L1248.39 644.128H1258.9ZM1313.55 653.68C1314.35 653.872 1314.75 654.368 1314.75 655.168V658H1308.27C1307.66 658 1307.18 657.888 1306.83 657.664C1306.48 657.44 1306.16 657.12 1305.87 656.704L1298.57 645.568C1298.32 645.184 1298.01 644.896 1297.66 644.704C1297.31 644.512 1296.83 644.416 1296.22 644.416H1293.77V653.248L1295.21 653.488C1295.37 653.52 1295.5 653.552 1295.6 653.584C1295.72 653.616 1295.84 653.632 1295.93 653.632L1296.22 653.68C1297.02 653.872 1297.42 654.368 1297.42 655.168V658H1283.69V655.168C1283.69 654.368 1284.09 653.872 1284.89 653.68L1285.18 653.632L1285.9 653.488L1287.34 653.248V628.048L1285.9 627.808C1285.74 627.776 1285.6 627.744 1285.47 627.712C1285.37 627.68 1285.28 627.664 1285.18 627.664L1284.89 627.616C1284.09 627.424 1283.69 626.928 1283.69 626.128V623.296H1297.56C1299.93 623.296 1301.96 623.536 1303.66 624.016C1305.29 624.496 1306.67 625.184 1307.79 626.08C1308.91 627.008 1309.71 628.064 1310.19 629.248C1310.7 630.464 1310.96 631.808 1310.96 633.28C1310.96 634.368 1310.78 635.472 1310.43 636.592C1310.14 637.52 1309.64 638.464 1308.94 639.424C1308.36 640.224 1307.56 640.96 1306.54 641.632C1305.55 642.272 1304.46 642.784 1303.28 643.168C1304.11 643.648 1304.81 644.32 1305.39 645.184L1310.86 653.248L1312.35 653.488C1312.51 653.52 1312.65 653.552 1312.78 653.584C1312.94 653.616 1313.07 653.632 1313.16 653.632L1313.55 653.68ZM1300.64 639.328C1301.53 639.04 1302.28 638.624 1302.89 638.08C1303.44 637.568 1303.87 636.928 1304.19 636.16C1304.48 635.424 1304.62 634.624 1304.62 633.76C1304.62 632 1304.04 630.64 1302.89 629.68C1301.77 628.752 1300 628.288 1297.56 628.288H1293.77V639.808H1297.47C1298.56 639.808 1299.61 639.648 1300.64 639.328ZM1338.39 627.664C1338.3 627.664 1338.18 627.68 1338.06 627.712C1337.96 627.744 1337.83 627.776 1337.67 627.808L1336.28 628.048V653.248L1337.67 653.488C1337.83 653.52 1337.96 653.552 1338.06 653.584C1338.18 653.616 1338.3 653.632 1338.39 653.632L1338.68 653.68C1339.48 653.872 1339.88 654.368 1339.88 655.168V658H1326.15V655.168C1326.15 654.368 1326.55 653.872 1327.35 653.68L1327.64 653.632L1328.36 653.488L1329.8 653.248V628.048L1328.36 627.808C1328.2 627.776 1328.06 627.744 1327.93 627.712C1327.83 627.68 1327.74 627.664 1327.64 627.664L1327.35 627.616C1326.55 627.424 1326.15 626.928 1326.15 626.128V623.296H1339.88V626.128C1339.88 626.928 1339.48 627.424 1338.68 627.616L1338.39 627.664ZM1380.06 631.504H1377.33C1376.72 631.504 1376.34 631.2 1376.18 630.592C1376.08 630.048 1376 629.392 1375.94 628.624H1368.88V653.248L1370.27 653.488C1370.43 653.52 1370.56 653.552 1370.66 653.584C1370.78 653.616 1370.9 653.632 1370.99 653.632L1371.28 653.68C1372.11 653.872 1372.53 654.368 1372.53 655.168V658H1358.8V655.168C1358.8 654.368 1359.2 653.872 1360 653.68L1360.29 653.632C1360.38 653.632 1360.48 653.616 1360.58 653.584C1360.7 653.552 1360.85 653.52 1361.01 653.488L1362.4 653.248V628.576H1355.34C1355.28 629.408 1355.2 630.08 1355.1 630.592C1354.94 631.2 1354.58 631.504 1354 631.504H1351.22V623.296H1380.06V631.504ZM1427.58 654.304C1428.18 654.528 1428.49 654.944 1428.49 655.552V658H1416.78V655.552C1416.78 655.008 1417.1 654.592 1417.74 654.304L1418.7 653.92L1416.78 648.688H1402.95L1401.03 653.92L1401.99 654.304C1402.63 654.592 1402.95 655.008 1402.95 655.552V658H1391.24V655.552C1391.24 655.008 1391.56 654.592 1392.2 654.304L1394.84 653.2L1406.55 623.296H1413.18L1424.94 653.2L1427.58 654.304ZM1415.14 644.128L1411.16 633.328C1410.78 632.272 1410.34 630.912 1409.86 629.248L1409.43 630.736C1409.18 631.6 1408.89 632.48 1408.57 633.376L1404.63 644.128H1415.14ZM1487.67 629.872C1488.21 631.248 1488.49 632.736 1488.49 634.336C1488.49 636.032 1488.2 637.584 1487.62 638.992C1487.05 640.4 1486.21 641.6 1485.13 642.592C1484.07 643.552 1482.66 644.336 1480.9 644.944C1479.3 645.488 1477.33 645.76 1475 645.76H1470.73V653.248L1472.17 653.488C1472.33 653.52 1472.45 653.552 1472.55 653.584C1472.68 653.616 1472.79 653.632 1472.89 653.632L1473.17 653.68C1473.97 653.872 1474.37 654.368 1474.37 655.168V658H1460.65V655.168C1460.65 654.368 1461.05 653.872 1461.85 653.68L1462.13 653.632L1462.85 653.488L1464.29 653.248V628.048L1462.85 627.808C1462.69 627.776 1462.55 627.744 1462.42 627.712C1462.33 627.68 1462.23 627.664 1462.13 627.664L1461.85 627.616C1461.05 627.424 1460.65 626.928 1460.65 626.128V623.296H1475C1477.3 623.296 1479.32 623.568 1481.05 624.112C1482.65 624.624 1484.04 625.392 1485.22 626.416C1486.31 627.376 1487.13 628.528 1487.67 629.872ZM1481.57 637.024C1481.86 636.256 1482.01 635.36 1482.01 634.336C1482.01 633.44 1481.86 632.608 1481.57 631.84C1481.29 631.104 1480.85 630.464 1480.28 629.92C1479.73 629.408 1479.01 629.008 1478.12 628.72C1477.25 628.432 1476.21 628.288 1475 628.288H1470.73V640.72H1475C1476.21 640.72 1477.25 640.576 1478.12 640.288C1479.01 639.968 1479.73 639.552 1480.28 639.04C1480.85 638.528 1481.29 637.856 1481.57 637.024ZM1522 640.048C1526.77 641.104 1529.15 643.68 1529.15 647.776C1529.15 649.248 1528.87 650.608 1528.29 651.856C1527.71 653.136 1526.9 654.224 1525.84 655.12C1524.85 655.984 1523.54 656.688 1521.91 657.232C1520.37 657.744 1518.58 658 1516.53 658H1499.78V655.168C1499.78 654.368 1500.18 653.872 1500.98 653.68L1501.27 653.632C1501.36 653.632 1501.46 653.616 1501.55 653.584C1501.68 653.552 1501.83 653.52 1501.99 653.488L1503.43 653.248V628.048L1501.99 627.808C1501.83 627.776 1501.68 627.744 1501.55 627.712C1501.46 627.68 1501.36 627.664 1501.27 627.664L1500.98 627.616C1500.18 627.424 1499.78 626.928 1499.78 626.128V623.296H1515.38C1517.68 623.296 1519.62 623.504 1521.19 623.92C1522.85 624.368 1524.18 624.992 1525.17 625.792C1526.19 626.592 1526.95 627.568 1527.43 628.72C1527.91 629.872 1528.15 631.136 1528.15 632.512C1528.15 633.376 1528.03 634.16 1527.81 634.864C1527.59 635.568 1527.2 636.272 1526.66 636.976C1526.18 637.552 1525.54 638.128 1524.74 638.704C1524.03 639.184 1523.12 639.632 1522 640.048ZM1515.04 638.32C1517.25 638.32 1518.91 637.92 1520.03 637.12C1521.15 636.32 1521.71 635.04 1521.71 633.28C1521.71 631.488 1521.2 630.208 1520.18 629.44C1519.19 628.672 1517.59 628.288 1515.38 628.288H1509.86V638.32H1515.04ZM1522.43 649.696C1522.66 649.12 1522.77 648.432 1522.77 647.632C1522.77 646.96 1522.64 646.288 1522.39 645.616C1522.13 644.976 1521.76 644.464 1521.28 644.08C1520.8 643.696 1520.15 643.376 1519.31 643.12C1518.55 642.896 1517.57 642.784 1516.39 642.784H1509.86V652.96H1516.43C1517.65 652.96 1518.66 652.816 1519.46 652.528C1520.26 652.24 1520.9 651.856 1521.38 651.376C1521.89 650.864 1522.24 650.304 1522.43 649.696ZM1572.95 633.616C1573.82 635.728 1574.25 638.064 1574.25 640.624C1574.25 643.184 1573.82 645.52 1572.95 647.632C1572.06 649.84 1570.87 651.68 1569.4 653.152C1567.93 654.624 1566.07 655.808 1563.83 656.704C1561.69 657.568 1559.31 658 1556.68 658H1540.31V655.168C1540.31 654.368 1540.71 653.872 1541.51 653.68L1541.8 653.632C1541.9 653.632 1541.99 653.616 1542.09 653.584C1542.22 653.552 1542.36 653.52 1542.52 653.488L1543.96 653.248V628.048L1542.52 627.808C1542.36 627.776 1542.22 627.744 1542.09 627.712C1541.99 627.68 1541.9 627.664 1541.8 627.664L1541.51 627.616C1540.71 627.424 1540.31 626.928 1540.31 626.128V623.296H1556.68C1559.31 623.296 1561.69 623.728 1563.83 624.592C1566.07 625.488 1567.93 626.672 1569.4 628.144C1570.87 629.616 1572.06 631.44 1572.95 633.616ZM1566.86 645.76C1567.37 644.256 1567.63 642.544 1567.63 640.624C1567.63 638.736 1567.37 637.04 1566.86 635.536C1566.28 633.936 1565.56 632.656 1564.7 631.696C1563.77 630.704 1562.62 629.904 1561.24 629.296C1559.9 628.72 1558.38 628.432 1556.68 628.432H1550.44V652.864H1556.68C1558.38 652.864 1559.9 652.576 1561.24 652C1562.62 651.392 1563.77 650.592 1564.7 649.6C1565.59 648.608 1566.31 647.328 1566.86 645.76Z" fill="#E8E8E8"/>
<path d="M805 542L839.333 508.333V542H805ZM942.333 542V491.5L908 525.166V542H873.667V474.667L908 441V474.667V491.5L942.333 457.833V407.334L976.667 373.666V407.334V474.667V542H942.333ZM1079.67 407.334V340V306.333L1045.33 340V407.334V508.333H1079.67V407.334ZM1079.67 542H1045.33H1011V407.334V340L1045.33 306.333L1079.67 272.667L1114 239V272.667V340V407.334V542H1079.67Z" fill="#E8E8E8"/>
</g>
<defs>
<radialGradient id="paint0_radial_245_357" cx="0" cy="0" r="1" gradientUnits="userSpaceOnUse" gradientTransform="translate(-0.999981 -1.49998) rotate(29.3903) scale(2204.76 2051.01)">
<stop stop-color="white"/>
<stop offset="0.304315" stop-color="#9A9A9A"/>
<stop offset="0.645394" stop-color="#4A4A4A"/>
<stop offset="0.807759"/>
</radialGradient>
<radialGradient id="paint1_radial_245_357" cx="0" cy="0" r="1" gradientUnits="userSpaceOnUse" gradientTransform="translate(226.5 211) rotate(90) scale(869 887.5)">
<stop stop-color="white" stop-opacity="0.5"/>
<stop offset="1" stop-color="#D9D9D9" stop-opacity="0"/>
</radialGradient>
<clipPath id="clip0_245_357">
<rect width="1920" height="1080" rx="50" fill="white"/>
</clipPath>
</defs>
</svg>
