<svg width="1920" height="1080" viewBox="0 0 1920 1080" fill="none" xmlns="http://www.w3.org/2000/svg">
<g clip-path="url(#clip0_245_347)">
<rect width="1920" height="1080" rx="50" fill="#171717"/>
<path fill-rule="evenodd" clip-rule="evenodd" d="M-426.504 -789.613L260.028 398.559L421.518 -196.405L-426.504 -789.613Z" stroke="url(#paint0_radial_245_347)" stroke-opacity="0.5" stroke-width="10" stroke-miterlimit="10" stroke-linecap="square"/>
<path fill-rule="evenodd" clip-rule="evenodd" d="M461.35 -767.466L909.076 -661.525L243.223 533.503L461.35 -767.466Z" stroke="url(#paint1_radial_245_347)" stroke-opacity="0.5" stroke-width="10" stroke-miterlimit="10" stroke-linecap="square"/>
<path fill-rule="evenodd" clip-rule="evenodd" d="M993.865 -576.791L353.468 421.49L1492.75 -340.355L993.865 -576.791Z" stroke="url(#paint2_radial_245_347)" stroke-opacity="0.5" stroke-width="10" stroke-miterlimit="10" stroke-linecap="square"/>
<path fill-rule="evenodd" clip-rule="evenodd" d="M1126.24 -335.964L1613.35 -67.5161L299.895 603.912L1126.24 -335.964Z" stroke="url(#paint3_radial_245_347)" stroke-opacity="0.5" stroke-width="10" stroke-miterlimit="10" stroke-linecap="square"/>
<path fill-rule="evenodd" clip-rule="evenodd" d="M1309.32 213.473L1577.49 442.92L364.649 617.123L1309.32 213.473Z" stroke="url(#paint4_radial_245_347)" stroke-opacity="0.5" stroke-width="10" stroke-miterlimit="10" stroke-linecap="square"/>
<path fill-rule="evenodd" clip-rule="evenodd" d="M1594.26 655.765L396.67 641.891L1491.87 960.83L1594.26 655.765Z" stroke="url(#paint5_radial_245_347)" stroke-opacity="0.5" stroke-width="10" stroke-miterlimit="10" stroke-linecap="square"/>
<path fill-rule="evenodd" clip-rule="evenodd" d="M1315.18 978.689L264.093 627.762L1287.89 1264.52L1315.18 978.689Z" stroke="url(#paint6_radial_245_347)" stroke-opacity="0.5" stroke-width="10" stroke-miterlimit="10" stroke-linecap="square"/>
<path fill-rule="evenodd" clip-rule="evenodd" d="M1151.2 1350.95L214.497 620.728L772.983 1765.66L1151.2 1350.95Z" stroke="url(#paint7_radial_245_347)" stroke-opacity="0.5" stroke-width="10" stroke-miterlimit="10" stroke-linecap="square"/>
<path fill-rule="evenodd" clip-rule="evenodd" d="M709.953 1479.78L283.359 707.64L125.075 1792.17L709.953 1479.78Z" stroke="url(#paint8_radial_245_347)" stroke-opacity="0.5" stroke-width="10" stroke-miterlimit="10" stroke-linecap="square"/>
<ellipse opacity="0.2" cx="226.5" cy="211" rx="887.5" ry="869" fill="url(#paint9_radial_245_347)"/>
<path d="M68.2273 1008V973.091H72.4545V988.636H91.0682V973.091H95.2955V1008H91.0682V992.386H72.4545V1008H68.2273ZM103.213 1008V981.818H107.236V1008H103.213ZM105.259 977.455C104.474 977.455 103.798 977.188 103.23 976.653C102.673 976.119 102.395 975.477 102.395 974.727C102.395 973.977 102.673 973.335 103.23 972.801C103.798 972.267 104.474 972 105.259 972C106.043 972 106.713 972.267 107.27 972.801C107.838 973.335 108.122 973.977 108.122 974.727C108.122 975.477 107.838 976.119 107.27 976.653C106.713 977.188 106.043 977.455 105.259 977.455ZM125.172 1018.36C123.229 1018.36 121.558 1018.11 120.161 1017.61C118.763 1017.12 117.598 1016.48 116.666 1015.67C115.746 1014.88 115.013 1014.02 114.467 1013.11L117.672 1010.86C118.036 1011.34 118.496 1011.89 119.053 1012.5C119.609 1013.12 120.371 1013.66 121.337 1014.12C122.314 1014.59 123.592 1014.82 125.172 1014.82C127.286 1014.82 129.03 1014.31 130.405 1013.28C131.78 1012.26 132.467 1010.66 132.467 1008.48V1003.16H132.126C131.831 1003.64 131.411 1004.23 130.865 1004.93C130.331 1005.62 129.558 1006.24 128.547 1006.79C127.547 1007.32 126.195 1007.59 124.49 1007.59C122.376 1007.59 120.479 1007.09 118.797 1006.09C117.126 1005.09 115.803 1003.64 114.825 1001.73C113.859 999.818 113.376 997.5 113.376 994.773C113.376 992.091 113.848 989.756 114.791 987.767C115.734 985.767 117.047 984.222 118.729 983.131C120.411 982.028 122.354 981.477 124.558 981.477C126.263 981.477 127.615 981.761 128.615 982.33C129.626 982.886 130.399 983.523 130.933 984.239C131.479 984.943 131.899 985.523 132.195 985.977H132.604V981.818H136.49V1008.75C136.49 1011 135.979 1012.83 134.956 1014.24C133.945 1015.66 132.581 1016.7 130.865 1017.36C129.161 1018.03 127.263 1018.36 125.172 1018.36ZM125.036 1003.98C126.649 1003.98 128.013 1003.61 129.126 1002.87C130.24 1002.13 131.087 1001.07 131.666 999.682C132.246 998.295 132.536 996.636 132.536 994.705C132.536 992.818 132.251 991.153 131.683 989.71C131.115 988.267 130.274 987.136 129.161 986.318C128.047 985.5 126.672 985.091 125.036 985.091C123.331 985.091 121.911 985.523 120.774 986.386C119.649 987.25 118.803 988.409 118.234 989.864C117.678 991.318 117.399 992.932 117.399 994.705C117.399 996.523 117.683 998.131 118.251 999.528C118.831 1000.91 119.683 1002.01 120.808 1002.8C121.945 1003.59 123.354 1003.98 125.036 1003.98ZM147.876 992.25V1008H143.854V973.091H147.876V985.909H148.217C148.831 984.557 149.751 983.483 150.979 982.688C152.217 981.881 153.865 981.477 155.922 981.477C157.706 981.477 159.268 981.835 160.609 982.551C161.95 983.256 162.99 984.341 163.729 985.807C164.479 987.261 164.854 989.114 164.854 991.364V1008H160.831V991.636C160.831 989.557 160.291 987.949 159.212 986.812C158.143 985.665 156.661 985.091 154.763 985.091C153.445 985.091 152.263 985.369 151.217 985.926C150.183 986.483 149.365 987.295 148.763 988.364C148.172 989.432 147.876 990.727 147.876 992.25ZM215.713 990.545C215.713 994.227 215.048 997.409 213.719 1000.09C212.389 1002.77 210.565 1004.84 208.247 1006.3C205.929 1007.75 203.281 1008.48 200.304 1008.48C197.327 1008.48 194.679 1007.75 192.361 1006.3C190.043 1004.84 188.219 1002.77 186.889 1000.09C185.56 997.409 184.895 994.227 184.895 990.545C184.895 986.864 185.56 983.682 186.889 981C188.219 978.318 190.043 976.25 192.361 974.795C194.679 973.341 197.327 972.614 200.304 972.614C203.281 972.614 205.929 973.341 208.247 974.795C210.565 976.25 212.389 978.318 213.719 981C215.048 983.682 215.713 986.864 215.713 990.545ZM211.622 990.545C211.622 987.523 211.116 984.972 210.105 982.892C209.105 980.812 207.747 979.239 206.031 978.17C204.327 977.102 202.418 976.568 200.304 976.568C198.19 976.568 196.276 977.102 194.56 978.17C192.855 979.239 191.497 980.812 190.486 982.892C189.486 984.972 188.986 987.523 188.986 990.545C188.986 993.568 189.486 996.119 190.486 998.199C191.497 1000.28 192.855 1001.85 194.56 1002.92C196.276 1003.99 198.19 1004.52 200.304 1004.52C202.418 1004.52 204.327 1003.99 206.031 1002.92C207.747 1001.85 209.105 1000.28 210.105 998.199C211.116 996.119 211.622 993.568 211.622 990.545ZM238.776 997.295V981.818H242.798V1008H238.776V1003.57H238.503C237.889 1004.9 236.935 1006.03 235.639 1006.96C234.344 1007.88 232.707 1008.34 230.73 1008.34C229.094 1008.34 227.639 1007.98 226.366 1007.27C225.094 1006.54 224.094 1005.45 223.366 1003.99C222.639 1002.53 222.276 1000.68 222.276 998.455V981.818H226.298V998.182C226.298 1000.09 226.832 1001.61 227.901 1002.75C228.98 1003.89 230.355 1004.45 232.026 1004.45C233.026 1004.45 234.043 1004.2 235.077 1003.69C236.122 1003.18 236.997 1002.39 237.702 1001.34C238.418 1000.28 238.776 998.932 238.776 997.295ZM261.553 981.818V985.227H247.984V981.818H261.553ZM251.939 975.545H255.962V1000.5C255.962 1001.64 256.126 1002.49 256.456 1003.06C256.797 1003.61 257.229 1003.99 257.751 1004.18C258.286 1004.36 258.848 1004.45 259.439 1004.45C259.882 1004.45 260.246 1004.43 260.53 1004.39C260.814 1004.33 261.041 1004.28 261.212 1004.25L262.03 1007.86C261.757 1007.97 261.376 1008.07 260.888 1008.17C260.399 1008.28 259.78 1008.34 259.03 1008.34C257.893 1008.34 256.78 1008.1 255.689 1007.61C254.609 1007.12 253.712 1006.38 252.996 1005.38C252.291 1004.38 251.939 1003.11 251.939 1001.59V975.545ZM267.604 1017.82V981.818H271.49V985.977H271.967C272.263 985.523 272.672 984.943 273.195 984.239C273.729 983.523 274.49 982.886 275.479 982.33C276.479 981.761 277.831 981.477 279.536 981.477C281.74 981.477 283.683 982.028 285.365 983.131C287.047 984.233 288.359 985.795 289.303 987.818C290.246 989.841 290.717 992.227 290.717 994.977C290.717 997.75 290.246 1000.15 289.303 1002.19C288.359 1004.21 287.053 1005.78 285.382 1006.89C283.712 1007.99 281.786 1008.55 279.604 1008.55C277.922 1008.55 276.575 1008.27 275.564 1007.71C274.553 1007.14 273.774 1006.5 273.229 1005.78C272.683 1005.06 272.263 1004.45 271.967 1003.98H271.626V1017.82H267.604ZM271.558 994.909C271.558 996.886 271.848 998.631 272.428 1000.14C273.007 1001.64 273.854 1002.82 274.967 1003.67C276.081 1004.51 277.445 1004.93 279.058 1004.93C280.74 1004.93 282.143 1004.49 283.268 1003.6C284.405 1002.7 285.257 1001.5 285.825 999.989C286.405 998.466 286.695 996.773 286.695 994.909C286.695 993.068 286.411 991.409 285.842 989.932C285.286 988.443 284.439 987.267 283.303 986.403C282.178 985.528 280.763 985.091 279.058 985.091C277.422 985.091 276.047 985.506 274.933 986.335C273.82 987.153 272.979 988.301 272.411 989.778C271.842 991.244 271.558 992.955 271.558 994.909ZM313.354 997.295V981.818H317.376V1008H313.354V1003.57H313.081C312.467 1004.9 311.513 1006.03 310.217 1006.96C308.922 1007.88 307.286 1008.34 305.308 1008.34C303.672 1008.34 302.217 1007.98 300.945 1007.27C299.672 1006.54 298.672 1005.45 297.945 1003.99C297.217 1002.53 296.854 1000.68 296.854 998.455V981.818H300.876V998.182C300.876 1000.09 301.411 1001.61 302.479 1002.75C303.558 1003.89 304.933 1004.45 306.604 1004.45C307.604 1004.45 308.621 1004.2 309.655 1003.69C310.7 1003.18 311.575 1002.39 312.28 1001.34C312.996 1000.28 313.354 998.932 313.354 997.295ZM336.131 981.818V985.227H322.562V981.818H336.131ZM326.517 975.545H330.54V1000.5C330.54 1001.64 330.705 1002.49 331.034 1003.06C331.375 1003.61 331.807 1003.99 332.33 1004.18C332.864 1004.36 333.426 1004.45 334.017 1004.45C334.46 1004.45 334.824 1004.43 335.108 1004.39C335.392 1004.33 335.619 1004.28 335.79 1004.25L336.608 1007.86C336.335 1007.97 335.955 1008.07 335.466 1008.17C334.977 1008.28 334.358 1008.34 333.608 1008.34C332.472 1008.34 331.358 1008.1 330.267 1007.61C329.188 1007.12 328.29 1006.38 327.574 1005.38C326.869 1004.38 326.517 1003.11 326.517 1001.59V975.545ZM357.659 973.091L368.023 1002.48H368.432L378.795 973.091H383.227L370.409 1008H366.045L353.227 973.091H357.659ZM396.659 1008.55C394.136 1008.55 391.96 1007.99 390.131 1006.88C388.312 1005.75 386.909 1004.18 385.92 1002.17C384.943 1000.15 384.455 997.795 384.455 995.114C384.455 992.432 384.943 990.068 385.92 988.023C386.909 985.966 388.284 984.364 390.045 983.216C391.818 982.057 393.886 981.477 396.25 981.477C397.614 981.477 398.96 981.705 400.29 982.159C401.619 982.614 402.83 983.352 403.92 984.375C405.011 985.386 405.881 986.727 406.528 988.398C407.176 990.068 407.5 992.125 407.5 994.568V996.273H387.318V992.795H403.409C403.409 991.318 403.114 990 402.523 988.841C401.943 987.682 401.114 986.767 400.034 986.097C398.966 985.426 397.705 985.091 396.25 985.091C394.648 985.091 393.261 985.489 392.091 986.284C390.932 987.068 390.04 988.091 389.415 989.352C388.79 990.614 388.477 991.966 388.477 993.409V995.727C388.477 997.705 388.818 999.381 389.5 1000.76C390.193 1002.12 391.153 1003.16 392.381 1003.88C393.608 1004.58 395.034 1004.93 396.659 1004.93C397.716 1004.93 398.67 1004.78 399.523 1004.49C400.386 1004.18 401.131 1003.73 401.756 1003.12C402.381 1002.51 402.864 1001.75 403.205 1000.84L407.091 1001.93C406.682 1003.25 405.994 1004.41 405.028 1005.41C404.063 1006.4 402.869 1007.17 401.449 1007.73C400.028 1008.27 398.432 1008.55 396.659 1008.55ZM417.642 992.25V1008H413.619V981.818H417.506V985.909H417.847C418.46 984.58 419.392 983.511 420.642 982.705C421.892 981.886 423.506 981.477 425.483 981.477C427.256 981.477 428.807 981.841 430.136 982.568C431.466 983.284 432.5 984.375 433.239 985.841C433.977 987.295 434.347 989.136 434.347 991.364V1008H430.324V991.636C430.324 989.58 429.79 987.977 428.722 986.83C427.653 985.67 426.188 985.091 424.324 985.091C423.04 985.091 421.892 985.369 420.881 985.926C419.881 986.483 419.091 987.295 418.511 988.364C417.932 989.432 417.642 990.727 417.642 992.25ZM453.084 981.818V985.227H439.516V981.818H453.084ZM443.47 975.545H447.493V1000.5C447.493 1001.64 447.658 1002.49 447.987 1003.06C448.328 1003.61 448.76 1003.99 449.283 1004.18C449.817 1004.36 450.379 1004.45 450.97 1004.45C451.413 1004.45 451.777 1004.43 452.061 1004.39C452.345 1004.33 452.572 1004.28 452.743 1004.25L453.561 1007.86C453.288 1007.97 452.908 1008.07 452.419 1008.17C451.93 1008.28 451.311 1008.34 450.561 1008.34C449.425 1008.34 448.311 1008.1 447.22 1007.61C446.141 1007.12 445.243 1006.38 444.527 1005.38C443.822 1004.38 443.47 1003.11 443.47 1001.59V975.545ZM475.635 997.295V981.818H479.658V1008H475.635V1003.57H475.362C474.749 1004.9 473.794 1006.03 472.499 1006.96C471.203 1007.88 469.567 1008.34 467.589 1008.34C465.953 1008.34 464.499 1007.98 463.226 1007.27C461.953 1006.54 460.953 1005.45 460.226 1003.99C459.499 1002.53 459.135 1000.68 459.135 998.455V981.818H463.158V998.182C463.158 1000.09 463.692 1001.61 464.76 1002.75C465.839 1003.89 467.214 1004.45 468.885 1004.45C469.885 1004.45 470.902 1004.2 471.936 1003.69C472.982 1003.18 473.857 1002.39 474.561 1001.34C475.277 1000.28 475.635 998.932 475.635 997.295ZM487.026 1008V981.818H490.912V985.773H491.185C491.662 984.477 492.526 983.426 493.776 982.619C495.026 981.812 496.435 981.409 498.003 981.409C498.298 981.409 498.668 981.415 499.111 981.426C499.554 981.437 499.889 981.455 500.116 981.477V985.568C499.98 985.534 499.668 985.483 499.179 985.415C498.702 985.335 498.196 985.295 497.662 985.295C496.389 985.295 495.253 985.562 494.253 986.097C493.264 986.619 492.48 987.347 491.901 988.278C491.332 989.199 491.048 990.25 491.048 991.432V1008H487.026ZM515.065 1008.55C512.543 1008.55 510.366 1007.99 508.537 1006.88C506.719 1005.75 505.315 1004.18 504.327 1002.17C503.349 1000.15 502.861 997.795 502.861 995.114C502.861 992.432 503.349 990.068 504.327 988.023C505.315 985.966 506.69 984.364 508.452 983.216C510.224 982.057 512.293 981.477 514.656 981.477C516.02 981.477 517.366 981.705 518.696 982.159C520.026 982.614 521.236 983.352 522.327 984.375C523.418 985.386 524.287 986.727 524.935 988.398C525.582 990.068 525.906 992.125 525.906 994.568V996.273H505.724V992.795H521.815C521.815 991.318 521.52 990 520.929 988.841C520.349 987.682 519.52 986.767 518.44 986.097C517.372 985.426 516.111 985.091 514.656 985.091C513.054 985.091 511.668 985.489 510.497 986.284C509.338 987.068 508.446 988.091 507.821 989.352C507.196 990.614 506.884 991.966 506.884 993.409V995.727C506.884 997.705 507.224 999.381 507.906 1000.76C508.599 1002.12 509.56 1003.16 510.787 1003.88C512.014 1004.58 513.44 1004.93 515.065 1004.93C516.122 1004.93 517.077 1004.78 517.929 1004.49C518.793 1004.18 519.537 1003.73 520.162 1003.12C520.787 1002.51 521.27 1001.75 521.611 1000.84L525.497 1001.93C525.088 1003.25 524.401 1004.41 523.435 1005.41C522.469 1006.4 521.276 1007.17 519.855 1007.73C518.435 1008.27 516.838 1008.55 515.065 1008.55ZM550.571 987.682L546.957 988.705C546.73 988.102 546.395 987.517 545.952 986.949C545.52 986.369 544.929 985.892 544.179 985.517C543.429 985.142 542.469 984.955 541.298 984.955C539.696 984.955 538.361 985.324 537.293 986.062C536.236 986.79 535.707 987.716 535.707 988.841C535.707 989.841 536.071 990.631 536.798 991.21C537.526 991.79 538.662 992.273 540.207 992.659L544.094 993.614C546.435 994.182 548.179 995.051 549.327 996.222C550.474 997.381 551.048 998.875 551.048 1000.7C551.048 1002.2 550.616 1003.55 549.753 1004.73C548.901 1005.91 547.707 1006.84 546.173 1007.52C544.639 1008.2 542.855 1008.55 540.821 1008.55C538.151 1008.55 535.94 1007.97 534.19 1006.81C532.44 1005.65 531.332 1003.95 530.866 1001.73L534.685 1000.77C535.048 1002.18 535.736 1003.24 536.747 1003.94C537.77 1004.65 539.105 1005 540.753 1005C542.628 1005 544.116 1004.6 545.219 1003.81C546.332 1003 546.889 1002.03 546.889 1000.91C546.889 1000 546.571 999.239 545.935 998.625C545.298 998 544.321 997.534 543.003 997.227L538.639 996.205C536.241 995.636 534.48 994.756 533.355 993.562C532.241 992.358 531.685 990.852 531.685 989.045C531.685 987.568 532.099 986.261 532.929 985.125C533.77 983.989 534.912 983.097 536.355 982.449C537.81 981.801 539.457 981.477 541.298 981.477C543.889 981.477 545.923 982.045 547.401 983.182C548.889 984.318 549.946 985.818 550.571 987.682Z" fill="#E8E8E8"/>
<path d="M1609.03 973.091V1008H1604.81V973.091H1609.03ZM1616.96 1008V981.818H1620.85V985.773H1621.12C1621.6 984.477 1622.46 983.426 1623.71 982.619C1624.96 981.812 1626.37 981.409 1627.94 981.409C1628.24 981.409 1628.61 981.415 1629.05 981.426C1629.49 981.437 1629.83 981.455 1630.05 981.477V985.568C1629.92 985.534 1629.61 985.483 1629.12 985.415C1628.64 985.335 1628.13 985.295 1627.6 985.295C1626.33 985.295 1625.19 985.562 1624.19 986.097C1623.2 986.619 1622.42 987.347 1621.84 988.278C1621.27 989.199 1620.99 990.25 1620.99 991.432V1008H1616.96ZM1644.66 1008.55C1642.3 1008.55 1640.22 1007.98 1638.44 1006.86C1636.67 1005.73 1635.28 1004.16 1634.28 1002.14C1633.29 1000.11 1632.8 997.75 1632.8 995.045C1632.8 992.318 1633.29 989.937 1634.28 987.903C1635.28 985.869 1636.67 984.29 1638.44 983.165C1640.22 982.04 1642.3 981.477 1644.66 981.477C1647.03 981.477 1649.09 982.04 1650.87 983.165C1652.65 984.29 1654.04 985.869 1655.03 987.903C1656.03 989.937 1656.53 992.318 1656.53 995.045C1656.53 997.75 1656.03 1000.11 1655.03 1002.14C1654.04 1004.16 1652.65 1005.73 1650.87 1006.86C1649.09 1007.98 1647.03 1008.55 1644.66 1008.55ZM1644.66 1004.93C1646.46 1004.93 1647.93 1004.47 1649.09 1003.55C1650.25 1002.63 1651.11 1001.42 1651.67 999.92C1652.22 998.42 1652.5 996.795 1652.5 995.045C1652.5 993.295 1652.22 991.665 1651.67 990.153C1651.11 988.642 1650.25 987.42 1649.09 986.489C1647.93 985.557 1646.46 985.091 1644.66 985.091C1642.87 985.091 1641.39 985.557 1640.23 986.489C1639.07 987.42 1638.21 988.642 1637.66 990.153C1637.1 991.665 1636.82 993.295 1636.82 995.045C1636.82 996.795 1637.1 998.42 1637.66 999.92C1638.21 1001.42 1639.07 1002.63 1640.23 1003.55C1641.39 1004.47 1642.87 1004.93 1644.66 1004.93ZM1666.69 992.25V1008H1662.67V981.818H1666.55V985.909H1666.89C1667.51 984.58 1668.44 983.511 1669.69 982.705C1670.94 981.886 1672.55 981.477 1674.53 981.477C1676.3 981.477 1677.85 981.841 1679.18 982.568C1680.51 983.284 1681.55 984.375 1682.29 985.841C1683.02 987.295 1683.39 989.136 1683.39 991.364V1008H1679.37V991.636C1679.37 989.58 1678.84 987.977 1677.77 986.83C1676.7 985.67 1675.23 985.091 1673.37 985.091C1672.09 985.091 1670.94 985.369 1669.93 985.926C1668.93 986.483 1668.14 987.295 1667.56 988.364C1666.98 989.432 1666.69 990.727 1666.69 992.25ZM1704.79 1008V973.091H1725.86V976.841H1709.02V988.636H1724.77V992.386H1709.02V1004.25H1726.13V1008H1704.79ZM1742.82 1008.55C1740.64 1008.55 1738.71 1007.99 1737.04 1006.89C1735.37 1005.78 1734.06 1004.21 1733.12 1002.19C1732.18 1000.15 1731.7 997.75 1731.7 994.977C1731.7 992.227 1732.18 989.841 1733.12 987.818C1734.06 985.795 1735.38 984.233 1737.06 983.131C1738.74 982.028 1740.68 981.477 1742.89 981.477C1744.59 981.477 1745.94 981.761 1746.93 982.33C1747.93 982.886 1748.69 983.523 1749.21 984.239C1749.74 984.943 1750.16 985.523 1750.45 985.977H1750.8V973.091H1754.82V1008H1750.93V1003.98H1750.45C1750.16 1004.45 1749.74 1005.06 1749.19 1005.78C1748.65 1006.5 1747.87 1007.14 1746.86 1007.71C1745.85 1008.27 1744.5 1008.55 1742.82 1008.55ZM1743.36 1004.93C1744.98 1004.93 1746.34 1004.51 1747.45 1003.67C1748.57 1002.82 1749.41 1001.64 1749.99 1000.14C1750.57 998.631 1750.86 996.886 1750.86 994.909C1750.86 992.955 1750.58 991.244 1750.01 989.778C1749.44 988.301 1748.6 987.153 1747.49 986.335C1746.38 985.506 1745 985.091 1743.36 985.091C1741.66 985.091 1740.24 985.528 1739.1 986.403C1737.98 987.267 1737.13 988.443 1736.56 989.932C1736.01 991.409 1735.73 993.068 1735.73 994.909C1735.73 996.773 1736.01 998.466 1736.58 999.989C1737.16 1001.5 1738.01 1002.7 1739.14 1003.6C1740.27 1004.49 1741.68 1004.93 1743.36 1004.93ZM1762.74 1008V981.818H1766.77V1008H1762.74ZM1764.79 977.455C1764.01 977.455 1763.33 977.188 1762.76 976.653C1762.2 976.119 1761.93 975.477 1761.93 974.727C1761.93 973.977 1762.2 973.335 1762.76 972.801C1763.33 972.267 1764.01 972 1764.79 972C1765.57 972 1766.24 972.267 1766.8 972.801C1767.37 973.335 1767.65 973.977 1767.65 974.727C1767.65 975.477 1767.37 976.119 1766.8 976.653C1766.24 977.188 1765.57 977.455 1764.79 977.455ZM1785.52 981.818V985.227H1771.95V981.818H1785.52ZM1775.91 975.545H1779.93V1000.5C1779.93 1001.64 1780.1 1002.49 1780.42 1003.06C1780.77 1003.61 1781.2 1003.99 1781.72 1004.18C1782.25 1004.36 1782.82 1004.45 1783.41 1004.45C1783.85 1004.45 1784.21 1004.43 1784.5 1004.39C1784.78 1004.33 1785.01 1004.28 1785.18 1004.25L1786 1007.86C1785.73 1007.97 1785.35 1008.07 1784.86 1008.17C1784.37 1008.28 1783.75 1008.34 1783 1008.34C1781.86 1008.34 1780.75 1008.1 1779.66 1007.61C1778.58 1007.12 1777.68 1006.38 1776.96 1005.38C1776.26 1004.38 1775.91 1003.11 1775.91 1001.59V975.545ZM1791.57 1008V981.818H1795.6V1008H1791.57ZM1793.62 977.455C1792.83 977.455 1792.16 977.188 1791.59 976.653C1791.03 976.119 1790.75 975.477 1790.75 974.727C1790.75 973.977 1791.03 973.335 1791.59 972.801C1792.16 972.267 1792.83 972 1793.62 972C1794.4 972 1795.07 972.267 1795.63 972.801C1796.2 973.335 1796.48 973.977 1796.48 974.727C1796.48 975.477 1796.2 976.119 1795.63 976.653C1795.07 977.188 1794.4 977.455 1793.62 977.455ZM1813.6 1008.55C1811.24 1008.55 1809.16 1007.98 1807.38 1006.86C1805.61 1005.73 1804.22 1004.16 1803.22 1002.14C1802.23 1000.11 1801.74 997.75 1801.74 995.045C1801.74 992.318 1802.23 989.937 1803.22 987.903C1804.22 985.869 1805.61 984.29 1807.38 983.165C1809.16 982.04 1811.24 981.477 1813.6 981.477C1815.96 981.477 1818.03 982.04 1819.8 983.165C1821.59 984.29 1822.97 985.869 1823.96 987.903C1824.96 989.937 1825.46 992.318 1825.46 995.045C1825.46 997.75 1824.96 1000.11 1823.96 1002.14C1822.97 1004.16 1821.59 1005.73 1819.8 1006.86C1818.03 1007.98 1815.96 1008.55 1813.6 1008.55ZM1813.6 1004.93C1815.39 1004.93 1816.87 1004.47 1818.03 1003.55C1819.19 1002.63 1820.05 1001.42 1820.61 999.92C1821.16 998.42 1821.44 996.795 1821.44 995.045C1821.44 993.295 1821.16 991.665 1820.61 990.153C1820.05 988.642 1819.19 987.42 1818.03 986.489C1816.87 985.557 1815.39 985.091 1813.6 985.091C1811.8 985.091 1810.33 985.557 1809.17 986.489C1808.01 987.42 1807.15 988.642 1806.59 990.153C1806.04 991.665 1805.76 993.295 1805.76 995.045C1805.76 996.795 1806.04 998.42 1806.59 999.92C1807.15 1001.42 1808.01 1002.63 1809.17 1003.55C1810.33 1004.47 1811.8 1004.93 1813.6 1004.93ZM1835.63 992.25V1008H1831.6V981.818H1835.49V985.909H1835.83C1836.44 984.58 1837.38 983.511 1838.63 982.705C1839.88 981.886 1841.49 981.477 1843.47 981.477C1845.24 981.477 1846.79 981.841 1848.12 982.568C1849.45 983.284 1850.48 984.375 1851.22 985.841C1851.96 987.295 1852.33 989.136 1852.33 991.364V1008H1848.31V991.636C1848.31 989.58 1847.77 987.977 1846.71 986.83C1845.64 985.67 1844.17 985.091 1842.31 985.091C1841.02 985.091 1839.88 985.369 1838.87 985.926C1837.87 986.483 1837.08 987.295 1836.5 988.364C1835.92 989.432 1835.63 990.727 1835.63 992.25Z" fill="#E8E8E8"/>
<path d="M837.814 640.048C842.582 641.104 844.966 643.68 844.966 647.776C844.966 649.248 844.678 650.608 844.102 651.856C843.526 653.136 842.71 654.224 841.654 655.12C840.662 655.984 839.35 656.688 837.718 657.232C836.182 657.744 834.39 658 832.342 658H815.59V655.168C815.59 654.368 815.99 653.872 816.79 653.68L817.078 653.632C817.174 653.632 817.27 653.616 817.366 653.584C817.494 653.552 817.638 653.52 817.798 653.488L819.238 653.248V628.048L817.798 627.808C817.638 627.776 817.494 627.744 817.366 627.712C817.27 627.68 817.174 627.664 817.078 627.664L816.79 627.616C815.99 627.424 815.59 626.928 815.59 626.128V623.296H831.19C833.494 623.296 835.43 623.504 836.998 623.92C838.662 624.368 839.99 624.992 840.982 625.792C842.006 626.592 842.758 627.568 843.238 628.72C843.718 629.872 843.958 631.136 843.958 632.512C843.958 633.376 843.846 634.16 843.622 634.864C843.398 635.568 843.014 636.272 842.47 636.976C841.99 637.552 841.35 638.128 840.55 638.704C839.846 639.184 838.934 639.632 837.814 640.048ZM830.854 638.32C833.062 638.32 834.726 637.92 835.846 637.12C836.966 636.32 837.526 635.04 837.526 633.28C837.526 631.488 837.014 630.208 835.99 629.44C834.998 628.672 833.398 628.288 831.19 628.288H825.67V638.32H830.854ZM838.246 649.696C838.47 649.12 838.582 648.432 838.582 647.632C838.582 646.96 838.454 646.288 838.198 645.616C837.942 644.976 837.574 644.464 837.094 644.08C836.614 643.696 835.958 643.376 835.126 643.12C834.358 642.896 833.382 642.784 832.198 642.784H825.67V652.96H832.246C833.462 652.96 834.47 652.816 835.27 652.528C836.07 652.24 836.71 651.856 837.19 651.376C837.702 650.864 838.054 650.304 838.246 649.696ZM891.023 640.624C891.023 644.048 890.271 647.104 888.767 649.792C887.295 652.48 885.215 654.592 882.527 656.128C879.871 657.632 876.847 658.384 873.455 658.384C870.063 658.384 867.023 657.632 864.335 656.128C861.679 654.624 859.599 652.528 858.095 649.84C856.591 647.152 855.839 644.08 855.839 640.624C855.839 637.168 856.591 634.096 858.095 631.408C859.599 628.72 861.679 626.64 864.335 625.168C867.023 623.664 870.063 622.912 873.455 622.912C876.879 622.912 879.919 623.68 882.575 625.216C885.263 626.752 887.343 628.864 888.815 631.552C890.287 634.24 891.023 637.264 891.023 640.624ZM884.399 640.624C884.399 636.944 883.439 634 881.519 631.792C879.631 629.552 876.943 628.432 873.455 628.432C869.903 628.432 867.167 629.552 865.247 631.792C863.359 634.032 862.415 636.976 862.415 640.624C862.415 644.336 863.375 647.312 865.295 649.552C867.215 651.76 869.935 652.864 873.455 652.864C876.975 652.864 879.679 651.744 881.567 649.504C883.455 647.264 884.399 644.304 884.399 640.624ZM930.946 631.504H928.21C927.602 631.504 927.218 631.2 927.058 630.592C926.962 630.048 926.882 629.392 926.818 628.624H919.762V653.248L921.154 653.488C921.314 653.52 921.442 653.552 921.538 653.584C921.666 653.616 921.778 653.632 921.874 653.632L922.162 653.68C922.994 653.872 923.41 654.368 923.41 655.168V658H909.682V655.168C909.682 654.368 910.082 653.872 910.882 653.68L911.17 653.632C911.266 653.632 911.362 653.616 911.458 653.584C911.586 653.552 911.73 653.52 911.89 653.488L913.282 653.248V628.576H906.226C906.162 629.408 906.082 630.08 905.986 630.592C905.826 631.2 905.458 631.504 904.882 631.504H902.098V623.296H930.946V631.504ZM985.657 627.664C985.561 627.664 985.449 627.68 985.321 627.712C985.225 627.744 985.097 627.776 984.937 627.808L983.545 628.048V653.248L984.937 653.488C985.097 653.52 985.225 653.552 985.321 653.584C985.449 653.616 985.561 653.632 985.657 653.632L985.945 653.68C986.745 653.872 987.145 654.368 987.145 655.168V658H973.513V655.168C973.513 654.368 973.913 653.872 974.713 653.68L977.833 653.248V635.584L977.881 634.24C977.881 633.92 977.913 633.408 977.977 632.704L967.513 652.384C967.257 652.864 966.937 653.216 966.553 653.44C966.137 653.696 965.689 653.824 965.209 653.824H964.345C963.865 653.824 963.417 653.696 963.001 653.44C962.617 653.216 962.297 652.864 962.041 652.384L951.433 632.656L951.529 634.192C951.561 634.512 951.577 634.976 951.577 635.584V653.248L954.697 653.68C955.497 653.872 955.897 654.368 955.897 655.168V658H942.265V655.168C942.265 654.368 942.665 653.872 943.465 653.68L943.753 653.632L944.473 653.488L945.913 653.248V628.048L944.473 627.808C944.313 627.776 944.169 627.744 944.041 627.712C943.945 627.68 943.849 627.664 943.753 627.664L943.465 627.616C942.665 627.424 942.265 626.928 942.265 626.128V623.296H950.761L951.529 623.344C951.721 623.344 951.913 623.376 952.105 623.44C952.201 623.472 952.345 623.584 952.537 623.776C952.665 623.904 952.809 624.096 952.969 624.352L963.337 643.6C963.529 643.952 963.673 644.272 963.769 644.56C963.897 644.816 963.993 645.024 964.057 645.184L964.777 646.864L965.449 645.184C965.705 644.544 965.961 644 966.217 643.552L976.489 624.352C976.681 624.032 976.809 623.84 976.873 623.776C977.065 623.584 977.225 623.472 977.353 623.44C977.609 623.376 977.801 623.344 977.929 623.344L978.649 623.296H987.145V626.128C987.145 626.928 986.745 627.424 985.945 627.616L985.657 627.664ZM1010.89 627.664C1010.79 627.664 1010.68 627.68 1010.55 627.712C1010.45 627.744 1010.33 627.776 1010.17 627.808L1008.77 628.048V653.248L1010.17 653.488C1010.33 653.52 1010.45 653.552 1010.55 653.584C1010.68 653.616 1010.79 653.632 1010.89 653.632L1011.17 653.68C1011.97 653.872 1012.37 654.368 1012.37 655.168V658H998.646V655.168C998.646 654.368 999.046 653.872 999.846 653.68L1000.13 653.632L1000.85 653.488L1002.29 653.248V628.048L1000.85 627.808C1000.69 627.776 1000.55 627.744 1000.42 627.712C1000.33 627.68 1000.23 627.664 1000.13 627.664L999.846 627.616C999.046 627.424 998.646 626.928 998.646 626.128V623.296H1012.37V626.128C1012.37 626.928 1011.97 627.424 1011.17 627.616L1010.89 627.664ZM1060.43 626.128C1060.43 626.928 1060.03 627.424 1059.23 627.616L1058.94 627.664C1058.85 627.664 1058.73 627.68 1058.61 627.712C1058.51 627.744 1058.38 627.776 1058.22 627.808L1056.83 628.048V658H1053.47C1053.02 658 1052.61 657.92 1052.22 657.76C1051.9 657.632 1051.57 657.344 1051.21 656.896L1033.07 633.808C1033.13 634.512 1033.17 635.008 1033.17 635.296L1033.21 636.688V653.248L1036.33 653.68C1037.13 653.872 1037.53 654.368 1037.53 655.168V658H1023.9V655.168C1023.9 654.368 1024.3 653.872 1025.1 653.68L1025.39 653.632L1026.11 653.488L1027.55 653.248V628.048L1026.11 627.808C1025.95 627.776 1025.81 627.744 1025.68 627.712C1025.58 627.68 1025.49 627.664 1025.39 627.664L1025.1 627.616C1024.3 627.424 1023.9 626.928 1023.9 626.128V623.296H1030.91L1031.63 623.344C1031.85 623.344 1032.03 623.392 1032.16 623.488C1032.29 623.52 1032.43 623.616 1032.59 623.776L1033.07 624.352L1051.31 647.536L1051.17 645.904C1051.13 645.552 1051.12 645.04 1051.12 644.368V628.048L1048 627.616C1047.2 627.424 1046.8 626.928 1046.8 626.128V623.296H1060.43V626.128ZM1104.35 633.616C1105.21 635.728 1105.64 638.064 1105.64 640.624C1105.64 643.184 1105.21 645.52 1104.35 647.632C1103.45 649.84 1102.27 651.68 1100.79 653.152C1099.32 654.624 1097.47 655.808 1095.23 656.704C1093.08 657.568 1090.7 658 1088.07 658H1071.71V655.168C1071.71 654.368 1072.11 653.872 1072.91 653.68L1073.19 653.632C1073.29 653.632 1073.39 653.616 1073.48 653.584C1073.61 653.552 1073.75 653.52 1073.91 653.488L1075.35 653.248V628.048L1073.91 627.808C1073.75 627.776 1073.61 627.744 1073.48 627.712C1073.39 627.68 1073.29 627.664 1073.19 627.664L1072.91 627.616C1072.11 627.424 1071.71 626.928 1071.71 626.128V623.296H1088.07C1090.7 623.296 1093.08 623.728 1095.23 624.592C1097.47 625.488 1099.32 626.672 1100.79 628.144C1102.27 629.616 1103.45 631.44 1104.35 633.616ZM1098.25 645.76C1098.76 644.256 1099.02 642.544 1099.02 640.624C1099.02 638.736 1098.76 637.04 1098.25 635.536C1097.67 633.936 1096.95 632.656 1096.09 631.696C1095.16 630.704 1094.01 629.904 1092.63 629.296C1091.29 628.72 1089.77 628.432 1088.07 628.432H1081.83V652.864H1088.07C1089.77 652.864 1091.29 652.576 1092.63 652C1094.01 651.392 1095.16 650.592 1096.09 649.6C1096.99 648.608 1097.71 647.328 1098.25 645.76Z" fill="#E8E8E8"/>
<path d="M805 542L839.333 508.333V542H805ZM942.333 542V491.5L908 525.166V542H873.667V474.667L908 441V474.667V491.5L942.333 457.833V407.334L976.667 373.666V407.334V474.667V542H942.333ZM1079.67 407.334V340V306.333L1045.33 340V407.334V508.333H1079.67V407.334ZM1079.67 542H1045.33H1011V407.334V340L1045.33 306.333L1079.67 272.667L1114 239V272.667V340V407.334V542H1079.67Z" fill="#E8E8E8"/>
</g>
<defs>
<radialGradient id="paint0_radial_245_347" cx="0" cy="0" r="1" gradientUnits="userSpaceOnUse" gradientTransform="translate(42.9999 62) rotate(31.5109) scale(1535.41 1388.02)">
<stop stop-color="#A98F5B"/>
<stop offset="0.552083" stop-color="#7A7468"/>
<stop offset="1"/>
</radialGradient>
<radialGradient id="paint1_radial_245_347" cx="0" cy="0" r="1" gradientUnits="userSpaceOnUse" gradientTransform="translate(42.9999 62) rotate(31.5109) scale(1535.41 1388.02)">
<stop stop-color="#A98F5B"/>
<stop offset="0.552083" stop-color="#7A7468"/>
<stop offset="1"/>
</radialGradient>
<radialGradient id="paint2_radial_245_347" cx="0" cy="0" r="1" gradientUnits="userSpaceOnUse" gradientTransform="translate(42.9999 62) rotate(31.5109) scale(1535.41 1388.02)">
<stop stop-color="#A98F5B"/>
<stop offset="0.552083" stop-color="#7A7468"/>
<stop offset="1"/>
</radialGradient>
<radialGradient id="paint3_radial_245_347" cx="0" cy="0" r="1" gradientUnits="userSpaceOnUse" gradientTransform="translate(42.9999 62) rotate(31.5109) scale(1535.41 1388.02)">
<stop stop-color="#A98F5B"/>
<stop offset="0.552083" stop-color="#7A7468"/>
<stop offset="1"/>
</radialGradient>
<radialGradient id="paint4_radial_245_347" cx="0" cy="0" r="1" gradientUnits="userSpaceOnUse" gradientTransform="translate(42.9999 62) rotate(31.5109) scale(1535.41 1388.02)">
<stop stop-color="#A98F5B"/>
<stop offset="0.552083" stop-color="#7A7468"/>
<stop offset="1"/>
</radialGradient>
<radialGradient id="paint5_radial_245_347" cx="0" cy="0" r="1" gradientUnits="userSpaceOnUse" gradientTransform="translate(42.9999 62) rotate(31.5109) scale(1535.41 1388.02)">
<stop stop-color="#A98F5B"/>
<stop offset="0.552083" stop-color="#7A7468"/>
<stop offset="1"/>
</radialGradient>
<radialGradient id="paint6_radial_245_347" cx="0" cy="0" r="1" gradientUnits="userSpaceOnUse" gradientTransform="translate(42.9999 62) rotate(31.5109) scale(1535.41 1388.02)">
<stop stop-color="#A98F5B"/>
<stop offset="0.552083" stop-color="#7A7468"/>
<stop offset="1"/>
</radialGradient>
<radialGradient id="paint7_radial_245_347" cx="0" cy="0" r="1" gradientUnits="userSpaceOnUse" gradientTransform="translate(42.9999 62) rotate(31.5109) scale(1535.41 1388.02)">
<stop stop-color="#A98F5B"/>
<stop offset="0.552083" stop-color="#7A7468"/>
<stop offset="1"/>
</radialGradient>
<radialGradient id="paint8_radial_245_347" cx="0" cy="0" r="1" gradientUnits="userSpaceOnUse" gradientTransform="translate(42.9999 62) rotate(31.5109) scale(1535.41 1388.02)">
<stop stop-color="#A98F5B"/>
<stop offset="0.552083" stop-color="#7A7468"/>
<stop offset="1"/>
</radialGradient>
<radialGradient id="paint9_radial_245_347" cx="0" cy="0" r="1" gradientUnits="userSpaceOnUse" gradientTransform="translate(226.5 211) rotate(90) scale(869 887.5)">
<stop stop-color="white" stop-opacity="0.5"/>
<stop offset="1" stop-color="#D9D9D9" stop-opacity="0"/>
</radialGradient>
<clipPath id="clip0_245_347">
<rect width="1920" height="1080" rx="50" fill="white"/>
</clipPath>
</defs>
</svg>
