<svg width="1920" height="1920" viewBox="0 0 1920 1920" fill="none" xmlns="http://www.w3.org/2000/svg">
<g clip-path="url(#clip0_245_398)">
<rect width="1920" height="1920" fill="white"/>
<path fill-rule="evenodd" clip-rule="evenodd" d="M-3624.34 97.2213L-757.152 1524.22L-870.117 431.789L-3624.34 97.2213Z" stroke="black" stroke-opacity="0.1" stroke-width="3" stroke-miterlimit="10" stroke-linecap="square"/>
<path fill-rule="evenodd" clip-rule="evenodd" d="M-1280.05 -530.623L-12.5377 -692.453L-679.633 1757.17L-1280.05 -530.623Z" stroke="black" stroke-opacity="0.1" stroke-width="3" stroke-miterlimit="10" stroke-linecap="square"/>
<path fill-rule="evenodd" clip-rule="evenodd" d="M285.735 -617.483L-339.852 1620.5L1804.7 -604.462L285.735 -617.483Z" stroke="black" stroke-opacity="0.1" stroke-width="3" stroke-miterlimit="10" stroke-linecap="square"/>
<path fill-rule="evenodd" clip-rule="evenodd" d="M849.126 -323.179L2366.09 -249.072L-467.871 1829.78L849.126 -323.179Z" stroke="black" stroke-opacity="0.1" stroke-width="3" stroke-miterlimit="10" stroke-linecap="square"/>
<path fill-rule="evenodd" clip-rule="evenodd" d="M2110.5 214.5L2731.84 611.358L-286.452 1802.93L2110.5 214.5Z" stroke="black" stroke-opacity="0.1" stroke-width="3" stroke-miterlimit="10" stroke-linecap="square"/>
<path fill-rule="evenodd" clip-rule="evenodd" d="M2967.39 946.423L-180.321 1819.43L2974.03 1521.21L2967.39 946.423Z" stroke="black" stroke-opacity="0.1" stroke-width="3" stroke-miterlimit="10" stroke-linecap="square"/>
<path fill-rule="evenodd" clip-rule="evenodd" d="M2527.55 1682.53L-540.122 1895.5L2713.49 2169.74L2527.55 1682.53Z" stroke="black" stroke-opacity="0.1" stroke-width="3" stroke-miterlimit="10" stroke-linecap="square"/>
<path fill-rule="evenodd" clip-rule="evenodd" d="M2433.46 2413.11L-676.296 1921.11L1816.74 3373.25L2433.46 2413.11Z" stroke="black" stroke-opacity="0.1" stroke-width="3" stroke-miterlimit="10" stroke-linecap="square"/>
<path fill-rule="evenodd" clip-rule="evenodd" d="M1394.32 2953.52L-417.759 2011.55L144.432 3901.11L1394.32 2953.52Z" stroke="black" stroke-opacity="0.1" stroke-width="3" stroke-miterlimit="10" stroke-linecap="square"/>
<g filter="url(#filter0_d_245_398)">
<g clip-path="url(#clip1_245_398)">
<rect x="248.633" y="777.911" width="1280" height="720" rx="50" transform="rotate(-15 248.633 777.911)" fill="#171717"/>
<path fill-rule="evenodd" clip-rule="evenodd" d="M-162.259 343.03L484.847 989.696L486.18 578.704L-162.259 343.03Z" stroke="url(#paint0_radial_245_398)" stroke-opacity="0.5" stroke-width="6" stroke-miterlimit="10" stroke-linecap="square"/>
<path fill-rule="evenodd" clip-rule="evenodd" d="M413.296 204.096L719.889 195.064L497.31 1079.49L413.296 204.096Z" stroke="url(#paint1_radial_245_398)" stroke-opacity="0.5" stroke-width="6" stroke-miterlimit="10" stroke-linecap="square"/>
<path fill-rule="evenodd" clip-rule="evenodd" d="M789.109 234.998L548.975 988.339L1151.17 301.17L789.109 234.998Z" stroke="url(#paint2_radial_245_398)" stroke-opacity="0.5" stroke-width="6" stroke-miterlimit="10" stroke-linecap="square"/>
<path fill-rule="evenodd" clip-rule="evenodd" d="M915.903 367.238L1275.9 456.056L545.953 1115.05L915.903 367.238Z" stroke="url(#paint3_radial_245_398)" stroke-opacity="0.5" stroke-width="6" stroke-miterlimit="10" stroke-linecap="square"/>
<path fill-rule="evenodd" clip-rule="evenodd" d="M1128.6 689.459L1340.88 790.939L589.931 1112.39L1128.6 689.459Z" stroke="url(#paint4_radial_245_398)" stroke-opacity="0.5" stroke-width="6" stroke-miterlimit="10" stroke-linecap="square"/>
<path fill-rule="evenodd" clip-rule="evenodd" d="M1388.41 925.107L614.824 1122.81L1375.11 1139.22L1388.41 925.107Z" stroke="url(#paint5_radial_245_398)" stroke-opacity="0.5" stroke-width="6" stroke-miterlimit="10" stroke-linecap="square"/>
<path fill-rule="evenodd" clip-rule="evenodd" d="M1264.41 1181.21L527.013 1136.59L1296.16 1369.98L1264.41 1181.21Z" stroke="url(#paint6_radial_245_398)" stroke-opacity="0.5" stroke-width="6" stroke-miterlimit="10" stroke-linecap="square"/>
<path fill-rule="evenodd" clip-rule="evenodd" d="M1223.05 1449.22L493.862 1140.62L1051.05 1781.53L1223.05 1449.22Z" stroke="url(#paint7_radial_245_398)" stroke-opacity="0.5" stroke-width="6" stroke-miterlimit="10" stroke-linecap="square"/>
<path fill-rule="evenodd" clip-rule="evenodd" d="M961.138 1608.32L553.202 1184.7L638.406 1910.4L961.138 1608.32Z" stroke="url(#paint8_radial_245_398)" stroke-opacity="0.5" stroke-width="6" stroke-miterlimit="10" stroke-linecap="square"/>
<ellipse opacity="0.2" cx="430.894" cy="874.702" rx="591.667" ry="579.333" transform="rotate(-15 430.894 874.702)" fill="url(#paint9_radial_245_398)"/>
<path d="M466.263 1413.08L460.233 1390.58L462.958 1389.85L465.643 1399.87L477.64 1396.65L474.956 1386.63L477.68 1385.9L483.709 1408.4L480.985 1409.13L478.288 1399.07L466.291 1402.29L468.987 1412.35L466.263 1413.08ZM488.813 1407.04L484.291 1390.16L486.884 1389.47L491.406 1406.34L488.813 1407.04ZM484.856 1387C484.35 1387.13 483.868 1387.08 483.41 1386.83C482.959 1386.58 482.668 1386.22 482.539 1385.73C482.409 1385.25 482.478 1384.79 482.745 1384.35C483.019 1383.9 483.408 1383.62 483.914 1383.48C484.419 1383.34 484.897 1383.4 485.348 1383.65C485.807 1383.9 486.101 1384.26 486.23 1384.74C486.36 1385.23 486.288 1385.69 486.014 1386.13C485.747 1386.57 485.361 1386.86 484.856 1387ZM504.756 1409.92C503.504 1410.26 502.384 1410.39 501.397 1410.31C500.411 1410.23 499.549 1410.02 498.809 1409.66C498.078 1409.3 497.458 1408.88 496.95 1408.39L498.627 1406.39C498.944 1406.63 499.334 1406.9 499.799 1407.2C500.266 1407.51 500.85 1407.73 501.551 1407.85C502.262 1407.98 503.126 1407.91 504.144 1407.64C505.506 1407.27 506.542 1406.64 507.252 1405.75C507.962 1404.85 508.128 1403.7 507.751 1402.29L506.833 1398.86L506.613 1398.92C506.505 1399.28 506.336 1399.74 506.106 1400.28C505.882 1400.82 505.49 1401.36 504.933 1401.88C504.38 1402.4 503.555 1402.8 502.456 1403.1C501.094 1403.46 499.784 1403.47 498.528 1403.12C497.278 1402.76 496.174 1402.05 495.214 1400.99C494.262 1399.93 493.55 1398.51 493.079 1396.76C492.616 1395.03 492.517 1393.44 492.781 1392C493.044 1390.54 493.623 1389.32 494.518 1388.33C495.412 1387.33 496.569 1386.64 497.99 1386.26C499.089 1385.96 500.01 1385.91 500.752 1386.1C501.5 1386.29 502.108 1386.57 502.576 1386.93C503.049 1387.29 503.42 1387.6 503.689 1387.84L503.953 1387.77L503.235 1385.09L505.74 1384.41L510.391 1401.77C510.78 1403.22 510.766 1404.49 510.35 1405.58C509.944 1406.67 509.244 1407.57 508.252 1408.29C507.269 1409.02 506.104 1409.56 504.756 1409.92ZM502.184 1400.68C503.224 1400.4 504.039 1399.92 504.629 1399.25C505.219 1398.59 505.582 1397.76 505.716 1396.76C505.85 1395.77 505.75 1394.65 505.416 1393.4C505.091 1392.19 504.62 1391.16 504.005 1390.33C503.389 1389.5 502.652 1388.92 501.793 1388.58C500.934 1388.25 499.977 1388.22 498.922 1388.5C497.823 1388.8 496.982 1389.32 496.399 1390.07C495.823 1390.82 495.478 1391.72 495.362 1392.75C495.255 1393.79 495.354 1394.88 495.66 1396.02C495.974 1397.19 496.435 1398.18 497.043 1398.98C497.656 1399.77 498.393 1400.33 499.256 1400.65C500.124 1400.96 501.1 1400.97 502.184 1400.68ZM514.881 1389.17L517.601 1399.32L515.008 1400.02L508.979 1377.52L511.572 1376.82L513.785 1385.08L514.005 1385.03C514.167 1384.05 514.575 1383.2 515.229 1382.47C515.888 1381.74 516.88 1381.19 518.206 1380.84C519.356 1380.53 520.425 1380.49 521.413 1380.72C522.399 1380.94 523.256 1381.46 523.985 1382.28C524.72 1383.09 525.282 1384.22 525.67 1385.67L528.543 1396.39L525.951 1397.09L523.124 1386.54C522.765 1385.2 522.14 1384.26 521.248 1383.71C520.361 1383.15 519.306 1383.04 518.083 1383.37C517.233 1383.6 516.519 1383.98 515.942 1384.52C515.371 1385.06 514.984 1385.72 514.781 1386.51C514.584 1387.3 514.618 1388.19 514.881 1389.17ZM558.311 1376.36C558.946 1378.73 559.067 1380.9 558.674 1382.85C558.28 1384.81 557.462 1386.46 556.219 1387.8C554.976 1389.14 553.395 1390.06 551.476 1390.58C549.557 1391.09 547.724 1391.08 545.979 1390.54C544.233 1390.01 542.701 1388.99 541.381 1387.49C540.06 1385.99 539.082 1384.05 538.447 1381.68C537.811 1379.31 537.69 1377.14 538.083 1375.18C538.477 1373.22 539.296 1371.58 540.539 1370.24C541.782 1368.9 543.363 1367.97 545.282 1367.46C547.201 1366.95 549.033 1366.96 550.778 1367.5C552.524 1368.03 554.056 1369.05 555.377 1370.55C556.697 1372.05 557.675 1373.98 558.311 1376.36ZM555.674 1377.06C555.152 1375.12 554.385 1373.56 553.374 1372.39C552.37 1371.23 551.223 1370.45 549.933 1370.05C548.65 1369.66 547.327 1369.64 545.965 1370.01C544.602 1370.37 543.46 1371.05 542.539 1372.03C541.625 1373.02 541.021 1374.27 540.728 1375.78C540.443 1377.29 540.561 1379.03 541.083 1380.97C541.605 1382.92 542.368 1384.48 543.372 1385.65C544.383 1386.81 545.53 1387.59 546.813 1387.99C548.104 1388.38 549.43 1388.39 550.793 1388.03C552.155 1387.66 553.293 1386.99 554.207 1386.01C555.129 1385.02 555.732 1383.77 556.018 1382.26C556.31 1380.74 556.196 1379.01 555.674 1377.06ZM574.341 1376.73L571.668 1366.75L574.261 1366.05L578.783 1382.93L576.19 1383.62L575.425 1380.77L575.249 1380.82C575.083 1381.78 574.663 1382.67 573.989 1383.5C573.313 1384.31 572.338 1384.89 571.063 1385.23C570.009 1385.52 569.009 1385.54 568.065 1385.3C567.119 1385.05 566.286 1384.52 565.566 1383.7C564.844 1382.88 564.291 1381.76 563.906 1380.32L561.033 1369.6L563.626 1368.9L566.452 1379.45C566.782 1380.68 567.389 1381.57 568.274 1382.12C569.166 1382.66 570.15 1382.79 571.227 1382.51C571.872 1382.33 572.483 1381.99 573.061 1381.48C573.647 1380.97 574.075 1380.32 574.347 1379.51C574.626 1378.71 574.624 1377.78 574.341 1376.73ZM586.349 1362.82L586.938 1365.01L578.193 1367.36L577.604 1365.16L586.349 1362.82ZM579.069 1360.43L581.662 1359.74L585.972 1375.82C586.168 1376.55 586.422 1377.08 586.732 1377.38C587.048 1377.69 587.391 1377.85 587.762 1377.89C588.137 1377.91 588.516 1377.87 588.896 1377.77C589.182 1377.69 589.413 1377.62 589.588 1377.54C589.761 1377.45 589.9 1377.38 590.004 1377.33L591.155 1379.52C590.997 1379.63 590.769 1379.77 590.472 1379.92C590.177 1380.07 589.787 1380.22 589.304 1380.35C588.572 1380.54 587.812 1380.58 587.024 1380.45C586.244 1380.32 585.537 1380 584.902 1379.48C584.276 1378.95 583.831 1378.2 583.568 1377.22L579.069 1360.43ZM596.467 1384.97L590.25 1361.77L592.755 1361.1L593.473 1363.78L593.781 1363.7C593.892 1363.35 594.056 1362.91 594.271 1362.36C594.492 1361.81 594.873 1361.27 595.414 1360.74C595.96 1360.2 596.783 1359.78 597.881 1359.49C599.302 1359.11 600.65 1359.13 601.924 1359.55C603.199 1359.97 604.315 1360.75 605.272 1361.89C606.229 1363.03 606.945 1364.49 607.42 1366.26C607.899 1368.05 608.01 1369.68 607.754 1371.15C607.495 1372.62 606.924 1373.85 606.039 1374.86C605.153 1375.86 604.007 1376.55 602.6 1376.92C601.516 1377.22 600.6 1377.27 599.852 1377.08C599.102 1376.89 598.49 1376.61 598.014 1376.25C597.537 1375.87 597.162 1375.56 596.889 1375.3L596.67 1375.36L599.06 1384.28L596.467 1384.97ZM595.059 1369.53C595.401 1370.8 595.889 1371.87 596.524 1372.75C597.156 1373.61 597.905 1374.23 598.77 1374.58C599.633 1374.93 600.585 1374.97 601.625 1374.69C602.709 1374.4 603.537 1373.87 604.109 1373.11C604.686 1372.33 605.027 1371.41 605.133 1370.34C605.243 1369.25 605.137 1368.11 604.816 1366.91C604.498 1365.72 604.028 1364.7 603.407 1363.85C602.791 1362.99 602.042 1362.37 601.16 1362.01C600.284 1361.64 599.297 1361.61 598.198 1361.9C597.143 1362.18 596.329 1362.69 595.754 1363.42C595.178 1364.14 594.834 1365.02 594.723 1366.07C594.61 1367.11 594.722 1368.27 595.059 1369.53ZM622.411 1363.84L619.738 1353.87L622.331 1353.17L626.853 1370.05L624.26 1370.74L623.494 1367.89L623.319 1367.94C623.153 1368.9 622.733 1369.79 622.059 1370.62C621.383 1371.43 620.407 1372.01 619.133 1372.35C618.078 1372.64 617.079 1372.66 616.135 1372.42C615.189 1372.17 614.356 1371.64 613.636 1370.82C612.914 1370 612.361 1368.88 611.976 1367.44L609.103 1356.72L611.696 1356.02L614.522 1366.57C614.852 1367.8 615.459 1368.69 616.344 1369.24C617.236 1369.78 618.22 1369.91 619.297 1369.63C619.941 1369.45 620.553 1369.11 621.131 1368.6C621.716 1368.09 622.145 1367.44 622.417 1366.63C622.695 1365.83 622.694 1364.9 622.411 1363.84ZM634.419 1349.94L635.008 1352.13L626.262 1354.48L625.674 1352.28L634.419 1349.94ZM627.139 1347.55L629.732 1346.86L634.042 1362.94C634.238 1363.67 634.491 1364.2 634.802 1364.5C635.118 1364.8 635.461 1364.97 635.831 1365.01C636.207 1365.03 636.585 1364.99 636.966 1364.89C637.252 1364.81 637.482 1364.74 637.657 1364.66C637.831 1364.57 637.969 1364.5 638.073 1364.45L639.225 1366.64C639.067 1366.75 638.839 1366.89 638.542 1367.04C638.246 1367.19 637.857 1367.34 637.374 1367.47C636.641 1367.66 635.881 1367.7 635.094 1367.57C634.313 1367.44 633.606 1367.12 632.972 1366.6C632.345 1366.07 631.9 1365.32 631.637 1364.34L627.139 1347.55ZM646.788 1340.59L658.543 1357.74L658.807 1357.67L660.411 1336.94L663.268 1336.18L661.035 1360.89L658.222 1361.64L643.931 1341.36L646.788 1340.59ZM678.049 1356.71C676.423 1357.14 674.924 1357.16 673.552 1356.76C672.186 1356.35 671.011 1355.58 670.026 1354.45C669.047 1353.32 668.326 1351.89 667.863 1350.16C667.399 1348.43 667.306 1346.82 667.583 1345.34C667.865 1343.84 668.474 1342.57 669.411 1341.52C670.354 1340.47 671.587 1339.74 673.11 1339.33C673.989 1339.1 674.896 1339.01 675.832 1339.07C676.767 1339.14 677.675 1339.4 678.555 1339.88C679.433 1340.34 680.224 1341.05 680.93 1342.02C681.636 1342.98 682.2 1344.25 682.622 1345.83L682.917 1346.93L669.909 1350.41L669.308 1348.17L679.679 1345.39C679.424 1344.44 679.006 1343.64 678.425 1343C677.851 1342.35 677.159 1341.9 676.347 1341.66C675.543 1341.41 674.672 1341.41 673.734 1341.66C672.702 1341.94 671.877 1342.43 671.26 1343.15C670.648 1343.85 670.25 1344.67 670.065 1345.59C669.88 1346.51 669.912 1347.44 670.161 1348.37L670.561 1349.86C670.903 1351.13 671.412 1352.16 672.089 1352.92C672.771 1353.68 673.57 1354.19 674.485 1354.44C675.397 1354.68 676.377 1354.66 677.425 1354.38C678.106 1354.2 678.696 1353.94 679.194 1353.6C679.698 1353.25 680.099 1352.83 680.398 1352.33C680.695 1351.83 680.874 1351.26 680.937 1350.61L683.63 1350.64C683.594 1351.56 683.352 1352.43 682.902 1353.24C682.45 1354.05 681.814 1354.75 680.995 1355.35C680.173 1355.95 679.191 1356.4 678.049 1356.71ZM688.759 1342.58L691.479 1352.73L688.886 1353.43L684.365 1336.55L686.87 1335.88L687.576 1338.52L687.796 1338.46C687.962 1337.5 688.378 1336.65 689.044 1335.91C689.709 1335.17 690.678 1334.63 691.952 1334.28C693.095 1333.98 694.158 1333.94 695.14 1334.18C696.121 1334.41 696.976 1334.94 697.705 1335.76C698.432 1336.57 698.988 1337.69 699.373 1339.13L702.246 1349.85L699.653 1350.54L696.827 1340C696.472 1338.67 695.851 1337.73 694.964 1337.17C694.076 1336.61 693.031 1336.49 691.829 1336.81C691.002 1337.03 690.31 1337.41 689.754 1337.95C689.206 1338.48 688.837 1339.14 688.648 1339.93C688.459 1340.71 688.496 1341.6 688.759 1342.58ZM709.802 1329.74L710.39 1331.93L701.645 1334.28L701.056 1332.08L709.802 1329.74ZM702.522 1327.35L705.115 1326.66L709.424 1342.74C709.621 1343.48 709.874 1344 710.185 1344.31C710.501 1344.61 710.844 1344.77 711.214 1344.81C711.59 1344.83 711.968 1344.79 712.349 1344.69C712.634 1344.62 712.865 1344.54 713.04 1344.46C713.213 1344.37 713.352 1344.31 713.456 1344.25L714.607 1346.44C714.449 1346.55 714.222 1346.69 713.924 1346.84C713.629 1346.99 713.24 1347.14 712.756 1347.27C712.024 1347.46 711.264 1347.5 710.476 1347.37C709.696 1347.24 708.989 1346.92 708.355 1346.4C707.728 1345.87 707.283 1345.12 707.02 1344.14L702.522 1327.35ZM727.01 1335.82L724.337 1325.84L726.93 1325.15L731.452 1342.02L728.859 1342.72L728.093 1339.86L727.918 1339.91C727.752 1340.87 727.332 1341.76 726.658 1342.59C725.982 1343.41 725.006 1343.98 723.732 1344.33C722.677 1344.61 721.678 1344.63 720.734 1344.39C719.788 1344.14 718.955 1343.61 718.235 1342.8C717.513 1341.98 716.96 1340.85 716.575 1339.41L713.702 1328.69L716.295 1328L719.121 1338.54C719.451 1339.77 720.058 1340.66 720.943 1341.21C721.835 1341.76 722.819 1341.89 723.896 1341.6C724.54 1341.43 725.152 1341.08 725.73 1340.58C726.315 1340.07 726.744 1339.41 727.016 1338.61C727.295 1337.8 727.293 1336.87 727.01 1335.82ZM736.201 1340.75L731.679 1323.87L734.184 1323.2L734.867 1325.75L735.043 1325.7C735.127 1324.79 735.502 1323.96 736.168 1323.22C736.834 1322.49 737.673 1321.99 738.684 1321.71C738.874 1321.66 739.113 1321.6 739.401 1321.53C739.688 1321.47 739.907 1321.42 740.058 1321.39L740.764 1324.03C740.671 1324.03 740.46 1324.05 740.134 1324.09C739.812 1324.12 739.479 1324.19 739.135 1324.28C738.315 1324.5 737.629 1324.87 737.076 1325.38C736.529 1325.89 736.149 1326.5 735.937 1327.2C735.73 1327.89 735.728 1328.61 735.932 1329.38L738.794 1340.06L736.201 1340.75ZM754.368 1336.26C752.742 1336.69 751.243 1336.71 749.872 1336.31C748.505 1335.9 747.33 1335.13 746.345 1334C745.366 1332.87 744.645 1331.44 744.182 1329.71C743.719 1327.98 743.625 1326.37 743.902 1324.89C744.184 1323.39 744.794 1322.12 745.731 1321.07C746.673 1320.02 747.906 1319.29 749.429 1318.88C750.308 1318.65 751.216 1318.56 752.151 1318.62C753.087 1318.69 753.994 1318.95 754.874 1319.43C755.752 1319.89 756.544 1320.6 757.25 1321.57C757.956 1322.53 758.52 1323.8 758.942 1325.38L759.236 1326.48L746.228 1329.96L745.627 1327.72L755.999 1324.94C755.744 1323.99 755.325 1323.19 754.744 1322.55C754.171 1321.9 753.478 1321.45 752.666 1321.21C751.862 1320.96 750.991 1320.96 750.054 1321.21C749.021 1321.49 748.196 1321.98 747.579 1322.7C746.967 1323.4 746.569 1324.22 746.384 1325.14C746.199 1326.06 746.231 1326.99 746.48 1327.92L746.881 1329.41C747.222 1330.68 747.731 1331.71 748.408 1332.47C749.091 1333.23 749.889 1333.74 750.804 1333.99C751.716 1334.23 752.697 1334.21 753.744 1333.93C754.425 1333.75 755.015 1333.49 755.513 1333.15C756.017 1332.8 756.418 1332.38 756.717 1331.88C757.014 1331.38 757.194 1330.81 757.256 1330.16L759.95 1330.19C759.914 1331.11 759.671 1331.98 759.221 1332.79C758.769 1333.6 758.133 1334.3 757.314 1334.9C756.493 1335.5 755.511 1335.95 754.368 1336.26ZM773.65 1316.68L771.498 1317.96C771.247 1317.61 770.93 1317.29 770.546 1317C770.168 1316.71 769.704 1316.5 769.156 1316.39C768.608 1316.28 767.957 1316.32 767.202 1316.52C766.17 1316.8 765.373 1317.27 764.812 1317.93C764.256 1318.58 764.076 1319.27 764.27 1319.99C764.443 1320.64 764.813 1321.08 765.382 1321.33C765.951 1321.58 766.767 1321.69 767.83 1321.68L770.5 1321.62C772.107 1321.58 773.381 1321.84 774.323 1322.4C775.263 1322.95 775.891 1323.81 776.207 1324.99C776.466 1325.96 776.419 1326.9 776.067 1327.81C775.721 1328.72 775.113 1329.52 774.242 1330.23C773.371 1330.93 772.28 1331.46 770.969 1331.81C769.248 1332.27 767.723 1332.28 766.395 1331.84C765.067 1331.39 764.06 1330.49 763.375 1329.14L765.671 1327.86C766.149 1328.71 766.775 1329.27 767.548 1329.55C768.329 1329.83 769.251 1329.82 770.313 1329.54C771.521 1329.21 772.412 1328.7 772.985 1328C773.564 1327.28 773.756 1326.57 773.561 1325.84C773.404 1325.25 773.068 1324.82 772.552 1324.53C772.034 1324.24 771.323 1324.11 770.421 1324.14L767.431 1324.23C765.788 1324.28 764.5 1324.02 763.569 1323.44C762.643 1322.86 762.024 1321.98 761.712 1320.82C761.457 1319.87 761.499 1318.95 761.837 1318.08C762.183 1317.2 762.765 1316.43 763.583 1315.76C764.409 1315.09 765.415 1314.6 766.602 1314.28C768.272 1313.83 769.681 1313.85 770.829 1314.33C771.985 1314.8 772.925 1315.59 773.65 1316.68Z" fill="#E8E8E8"/>
<path d="M1452.28 1124.76L1458.31 1147.26L1455.59 1147.99L1449.56 1125.49L1452.28 1124.76ZM1463.42 1145.89L1458.9 1129.02L1461.41 1128.34L1462.09 1130.89L1462.27 1130.85C1462.35 1129.93 1462.73 1129.1 1463.39 1128.37C1464.06 1127.63 1464.9 1127.13 1465.91 1126.86C1466.1 1126.8 1466.34 1126.74 1466.62 1126.68C1466.91 1126.61 1467.13 1126.56 1467.28 1126.53L1467.99 1129.17C1467.89 1129.17 1467.68 1129.19 1467.36 1129.23C1467.04 1129.27 1466.7 1129.33 1466.36 1129.42C1465.54 1129.64 1464.85 1130.01 1464.3 1130.52C1463.75 1131.03 1463.37 1131.64 1463.16 1132.34C1462.95 1133.03 1462.95 1133.76 1463.16 1134.52L1466.02 1145.2L1463.42 1145.89ZM1481.37 1141.46C1479.85 1141.87 1478.42 1141.86 1477.07 1141.45C1475.73 1141.03 1474.57 1140.25 1473.57 1139.12C1472.59 1137.99 1471.86 1136.55 1471.39 1134.81C1470.92 1133.05 1470.83 1131.43 1471.12 1129.95C1471.41 1128.46 1472.03 1127.21 1472.98 1126.17C1473.93 1125.14 1475.17 1124.42 1476.7 1124.01C1478.22 1123.6 1479.65 1123.61 1480.99 1124.03C1482.33 1124.44 1483.5 1125.22 1484.49 1126.36C1485.48 1127.5 1486.22 1128.95 1486.69 1130.71C1487.15 1132.45 1487.24 1134.06 1486.95 1135.54C1486.66 1137.01 1486.04 1138.27 1485.08 1139.3C1484.13 1140.33 1482.9 1141.05 1481.37 1141.46ZM1480.75 1139.13C1481.91 1138.82 1482.78 1138.27 1483.37 1137.47C1483.95 1136.68 1484.3 1135.75 1484.4 1134.69C1484.5 1133.63 1484.4 1132.53 1484.09 1131.4C1483.79 1130.27 1483.33 1129.27 1482.71 1128.39C1482.09 1127.52 1481.33 1126.88 1480.42 1126.48C1479.51 1126.08 1478.48 1126.03 1477.32 1126.34C1476.16 1126.65 1475.29 1127.21 1474.71 1128.01C1474.12 1128.81 1473.78 1129.74 1473.68 1130.81C1473.58 1131.88 1473.68 1132.98 1473.99 1134.11C1474.29 1135.24 1474.75 1136.24 1475.37 1137.11C1475.99 1137.98 1476.75 1138.61 1477.65 1139C1478.56 1139.4 1479.59 1139.44 1480.75 1139.13ZM1492.76 1127.15L1495.48 1137.3L1492.88 1138L1488.36 1121.12L1490.87 1120.45L1491.57 1123.09L1491.79 1123.03C1491.96 1122.07 1492.37 1121.22 1493.04 1120.48C1493.71 1119.74 1494.67 1119.19 1495.95 1118.85C1497.09 1118.55 1498.15 1118.51 1499.14 1118.75C1500.12 1118.98 1500.97 1119.51 1501.7 1120.33C1502.43 1121.14 1502.98 1122.26 1503.37 1123.69L1506.24 1134.42L1503.65 1135.11L1500.82 1124.57C1500.47 1123.24 1499.85 1122.3 1498.96 1121.74C1498.07 1121.18 1497.03 1121.06 1495.83 1121.38C1495 1121.6 1494.31 1121.98 1493.75 1122.52C1493.2 1123.05 1492.83 1123.71 1492.64 1124.5C1492.46 1125.28 1492.49 1126.17 1492.76 1127.15ZM1520.03 1130.72L1514 1108.22L1527.58 1104.58L1528.23 1107L1517.38 1109.91L1519.41 1117.51L1529.57 1114.79L1530.21 1117.21L1520.06 1119.93L1522.11 1127.58L1533.14 1124.62L1533.79 1127.04L1520.03 1130.72ZM1544.64 1124.51C1543.23 1124.88 1541.9 1124.86 1540.63 1124.44C1539.36 1124.01 1538.25 1123.22 1537.29 1122.08C1536.33 1120.94 1535.61 1119.47 1535.13 1117.68C1534.66 1115.91 1534.55 1114.29 1534.81 1112.82C1535.07 1111.35 1535.64 1110.12 1536.54 1109.12C1537.43 1108.12 1538.59 1107.43 1540.01 1107.05C1541.11 1106.75 1542.02 1106.7 1542.76 1106.9C1543.5 1107.09 1544.1 1107.36 1544.56 1107.74C1545.03 1108.1 1545.39 1108.4 1545.66 1108.64L1545.88 1108.58L1543.66 1100.28L1546.25 1099.58L1552.28 1122.08L1549.77 1122.75L1549.08 1120.16L1548.77 1120.24C1548.66 1120.6 1548.5 1121.06 1548.27 1121.63C1548.04 1122.18 1547.65 1122.73 1547.1 1123.27C1546.54 1123.8 1545.72 1124.22 1544.64 1124.51ZM1544.37 1122.08C1545.41 1121.8 1546.21 1121.3 1546.79 1120.56C1547.36 1119.82 1547.7 1118.92 1547.81 1117.85C1547.93 1116.78 1547.81 1115.6 1547.47 1114.33C1547.13 1113.07 1546.65 1112.01 1546.03 1111.17C1545.41 1110.31 1544.67 1109.72 1543.81 1109.38C1542.95 1109.04 1542 1109.01 1540.94 1109.29C1539.84 1109.59 1539 1110.12 1538.42 1110.88C1537.84 1111.63 1537.5 1112.53 1537.39 1113.59C1537.29 1114.64 1537.4 1115.75 1537.71 1116.94C1538.04 1118.14 1538.51 1119.19 1539.14 1120.07C1539.78 1120.94 1540.53 1121.57 1541.41 1121.96C1542.3 1122.33 1543.28 1122.37 1544.37 1122.08ZM1557.39 1120.71L1552.87 1103.84L1555.46 1103.14L1559.98 1120.02L1557.39 1120.71ZM1553.43 1100.67C1552.93 1100.81 1552.44 1100.75 1551.99 1100.51C1551.53 1100.26 1551.24 1099.89 1551.11 1099.41C1550.99 1098.93 1551.05 1098.46 1551.32 1098.02C1551.59 1097.58 1551.98 1097.29 1552.49 1097.16C1553 1097.02 1553.47 1097.08 1553.92 1097.33C1554.38 1097.57 1554.68 1097.94 1554.81 1098.42C1554.94 1098.9 1554.86 1099.37 1554.59 1099.81C1554.32 1100.25 1553.94 1100.54 1553.43 1100.67ZM1567.55 1099.9L1568.14 1102.1L1559.39 1104.44L1558.8 1102.25L1567.55 1099.9ZM1560.27 1097.52L1562.86 1096.83L1567.17 1112.91C1567.37 1113.64 1567.62 1114.16 1567.93 1114.47C1568.25 1114.77 1568.59 1114.94 1568.96 1114.97C1569.34 1115 1569.71 1114.96 1570.1 1114.86C1570.38 1114.78 1570.61 1114.71 1570.79 1114.63C1570.96 1114.54 1571.1 1114.47 1571.2 1114.42L1572.35 1116.61C1572.2 1116.72 1571.97 1116.85 1571.67 1117C1571.38 1117.16 1570.99 1117.31 1570.5 1117.43C1569.77 1117.63 1569.01 1117.67 1568.22 1117.54C1567.44 1117.41 1566.74 1117.09 1566.1 1116.57C1565.47 1116.04 1565.03 1115.29 1564.77 1114.31L1560.27 1097.52ZM1575.97 1115.73L1571.45 1098.86L1574.04 1098.16L1578.56 1115.04L1575.97 1115.73ZM1572.01 1095.69C1571.51 1095.83 1571.03 1095.77 1570.57 1095.53C1570.12 1095.28 1569.83 1094.91 1569.7 1094.43C1569.57 1093.95 1569.64 1093.48 1569.9 1093.04C1570.18 1092.6 1570.57 1092.31 1571.07 1092.18C1571.58 1092.04 1572.05 1092.1 1572.51 1092.35C1572.96 1092.59 1573.26 1092.96 1573.39 1093.44C1573.52 1093.92 1573.45 1094.39 1573.17 1094.83C1572.9 1095.27 1572.52 1095.56 1572.01 1095.69ZM1590.26 1112.28C1588.74 1112.69 1587.3 1112.69 1585.96 1112.27C1584.62 1111.85 1583.46 1111.07 1582.46 1109.94C1581.48 1108.81 1580.75 1107.37 1580.28 1105.63C1579.81 1103.87 1579.72 1102.25 1580.01 1100.77C1580.3 1099.29 1580.92 1098.03 1581.87 1097C1582.82 1095.96 1584.06 1095.24 1585.59 1094.83C1587.11 1094.43 1588.54 1094.43 1589.88 1094.85C1591.22 1095.27 1592.39 1096.05 1593.38 1097.19C1594.37 1098.33 1595.11 1099.77 1595.58 1101.53C1596.04 1103.27 1596.13 1104.88 1595.83 1106.36C1595.55 1107.84 1594.93 1109.09 1593.97 1110.12C1593.02 1111.15 1591.79 1111.87 1590.26 1112.28ZM1589.64 1109.95C1590.8 1109.64 1591.67 1109.09 1592.26 1108.3C1592.84 1107.5 1593.19 1106.58 1593.29 1105.51C1593.39 1104.45 1593.29 1103.35 1592.98 1102.23C1592.68 1101.1 1592.22 1100.1 1591.6 1099.22C1590.98 1098.34 1590.22 1097.7 1589.31 1097.3C1588.4 1096.9 1587.37 1096.85 1586.21 1097.16C1585.05 1097.47 1584.18 1098.03 1583.6 1098.83C1583.01 1099.63 1582.67 1100.57 1582.57 1101.64C1582.47 1102.71 1582.57 1103.81 1582.88 1104.93C1583.18 1106.06 1583.64 1107.06 1584.26 1107.93C1584.87 1108.8 1585.64 1109.43 1586.54 1109.83C1587.45 1110.22 1588.48 1110.26 1589.64 1109.95ZM1601.65 1097.97L1604.37 1108.13L1601.77 1108.82L1597.25 1091.95L1599.76 1091.27L1600.46 1093.91L1600.68 1093.85C1600.85 1092.89 1601.26 1092.04 1601.93 1091.3C1602.59 1090.56 1603.56 1090.02 1604.84 1089.68C1605.98 1089.37 1607.04 1089.34 1608.03 1089.58C1609.01 1089.81 1609.86 1090.33 1610.59 1091.15C1611.32 1091.96 1611.87 1093.08 1612.26 1094.52L1615.13 1105.24L1612.54 1105.94L1609.71 1095.39C1609.36 1094.06 1608.74 1093.12 1607.85 1092.57C1606.96 1092 1605.92 1091.88 1604.72 1092.21C1603.89 1092.43 1603.2 1092.81 1602.64 1093.34C1602.09 1093.87 1601.72 1094.53 1601.53 1095.32C1601.35 1096.11 1601.38 1096.99 1601.65 1097.97Z" fill="#E8E8E8"/>
<path d="M897.359 1039.96C900.615 1039.82 902.597 1041.06 903.304 1043.7C903.558 1044.65 903.607 1045.58 903.452 1046.48C903.302 1047.41 902.963 1048.25 902.438 1049.01C901.947 1049.74 901.223 1050.42 900.265 1051.05C899.364 1051.65 898.253 1052.12 896.933 1052.47L886.135 1055.37L885.646 1053.54C885.508 1053.03 885.68 1052.64 886.163 1052.38L886.34 1052.3C886.402 1052.28 886.461 1052.25 886.517 1052.21C886.594 1052.17 886.682 1052.13 886.779 1052.08L887.666 1051.68L883.314 1035.43L882.344 1035.53C882.235 1035.53 882.137 1035.54 882.049 1035.54C881.982 1035.53 881.917 1035.54 881.855 1035.56L881.661 1035.58C881.112 1035.59 880.769 1035.34 880.631 1034.82L880.142 1033L890.197 1030.31C891.682 1029.91 892.966 1029.71 894.048 1029.7C895.198 1029.71 896.162 1029.88 896.939 1030.22C897.737 1030.56 898.391 1031.06 898.899 1031.72C899.407 1032.38 899.78 1033.15 900.018 1034.04C900.167 1034.6 900.23 1035.12 900.208 1035.61C900.185 1036.11 900.059 1036.63 899.83 1037.17C899.62 1037.63 899.307 1038.11 898.891 1038.62C898.52 1039.05 898.009 1039.5 897.359 1039.96ZM892.575 1040.05C893.998 1039.67 895.002 1039.12 895.585 1038.41C896.169 1037.7 896.309 1036.78 896.005 1035.65C895.695 1034.49 895.144 1033.75 894.352 1033.44C893.58 1033.11 892.482 1033.14 891.059 1033.52L887.501 1034.48L889.234 1040.94L892.575 1040.05ZM899.304 1046.1C899.349 1045.69 899.302 1045.23 899.164 1044.71C899.048 1044.28 898.85 1043.87 898.569 1043.48C898.293 1043.11 897.967 1042.85 897.592 1042.68C897.216 1042.52 896.738 1042.42 896.157 1042.4C895.624 1042.39 894.975 1042.49 894.212 1042.69L890.004 1043.82L891.762 1050.38L896.001 1049.24C896.784 1049.03 897.409 1048.77 897.875 1048.44C898.341 1048.12 898.687 1047.76 898.914 1047.37C899.155 1046.95 899.285 1046.53 899.304 1046.1ZM931.755 1031.14C932.347 1033.35 932.39 1035.45 931.885 1037.44C931.4 1039.43 930.424 1041.15 928.957 1042.6C927.505 1044.03 925.685 1045.04 923.499 1045.62C921.313 1046.21 919.223 1046.25 917.231 1045.74C915.259 1045.23 913.557 1044.24 912.123 1042.77C910.689 1041.29 909.674 1039.44 909.077 1037.22C908.48 1034.99 908.435 1032.88 908.94 1030.89C909.445 1028.89 910.426 1027.19 911.884 1025.79C913.357 1024.35 915.186 1023.34 917.373 1022.76C919.58 1022.17 921.672 1022.14 923.649 1022.67C925.647 1023.19 927.352 1024.2 928.765 1025.67C930.178 1027.15 931.175 1028.97 931.755 1031.14ZM927.486 1032.28C926.85 1029.91 925.723 1028.18 924.104 1027.09C922.5 1025.97 920.574 1025.71 918.326 1026.32C916.037 1026.93 914.467 1028.12 913.616 1029.9C912.786 1031.67 912.686 1033.73 913.316 1036.08C913.957 1038.47 915.09 1040.23 916.714 1041.34C918.333 1042.43 920.277 1042.67 922.546 1042.06C924.815 1041.46 926.364 1040.27 927.194 1038.5C928.024 1036.73 928.121 1034.66 927.486 1032.28ZM955.912 1018.37L954.149 1018.84C953.757 1018.94 953.457 1018.81 953.249 1018.45C953.093 1018.12 952.928 1017.71 952.754 1017.22L948.206 1018.44L952.459 1034.31L953.398 1034.23C953.506 1034.22 953.594 1034.22 953.662 1034.22C953.75 1034.22 953.825 1034.21 953.887 1034.2L954.081 1034.18C954.65 1034.16 955.004 1034.41 955.142 1034.92L955.631 1036.75L946.783 1039.12L946.294 1037.29C946.155 1036.78 946.328 1036.39 946.81 1036.13L946.987 1036.05C947.049 1036.03 947.108 1036 947.165 1035.96C947.242 1035.92 947.329 1035.88 947.427 1035.83L948.282 1035.43L944.021 1019.53L939.473 1020.75C939.576 1021.3 939.64 1021.74 939.667 1022.09C939.669 1022.51 939.484 1022.77 939.113 1022.87L937.318 1023.35L935.901 1018.06L954.495 1013.08L955.912 1018.37ZM990.513 1006.44C990.452 1006.46 990.382 1006.49 990.305 1006.53C990.249 1006.57 990.172 1006.61 990.074 1006.66L989.218 1007.06L993.571 1023.3L994.509 1023.21C994.618 1023.21 994.706 1023.2 994.773 1023.21C994.861 1023.21 994.936 1023.2 994.998 1023.18L995.192 1023.16C995.741 1023.15 996.085 1023.4 996.223 1023.91L996.712 1025.74L987.925 1028.09L987.436 1026.27C987.298 1025.75 987.47 1025.36 987.953 1025.1L989.889 1024.28L986.838 1012.9L986.637 1012.02C986.582 1011.82 986.514 1011.48 986.434 1011.02L983.088 1025.51C983.006 1025.86 982.86 1026.15 982.652 1026.36C982.428 1026.59 982.161 1026.75 981.852 1026.84L981.295 1026.99C980.985 1027.07 980.674 1027.06 980.362 1026.97C980.076 1026.89 979.809 1026.72 979.561 1026.45L969.316 1015.57L969.644 1016.54C969.719 1016.75 969.81 1017.04 969.915 1017.43L972.966 1028.82L975.051 1028.56C975.6 1028.54 975.943 1028.79 976.082 1029.31L976.571 1031.14L967.784 1033.49L967.295 1031.66C967.157 1031.15 967.329 1030.76 967.812 1030.5L967.989 1030.42L968.428 1030.2L969.315 1029.8L964.963 1013.55L963.993 1013.65C963.884 1013.66 963.786 1013.66 963.698 1013.66C963.631 1013.66 963.566 1013.66 963.504 1013.68L963.31 1013.7C962.761 1013.71 962.418 1013.46 962.28 1012.95L961.791 1011.12L967.267 1009.65L967.77 1009.55C967.894 1009.52 968.023 1009.51 968.158 1009.51C968.225 1009.52 968.337 1009.57 968.494 1009.66C968.599 1009.72 968.725 1009.82 968.872 1009.95L978.879 1020.57C979.064 1020.76 979.212 1020.94 979.324 1021.11C979.45 1021.26 979.548 1021.37 979.617 1021.47L980.371 1022.42L980.514 1021.23C980.569 1020.77 980.64 1020.37 980.727 1020.04L984.032 1005.89C984.101 1005.65 984.15 1005.51 984.18 1005.45C984.271 1005.3 984.355 1005.2 984.432 1005.15C984.585 1005.07 984.704 1005.02 984.786 1004.99L985.242 1004.84L990.718 1003.37L991.207 1005.2C991.345 1005.71 991.173 1006.1 990.691 1006.36L990.513 1006.44ZM1006.78 1002.09C1006.71 1002.1 1006.64 1002.13 1006.57 1002.17C1006.51 1002.21 1006.43 1002.25 1006.34 1002.3L1005.48 1002.7L1009.83 1018.94L1010.77 1018.85C1010.88 1018.85 1010.97 1018.85 1011.04 1018.85C1011.12 1018.85 1011.2 1018.84 1011.26 1018.82L1011.45 1018.8C1012 1018.79 1012.35 1019.04 1012.48 1019.56L1012.97 1021.38L1004.12 1023.75L1003.64 1021.93C1003.5 1021.41 1003.67 1021.02 1004.15 1020.76L1004.33 1020.68L1004.77 1020.46L1005.66 1020.06L1001.3 1003.82L1000.33 1003.91C1000.23 1003.92 1000.13 1003.92 1000.04 1003.92C999.971 1003.92 999.907 1003.93 999.845 1003.94L999.651 1003.96C999.102 1003.98 998.759 1003.73 998.62 1003.21L998.131 1001.38L1006.98 999.013L1007.47 1000.84C1007.61 1001.35 1007.43 1001.74 1006.95 1002L1006.78 1002.09ZM1038.44 992.539C1038.58 993.055 1038.41 993.443 1037.93 993.705L1037.75 993.786C1037.69 993.802 1037.62 993.832 1037.54 993.875C1037.49 993.912 1037.41 993.955 1037.31 994.003L1036.45 994.398L1041.63 1013.7L1039.46 1014.28C1039.17 1014.36 1038.89 1014.38 1038.62 1014.35C1038.39 1014.32 1038.12 1014.19 1037.82 1013.96L1022.14 1002.21C1022.3 1002.66 1022.4 1002.97 1022.45 1003.16L1022.73 1004.05L1025.59 1014.72L1027.67 1014.46C1028.22 1014.44 1028.56 1014.7 1028.7 1015.21L1029.19 1017.04L1020.4 1019.39L1019.91 1017.57C1019.78 1017.05 1019.95 1016.66 1020.43 1016.4L1020.61 1016.32L1021.05 1016.1L1021.93 1015.7L1017.58 999.455L1016.61 999.549C1016.5 999.556 1016.41 999.56 1016.32 999.562C1016.25 999.558 1016.19 999.564 1016.12 999.581L1015.93 999.599C1015.38 999.614 1015.04 999.363 1014.9 998.848L1014.41 997.022L1018.93 995.812L1019.4 995.718C1019.54 995.68 1019.67 995.68 1019.76 995.72C1019.85 995.719 1019.96 995.756 1020.09 995.831L1020.5 996.119L1036.26 1007.91L1035.89 1006.89C1035.81 1006.66 1035.71 1006.34 1035.59 1005.9L1032.77 995.385L1030.69 995.645C1030.14 995.659 1029.8 995.409 1029.66 994.893L1029.17 993.068L1037.95 990.713L1038.44 992.539ZM1068.04 989.781C1068.96 990.993 1069.65 992.424 1070.09 994.074C1070.53 995.724 1070.66 997.304 1070.46 998.815C1070.27 1000.39 1069.82 1001.78 1069.13 1002.99C1068.43 1004.19 1067.44 1005.27 1066.15 1006.24C1064.92 1007.16 1063.46 1007.85 1061.77 1008.31L1051.22 1011.13L1050.73 1009.31C1050.59 1008.79 1050.76 1008.41 1051.24 1008.14L1051.42 1008.06C1051.48 1008.05 1051.54 1008.02 1051.6 1007.98C1051.67 1007.94 1051.76 1007.89 1051.86 1007.85L1052.75 1007.44L1048.39 991.199L1047.42 991.293C1047.32 991.3 1047.22 991.304 1047.13 991.306C1047.06 991.302 1047 991.308 1046.94 991.325L1046.74 991.343C1046.19 991.358 1045.85 991.107 1045.71 990.592L1045.22 988.766L1055.77 985.939C1057.46 985.486 1059.07 985.353 1060.61 985.539C1062.2 985.73 1063.61 986.173 1064.81 986.867C1066.01 987.562 1067.09 988.533 1068.04 989.781ZM1066.21 998.661C1066.28 997.603 1066.15 996.456 1065.82 995.218C1065.49 994.001 1065.03 992.952 1064.45 992.071C1063.8 991.139 1063.11 990.439 1062.39 989.969C1061.62 989.49 1060.74 989.173 1059.75 989.019C1058.78 988.88 1057.75 988.957 1056.66 989.25L1052.64 990.327L1056.86 1006.08L1060.88 1005C1061.97 1004.7 1062.9 1004.26 1063.67 1003.65C1064.45 1003.02 1065.05 1002.31 1065.48 1001.51C1065.89 1000.72 1066.13 999.766 1066.21 998.661Z" fill="#E8E8E8"/>
<path d="M859.473 982.795L875.773 955.191L881.582 976.871L859.473 982.795ZM947.909 959.099L939.196 926.579L922.896 954.183L925.8 965.023L903.691 970.947L892.073 927.588L908.373 899.984L914.182 921.664L917.087 932.503L933.386 904.9L924.673 872.38L940.973 844.776L946.782 866.456L958.4 909.815L970.018 953.175L947.909 959.099ZM1013.11 848.684L1001.49 805.325L995.681 783.645L979.382 811.249L991 854.608L1008.43 919.647L1030.54 913.723L1013.11 848.684ZM1036.34 935.402L1014.24 941.326L992.127 947.251L968.891 860.532L957.273 817.173L973.573 789.569L989.872 761.965L1006.17 734.361L1011.98 756.041L1023.6 799.401L1035.22 842.76L1058.45 929.478L1036.34 935.402Z" fill="#E8E8E8"/>
</g>
</g>
</g>
<defs>
<filter id="filter0_d_245_398" x="228.633" y="406.622" width="1622.73" height="1226.75" filterUnits="userSpaceOnUse" color-interpolation-filters="sRGB">
<feFlood flood-opacity="0" result="BackgroundImageFix"/>
<feColorMatrix in="SourceAlpha" type="matrix" values="0 0 0 0 0 0 0 0 0 0 0 0 0 0 0 0 0 0 127 0" result="hardAlpha"/>
<feOffset dx="80" dy="60"/>
<feGaussianBlur stdDeviation="50"/>
<feComposite in2="hardAlpha" operator="out"/>
<feColorMatrix type="matrix" values="0 0 0 0 0 0 0 0 0 0 0 0 0 0 0 0 0 0 0.5 0"/>
<feBlend mode="normal" in2="BackgroundImageFix" result="effect1_dropShadow_245_398"/>
<feBlend mode="normal" in="SourceGraphic" in2="effect1_dropShadow_245_398" result="shape"/>
</filter>
<radialGradient id="paint0_radial_245_398" cx="0" cy="0" r="1" gradientUnits="userSpaceOnUse" gradientTransform="translate(287.02 810.416) rotate(13.3337) scale(1268.68 1146.89)">
<stop stop-color="#DEBC79"/>
<stop offset="0.385417" stop-color="#817254"/>
<stop offset="0.767564"/>
</radialGradient>
<radialGradient id="paint1_radial_245_398" cx="0" cy="0" r="1" gradientUnits="userSpaceOnUse" gradientTransform="translate(287.02 810.416) rotate(13.3337) scale(1268.68 1146.89)">
<stop stop-color="#DEBC79"/>
<stop offset="0.385417" stop-color="#817254"/>
<stop offset="0.767564"/>
</radialGradient>
<radialGradient id="paint2_radial_245_398" cx="0" cy="0" r="1" gradientUnits="userSpaceOnUse" gradientTransform="translate(287.02 810.416) rotate(13.3337) scale(1268.68 1146.89)">
<stop stop-color="#DEBC79"/>
<stop offset="0.385417" stop-color="#817254"/>
<stop offset="0.767564"/>
</radialGradient>
<radialGradient id="paint3_radial_245_398" cx="0" cy="0" r="1" gradientUnits="userSpaceOnUse" gradientTransform="translate(287.02 810.416) rotate(13.3337) scale(1268.68 1146.89)">
<stop stop-color="#DEBC79"/>
<stop offset="0.385417" stop-color="#817254"/>
<stop offset="0.767564"/>
</radialGradient>
<radialGradient id="paint4_radial_245_398" cx="0" cy="0" r="1" gradientUnits="userSpaceOnUse" gradientTransform="translate(287.02 810.416) rotate(13.3337) scale(1268.68 1146.89)">
<stop stop-color="#DEBC79"/>
<stop offset="0.385417" stop-color="#817254"/>
<stop offset="0.767564"/>
</radialGradient>
<radialGradient id="paint5_radial_245_398" cx="0" cy="0" r="1" gradientUnits="userSpaceOnUse" gradientTransform="translate(287.02 810.416) rotate(13.3337) scale(1268.68 1146.89)">
<stop stop-color="#DEBC79"/>
<stop offset="0.385417" stop-color="#817254"/>
<stop offset="0.767564"/>
</radialGradient>
<radialGradient id="paint6_radial_245_398" cx="0" cy="0" r="1" gradientUnits="userSpaceOnUse" gradientTransform="translate(287.02 810.416) rotate(13.3337) scale(1268.68 1146.89)">
<stop stop-color="#DEBC79"/>
<stop offset="0.385417" stop-color="#817254"/>
<stop offset="0.767564"/>
</radialGradient>
<radialGradient id="paint7_radial_245_398" cx="0" cy="0" r="1" gradientUnits="userSpaceOnUse" gradientTransform="translate(287.02 810.416) rotate(13.3337) scale(1268.68 1146.89)">
<stop stop-color="#DEBC79"/>
<stop offset="0.385417" stop-color="#817254"/>
<stop offset="0.767564"/>
</radialGradient>
<radialGradient id="paint8_radial_245_398" cx="0" cy="0" r="1" gradientUnits="userSpaceOnUse" gradientTransform="translate(287.02 810.416) rotate(13.3337) scale(1268.68 1146.89)">
<stop stop-color="#DEBC79"/>
<stop offset="0.385417" stop-color="#817254"/>
<stop offset="0.767564"/>
</radialGradient>
<radialGradient id="paint9_radial_245_398" cx="0" cy="0" r="1" gradientUnits="userSpaceOnUse" gradientTransform="translate(430.894 874.702) rotate(90) scale(579.333 591.667)">
<stop stop-color="white" stop-opacity="0.5"/>
<stop offset="1" stop-color="#D9D9D9" stop-opacity="0"/>
</radialGradient>
<clipPath id="clip0_245_398">
<rect width="1920" height="1920" fill="white"/>
</clipPath>
<clipPath id="clip1_245_398">
<rect x="248.633" y="777.911" width="1280" height="720" rx="50" transform="rotate(-15 248.633 777.911)" fill="white"/>
</clipPath>
</defs>
</svg>
