<svg width="1920" height="1920" viewBox="0 0 1920 1920" fill="none" xmlns="http://www.w3.org/2000/svg">
<g clip-path="url(#clip0_245_431)">
<rect width="1920" height="1920" fill="white"/>
<path d="M-599.461 711.032L-334.596 522.533L-119.606 473.315L15.4825 497.637M15.4825 497.637L159.801 494.55L279.481 684.679L212.805 843.497L26.6222 938.63M15.4825 497.637L-141.911 501.003L-421.11 623.62L-585.227 764.631M26.6222 938.63L130.558 789.717L84.0872 712.257L-64.5848 691.872L-320.15 827.227L-479.476 1162.84M26.6222 938.63L181.99 779.414L146.423 645.488L-39.7539 617.356L-364.324 742.795L-531.554 966.735M-248.019 1299.55L183.926 1116.73L550.394 1070.94M550.394 1070.94L1206.76 1152.28L1540.03 1071.79L1776.61 793.942L1802.75 582.459L1692.74 303.307M550.394 1070.94L1100.59 1045.8L1352.47 956.222L1501.8 765.7L1472.36 582.714L1344.38 501.328L1497.1 506.019L1609.66 592.664L1688 725.01L1705.14 873.965M1692.74 303.307L1406.63 167.688L1792.27 202.857L2011.79 381.811L2122.36 728.149L1963.97 1005.18L1700.79 1226.71M1692.74 303.307L1907.63 526.971L1953.28 820.347L1599.07 1166.5L902.175 1326.53L234.497 1395.94L-142.107 1701.93M1700.79 1226.71L893.603 1446.82L354.649 1663.15L124.397 2075.72L248.586 2373.25M1700.79 1226.71L1950.43 823.413M1419.8 865.865L1433.01 639.246L1384.3 576.498L1291.35 599.34L1401.6 540.651M556.52 2291.48L488.578 1962.76L714.241 1655.5M714.241 1655.5L1081.75 1545.28L1367.69 1565.24M714.241 1655.5L640.96 2057.45L817.429 2222.19M1367.69 1565.24L1722.75 1618.27L2047.41 1497.52L2160.88 1297.38L2076.27 1099.47L1929.77 1033.97M1367.69 1565.24L1737.74 1525.39L1921.76 1393.21L1921.55 1226.64L1837.76 1111.42L1850.12 1238.82L1764.67 1335.39L1536.13 1358.41L1359.46 1319.8M1024.63 2167.16L765.142 2032.13L670.215 1896.99M3592.29 1086.58L2875.05 815.941L2443.44 286.452L2413.3 -128.669L2457.29 -236.005M3525.44 821.697L2829.54 572.753L2423.92 17.598L2473.03 -355.535L2800.76 -495.314L3037.52 -373.379L3170.88 -139.038L2884.71 -291.773L2676.85 -196.431L2663.03 98.2208M2663.03 98.2208L2922.65 338.615L3424.11 440.152M2663.03 98.2208L2543.19 -175.885L2722.62 -421.277L2942.73 -422.2M2504.75 -369.064L2674.06 -555.531L2878.44 -533.074L2989.32 -398.2M3406.47 373.725L3181.98 389.703L2968.91 246.977L2891.57 72.5201L2944.76 -81.5064L3108.17 -76.8198L2945.08 -151.274L2719.24 -80.9789L2707.87 139.754M2853.74 274.805L2773.17 133.865L2778.65 -34.4461L2900.93 -137.533" stroke="black" stroke-opacity="0.1" stroke-width="3" stroke-miterlimit="10" stroke-linecap="square"/>
<g filter="url(#filter0_d_245_431)">
<g clip-path="url(#clip1_245_431)">
<rect x="248.633" y="777.911" width="1280" height="720" rx="50" transform="rotate(-15 248.633 777.911)" fill="#171717"/>
<path d="M186.666 886.358L290.95 812.14L375.597 792.762L428.785 802.338M428.785 802.338L485.607 801.123L532.728 875.982L506.476 938.512L433.171 975.969M428.785 802.338L366.815 803.664L256.887 851.941L192.27 907.461M433.171 975.969L474.093 917.338L455.797 886.84L397.261 878.814L296.638 932.107L233.907 1064.24M433.171 975.969L494.343 913.281L480.34 860.551L407.037 849.475L279.245 898.864L213.402 987.035M325.038 1118.07L495.106 1046.09L639.394 1028.06M639.394 1028.06L897.82 1060.09L1029.04 1028.4L1122.19 919.001L1132.48 835.735L1089.17 725.826M639.394 1028.06L856.02 1018.17L955.194 982.895L1013.99 907.882L1002.39 835.836L952.009 803.792L1012.14 805.638L1056.45 839.753L1087.3 891.861L1094.05 950.509M1089.17 725.826L976.517 672.429L1128.35 686.276L1214.79 756.735L1258.32 893.097L1195.96 1002.17L1092.33 1089.39M1089.17 725.826L1173.77 813.888L1191.75 929.398L1052.29 1065.69L777.899 1128.69L515.017 1156.02L366.738 1276.5M1092.33 1089.39L774.524 1176.06L562.324 1261.23L471.668 1423.67L520.564 1540.82M1092.33 1089.39L1190.62 930.605M981.7 947.319L986.904 858.094L967.724 833.388L931.126 842.381L974.538 819.274M641.806 1508.62L615.055 1379.2L703.905 1258.22M703.905 1258.22L848.601 1214.82L961.186 1222.68M703.905 1258.22L675.052 1416.48L744.533 1481.34M961.186 1222.68L1100.98 1243.56L1228.81 1196.02L1273.48 1117.22L1240.17 1039.3L1182.49 1013.51M961.186 1222.68L1106.88 1206.99L1179.34 1154.95L1179.25 1089.37L1146.26 1044L1151.13 1094.16L1117.49 1132.18L1027.5 1141.25L957.946 1126.04M826.113 1459.67L723.946 1406.51L686.571 1353.3M1837.07 1034.22L1554.67 927.663L1384.73 719.189L1372.87 555.745L1390.19 513.484M1810.75 929.929L1536.75 831.913L1377.05 613.334L1396.39 466.422L1525.42 411.388L1618.64 459.397L1671.15 551.663L1558.47 491.527L1476.63 529.066L1471.19 645.078M1471.19 645.078L1573.41 739.727L1770.85 779.705M1471.19 645.078L1424.01 537.155L1494.65 440.538L1581.32 440.174M1408.88 461.096L1475.54 387.678L1556.01 396.52L1599.66 449.624M1763.91 753.551L1675.52 759.842L1591.63 703.647L1561.18 634.959L1582.12 574.314L1646.46 576.16L1582.25 546.845L1493.33 574.522L1488.85 661.43M1546.28 714.604L1514.56 659.112L1516.72 592.843L1564.86 552.255" stroke="url(#paint0_radial_245_431)" stroke-opacity="0.5" stroke-width="6" stroke-miterlimit="10" stroke-linecap="square"/>
<ellipse opacity="0.2" cx="430.895" cy="874.703" rx="591.667" ry="579.333" transform="rotate(-15 430.895 874.703)" fill="url(#paint1_radial_245_431)"/>
<path d="M466.171 1412.74L460.143 1390.24L462.867 1389.51L465.552 1399.53L477.547 1396.32L474.863 1386.3L477.587 1385.57L483.615 1408.06L480.891 1408.79L478.195 1398.73L466.199 1401.95L468.895 1412.01L466.171 1412.74ZM488.718 1406.7L484.197 1389.82L486.789 1389.13L491.31 1406L488.718 1406.7ZM484.761 1386.66C484.256 1386.79 483.774 1386.74 483.316 1386.49C482.865 1386.25 482.574 1385.88 482.445 1385.4C482.315 1384.91 482.384 1384.45 482.651 1384.01C482.924 1383.57 483.314 1383.28 483.819 1383.14C484.325 1383.01 484.803 1383.07 485.254 1383.31C485.712 1383.56 486.006 1383.92 486.136 1384.41C486.265 1384.89 486.193 1385.35 485.919 1385.8C485.653 1386.24 485.267 1386.52 484.761 1386.66ZM504.659 1409.58C503.406 1409.92 502.287 1410.05 501.3 1409.97C500.315 1409.89 499.452 1409.68 498.712 1409.32C497.982 1408.96 497.362 1408.54 496.854 1408.05L498.53 1406.05C498.847 1406.29 499.238 1406.56 499.703 1406.86C500.169 1407.17 500.753 1407.39 501.454 1407.51C502.164 1407.64 503.029 1407.57 504.047 1407.3C505.409 1406.93 506.445 1406.3 507.154 1405.41C507.864 1404.51 508.03 1403.36 507.653 1401.95L506.735 1398.53L506.515 1398.59C506.407 1398.94 506.238 1399.4 506.008 1399.95C505.784 1400.48 505.393 1401.02 504.835 1401.54C504.283 1402.06 503.458 1402.47 502.359 1402.76C500.997 1403.12 499.688 1403.13 498.431 1402.78C497.182 1402.42 496.078 1401.71 495.118 1400.65C494.166 1399.59 493.454 1398.18 492.983 1396.42C492.52 1394.69 492.421 1393.1 492.685 1391.66C492.948 1390.21 493.527 1388.98 494.422 1387.99C495.316 1386.99 496.473 1386.3 497.894 1385.92C498.992 1385.62 499.913 1385.57 500.655 1385.77C501.403 1385.95 502.011 1386.23 502.479 1386.6C502.952 1386.96 503.323 1387.26 503.592 1387.5L503.856 1387.43L503.138 1384.75L505.642 1384.08L510.293 1401.43C510.681 1402.88 510.668 1404.15 510.252 1405.24C509.845 1406.33 509.146 1407.23 508.154 1407.95C507.171 1408.68 506.006 1409.22 504.659 1409.58ZM502.087 1400.34C503.127 1400.06 503.942 1399.58 504.532 1398.92C505.122 1398.25 505.484 1397.42 505.618 1396.42C505.752 1395.43 505.652 1394.31 505.319 1393.07C504.993 1391.85 504.523 1390.83 503.907 1389.99C503.292 1389.16 502.555 1388.58 501.696 1388.24C500.837 1387.91 499.88 1387.88 498.825 1388.17C497.727 1388.46 496.886 1388.98 496.303 1389.74C495.727 1390.49 495.381 1391.38 495.266 1392.42C495.159 1393.45 495.258 1394.54 495.564 1395.68C495.878 1396.85 496.339 1397.84 496.946 1398.64C497.559 1399.43 498.297 1399.99 499.159 1400.31C500.027 1400.62 501.003 1400.63 502.087 1400.34ZM514.781 1388.83L517.501 1398.99L514.909 1399.68L508.881 1377.18L511.473 1376.49L513.687 1384.75L513.906 1384.69C514.068 1383.71 514.476 1382.86 515.129 1382.14C515.788 1381.4 516.781 1380.86 518.106 1380.5C519.256 1380.2 520.325 1380.16 521.312 1380.39C522.298 1380.61 523.156 1381.13 523.885 1381.95C524.619 1382.75 525.181 1383.88 525.569 1385.33L528.442 1396.05L525.85 1396.75L523.024 1386.2C522.665 1384.86 522.039 1383.92 521.148 1383.37C520.261 1382.82 519.206 1382.7 517.983 1383.03C517.134 1383.26 516.42 1383.64 515.843 1384.18C515.272 1384.72 514.885 1385.38 514.682 1386.18C514.485 1386.97 514.519 1387.85 514.781 1388.83ZM558.205 1376.02C558.84 1378.4 558.962 1380.56 558.568 1382.52C558.174 1384.48 557.356 1386.12 556.113 1387.46C554.87 1388.8 553.289 1389.73 551.371 1390.24C549.452 1390.75 547.62 1390.74 545.875 1390.21C544.13 1389.67 542.597 1388.65 541.277 1387.15C539.957 1385.65 538.98 1383.72 538.344 1381.34C537.708 1378.97 537.587 1376.81 537.981 1374.85C538.374 1372.89 539.193 1371.24 540.436 1369.9C541.678 1368.57 543.259 1367.64 545.178 1367.13C547.096 1366.61 548.928 1366.62 550.674 1367.16C552.419 1367.7 553.951 1368.72 555.271 1370.22C556.591 1371.71 557.569 1373.65 558.205 1376.02ZM555.568 1376.73C555.046 1374.78 554.28 1373.22 553.269 1372.06C552.265 1370.89 551.119 1370.11 549.828 1369.72C548.545 1369.33 547.223 1369.31 545.861 1369.68C544.499 1370.04 543.357 1370.72 542.435 1371.7C541.521 1372.68 540.918 1373.93 540.625 1375.45C540.34 1376.96 540.458 1378.69 540.98 1380.64C541.502 1382.59 542.265 1384.14 543.268 1385.31C544.279 1386.48 545.426 1387.26 546.709 1387.65C548 1388.04 549.326 1388.06 550.688 1387.69C552.05 1387.33 553.188 1386.65 554.102 1385.67C555.024 1384.68 555.627 1383.44 555.912 1381.92C556.205 1380.41 556.09 1378.68 555.568 1376.73ZM574.233 1376.39L571.56 1366.42L574.153 1365.72L578.674 1382.59L576.081 1383.29L575.316 1380.43L575.14 1380.48C574.975 1381.44 574.555 1382.34 573.881 1383.16C573.205 1383.98 572.23 1384.56 570.955 1384.9C569.901 1385.18 568.902 1385.2 567.958 1384.96C567.012 1384.71 566.179 1384.18 565.459 1383.37C564.738 1382.55 564.184 1381.42 563.8 1379.99L560.927 1369.26L563.519 1368.57L566.345 1379.12C566.675 1380.35 567.282 1381.24 568.166 1381.78C569.058 1382.33 570.043 1382.46 571.119 1382.17C571.764 1382 572.375 1381.66 572.953 1381.15C573.538 1380.64 573.967 1379.98 574.239 1379.18C574.517 1378.37 574.516 1377.44 574.233 1376.39ZM586.239 1362.48L586.828 1364.68L578.084 1367.02L577.495 1364.83L586.239 1362.48ZM578.96 1360.1L581.553 1359.41L585.862 1375.49C586.058 1376.22 586.312 1376.74 586.622 1377.05C586.938 1377.35 587.281 1377.52 587.651 1377.55C588.027 1377.58 588.405 1377.54 588.786 1377.44C589.071 1377.36 589.302 1377.28 589.477 1377.2C589.65 1377.12 589.789 1377.05 589.893 1377L591.044 1379.19C590.886 1379.3 590.658 1379.43 590.361 1379.58C590.066 1379.74 589.677 1379.88 589.193 1380.01C588.461 1380.21 587.701 1380.24 586.914 1380.12C586.134 1379.99 585.426 1379.66 584.792 1379.14C584.166 1378.62 583.721 1377.87 583.458 1376.89L578.96 1360.1ZM596.355 1384.64L590.139 1361.44L592.643 1360.77L593.362 1363.45L593.669 1363.36C593.781 1363.02 593.945 1362.58 594.16 1362.03C594.38 1361.48 594.761 1360.94 595.302 1360.41C595.848 1359.87 596.671 1359.45 597.769 1359.16C599.19 1358.78 600.538 1358.8 601.812 1359.22C603.086 1359.64 604.202 1360.42 605.159 1361.56C606.116 1362.7 606.832 1364.15 607.307 1365.93C607.786 1367.71 607.897 1369.34 607.64 1370.82C607.382 1372.28 606.81 1373.52 605.926 1374.53C605.04 1375.53 603.894 1376.21 602.488 1376.59C601.404 1376.88 600.488 1376.93 599.74 1376.75C598.99 1376.56 598.377 1376.28 597.902 1375.91C597.425 1375.54 597.05 1375.22 596.777 1374.96L596.558 1375.02L598.948 1383.94L596.355 1384.64ZM594.948 1369.19C595.289 1370.47 595.777 1371.54 596.412 1372.41C597.044 1373.28 597.793 1373.89 598.658 1374.25C599.521 1374.6 600.472 1374.63 601.512 1374.36C602.596 1374.06 603.424 1373.54 603.996 1372.77C604.573 1372 604.914 1371.07 605.019 1370C605.13 1368.92 605.024 1367.78 604.703 1366.58C604.385 1365.39 603.915 1364.37 603.294 1363.52C602.678 1362.65 601.929 1362.04 601.048 1361.68C600.172 1361.31 599.184 1361.27 598.086 1361.57C597.031 1361.85 596.217 1362.36 595.642 1363.08C595.066 1363.8 594.722 1364.69 594.611 1365.74C594.498 1366.78 594.61 1367.93 594.948 1369.19ZM622.295 1363.51L619.623 1353.54L622.215 1352.84L626.736 1369.72L624.144 1370.41L623.378 1367.55L623.203 1367.6C623.037 1368.56 622.617 1369.46 621.943 1370.28C621.267 1371.1 620.292 1371.68 619.018 1372.02C617.963 1372.3 616.964 1372.32 616.02 1372.08C615.074 1371.83 614.241 1371.3 613.521 1370.49C612.8 1369.67 612.246 1368.54 611.862 1367.11L608.989 1356.39L611.582 1355.69L614.407 1366.24C614.737 1367.47 615.344 1368.36 616.229 1368.9C617.121 1369.45 618.105 1369.58 619.181 1369.29C619.826 1369.12 620.437 1368.78 621.015 1368.27C621.601 1367.76 622.029 1367.1 622.301 1366.3C622.58 1365.5 622.578 1364.57 622.295 1363.51ZM634.301 1349.6L634.89 1351.8L626.146 1354.14L625.557 1351.95L634.301 1349.6ZM627.023 1347.22L629.615 1346.53L633.924 1362.61C634.12 1363.34 634.374 1363.86 634.684 1364.17C635 1364.47 635.343 1364.64 635.713 1364.67C636.089 1364.7 636.467 1364.66 636.848 1364.56C637.134 1364.48 637.364 1364.4 637.539 1364.32C637.713 1364.24 637.851 1364.17 637.955 1364.12L639.106 1366.31C638.948 1366.42 638.721 1366.55 638.423 1366.7C638.128 1366.86 637.739 1367 637.255 1367.13C636.523 1367.33 635.763 1367.36 634.976 1367.24C634.196 1367.11 633.489 1366.78 632.855 1366.26C632.228 1365.74 631.783 1364.99 631.52 1364.01L627.023 1347.22ZM646.668 1340.26L658.422 1357.41L658.685 1357.34L660.29 1336.61L663.146 1335.85L660.913 1360.56L658.101 1361.31L643.812 1341.03L646.668 1340.26ZM677.924 1356.38C676.299 1356.81 674.8 1356.83 673.429 1356.43C672.063 1356.02 670.887 1355.25 669.903 1354.12C668.924 1352.99 668.203 1351.56 667.74 1349.83C667.277 1348.1 667.183 1346.49 667.46 1345.01C667.742 1343.51 668.351 1342.24 669.288 1341.19C670.23 1340.14 671.463 1339.41 672.986 1339C673.865 1338.77 674.772 1338.68 675.708 1338.74C676.643 1338.81 677.55 1339.08 678.43 1339.55C679.308 1340.01 680.1 1340.72 680.805 1341.69C681.511 1342.65 682.075 1343.92 682.497 1345.5L682.791 1346.6L669.785 1350.08L669.185 1347.84L679.555 1345.06C679.3 1344.11 678.881 1343.31 678.301 1342.67C677.727 1342.02 677.034 1341.57 676.223 1341.33C675.419 1341.08 674.548 1341.08 673.61 1341.33C672.578 1341.61 671.753 1342.1 671.136 1342.82C670.525 1343.52 670.126 1344.34 669.941 1345.26C669.756 1346.18 669.789 1347.1 670.038 1348.03L670.438 1349.53C670.779 1350.8 671.289 1351.82 671.965 1352.59C672.648 1353.35 673.446 1353.86 674.361 1354.11C675.273 1354.35 676.253 1354.33 677.3 1354.05C677.981 1353.87 678.571 1353.61 679.069 1353.27C679.573 1352.92 679.974 1352.5 680.273 1352C680.57 1351.5 680.749 1350.93 680.812 1350.28L683.505 1350.31C683.469 1351.23 683.226 1352.1 682.776 1352.91C682.325 1353.71 681.689 1354.42 680.87 1355.02C680.049 1355.62 679.067 1356.07 677.924 1356.38ZM688.633 1342.25L691.353 1352.4L688.76 1353.1L684.239 1336.22L686.744 1335.55L687.45 1338.19L687.67 1338.13C687.836 1337.17 688.252 1336.32 688.918 1335.58C689.582 1334.84 690.552 1334.3 691.826 1333.96C692.968 1333.65 694.031 1333.62 695.013 1333.85C695.994 1334.09 696.848 1334.61 697.577 1335.43C698.305 1336.24 698.861 1337.36 699.245 1338.8L702.118 1349.52L699.525 1350.21L696.7 1339.67C696.345 1338.34 695.724 1337.4 694.837 1336.85C693.949 1336.28 692.904 1336.16 691.703 1336.48C690.875 1336.71 690.184 1337.08 689.628 1337.62C689.08 1338.15 688.711 1338.81 688.522 1339.6C688.333 1340.39 688.37 1341.27 688.633 1342.25ZM709.672 1329.41L710.261 1331.61L701.517 1333.95L700.928 1331.75L709.672 1329.41ZM702.393 1327.03L704.986 1326.33L709.295 1342.41C709.491 1343.15 709.745 1343.67 710.055 1343.98C710.371 1344.28 710.714 1344.44 711.084 1344.48C711.46 1344.5 711.838 1344.46 712.219 1344.36C712.504 1344.29 712.735 1344.21 712.91 1344.13C713.083 1344.04 713.222 1343.98 713.326 1343.92L714.477 1346.11C714.319 1346.22 714.091 1346.36 713.794 1346.51C713.499 1346.66 713.11 1346.81 712.626 1346.94C711.894 1347.13 711.134 1347.17 710.347 1347.04C709.567 1346.91 708.86 1346.59 708.225 1346.07C707.599 1345.54 707.154 1344.79 706.891 1343.81L702.393 1327.03ZM726.878 1335.49L724.205 1325.51L726.798 1324.82L731.319 1341.69L728.726 1342.39L727.961 1339.53L727.785 1339.58C727.619 1340.54 727.2 1341.43 726.526 1342.26C725.85 1343.08 724.875 1343.66 723.6 1344C722.546 1344.28 721.547 1344.3 720.603 1344.06C719.657 1343.81 718.824 1343.28 718.104 1342.47C717.382 1341.65 716.829 1340.52 716.445 1339.09L713.572 1328.36L716.164 1327.67L718.99 1338.21C719.32 1339.45 719.927 1340.33 720.811 1340.88C721.703 1341.43 722.688 1341.56 723.764 1341.27C724.409 1341.1 725.02 1340.76 725.598 1340.25C726.183 1339.74 726.612 1339.08 726.883 1338.28C727.162 1337.47 727.16 1336.54 726.878 1335.49ZM736.067 1340.42L731.546 1323.55L734.051 1322.88L734.733 1325.43L734.909 1325.38C734.993 1324.46 735.368 1323.63 736.034 1322.9C736.701 1322.16 737.539 1321.66 738.55 1321.39C738.74 1321.34 738.979 1321.28 739.267 1321.21C739.554 1321.14 739.773 1321.09 739.924 1321.07L740.63 1323.7C740.536 1323.71 740.326 1323.73 739.999 1323.77C739.678 1323.8 739.345 1323.86 739.001 1323.95C738.181 1324.17 737.495 1324.54 736.942 1325.06C736.396 1325.56 736.016 1326.17 735.803 1326.87C735.596 1327.56 735.594 1328.29 735.799 1329.05L738.66 1339.73L736.067 1340.42ZM754.232 1335.93C752.606 1336.37 751.107 1336.38 749.736 1335.98C748.37 1335.57 747.195 1334.8 746.21 1333.68C745.231 1332.54 744.51 1331.11 744.047 1329.38C743.584 1327.65 743.491 1326.05 743.767 1324.56C744.049 1323.06 744.659 1321.79 745.596 1320.75C746.538 1319.7 747.771 1318.96 749.294 1318.56C750.173 1318.32 751.08 1318.24 752.015 1318.3C752.95 1318.36 753.858 1318.63 754.737 1319.1C755.615 1319.56 756.407 1320.28 757.113 1321.24C757.819 1322.21 758.383 1323.48 758.804 1325.05L759.099 1326.15L746.093 1329.63L745.492 1327.39L755.862 1324.61C755.607 1323.66 755.189 1322.86 754.608 1322.22C754.034 1321.57 753.342 1321.13 752.53 1320.88C751.726 1320.63 750.855 1320.63 749.918 1320.89C748.885 1321.16 748.06 1321.66 747.444 1322.37C746.832 1323.08 746.434 1323.89 746.249 1324.81C746.064 1325.73 746.096 1326.66 746.345 1327.59L746.745 1329.08C747.087 1330.36 747.596 1331.38 748.273 1332.15C748.955 1332.91 749.753 1333.41 750.668 1333.66C751.58 1333.9 752.56 1333.88 753.608 1333.6C754.289 1333.42 754.878 1333.16 755.377 1332.82C755.88 1332.47 756.281 1332.05 756.58 1331.56C756.877 1331.05 757.057 1330.48 757.119 1329.83L759.812 1329.87C759.776 1330.79 759.533 1331.65 759.084 1332.46C758.632 1333.27 757.996 1333.97 757.177 1334.58C756.356 1335.17 755.374 1335.62 754.232 1335.93ZM773.511 1316.35L771.358 1317.64C771.108 1317.29 770.791 1316.97 770.407 1316.68C770.029 1316.38 769.566 1316.17 769.017 1316.06C768.469 1315.95 767.818 1315.99 767.064 1316.2C766.031 1316.47 765.235 1316.94 764.674 1317.6C764.118 1318.25 763.938 1318.94 764.132 1319.67C764.305 1320.31 764.675 1320.76 765.244 1321.01C765.813 1321.25 766.629 1321.37 767.691 1321.35L770.361 1321.29C771.967 1321.26 773.242 1321.52 774.183 1322.07C775.123 1322.62 775.751 1323.48 776.067 1324.66C776.326 1325.63 776.279 1326.57 775.927 1327.48C775.582 1328.39 774.974 1329.19 774.103 1329.9C773.232 1330.6 772.141 1331.13 770.83 1331.48C769.109 1331.94 767.585 1331.95 766.257 1331.51C764.929 1331.06 763.922 1330.16 763.237 1328.81L765.533 1327.53C766.011 1328.38 766.636 1328.94 767.41 1329.22C768.191 1329.5 769.112 1329.49 770.174 1329.21C771.382 1328.89 772.273 1328.37 772.846 1327.67C773.424 1326.96 773.616 1326.24 773.422 1325.51C773.265 1324.93 772.928 1324.49 772.412 1324.21C771.894 1323.91 771.184 1323.78 770.282 1323.81L767.293 1323.91C765.65 1323.95 764.362 1323.69 763.431 1323.12C762.506 1322.53 761.887 1321.66 761.575 1320.49C761.32 1319.54 761.361 1318.63 761.7 1317.75C762.045 1316.87 762.627 1316.1 763.446 1315.44C764.271 1314.77 765.277 1314.27 766.463 1313.96C768.133 1313.51 769.542 1313.52 770.69 1314C771.846 1314.48 772.786 1315.26 773.511 1316.35Z" fill="#E8E8E8"/>
<path d="M1385.32 1166.45L1379.29 1143.96L1386.89 1141.92C1388.66 1141.45 1390.18 1141.38 1391.48 1141.72C1392.77 1142.04 1393.84 1142.67 1394.67 1143.6C1395.5 1144.54 1396.09 1145.66 1396.44 1146.99C1396.8 1148.32 1396.85 1149.59 1396.6 1150.82C1396.36 1152.05 1395.76 1153.13 1394.81 1154.08C1393.86 1155.02 1392.51 1155.72 1390.76 1156.19L1385.31 1157.65L1384.67 1155.23L1390.03 1153.8C1391.23 1153.47 1392.15 1153 1392.77 1152.39C1393.39 1151.78 1393.77 1151.07 1393.91 1150.27C1394.05 1149.46 1394.01 1148.61 1393.76 1147.71C1393.52 1146.81 1393.14 1146.05 1392.61 1145.43C1392.09 1144.8 1391.41 1144.39 1390.56 1144.19C1389.71 1143.97 1388.67 1144.03 1387.45 1144.36L1382.66 1145.64L1388.04 1165.72L1385.32 1166.45ZM1401.17 1138.1L1407.19 1160.59L1404.6 1161.29L1398.57 1138.79L1401.17 1138.1ZM1417.01 1158.39C1415.94 1158.67 1414.92 1158.73 1413.94 1158.56C1412.96 1158.38 1412.11 1157.98 1411.39 1157.35C1410.67 1156.71 1410.16 1155.84 1409.87 1154.74C1409.61 1153.78 1409.59 1152.94 1409.81 1152.24C1410.03 1151.53 1410.41 1150.92 1410.95 1150.4C1411.5 1149.89 1412.13 1149.44 1412.86 1149.07C1413.59 1148.68 1414.33 1148.34 1415.08 1148.02C1416.07 1147.62 1416.88 1147.3 1417.5 1147.06C1418.12 1146.81 1418.56 1146.57 1418.81 1146.32C1419.06 1146.07 1419.13 1145.74 1419.02 1145.32L1419 1145.23C1418.71 1144.15 1418.19 1143.39 1417.43 1142.94C1416.69 1142.5 1415.72 1142.44 1414.52 1142.76C1413.28 1143.09 1412.39 1143.62 1411.83 1144.35C1411.27 1145.08 1410.93 1145.79 1410.81 1146.48L1408.11 1146.26C1408.28 1145.12 1408.65 1144.17 1409.23 1143.4C1409.82 1142.62 1410.51 1142 1411.32 1141.54C1412.14 1141.07 1412.97 1140.72 1413.82 1140.5C1414.36 1140.35 1415 1140.25 1415.74 1140.19C1416.49 1140.13 1417.24 1140.2 1418.01 1140.42C1418.78 1140.64 1419.49 1141.09 1420.14 1141.77C1420.8 1142.45 1421.3 1143.46 1421.66 1144.8L1424.64 1155.92L1422.05 1156.61L1421.44 1154.33L1421.3 1154.36C1421.23 1154.78 1421.04 1155.25 1420.74 1155.77C1420.44 1156.3 1419.99 1156.8 1419.39 1157.28C1418.79 1157.75 1418 1158.12 1417.01 1158.39ZM1416.79 1155.95C1417.81 1155.68 1418.62 1155.24 1419.22 1154.65C1419.82 1154.06 1420.21 1153.4 1420.4 1152.66C1420.6 1151.93 1420.6 1151.21 1420.41 1150.5L1419.78 1148.13C1419.7 1148.29 1419.49 1148.48 1419.15 1148.69C1418.81 1148.89 1418.41 1149.09 1417.95 1149.3C1417.49 1149.51 1417.04 1149.7 1416.61 1149.88C1416.17 1150.05 1415.82 1150.19 1415.55 1150.3C1414.9 1150.57 1414.31 1150.88 1413.78 1151.23C1413.25 1151.58 1412.86 1151.99 1412.61 1152.48C1412.36 1152.95 1412.32 1153.52 1412.5 1154.18C1412.74 1155.08 1413.25 1155.67 1414.04 1155.96C1414.84 1156.23 1415.75 1156.23 1416.79 1155.95ZM1432.19 1135.81L1432.78 1138.01L1424.03 1140.35L1423.45 1138.15L1432.19 1135.81ZM1424.91 1133.43L1427.5 1132.73L1431.81 1148.82C1432.01 1149.55 1432.26 1150.07 1432.57 1150.38C1432.89 1150.68 1433.23 1150.85 1433.6 1150.88C1433.98 1150.9 1434.36 1150.87 1434.74 1150.76C1435.02 1150.69 1435.25 1150.61 1435.43 1150.53C1435.6 1150.45 1435.74 1150.38 1435.84 1150.33L1436.99 1152.51C1436.84 1152.63 1436.61 1152.76 1436.31 1152.91C1436.02 1153.07 1435.63 1153.21 1435.14 1153.34C1434.41 1153.54 1433.65 1153.57 1432.86 1153.44C1432.08 1153.31 1431.38 1152.99 1430.74 1152.47C1430.12 1151.95 1429.67 1151.19 1429.41 1150.21L1424.91 1133.43ZM1440.61 1151.64L1436.09 1134.77L1438.68 1134.07L1443.2 1150.94L1440.61 1151.64ZM1436.65 1131.6C1436.15 1131.74 1435.67 1131.68 1435.21 1131.43C1434.76 1131.19 1434.47 1130.82 1434.34 1130.34C1434.21 1129.85 1434.28 1129.39 1434.54 1128.95C1434.82 1128.51 1435.21 1128.22 1435.71 1128.09C1436.22 1127.95 1436.7 1128.01 1437.15 1128.25C1437.61 1128.5 1437.9 1128.86 1438.03 1129.35C1438.16 1129.83 1438.09 1130.29 1437.81 1130.74C1437.55 1131.18 1437.16 1131.46 1436.65 1131.6ZM1447.82 1138.83L1450.54 1148.98L1447.95 1149.67L1443.43 1132.8L1445.93 1132.13L1446.64 1134.76L1446.86 1134.71C1447.03 1133.74 1447.44 1132.89 1448.11 1132.16C1448.77 1131.41 1449.74 1130.87 1451.02 1130.53C1452.16 1130.22 1453.22 1130.19 1454.2 1130.43C1455.18 1130.66 1456.04 1131.19 1456.77 1132C1457.5 1132.81 1458.05 1133.94 1458.44 1135.37L1461.31 1146.09L1458.72 1146.79L1455.89 1136.24C1455.54 1134.92 1454.91 1133.98 1454.03 1133.42C1453.14 1132.86 1452.1 1132.74 1450.89 1133.06C1450.07 1133.28 1449.37 1133.66 1448.82 1134.19C1448.27 1134.72 1447.9 1135.38 1447.71 1136.17C1447.52 1136.96 1447.56 1137.85 1447.82 1138.83ZM1474.83 1135.08L1472.16 1125.1L1474.75 1124.41L1479.27 1141.28L1476.68 1141.97L1475.91 1139.12L1475.74 1139.16C1475.57 1140.13 1475.15 1141.02 1474.48 1141.85C1473.8 1142.66 1472.83 1143.24 1471.55 1143.58C1470.5 1143.87 1469.5 1143.89 1468.56 1143.64C1467.61 1143.4 1466.78 1142.87 1466.06 1142.05C1465.34 1141.23 1464.78 1140.11 1464.4 1138.67L1461.53 1127.95L1464.12 1127.26L1466.94 1137.8C1467.27 1139.03 1467.88 1139.92 1468.76 1140.47C1469.66 1141.01 1470.64 1141.14 1471.72 1140.85C1472.36 1140.68 1472.97 1140.34 1473.55 1139.83C1474.14 1139.32 1474.57 1138.67 1474.84 1137.86C1475.12 1137.06 1475.11 1136.13 1474.83 1135.08ZM1484.02 1140.01L1479.5 1123.13L1482 1122.46L1482.71 1125.1L1482.93 1125.04C1483.04 1124.05 1483.42 1123.19 1484.07 1122.49C1484.72 1121.77 1485.59 1121.27 1486.69 1120.97C1487.8 1120.67 1488.8 1120.68 1489.67 1120.98C1490.55 1121.28 1491.32 1121.83 1491.98 1122.62L1492.16 1122.57C1492.36 1121.58 1492.82 1120.72 1493.55 1119.97C1494.27 1119.22 1495.24 1118.68 1496.45 1118.36C1497.95 1117.95 1499.31 1118.1 1500.53 1118.78C1501.74 1119.46 1502.61 1120.8 1503.14 1122.78L1506.17 1134.07L1503.57 1134.77L1500.55 1123.48C1500.21 1122.23 1499.64 1121.43 1498.81 1121.08C1497.99 1120.73 1497.11 1120.67 1496.19 1120.92C1495 1121.24 1494.18 1121.85 1493.72 1122.74C1493.26 1123.62 1493.18 1124.61 1493.47 1125.7L1496.41 1136.69L1493.78 1137.39L1490.68 1125.84C1490.42 1124.88 1489.9 1124.19 1489.12 1123.77C1488.34 1123.34 1487.46 1123.26 1486.48 1123.52C1485.81 1123.7 1485.22 1124.05 1484.73 1124.57C1484.25 1125.08 1483.92 1125.71 1483.73 1126.44C1483.55 1127.16 1483.57 1127.94 1483.79 1128.77L1486.61 1139.31L1484.02 1140.01ZM1519.96 1130.38L1513.93 1107.88L1527.51 1104.24L1528.15 1106.66L1517.3 1109.57L1519.34 1117.17L1529.49 1114.45L1530.14 1116.87L1519.99 1119.59L1522.03 1127.23L1533.06 1124.28L1533.71 1126.69L1519.96 1130.38ZM1544.56 1124.16C1543.15 1124.54 1541.82 1124.52 1540.55 1124.09C1539.28 1123.67 1538.17 1122.88 1537.21 1121.74C1536.25 1120.59 1535.53 1119.12 1535.05 1117.34C1534.58 1115.57 1534.47 1113.95 1534.73 1112.48C1534.99 1111.01 1535.56 1109.78 1536.46 1108.78C1537.35 1107.78 1538.51 1107.09 1539.93 1106.71C1541.03 1106.41 1541.94 1106.36 1542.68 1106.56C1543.42 1106.74 1544.02 1107.02 1544.48 1107.39C1544.95 1107.76 1545.32 1108.06 1545.58 1108.3L1545.8 1108.24L1543.58 1099.94L1546.17 1099.24L1552.2 1121.74L1549.69 1122.41L1549 1119.82L1548.69 1119.9C1548.58 1120.26 1548.42 1120.72 1548.19 1121.28C1547.96 1121.84 1547.57 1122.39 1547.02 1122.93C1546.46 1123.46 1545.64 1123.87 1544.56 1124.16ZM1544.29 1121.74C1545.33 1121.46 1546.13 1120.95 1546.71 1120.22C1547.28 1119.48 1547.62 1118.57 1547.73 1117.51C1547.85 1116.43 1547.73 1115.26 1547.39 1113.99C1547.05 1112.73 1546.57 1111.67 1545.95 1110.83C1545.33 1109.97 1544.59 1109.38 1543.73 1109.04C1542.87 1108.7 1541.92 1108.67 1540.86 1108.95C1539.76 1109.25 1538.92 1109.77 1538.34 1110.53C1537.77 1111.29 1537.42 1112.19 1537.31 1113.25C1537.21 1114.3 1537.32 1115.41 1537.64 1116.6C1537.96 1117.8 1538.43 1118.84 1539.06 1119.73C1539.7 1120.6 1540.45 1121.23 1541.33 1121.61C1542.22 1121.99 1543.2 1122.03 1544.29 1121.74ZM1557.31 1120.37L1552.79 1103.5L1555.38 1102.8L1559.9 1119.68L1557.31 1120.37ZM1553.35 1100.33C1552.85 1100.47 1552.36 1100.41 1551.91 1100.17C1551.45 1099.92 1551.16 1099.55 1551.03 1099.07C1550.9 1098.59 1550.97 1098.12 1551.24 1097.68C1551.51 1097.24 1551.9 1096.95 1552.41 1096.82C1552.91 1096.68 1553.39 1096.74 1553.84 1096.99C1554.3 1097.23 1554.6 1097.6 1554.73 1098.08C1554.85 1098.56 1554.78 1099.03 1554.51 1099.47C1554.24 1099.91 1553.86 1100.2 1553.35 1100.33ZM1567.46 1099.56L1568.05 1101.76L1559.31 1104.1L1558.72 1101.91L1567.46 1099.56ZM1560.19 1097.18L1562.78 1096.49L1567.09 1112.57C1567.28 1113.3 1567.54 1113.82 1567.85 1114.13C1568.16 1114.43 1568.51 1114.6 1568.88 1114.63C1569.25 1114.66 1569.63 1114.62 1570.01 1114.52C1570.3 1114.44 1570.53 1114.36 1570.7 1114.28C1570.88 1114.2 1571.01 1114.13 1571.12 1114.08L1572.27 1116.27C1572.11 1116.38 1571.88 1116.51 1571.59 1116.66C1571.29 1116.82 1570.9 1116.96 1570.42 1117.09C1569.69 1117.29 1568.93 1117.32 1568.14 1117.2C1567.36 1117.07 1566.65 1116.74 1566.02 1116.22C1565.39 1115.7 1564.95 1114.95 1564.68 1113.97L1560.19 1097.18ZM1575.89 1115.39L1571.36 1098.52L1573.96 1097.82L1578.48 1114.7L1575.89 1115.39ZM1571.93 1095.35C1571.42 1095.49 1570.94 1095.43 1570.48 1095.19C1570.03 1094.94 1569.74 1094.57 1569.61 1094.09C1569.48 1093.61 1569.55 1093.15 1569.82 1092.7C1570.09 1092.26 1570.48 1091.97 1570.99 1091.84C1571.49 1091.7 1571.97 1091.76 1572.42 1092.01C1572.88 1092.25 1573.17 1092.62 1573.3 1093.1C1573.43 1093.58 1573.36 1094.05 1573.09 1094.49C1572.82 1094.93 1572.43 1095.22 1571.93 1095.35ZM1590.18 1111.94C1588.65 1112.35 1587.22 1112.34 1585.87 1111.93C1584.54 1111.51 1583.37 1110.73 1582.38 1109.6C1581.39 1108.47 1580.67 1107.03 1580.2 1105.29C1579.73 1103.53 1579.63 1101.91 1579.92 1100.43C1580.21 1098.95 1580.83 1097.69 1581.78 1096.66C1582.74 1095.62 1583.98 1094.9 1585.5 1094.5C1587.02 1094.09 1588.45 1094.09 1589.79 1094.51C1591.13 1094.93 1592.3 1095.71 1593.29 1096.85C1594.29 1097.99 1595.02 1099.43 1595.49 1101.19C1595.96 1102.93 1596.04 1104.54 1595.75 1106.02C1595.46 1107.49 1594.84 1108.75 1593.88 1109.78C1592.93 1110.81 1591.7 1111.53 1590.18 1111.94ZM1589.55 1109.61C1590.71 1109.3 1591.58 1108.75 1592.17 1107.96C1592.76 1107.16 1593.1 1106.23 1593.2 1105.17C1593.3 1104.11 1593.2 1103.01 1592.9 1101.89C1592.59 1100.76 1592.13 1099.76 1591.51 1098.88C1590.89 1098 1590.13 1097.36 1589.22 1096.96C1588.31 1096.56 1587.28 1096.51 1586.12 1096.82C1584.97 1097.13 1584.1 1097.69 1583.51 1098.49C1582.92 1099.29 1582.58 1100.23 1582.48 1101.3C1582.39 1102.37 1582.49 1103.47 1582.79 1104.59C1583.09 1105.72 1583.55 1106.72 1584.17 1107.59C1584.79 1108.46 1585.55 1109.09 1586.46 1109.49C1587.36 1109.88 1588.39 1109.92 1589.55 1109.61ZM1601.56 1097.63L1604.28 1107.78L1601.68 1108.48L1597.16 1091.61L1599.67 1090.94L1600.37 1093.57L1600.59 1093.51C1600.76 1092.55 1601.18 1091.7 1601.84 1090.96C1602.51 1090.22 1603.48 1089.68 1604.75 1089.34C1605.89 1089.03 1606.95 1089 1607.94 1089.24C1608.92 1089.47 1609.77 1089.99 1610.5 1090.81C1611.23 1091.62 1611.78 1092.74 1612.17 1094.18L1615.04 1104.9L1612.45 1105.59L1609.62 1095.05C1609.27 1093.72 1608.65 1092.78 1607.76 1092.23C1606.87 1091.67 1605.83 1091.55 1604.63 1091.87C1603.8 1092.09 1603.11 1092.47 1602.55 1093C1602 1093.53 1601.63 1094.19 1601.45 1094.98C1601.26 1095.77 1601.29 1096.65 1601.56 1097.63Z" fill="#E8E8E8"/>
<path d="M606.774 1128.7C607.205 1128.74 607.472 1128.96 607.577 1129.35L608 1130.93L600.452 1132.95L600.03 1131.37C599.936 1131.02 600.07 1130.7 600.433 1130.4L600.985 1129.99L598.844 1126.95L589.935 1129.34L589.601 1133.04L590.286 1133.12C590.749 1133.2 591.027 1133.41 591.121 1133.76L591.543 1135.34L583.996 1137.36L583.573 1135.78C583.479 1135.43 583.613 1135.11 583.976 1134.81L585.487 1133.65L587.871 1112.35L592.14 1111.21L604.882 1128.45L606.774 1128.7ZM597.005 1124.29L592.573 1118.02C592.143 1117.41 591.63 1116.6 591.033 1115.62L591.011 1116.65C590.996 1117.25 590.962 1117.87 590.911 1118.5L590.231 1126.11L597.005 1124.29ZM631.588 1124.61L615.379 1128.95L614.89 1127.13C614.751 1126.61 614.924 1126.22 615.406 1125.96L615.583 1125.88L616.022 1125.66L616.909 1125.26L612.557 1109.02L611.588 1109.11C611.479 1109.12 611.381 1109.12 611.293 1109.13C611.226 1109.12 611.161 1109.13 611.099 1109.14L610.905 1109.16C610.356 1109.18 610.013 1108.93 609.875 1108.41L609.386 1106.59L618.233 1104.22L618.722 1106.04C618.86 1106.56 618.688 1106.95 618.206 1107.21L618.028 1107.29L617.589 1107.5L616.703 1107.91L620.955 1123.78L628.162 1121.85C628.003 1121 627.925 1120.55 627.93 1120.48C627.928 1120.06 628.112 1119.8 628.483 1119.7L630.154 1119.26L631.588 1124.61ZM651.095 1101.71L649.301 1102.19C648.93 1102.29 648.64 1102.16 648.432 1101.79C648.113 1101.02 647.864 1100.38 647.685 1099.87L640.477 1101.8L642.135 1107.99L649.714 1105.96L650.576 1109.18L642.997 1111.21L644.688 1117.52L651.896 1115.59C651.799 1115.06 651.694 1114.38 651.582 1113.55C651.58 1113.13 651.764 1112.87 652.136 1112.77L653.93 1112.29L655.513 1118.2L639.056 1122.61L638.567 1120.78C638.429 1120.27 638.601 1119.88 639.084 1119.62L639.261 1119.54C639.323 1119.52 639.382 1119.49 639.438 1119.45C639.515 1119.41 639.602 1119.37 639.7 1119.32L640.587 1118.91L636.235 1102.67L635.266 1102.77C635.157 1102.78 635.059 1102.78 634.971 1102.78C634.903 1102.78 634.839 1102.78 634.777 1102.8L634.583 1102.82C634.034 1102.83 633.691 1102.58 633.553 1102.07L633.063 1100.24L649.52 1095.83L651.095 1101.71ZM684.377 1107.48C684.926 1107.47 685.27 1107.72 685.408 1108.23L685.897 1110.06L676.4 1112.6L675.911 1110.78C675.773 1110.26 675.945 1109.87 676.427 1109.61L677.306 1109.18L671.81 1103.88C671.822 1104.01 671.801 1104.14 671.746 1104.27L671.675 1104.62L669.671 1111.12L671.045 1111.05C671.594 1111.04 671.937 1111.29 672.075 1111.8L672.564 1113.63L662.944 1116.21L662.455 1114.38C662.317 1113.87 662.499 1113.47 663.002 1113.21L665.248 1112.31L668.46 1102.39L661.236 1095.98L658.78 1096.34C658.231 1096.35 657.888 1096.1 657.749 1095.58L657.26 1093.76L666.881 1091.18L667.37 1093.01C667.508 1093.52 667.336 1093.91 666.854 1094.17L665.891 1094.66L670.951 1099.44L671.028 1098.99C671.071 1098.73 671.107 1098.58 671.137 1098.53L672.921 1092.81L671.679 1092.88C671.13 1092.89 670.787 1092.64 670.649 1092.13L670.16 1090.3L679.595 1087.77L680.084 1089.6C680.222 1090.11 680.05 1090.5 679.567 1090.77L677.291 1091.67L674.195 1100.66L681.952 1107.83L684.377 1107.48ZM715.985 1099.44C716.415 1099.48 716.683 1099.7 716.788 1100.09L717.211 1101.67L709.663 1103.69L709.24 1102.11C709.146 1101.76 709.281 1101.44 709.643 1101.14L710.196 1100.73L708.055 1097.69L699.146 1100.07L698.812 1103.78L699.497 1103.86C699.959 1103.93 700.237 1104.15 700.331 1104.5L700.754 1106.08L693.206 1108.1L692.784 1106.52C692.69 1106.17 692.824 1105.85 693.187 1105.55L694.697 1104.38L697.081 1083.09L701.35 1081.94L714.093 1099.19L715.985 1099.44ZM706.216 1095.03L701.783 1088.76C701.354 1088.14 700.84 1087.34 700.244 1086.35L700.222 1087.39C700.206 1087.99 700.173 1088.6 700.121 1089.24L699.441 1096.85L706.216 1095.03ZM742.626 1072.84C742.764 1073.36 742.592 1073.75 742.11 1074.01L741.933 1074.09C741.871 1074.1 741.801 1074.13 741.724 1074.18C741.668 1074.21 741.591 1074.26 741.493 1074.3L740.638 1074.7L745.81 1094L743.645 1094.58C743.356 1094.66 743.074 1094.68 742.799 1094.64C742.57 1094.62 742.304 1094.49 742 1094.26L726.32 1082.51C726.483 1082.96 726.589 1083.27 726.639 1083.46L726.91 1084.35L729.77 1095.02L731.855 1094.76C732.404 1094.74 732.747 1094.99 732.885 1095.51L733.374 1097.33L724.589 1099.69L724.1 1097.86C723.962 1097.35 724.134 1096.96 724.617 1096.7L724.794 1096.62L725.233 1096.4L726.12 1096L721.768 1079.76L720.799 1079.85C720.69 1079.86 720.592 1079.86 720.504 1079.86C720.436 1079.86 720.372 1079.86 720.31 1079.88L720.116 1079.9C719.567 1079.91 719.224 1079.66 719.086 1079.15L718.597 1077.32L723.113 1076.11L723.585 1076.02C723.73 1075.98 723.851 1075.98 723.95 1076.02C724.038 1076.02 724.148 1076.06 724.278 1076.13L724.687 1076.42L740.446 1088.21L740.071 1087.19C739.99 1086.96 739.891 1086.64 739.775 1086.2L736.957 1075.69L734.871 1075.95C734.323 1075.96 733.979 1075.71 733.841 1075.19L733.352 1073.37L742.137 1071.02L742.626 1072.84ZM772.221 1070.08C773.142 1071.3 773.824 1072.73 774.266 1074.38C774.708 1076.03 774.833 1077.61 774.641 1079.12C774.445 1080.69 773.999 1082.08 773.305 1083.29C772.61 1084.49 771.619 1085.57 770.33 1086.54C769.097 1087.46 767.636 1088.15 765.945 1088.61L755.396 1091.43L754.907 1089.61C754.769 1089.09 754.941 1088.7 755.424 1088.44L755.601 1088.36C755.663 1088.35 755.722 1088.32 755.778 1088.28C755.855 1088.24 755.942 1088.19 756.04 1088.14L756.927 1087.74L752.575 1071.5L751.606 1071.6C751.497 1071.6 751.399 1071.61 751.311 1071.61C751.243 1071.6 751.179 1071.61 751.117 1071.63L750.923 1071.65C750.374 1071.66 750.031 1071.41 749.893 1070.89L749.403 1069.07L759.952 1066.24C761.643 1065.79 763.254 1065.66 764.785 1065.84C766.383 1066.03 767.784 1066.48 768.986 1067.17C770.189 1067.86 771.267 1068.84 772.221 1070.08ZM770.389 1078.96C770.459 1077.9 770.329 1076.76 769.997 1075.52C769.671 1074.3 769.213 1073.25 768.623 1072.37C767.976 1071.44 767.291 1070.74 766.568 1070.27C765.799 1069.79 764.918 1069.48 763.927 1069.32C762.961 1069.18 761.932 1069.26 760.839 1069.55L756.817 1070.63L761.036 1086.38L765.058 1085.3C766.151 1085 767.081 1084.56 767.847 1083.95C768.629 1083.32 769.233 1082.61 769.66 1081.81C770.066 1081.02 770.309 1080.07 770.389 1078.96ZM796.581 1062.73L794.786 1063.21C794.415 1063.31 794.125 1063.17 793.917 1062.81C793.599 1062.03 793.35 1061.39 793.17 1060.89L785.963 1062.82L787.621 1069.01L795.199 1066.98L796.061 1070.19L788.483 1072.22L790.173 1078.53L797.381 1076.6C797.284 1076.08 797.179 1075.4 797.067 1074.57C797.065 1074.15 797.25 1073.89 797.621 1073.79L799.415 1073.31L800.998 1079.21L784.542 1083.62L784.053 1081.8C783.914 1081.28 784.087 1080.9 784.569 1080.63L784.746 1080.55C784.808 1080.54 784.867 1080.51 784.924 1080.47C785.001 1080.43 785.088 1080.38 785.185 1080.34L786.072 1079.93L781.72 1063.69L780.751 1063.79C780.642 1063.79 780.544 1063.8 780.456 1063.8C780.389 1063.79 780.324 1063.8 780.262 1063.82L780.068 1063.84C779.519 1063.85 779.176 1063.6 779.038 1063.08L778.549 1061.26L795.006 1056.85L796.581 1062.73ZM826.986 1069.27C827.535 1069.25 827.878 1069.5 828.016 1070.02L828.505 1071.84L824.329 1072.96C823.937 1073.07 823.609 1073.08 823.343 1073C823.078 1072.91 822.816 1072.76 822.559 1072.54L815.934 1066.63C815.703 1066.42 815.457 1066.29 815.197 1066.23C814.937 1066.16 814.611 1066.18 814.219 1066.29L812.642 1066.71L814.167 1072.4L815.136 1072.31C815.245 1072.3 815.333 1072.3 815.4 1072.31C815.488 1072.3 815.563 1072.3 815.625 1072.28L815.819 1072.26C816.368 1072.25 816.711 1072.5 816.849 1073.01L817.338 1074.84L808.491 1077.21L808.002 1075.38C807.864 1074.87 808.036 1074.48 808.518 1074.22L808.696 1074.14L809.135 1073.92L810.022 1073.51L805.67 1057.27L804.7 1057.37C804.592 1057.38 804.494 1057.38 804.406 1057.38C804.338 1057.38 804.273 1057.38 804.212 1057.4L804.018 1057.42C803.469 1057.43 803.126 1057.18 802.987 1056.67L802.498 1054.84L811.438 1052.45C812.964 1052.04 814.315 1051.84 815.491 1051.86C816.626 1051.89 817.631 1052.09 818.508 1052.48C819.39 1052.88 820.088 1053.42 820.602 1054.1C821.142 1054.8 821.539 1055.62 821.793 1056.57C821.981 1057.27 822.058 1058.01 822.024 1058.79C821.999 1059.44 821.842 1060.14 821.555 1060.88C821.321 1061.49 820.933 1062.1 820.389 1062.71C819.86 1063.3 819.248 1063.81 818.551 1064.27C819.17 1064.43 819.74 1064.74 820.26 1065.2L825.179 1069.45L826.179 1069.35C826.288 1069.34 826.386 1069.34 826.474 1069.34C826.583 1069.33 826.668 1069.32 826.73 1069.3L826.986 1069.27ZM816.186 1062.25C816.714 1061.91 817.127 1061.51 817.425 1061.05C817.687 1060.63 817.855 1060.14 817.928 1059.59C817.987 1059.07 817.942 1058.53 817.792 1057.97C817.489 1056.84 816.882 1056.06 815.974 1055.64C815.092 1055.24 813.868 1055.24 812.3 1055.66L809.857 1056.32L811.846 1063.74L814.228 1063.1C814.929 1062.92 815.582 1062.63 816.186 1062.25ZM865.41 1061.96L849.2 1066.3L848.711 1064.47C848.573 1063.96 848.745 1063.57 849.228 1063.31L849.405 1063.23L849.844 1063.01L850.731 1062.61L846.379 1046.37L845.41 1046.46C845.301 1046.47 845.203 1046.47 845.115 1046.47C845.047 1046.47 844.983 1046.48 844.921 1046.49L844.727 1046.51C844.178 1046.53 843.835 1046.27 843.697 1045.76L843.208 1043.93L852.055 1041.56L852.544 1043.39C852.682 1043.9 852.51 1044.29 852.027 1044.55L851.85 1044.64L851.411 1044.85L850.524 1045.26L854.776 1061.12L861.984 1059.19C861.825 1058.35 861.747 1057.9 861.751 1057.83C861.75 1057.41 861.934 1057.15 862.305 1057.05L863.976 1056.6L865.41 1061.96ZM890.451 1033.23C890.589 1033.75 890.417 1034.14 889.935 1034.4L889.757 1034.48C889.695 1034.49 889.626 1034.52 889.549 1034.57C889.493 1034.6 889.416 1034.65 889.318 1034.7L888.432 1035.1L891.2 1045.43C891.559 1046.77 891.671 1048.06 891.537 1049.29C891.398 1050.58 891.052 1051.73 890.499 1052.71C889.91 1053.73 889.102 1054.63 888.074 1055.42C887.082 1056.17 885.854 1056.74 884.39 1057.14C882.926 1057.53 881.576 1057.65 880.341 1057.49C879.106 1057.34 877.965 1056.96 876.919 1056.35C875.894 1055.74 875.013 1054.93 874.276 1053.91C873.581 1052.97 873.046 1051.8 872.671 1050.4L869.902 1040.06L868.933 1040.16C868.824 1040.16 868.726 1040.17 868.638 1040.17C868.57 1040.17 868.506 1040.17 868.444 1040.19L868.25 1040.21C867.701 1040.22 867.358 1039.97 867.22 1039.46L866.731 1037.63L875.702 1035.23L876.191 1037.05C876.329 1037.57 876.157 1037.96 875.674 1038.22L875.466 1038.31C875.404 1038.32 875.335 1038.35 875.258 1038.4C875.181 1038.44 875.083 1038.49 874.965 1038.54L874.047 1038.95L876.808 1049.25C877.056 1050.18 877.377 1050.92 877.769 1051.48C878.152 1052.09 878.653 1052.59 879.271 1053C879.784 1053.35 880.41 1053.58 881.147 1053.69C881.817 1053.8 882.575 1053.74 883.42 1053.52C884.266 1053.29 884.952 1052.96 885.478 1052.53C886.096 1052.04 886.533 1051.52 886.788 1050.99C887.058 1050.43 887.231 1049.75 887.305 1048.96C887.343 1048.11 887.259 1047.3 887.055 1046.54L884.286 1036.21L883.286 1036.31C883.157 1036.32 883.048 1036.33 882.96 1036.33C882.872 1036.33 882.797 1036.34 882.735 1036.36L882.511 1036.39C881.962 1036.4 881.618 1036.15 881.48 1035.64L880.991 1033.81L889.962 1031.41L890.451 1033.23ZM905.882 1030.16C905.82 1030.17 905.75 1030.2 905.673 1030.25C905.617 1030.28 905.54 1030.33 905.442 1030.37L904.587 1030.77L908.938 1047.01L909.877 1046.92C909.985 1046.92 910.073 1046.92 910.141 1046.92C910.229 1046.92 910.304 1046.91 910.366 1046.89L910.56 1046.87C911.108 1046.86 911.452 1047.11 911.59 1047.63L912.079 1049.45L903.232 1051.82L902.743 1050C902.605 1049.48 902.777 1049.09 903.259 1048.83L903.437 1048.75L903.876 1048.53L904.762 1048.13L900.411 1031.89L899.441 1031.98C899.333 1031.99 899.234 1031.99 899.146 1032C899.079 1031.99 899.014 1032 898.952 1032.01L898.758 1032.03C898.21 1032.05 897.866 1031.8 897.728 1031.28L897.239 1029.46L906.086 1027.09L906.575 1028.91C906.713 1029.43 906.541 1029.82 906.059 1030.08L905.882 1030.16ZM931.547 1026.56L929.753 1027.04C929.382 1027.14 929.092 1027.01 928.884 1026.65C928.565 1025.87 928.316 1025.23 928.137 1024.72L920.93 1026.66L922.587 1032.84L930.166 1030.81L931.028 1034.03L923.449 1036.06L925.14 1042.37L932.348 1040.44C932.251 1039.91 932.146 1039.23 932.034 1038.4C932.032 1037.98 932.217 1037.72 932.588 1037.62L934.382 1037.14L935.965 1043.05L919.508 1047.46L919.019 1045.64C918.881 1045.12 919.053 1044.73 919.536 1044.47L919.713 1044.39C919.775 1044.37 919.834 1044.34 919.89 1044.31C919.967 1044.26 920.055 1044.22 920.152 1044.17L921.039 1043.77L916.687 1027.53L915.718 1027.62C915.609 1027.63 915.511 1027.63 915.423 1027.63C915.355 1027.63 915.291 1027.64 915.229 1027.65L915.035 1027.67C914.486 1027.69 914.143 1027.44 914.005 1026.92L913.516 1025.1L929.972 1020.69L931.547 1026.56ZM964.2 1013.47C964.338 1013.99 964.166 1014.37 963.683 1014.64L963.506 1014.72C963.444 1014.73 963.375 1014.76 963.298 1014.81C963.241 1014.84 963.165 1014.89 963.067 1014.93L962.18 1015.34L965.222 1026.69C965.554 1027.93 965.703 1029.1 965.67 1030.22C965.637 1031.33 965.413 1032.31 964.997 1033.15C964.551 1034.04 963.924 1034.8 963.116 1035.41C962.252 1036.06 961.242 1036.54 960.087 1036.85C959.531 1037 958.976 1037.12 958.423 1037.2C957.912 1037.27 957.314 1037.31 956.631 1037.31L956.184 1034.78C956.155 1034.59 956.201 1034.39 956.322 1034.18C956.468 1033.99 956.666 1033.86 956.913 1033.79C957.078 1033.75 957.313 1033.72 957.619 1033.7C958.012 1033.68 958.384 1033.63 958.734 1033.53C959.353 1033.37 959.847 1033.15 960.215 1032.87C960.589 1032.62 960.895 1032.24 961.136 1031.73C961.33 1031.3 961.43 1030.77 961.435 1030.13C961.434 1029.46 961.323 1028.72 961.102 1027.89L958.035 1016.45L957.004 1016.56C956.875 1016.57 956.756 1016.58 956.647 1016.59C956.538 1016.6 956.453 1016.61 956.391 1016.62L956.105 1016.67C955.556 1016.68 955.212 1016.43 955.074 1015.92L954.585 1014.09L963.711 1011.65L964.2 1013.47ZM994.321 1006.46C994.259 1006.48 994.189 1006.51 994.112 1006.55C994.056 1006.59 993.979 1006.63 993.882 1006.68L993.026 1007.07L997.377 1023.31L998.316 1023.23C998.425 1023.22 998.513 1023.22 998.58 1023.22C998.668 1023.22 998.743 1023.21 998.805 1023.2L998.999 1023.18C999.547 1023.16 999.891 1023.41 1000.03 1023.93L1000.52 1025.75L991.671 1028.12L991.182 1026.3C991.044 1025.78 991.216 1025.39 991.698 1025.13L991.876 1025.05L992.315 1024.84L993.17 1024.44L991.372 1017.73L980.885 1020.54L982.684 1027.25L983.653 1027.16C983.762 1027.15 983.85 1027.15 983.917 1027.15C984.005 1027.15 984.08 1027.14 984.142 1027.12L984.336 1027.11C984.885 1027.09 985.228 1027.34 985.366 1027.86L985.855 1029.68L976.977 1032.06L976.488 1030.24C976.35 1029.72 976.522 1029.33 977.005 1029.07L977.182 1028.99C977.244 1028.97 977.303 1028.95 977.359 1028.91C977.436 1028.87 977.524 1028.82 977.621 1028.77L978.508 1028.37L974.156 1012.13L973.187 1012.22C973.078 1012.23 972.98 1012.23 972.892 1012.24C972.824 1012.23 972.76 1012.24 972.698 1012.25L972.504 1012.27C971.955 1012.29 971.612 1012.04 971.474 1011.52L970.985 1009.7L979.863 1007.32L980.352 1009.14C980.49 1009.66 980.318 1010.05 979.835 1010.31L979.658 1010.39C979.596 1010.41 979.527 1010.44 979.45 1010.48C979.393 1010.52 979.317 1010.56 979.219 1010.61L978.332 1011.01L980.09 1017.57L990.576 1014.76L988.819 1008.2L987.88 1008.29L987.392 1008.32L987.198 1008.34C986.649 1008.35 986.305 1008.1 986.167 1007.58L985.678 1005.76L994.525 1003.39L995.014 1005.21C995.153 1005.73 994.98 1006.12 994.498 1006.38L994.321 1006.46ZM1030.62 1015.13C1031.05 1015.17 1031.32 1015.39 1031.42 1015.78L1031.85 1017.36L1024.3 1019.38L1023.88 1017.8C1023.78 1017.45 1023.92 1017.13 1024.28 1016.83L1024.83 1016.42L1022.69 1013.38L1013.78 1015.77L1013.45 1019.47L1014.13 1019.55C1014.6 1019.63 1014.87 1019.84 1014.97 1020.19L1015.39 1021.77L1007.84 1023.79L1007.42 1022.21C1007.33 1021.86 1007.46 1021.54 1007.82 1021.24L1009.33 1020.08L1011.72 998.782L1015.99 997.638L1028.73 1014.88L1030.62 1015.13ZM1020.85 1010.72L1016.42 1004.45C1015.99 1003.84 1015.48 1003.04 1014.88 1002.05L1014.86 1003.08C1014.84 1003.68 1014.81 1004.3 1014.76 1004.93L1014.08 1012.54L1020.85 1010.72ZM1061.95 988.339C1061.89 988.355 1061.82 988.385 1061.74 988.428C1061.69 988.465 1061.61 988.508 1061.51 988.556L1060.66 988.951L1065.01 1005.19L1065.95 1005.11C1066.06 1005.1 1066.14 1005.1 1066.21 1005.1C1066.3 1005.1 1066.37 1005.09 1066.44 1005.07L1066.63 1005.06C1067.18 1005.04 1067.52 1005.29 1067.66 1005.81L1068.15 1007.63L1059.36 1009.99L1058.87 1008.16C1058.74 1007.65 1058.91 1007.26 1059.39 1006.99L1061.33 1006.18L1058.28 994.794L1058.08 993.92C1058.02 993.713 1057.95 993.378 1057.87 992.913L1054.53 1007.4C1054.44 1007.76 1054.3 1008.04 1054.09 1008.25C1053.87 1008.49 1053.6 1008.65 1053.29 1008.73L1052.73 1008.88C1052.42 1008.96 1052.11 1008.96 1051.8 1008.86C1051.52 1008.78 1051.25 1008.61 1051 1008.35L1040.76 997.466L1041.08 998.439C1041.16 998.64 1041.25 998.936 1041.36 999.328L1044.41 1010.71L1046.49 1010.45C1047.04 1010.44 1047.38 1010.69 1047.52 1011.2L1048.01 1013.03L1039.23 1015.38L1038.74 1013.56C1038.6 1013.04 1038.77 1012.65 1039.25 1012.39L1039.43 1012.31L1039.87 1012.09L1040.76 1011.69L1036.4 995.449L1035.44 995.543C1035.33 995.55 1035.23 995.555 1035.14 995.556C1035.07 995.552 1035.01 995.558 1034.95 995.575L1034.75 995.594C1034.2 995.608 1033.86 995.358 1033.72 994.842L1033.23 993.017L1038.71 991.55L1039.21 991.448C1039.34 991.415 1039.46 991.402 1039.6 991.411C1039.67 991.415 1039.78 991.462 1039.94 991.552C1040.04 991.613 1040.17 991.712 1040.31 991.849L1050.32 1002.46C1050.5 1002.66 1050.65 1002.84 1050.76 1003.01C1050.89 1003.15 1050.99 1003.27 1051.06 1003.36L1051.81 1004.32L1051.95 1003.12C1052.01 1002.66 1052.08 1002.27 1052.17 1001.93L1055.47 987.788C1055.54 987.548 1055.59 987.402 1055.62 987.35C1055.71 987.193 1055.79 987.093 1055.87 987.051C1056.02 986.965 1056.14 986.911 1056.23 986.889L1056.68 986.734L1062.16 985.267L1062.65 987.092C1062.78 987.608 1062.61 987.996 1062.13 988.258L1061.95 988.339ZM1087.6 984.749L1085.81 985.23C1085.43 985.329 1085.14 985.197 1084.94 984.832C1084.62 984.056 1084.37 983.415 1084.19 982.911L1076.98 984.842L1078.64 991.029L1086.22 988.998L1087.08 992.215L1079.5 994.246L1081.19 1000.56L1088.4 998.625C1088.3 998.098 1088.2 997.419 1088.09 996.587C1088.08 996.168 1088.27 995.908 1088.64 995.809L1090.43 995.328L1092.02 1001.24L1075.56 1005.65L1075.07 1003.82C1074.93 1003.31 1075.11 1002.92 1075.59 1002.65L1075.77 1002.57C1075.83 1002.56 1075.89 1002.53 1075.94 1002.49C1076.02 1002.45 1076.11 1002.41 1076.2 1002.36L1077.09 1001.95L1072.74 985.713L1071.77 985.807C1071.66 985.814 1071.56 985.819 1071.48 985.82C1071.41 985.816 1071.34 985.822 1071.28 985.839L1071.09 985.858C1070.54 985.872 1070.2 985.622 1070.06 985.106L1069.57 983.281L1086.02 978.871L1087.6 984.749ZM1111.14 986.068C1111.58 986.589 1111.94 987.344 1112.21 988.334C1112.46 989.282 1112.54 990.268 1112.44 991.29C1112.33 992.291 1112.03 993.2 1111.54 994.016C1111.06 994.853 1110.38 995.586 1109.51 996.217C1108.66 996.843 1107.62 997.321 1106.38 997.653L1105.92 997.777C1103.96 998.302 1101.72 998.482 1099.2 998.317L1097.66 992.564L1099.42 992.091C1099.81 991.986 1100.1 992.108 1100.28 992.457C1100.42 992.709 1100.74 993.54 1101.25 994.95C1102.19 994.986 1103.63 994.742 1105.59 994.217C1106.77 993.902 1107.61 993.378 1108.12 992.644C1108.61 991.916 1108.72 991.026 1108.44 989.974C1108.28 989.397 1108.01 988.951 1107.61 988.636C1107.25 988.337 1106.77 988.133 1106.19 988.023C1105.6 987.893 1105 987.823 1104.38 987.813L1103.65 987.81L1102.34 987.762C1101.67 987.721 1100.97 987.642 1100.25 987.525C1099.6 987.412 1098.95 987.179 1098.28 986.828C1097.66 986.507 1097.12 986.032 1096.67 985.402C1096.15 984.722 1095.77 983.908 1095.52 982.959C1095.29 982.114 1095.24 981.276 1095.37 980.445C1095.47 979.578 1095.76 978.76 1096.24 977.991C1096.69 977.274 1097.32 976.595 1098.15 975.955C1098.96 975.34 1099.95 974.876 1101.12 974.561C1103.29 973.98 1105.54 973.831 1107.87 974.113L1109.4 979.836L1107.64 980.308C1107.26 980.408 1106.98 980.275 1106.77 979.911C1106.63 979.639 1106.31 978.829 1105.82 977.48C1104.99 977.349 1103.74 977.507 1102.07 977.955C1101.51 978.104 1101.03 978.299 1100.63 978.539C1100.2 978.831 1099.89 979.123 1099.71 979.416C1099.47 979.767 1099.32 980.127 1099.27 980.496C1099.2 980.844 1099.23 981.245 1099.36 981.698C1099.49 982.193 1099.76 982.585 1100.17 982.873C1100.58 983.162 1101.04 983.358 1101.55 983.464C1102.23 983.592 1102.85 983.67 1103.4 983.697C1103.63 983.703 1104.31 983.741 1105.46 983.81C1105.93 983.838 1106.63 983.927 1107.55 984.077C1108.24 984.18 1108.9 984.402 1109.52 984.743C1110.19 985.095 1110.73 985.536 1111.14 986.068ZM1146.29 976.649C1146.74 977.17 1147.09 977.925 1147.36 978.915C1147.61 979.864 1147.69 980.849 1147.59 981.871C1147.48 982.872 1147.18 983.781 1146.69 984.597C1146.21 985.434 1145.53 986.168 1144.66 986.799C1143.81 987.424 1142.77 987.903 1141.53 988.234L1141.07 988.358C1139.11 988.883 1136.87 989.063 1134.35 988.899L1132.81 983.145L1134.57 982.673C1134.96 982.568 1135.25 982.69 1135.43 983.039C1135.57 983.29 1135.89 984.121 1136.4 985.532C1137.34 985.568 1138.79 985.323 1140.74 984.798C1141.92 984.483 1142.76 983.959 1143.27 983.225C1143.76 982.497 1143.87 981.607 1143.59 980.556C1143.43 979.978 1143.16 979.532 1142.76 979.218C1142.4 978.918 1141.92 978.714 1141.34 978.605C1140.75 978.475 1140.15 978.405 1139.53 978.394L1138.8 978.391L1137.49 978.343C1136.82 978.303 1136.12 978.224 1135.4 978.106C1134.76 977.993 1134.1 977.761 1133.43 977.409C1132.81 977.088 1132.27 976.613 1131.82 975.984C1131.3 975.304 1130.92 974.489 1130.67 973.541C1130.44 972.695 1130.39 971.857 1130.52 971.026C1130.62 970.16 1130.91 969.342 1131.39 968.572C1131.84 967.855 1132.48 967.176 1133.3 966.536C1134.11 965.922 1135.1 965.457 1136.27 965.142C1138.44 964.562 1140.69 964.413 1143.02 964.694L1144.55 970.417L1142.79 970.89C1142.42 970.989 1142.13 970.857 1141.92 970.493C1141.78 970.22 1141.46 969.41 1140.97 968.062C1140.14 967.931 1138.89 968.089 1137.22 968.536C1136.66 968.686 1136.18 968.88 1135.78 969.12C1135.35 969.412 1135.04 969.705 1134.86 969.998C1134.62 970.349 1134.47 970.708 1134.42 971.077C1134.35 971.425 1134.38 971.826 1134.51 972.28C1134.64 972.775 1134.91 973.166 1135.32 973.455C1135.73 973.743 1136.19 973.94 1136.7 974.045C1137.38 974.173 1138 974.251 1138.56 974.278C1138.78 974.285 1139.46 974.322 1140.61 974.391C1141.08 974.419 1141.78 974.509 1142.7 974.659C1143.39 974.761 1144.05 974.983 1144.67 975.325C1145.34 975.676 1145.88 976.118 1146.29 976.649ZM1179.15 975.336C1179.58 975.375 1179.85 975.591 1179.95 975.983L1180.38 977.56L1172.83 979.583L1172.41 978.005C1172.31 977.655 1172.45 977.331 1172.81 977.035L1173.36 976.622L1171.22 973.582L1162.31 975.969L1161.98 979.672L1162.66 979.754C1163.13 979.829 1163.4 980.042 1163.5 980.392L1163.92 981.97L1156.37 983.992L1155.95 982.415C1155.86 982.064 1155.99 981.741 1156.35 981.445L1157.86 980.277L1160.25 958.983L1164.52 957.839L1177.26 975.08L1179.15 975.336ZM1169.38 970.925L1164.95 964.653C1164.52 964.038 1164.01 963.237 1163.41 962.247L1163.39 963.281C1163.37 963.882 1163.34 964.499 1163.29 965.131L1162.61 972.74L1169.38 970.925ZM1206.25 967.644C1206.8 967.629 1207.14 967.88 1207.28 968.396L1207.77 970.221L1203.59 971.34C1203.2 971.445 1202.87 971.455 1202.61 971.372C1202.34 971.288 1202.08 971.137 1201.82 970.919L1195.2 965.002C1194.97 964.799 1194.72 964.666 1194.46 964.603C1194.2 964.54 1193.88 964.561 1193.48 964.666L1191.91 965.089L1193.43 970.78L1194.4 970.686C1194.51 970.679 1194.6 970.678 1194.67 970.682C1194.75 970.68 1194.83 970.671 1194.89 970.655L1195.08 970.636C1195.63 970.622 1195.98 970.872 1196.11 971.388L1196.6 973.213L1187.76 975.583L1187.27 973.758C1187.13 973.243 1187.3 972.854 1187.78 972.592L1187.96 972.511L1188.4 972.294L1189.29 971.891L1184.93 955.651L1183.97 955.745C1183.86 955.752 1183.76 955.756 1183.67 955.758C1183.6 955.753 1183.54 955.76 1183.48 955.776L1183.28 955.795C1182.73 955.81 1182.39 955.559 1182.25 955.043L1181.76 953.218L1190.7 950.823C1192.23 950.414 1193.58 950.218 1194.76 950.234C1195.89 950.262 1196.9 950.468 1197.77 950.852C1198.65 951.256 1199.35 951.799 1199.87 952.479C1200.41 953.174 1200.8 953.996 1201.06 954.945C1201.25 955.646 1201.32 956.388 1201.29 957.17C1201.26 957.818 1201.11 958.512 1200.82 959.252C1200.59 959.867 1200.2 960.48 1199.65 961.09C1199.13 961.673 1198.51 962.191 1197.82 962.643C1198.43 962.809 1199 963.12 1199.53 963.578L1204.44 967.83L1205.44 967.727C1205.55 967.72 1205.65 967.716 1205.74 967.715C1205.85 967.708 1205.93 967.696 1206 967.679L1206.25 967.644ZM1195.45 960.624C1195.98 960.284 1196.39 959.886 1196.69 959.43C1196.95 959.007 1197.12 958.519 1197.19 957.969C1197.25 957.445 1197.21 956.905 1197.06 956.348C1196.75 955.214 1196.15 954.437 1195.24 954.017C1194.36 953.612 1193.13 953.62 1191.57 954.04L1189.12 954.695L1191.11 962.119L1193.49 961.481C1194.19 961.293 1194.85 961.007 1195.45 960.624ZM1217.77 946.588C1217.71 946.604 1217.64 946.634 1217.56 946.677C1217.5 946.714 1217.43 946.757 1217.33 946.805L1216.47 947.2L1220.83 963.44L1221.76 963.354C1221.87 963.347 1221.96 963.346 1222.03 963.35C1222.12 963.349 1222.19 963.339 1222.25 963.323L1222.45 963.304C1223 963.29 1223.34 963.54 1223.48 964.056L1223.97 965.881L1215.12 968.251L1214.63 966.426C1214.49 965.911 1214.66 965.522 1215.15 965.26L1215.32 965.18L1215.76 964.962L1216.65 964.559L1212.3 948.319L1211.33 948.413C1211.22 948.42 1211.12 948.424 1211.03 948.426C1210.97 948.422 1210.9 948.428 1210.84 948.444L1210.65 948.463C1210.1 948.478 1209.75 948.227 1209.62 947.711L1209.13 945.886L1217.97 943.516L1218.46 945.341C1218.6 945.856 1218.43 946.245 1217.95 946.507L1217.77 946.588ZM1245.29 941.866L1243.52 942.339C1243.13 942.444 1242.83 942.314 1242.62 941.95C1242.47 941.616 1242.3 941.207 1242.13 940.723L1237.58 941.942L1241.83 957.811L1242.77 957.725C1242.88 957.718 1242.97 957.717 1243.04 957.721C1243.13 957.719 1243.2 957.71 1243.26 957.693L1243.46 957.675C1244.03 957.655 1244.38 957.903 1244.52 958.418L1245.01 960.243L1236.16 962.614L1235.67 960.789C1235.53 960.273 1235.7 959.884 1236.19 959.623L1236.36 959.542C1236.43 959.525 1236.49 959.498 1236.54 959.461C1236.62 959.418 1236.71 959.373 1236.8 959.325L1237.66 958.93L1233.4 943.03L1228.85 944.248C1228.95 944.795 1229.02 945.242 1229.04 945.589C1229.05 946.008 1228.86 946.268 1228.49 946.367L1226.7 946.848L1225.28 941.558L1243.87 936.577L1245.29 941.866ZM1279.84 948.356C1280.27 948.395 1280.54 948.611 1280.65 949.003L1281.07 950.58L1273.52 952.603L1273.1 951.025C1273.01 950.674 1273.14 950.351 1273.5 950.055L1274.05 949.642L1271.91 946.601L1263 948.989L1262.67 952.692L1263.36 952.774C1263.82 952.849 1264.1 953.062 1264.19 953.412L1264.61 954.99L1257.06 957.012L1256.64 955.435C1256.55 955.084 1256.68 954.761 1257.05 954.464L1258.56 953.297L1260.94 932.003L1265.21 930.859L1277.95 948.1L1279.84 948.356ZM1270.07 943.945L1265.64 937.672C1265.21 937.058 1264.7 936.256 1264.1 935.267L1264.08 936.3C1264.07 936.901 1264.03 937.518 1263.98 938.151L1263.3 945.76L1270.07 943.945ZM1314.35 922.233C1314.94 923.026 1315.37 923.938 1315.65 924.969C1315.94 926.062 1316.02 927.112 1315.9 928.119C1315.77 929.126 1315.44 930.043 1314.91 930.87C1314.4 931.671 1313.62 932.419 1312.59 933.115C1311.66 933.742 1310.44 934.257 1308.93 934.661L1306.18 935.398L1307.47 940.224L1308.44 940.13C1308.55 940.123 1308.64 940.121 1308.7 940.125C1308.79 940.124 1308.87 940.115 1308.93 940.098L1309.12 940.08C1309.67 940.065 1310.01 940.316 1310.15 940.831L1310.64 942.656L1301.79 945.027L1301.31 943.202C1301.17 942.686 1301.34 942.298 1301.82 942.036L1302 941.955L1302.44 941.738L1303.32 941.335L1298.97 925.094L1298 925.188C1297.89 925.195 1297.8 925.2 1297.71 925.201C1297.64 925.197 1297.58 925.203 1297.51 925.22L1297.32 925.239C1296.77 925.253 1296.43 925.003 1296.29 924.487L1295.8 922.662L1305.05 920.184C1306.54 919.786 1307.88 919.613 1309.09 919.665C1310.21 919.719 1311.24 919.973 1312.18 920.429C1313.05 920.86 1313.77 921.461 1314.35 922.233ZM1311.66 927.895C1311.71 927.35 1311.65 926.748 1311.47 926.088C1311.32 925.511 1311.08 924.999 1310.76 924.554C1310.45 924.13 1310.06 923.792 1309.6 923.541C1309.16 923.305 1308.63 923.171 1308 923.14C1307.39 923.104 1306.7 923.191 1305.91 923.401L1303.16 924.138L1305.31 932.15L1308.06 931.413C1308.84 931.203 1309.49 930.93 1310 930.595C1310.52 930.234 1310.91 929.842 1311.17 929.418C1311.45 928.989 1311.62 928.481 1311.66 927.895ZM1338.23 922.863C1341.49 922.72 1343.47 923.969 1344.18 926.608C1344.43 927.557 1344.48 928.483 1344.33 929.387C1344.18 930.311 1343.84 931.153 1343.31 931.913C1342.82 932.641 1342.1 933.321 1341.14 933.954C1340.24 934.549 1339.13 935.023 1337.81 935.377L1327.01 938.27L1326.52 936.445C1326.39 935.929 1326.56 935.54 1327.04 935.279L1327.22 935.198C1327.28 935.181 1327.34 935.154 1327.39 935.117C1327.47 935.074 1327.56 935.029 1327.66 934.981L1328.54 934.577L1324.19 918.337L1323.22 918.431C1323.11 918.438 1323.01 918.442 1322.93 918.444C1322.86 918.44 1322.79 918.446 1322.73 918.463L1322.54 918.481C1321.99 918.496 1321.65 918.245 1321.51 917.73L1321.02 915.905L1331.07 913.211C1332.56 912.813 1333.84 912.613 1334.92 912.61C1336.07 912.611 1337.04 912.784 1337.81 913.128C1338.61 913.467 1339.27 913.966 1339.77 914.626C1340.28 915.285 1340.66 916.059 1340.89 916.945C1341.04 917.502 1341.11 918.027 1341.08 918.519C1341.06 919.011 1340.93 919.531 1340.71 920.079C1340.5 920.533 1340.18 921.015 1339.77 921.524C1339.4 921.955 1338.88 922.401 1338.23 922.863ZM1333.45 922.951C1334.87 922.57 1335.88 922.025 1336.46 921.316C1337.04 920.607 1337.18 919.685 1336.88 918.551C1336.57 917.396 1336.02 916.66 1335.23 916.341C1334.46 916.018 1333.36 916.047 1331.94 916.428L1328.38 917.381L1330.11 923.846L1333.45 922.951ZM1340.18 929.006C1340.22 928.596 1340.18 928.133 1340.04 927.618C1339.92 927.185 1339.72 926.774 1339.44 926.385C1339.17 926.017 1338.84 925.75 1338.47 925.586C1338.09 925.421 1337.61 925.328 1337.03 925.307C1336.5 925.295 1335.85 925.391 1335.09 925.596L1330.88 926.723L1332.64 933.281L1336.88 932.146C1337.66 931.936 1338.28 931.669 1338.75 931.345C1339.22 931.021 1339.56 930.663 1339.79 930.271C1340.03 929.853 1340.16 929.431 1340.18 929.006ZM1369.96 909.919C1370.88 911.131 1371.56 912.562 1372.01 914.212C1372.45 915.861 1372.57 917.441 1372.38 918.952C1372.19 920.529 1371.74 921.92 1371.05 923.122C1370.35 924.325 1369.36 925.409 1368.07 926.373C1366.84 927.3 1365.38 927.99 1363.69 928.443L1353.14 931.27L1352.65 929.445C1352.51 928.929 1352.68 928.54 1353.16 928.278L1353.34 928.198C1353.4 928.181 1353.46 928.154 1353.52 928.117C1353.6 928.074 1353.68 928.029 1353.78 927.981L1354.67 927.577L1350.32 911.337L1349.35 911.431C1349.24 911.438 1349.14 911.442 1349.05 911.444C1348.98 911.44 1348.92 911.446 1348.86 911.463L1348.66 911.481C1348.11 911.496 1347.77 911.245 1347.63 910.73L1347.14 908.905L1357.69 906.078C1359.38 905.625 1360.99 905.492 1362.53 905.678C1364.12 905.869 1365.52 906.312 1366.73 907.006C1367.93 907.7 1369.01 908.671 1369.96 909.919ZM1368.13 918.798C1368.2 917.74 1368.07 916.593 1367.74 915.355C1367.41 914.139 1366.95 913.09 1366.36 912.209C1365.72 911.277 1365.03 910.577 1364.31 910.107C1363.54 909.628 1362.66 909.312 1361.67 909.157C1360.7 909.018 1359.67 909.095 1358.58 909.388L1354.56 910.466L1358.78 926.211L1362.8 925.133C1363.89 924.841 1364.82 924.392 1365.59 923.789C1366.37 923.16 1366.97 922.445 1367.4 921.646C1367.81 920.852 1368.05 919.902 1368.13 918.798Z" fill="#E8E8E8"/>
<path d="M860.054 983.675L876.354 956.071L882.163 977.751L860.054 983.675ZM948.49 959.978L939.776 927.459L923.476 955.062L926.381 965.902L904.272 971.826L892.654 928.467L908.954 900.863L914.763 922.543L917.668 933.383L933.967 905.779L925.253 873.26L941.554 845.656L947.363 867.336L958.981 910.695L970.599 954.054L948.49 959.978ZM1013.69 849.564L1002.07 806.204L996.262 784.524L979.963 812.128L991.581 855.488L1009.01 920.526L1031.12 914.602L1013.69 849.564ZM1036.93 936.282L1014.82 942.206L992.708 948.13L969.471 861.412L957.853 818.052L974.153 790.448L990.453 762.845L1006.75 735.241L1012.56 756.921L1024.18 800.28L1035.8 843.639L1059.03 930.358L1036.93 936.282Z" fill="#E8E8E8"/>
</g>
</g>
</g>
<defs>
<filter id="filter0_d_245_431" x="228.633" y="406.622" width="1622.73" height="1226.75" filterUnits="userSpaceOnUse" color-interpolation-filters="sRGB">
<feFlood flood-opacity="0" result="BackgroundImageFix"/>
<feColorMatrix in="SourceAlpha" type="matrix" values="0 0 0 0 0 0 0 0 0 0 0 0 0 0 0 0 0 0 127 0" result="hardAlpha"/>
<feOffset dx="80" dy="60"/>
<feGaussianBlur stdDeviation="50"/>
<feComposite in2="hardAlpha" operator="out"/>
<feColorMatrix type="matrix" values="0 0 0 0 0 0 0 0 0 0 0 0 0 0 0 0 0 0 0.5 0"/>
<feBlend mode="normal" in2="BackgroundImageFix" result="effect1_dropShadow_245_431"/>
<feBlend mode="normal" in="SourceGraphic" in2="effect1_dropShadow_245_431" result="shape"/>
</filter>
<radialGradient id="paint0_radial_245_431" cx="0" cy="0" r="1" gradientUnits="userSpaceOnUse" gradientTransform="translate(259.8 797.696) rotate(13.5512) scale(1440.89 1352.7)">
<stop offset="0.0133545" stop-color="white"/>
<stop offset="0.277719" stop-color="#C1DEFF"/>
<stop offset="0.444172" stop-color="#98C7FF"/>
<stop offset="0.802083"/>
</radialGradient>
<radialGradient id="paint1_radial_245_431" cx="0" cy="0" r="1" gradientUnits="userSpaceOnUse" gradientTransform="translate(430.895 874.703) rotate(90) scale(579.333 591.667)">
<stop stop-color="white" stop-opacity="0.5"/>
<stop offset="1" stop-color="#D9D9D9" stop-opacity="0"/>
</radialGradient>
<clipPath id="clip0_245_431">
<rect width="1920" height="1920" fill="white"/>
</clipPath>
<clipPath id="clip1_245_431">
<rect x="248.633" y="777.911" width="1280" height="720" rx="50" transform="rotate(-15 248.633 777.911)" fill="white"/>
</clipPath>
</defs>
</svg>
