<svg width="1920" height="1080" viewBox="0 0 1920 1080" fill="none" xmlns="http://www.w3.org/2000/svg">
<rect width="1920" height="1080" fill="#E5E5E5"/>
<g clip-path="url(#clip0_122_143)">
<rect width="1920" height="1080" rx="50" fill="#171717"/>
<path d="M-131.885 133.07L48.0246 66.0238L178.192 70.8095L251.538 105.333M251.538 105.333L334.339 125.632L373.549 252.388L311.237 332.796L190.484 358.607M251.538 105.333L161.236 83.1951L-16.7805 110.467L-131.958 165.822M190.484 358.607L272.538 289.545L257.869 238.253L176.172 203.899L9.69128 242.05L-132.499 409.148M190.484 358.607L303.453 291.529L303.635 209.692L201.728 165.186L-2.60277 187.132L-132.232 289.32M-21.3569 522.516L252.998 484.25L469.054 514.146M469.054 514.146L831.052 660.877L1033.48 665.904L1210.91 543.564L1258.15 426.915L1238.06 250.854M469.054 514.146L786.763 583.907L944.148 571.307L1058.46 485.446L1069.63 376.558L1009.07 310.569L1095.47 336.589L1146.44 403.222L1170.9 490.696L1157.9 578.289M1238.06 250.854L1095.58 129.754L1310.19 208.764L1408.07 344.406L1418.21 558.881L1285.51 692.705L1101.5 778.852M1238.06 250.854L1326.46 411.294L1307.66 585.632L1052.68 728.959L630.664 713.723L239.168 651.261L-22.4448 768.252M1101.5 778.852L607.387 781.036L266.866 822.06L72.4512 1022.22L97.8167 1210.94M1101.5 778.852L1305.56 586.944M996.365 530.052L1038.54 402.794L1020.35 359.552L963.829 358.374L1035.7 341.748M285.982 1211.36L297.47 1013.45L473.169 872.663M473.169 872.663L699.666 865.963L859.738 921.058M473.169 872.663L369.925 1090.76L445.414 1211.71M859.738 921.058L1054.18 1005.58L1257.84 986.322L1353.17 889.492L1335.15 763.661L1262.5 705M859.738 921.058L1076.93 954.887L1202.11 907.611L1227.45 812.56L1198 744.5L1184.84 808.589L1121.34 850.615L987.439 828.816L892.561 779.783M572.025 1211.99L444.637 1095.3L411.141 1003.69M2201.96 988.04L1834.17 724.016L1668.88 355.986L1715.14 114.568L1756.65 60.0601M2204.31 826.715L1845.38 578.329L1698.84 199.631L1783.9 -5.72124L1992.22 -35.3644L2108.65 70.3855L2148.9 224.453L2009 93.5795L1875.85 116.196L1822.92 282.173M1822.92 282.173L1934.29 458.994L2204.83 593.569M1822.92 282.173L1796.46 107.486L1936.33 -5.07471L2062.03 28.0446M1804.06 -8.59039L1929.15 -89.0833L2042.31 -45.0322L2084.95 48.8576M2204.92 552.978L2074.42 527.778L1974.68 413.789L1957.23 302.446L2011.12 222.709L2103.62 250.361L2021.96 182.958L1882.38 188.538L1842.16 312.721M1904.72 412.059L1880.31 319.343L1909.16 224.164L1994.68 184.048" stroke="url(#paint0_radial_122_143)" stroke-opacity="0.5" stroke-width="10" stroke-miterlimit="10" stroke-linecap="square"/>
<ellipse opacity="0.2" cx="226.5" cy="211" rx="887.5" ry="869" fill="url(#paint1_radial_122_143)"/>
<text fill="#E8E8E8" xml:space="preserve" style="white-space: pre" font-family="Inter" font-size="48" letter-spacing="0em"><tspan x="64" y="1008.45">High Output Ventures</tspan></text>
<text fill="#E8E8E8" xml:space="preserve" style="white-space: pre" font-family="Inter" font-size="48" letter-spacing="0em"><tspan x="1491.64" y="1008.45">Platinum Edition</tspan></text>
<text fill="#E8E8E8" xml:space="preserve" style="white-space: pre" font-family="Aleo" font-size="48" font-weight="bold" letter-spacing="0.2em"><tspan x="346.02" y="657.64">ALEXANDER LUIE JHAMES SARITA PBD</tspan></text>
<path d="M805 542L839.333 508.333V542H805ZM942.333 542V491.5L908 525.166V542H873.667V474.667L908 441V474.667V491.5L942.333 457.833V407.334L976.667 373.666V407.334V474.667V542H942.333ZM1079.67 407.334V340V306.333L1045.33 340V407.334V508.333H1079.67V407.334ZM1079.67 542H1045.33H1011V407.334V340L1045.33 306.333L1079.67 272.667L1114 239V272.667V340V407.334V542H1079.67Z" fill="#E8E8E8"/>
</g>
<defs>
<radialGradient id="paint0_radial_122_143" cx="0" cy="0" r="1" gradientUnits="userSpaceOnUse" gradientTransform="translate(8.49986 33.0021) rotate(28.5512) scale(2161.34 2029.05)">
<stop offset="0.0133545" stop-color="white"/>
<stop offset="0.307292" stop-color="#D5EDFF"/>
<stop offset="0.452994" stop-color="#B3DEFF"/>
<stop offset="0.81085"/>
</radialGradient>
<radialGradient id="paint1_radial_122_143" cx="0" cy="0" r="1" gradientUnits="userSpaceOnUse" gradientTransform="translate(226.5 211) rotate(90) scale(869 887.5)">
<stop stop-color="white" stop-opacity="0.5"/>
<stop offset="1" stop-color="#D9D9D9" stop-opacity="0"/>
</radialGradient>
<clipPath id="clip0_122_143">
<rect width="1920" height="1080" rx="50" fill="white"/>
</clipPath>
</defs>
</svg>
