<svg width="1920" height="1080" viewBox="0 0 1920 1080" fill="none" xmlns="http://www.w3.org/2000/svg">
<rect width="1920" height="1080" fill="#E5E5E5"/>
<g clip-path="url(#clip0_122_143)">
<rect width="1920" height="1080" rx="50" fill="#171717"/>
<path d="M959.998 -426L405.75 -105.996V1173.99M959.998 -426L1514.25 -105.996V1173.99M959.998 -426V-105.996M1514.25 1173.99L959.998 1494M1514.25 1173.99L1237.13 1014M959.998 1494L405.75 1173.99M959.998 1494V1173.99M405.75 1173.99L682.862 1014M405.75 -105.997L682.862 53.9946L959.998 -105.997L1237.13 53.9946L1514.25 -105.997M682.862 1014L959.998 1173.99L1237.13 1014M682.862 1014L682.862 53.9973M1237.13 1014L1237.14 53.9973M1599.99 -20.2492L1920 533.999L1599.99 1088.25M1599.99 -20.2492H320.004M1599.99 -20.2492L1440 256.862L1599.99 533.999L1440 811.135M1599.99 1088.25H320.004M1599.99 1088.25L1440 811.135M320.004 1088.25L0 533.999L320.004 -20.2492M320.004 1088.25L479.996 811.135M320.004 -20.2492L479.996 256.862L320.005 533.999L479.996 811.135M1440 811.135H479.996M1440 256.864H479.996M1920 534H1599.99M320.004 534H0M1804.37 595.954L1637.74 1213.9L1019.29 1378.55M1804.37 595.954L900.707 -310.558M1804.37 595.954L1495.14 678.293L1411.83 987.264L1102.6 1069.6L1019.29 1378.55M1019.29 1378.55L115.628 472.048M115.628 472.048L282.246 -145.889M115.628 472.048L424.855 389.709L508.168 80.7374M282.246 -145.889L900.707 -310.558M282.246 -145.889L508.168 80.7374M900.707 -310.558L817.395 -1.60199L508.168 80.7374M1495.14 678.292L817.395 -1.60333M1102.6 1069.61L424.856 389.71M1637.74 1213.89L1411.83 987.263M115.628 595.954L282.246 1213.9L900.707 1378.55M115.628 595.954L1019.29 -310.558M115.628 595.954L424.855 678.293L508.167 987.264L817.394 1069.6L900.707 1378.55M900.707 1378.55L1804.37 472.048M1804.37 472.048L1637.74 -145.889M1804.37 472.048L1495.14 389.709L1411.83 80.7374M1637.74 -145.889L1019.29 -310.558M1637.74 -145.889L1411.83 80.7374M1019.29 -310.558L1102.6 -1.60199L1411.83 80.7374M424.856 678.292L1102.6 -1.60333M817.395 1069.61L1495.14 389.71M282.246 1213.89L508.168 987.263" stroke="url(#paint0_radial_122_143)" stroke-opacity="0.5" stroke-width="10" stroke-miterlimit="10" stroke-linecap="round" stroke-linejoin="round"/>
<ellipse opacity="0.2" cx="226.5" cy="211" rx="887.5" ry="869" fill="url(#paint1_radial_122_143)"/>
<text fill="#E8E8E8" xml:space="preserve" style="white-space: pre" font-family="Inter" font-size="48" letter-spacing="0em"><tspan x="64" y="1008.45">High Output Ventures</tspan></text>
<text fill="#E8E8E8" xml:space="preserve" style="white-space: pre" font-family="Inter" font-size="48" letter-spacing="0em"><tspan x="1581.55" y="1008.45">Gold Edition</tspan></text>
<text fill="#E8E8E8" xml:space="preserve" style="white-space: pre" font-family="Aleo" font-size="48" font-weight="bold" letter-spacing="0.2em"><tspan x="814.63" y="657.64">BOTMIND</tspan></text>
<path d="M805 542L839.333 508.333V542H805ZM942.333 542V491.5L908 525.166V542H873.667V474.667L908 441V474.667V491.5L942.333 457.833V407.334L976.667 373.666V407.334V474.667V542H942.333ZM1079.67 407.334V340V306.333L1045.33 340V407.334V508.333H1079.67V407.334ZM1079.67 542H1045.33H1011V407.334V340L1045.33 306.333L1079.67 272.667L1114 239V272.667V340V407.334V542H1079.67Z" fill="#E8E8E8"/>
</g>
<defs>
<radialGradient id="paint0_radial_122_143" cx="0" cy="0" r="1" gradientUnits="userSpaceOnUse" gradientTransform="translate(-51 -4.00003) rotate(28.7391) scale(2310.63)">
<stop offset="0.168894" stop-color="#FFC045"/>
<stop offset="0.336213" stop-color="#F1A026"/>
<stop offset="0.501662" stop-color="#F99909"/>
<stop offset="0.822917"/>
</radialGradient>
<radialGradient id="paint1_radial_122_143" cx="0" cy="0" r="1" gradientUnits="userSpaceOnUse" gradientTransform="translate(226.5 211) rotate(90) scale(869 887.5)">
<stop stop-color="white" stop-opacity="0.5"/>
<stop offset="1" stop-color="#D9D9D9" stop-opacity="0"/>
</radialGradient>
<clipPath id="clip0_122_143">
<rect width="1920" height="1080" rx="50" fill="white"/>
</clipPath>
</defs>
</svg>
