<svg width="1920" height="1080" viewBox="0 0 1920 1080" fill="none" xmlns="http://www.w3.org/2000/svg">
<rect width="1920" height="1080" fill="#E5E5E5"/>
<g clip-path="url(#clip0_122_143)">
<rect width="1920" height="1080" rx="50" fill="#171717"/>
<path d="M1663.08 537.356L1666.62 540.891L1670.15 537.356L1666.62 533.822L1663.08 537.356ZM1594.47 468.709L1598.01 465.175L1596.54 463.709H1594.47V468.709ZM1525.87 468.709V463.709H1523.79L1522.33 465.175L1525.87 468.709ZM1525.87 606.003L1522.33 609.537L1523.79 611.003H1525.87V606.003ZM1594.47 606.003V611.003H1596.54L1598.01 609.537L1594.47 606.003ZM255.913 541.64L252.377 538.105L248.844 541.64L252.377 545.174L255.913 541.64ZM324.52 472.993V467.993H322.448L320.984 469.459L324.52 472.993ZM393.127 472.993L396.664 469.459L395.199 467.993H393.127V472.993ZM393.127 610.287V615.287H395.199L396.664 613.821L393.127 610.287ZM324.52 610.287L320.984 613.821L322.448 615.287H324.52V610.287ZM594.419 -62.3089L595.593 -67.1692L590.732 -68.3432L589.559 -63.4813L594.419 -62.3089ZM688.735 -39.5333L693.002 -42.1393L691.922 -43.9073L689.909 -44.3936L688.735 -39.5333ZM724.507 19.0403L729.367 20.212L729.852 18.2003L728.774 16.4342L724.507 19.0403ZM607.434 90.6361L603.167 93.2424L604.247 95.0102L606.261 95.4964L607.434 90.6361ZM571.657 32.0626L566.796 30.8901L566.311 32.9024L567.39 34.6689L571.657 32.0626ZM1324.59 1141.31L1323.41 1146.17L1328.27 1147.34L1329.45 1142.48L1324.59 1141.31ZM1347.35 1046.93L1352.21 1048.11L1352.7 1046.09L1351.62 1044.33L1347.35 1046.93ZM1311.56 988.365L1315.83 985.758L1314.75 983.991L1312.74 983.505L1311.56 988.365ZM1194.49 1059.95L1189.63 1058.78L1189.15 1060.79L1190.23 1062.56L1194.49 1059.95ZM1230.26 1118.53L1226 1121.14L1227.08 1122.91L1229.09 1123.39L1230.26 1118.53ZM712.199 292.342V287.342C709.437 287.342 707.199 289.581 707.199 292.342H712.199ZM1206.22 292.342H1211.22C1211.22 289.581 1208.99 287.342 1206.22 287.342V292.342ZM1206.22 786.654V791.654C1208.99 791.654 1211.22 789.415 1211.22 786.654H1206.22ZM712.199 786.654H707.199C707.199 789.415 709.437 791.654 712.199 791.654V786.654ZM631.613 211.421V206.421C628.851 206.421 626.613 208.66 626.613 211.421H631.613ZM1287.39 211.421H1292.39C1292.39 208.66 1290.15 206.421 1287.39 206.421V211.421ZM1287.39 867.574V872.574C1290.15 872.574 1292.39 870.336 1292.39 867.574H1287.39ZM631.613 867.574H626.613C626.613 870.336 628.851 872.574 631.613 872.574V867.574ZM964.5 -285.632V-290.632H954.5V-285.632H964.5ZM959.5 -493L963.036 -496.535L959.5 -500.073L955.963 -496.535L959.5 -493ZM890.893 -424.353L887.356 -427.888L885.893 -426.423V-424.353H890.893ZM890.893 -355.706H885.893V-353.636L887.356 -352.172L890.893 -355.706ZM959.5 -287.06L955.963 -283.525L959.5 -279.987L963.036 -283.525L959.5 -287.06ZM1028.11 -355.706L1031.64 -352.172L1033.11 -353.636V-355.706H1028.11ZM1028.11 -424.353H1033.11V-426.423L1031.64 -427.888L1028.11 -424.353ZM959.87 -217.243L963.42 -220.764L959.897 -224.316L956.347 -220.791L959.87 -217.243ZM860.555 -118.614L857.031 -122.162L853.486 -118.641L857.005 -115.093L860.555 -118.614ZM959.129 -19.2372L955.58 -15.716L959.103 -12.1641L962.653 -15.6894L959.129 -19.2372ZM1058.45 -117.866L1061.97 -114.318L1065.51 -117.84L1061.99 -121.387L1058.45 -117.866ZM976.295 -130.43L980.479 -133.167L980.479 -133.168L976.295 -130.43ZM941.456 -107.605L945.64 -110.342L945.64 -110.343L941.456 -107.605ZM954.5 1364.63V1369.63H964.5V1364.63H954.5ZM959.5 1572L955.963 1575.53L959.5 1579.07L963.036 1575.53L959.5 1572ZM1028.11 1503.35L1031.64 1506.89L1033.11 1505.42V1503.35H1028.11ZM1028.11 1434.71H1033.11V1432.64L1031.64 1431.17L1028.11 1434.71ZM959.5 1366.06L963.036 1362.53L959.5 1358.99L955.963 1362.53L959.5 1366.06ZM890.893 1434.71L887.356 1431.17L885.893 1432.64V1434.71H890.893ZM890.893 1503.35H885.893V1505.42L887.356 1506.89L890.893 1503.35ZM959.129 1296.23L955.58 1299.75L959.103 1303.31L962.652 1299.78L959.129 1296.23ZM1058.45 1197.61L1061.97 1201.16L1065.51 1197.64L1061.99 1194.09L1058.45 1197.61ZM959.87 1098.23L963.42 1094.71L959.897 1091.15L956.347 1094.68L959.87 1098.23ZM860.555 1196.86L857.031 1193.31L853.486 1196.83L857.005 1200.38L860.555 1196.86ZM1676.17 131.263L1680.5 128.762L1675.5 120.103L1671.17 122.604L1676.17 131.263ZM1853.15 23.2497L1857.98 24.543L1859.27 19.7147L1854.44 18.4203L1853.15 23.2497ZM1759.43 -1.87634L1760.73 -6.70578L1758.72 -7.2424L1756.93 -6.20581L1759.43 -1.87634ZM1700.02 32.4471L1697.52 28.1176L1695.72 29.1534L1695.19 31.1537L1700.02 32.4471ZM1674.91 126.22L1670.08 124.927L1668.78 129.755L1673.61 131.049L1674.91 126.22ZM1768.63 151.346L1767.33 156.175L1769.33 156.712L1771.13 155.675L1768.63 151.346ZM1828.04 117.023L1830.54 121.352L1832.33 120.316L1832.87 118.316L1828.04 117.023ZM1614.67 161.452L1619.5 162.764L1620.81 157.94L1615.98 156.628L1614.67 161.452ZM1479.64 124.703L1480.95 119.878L1476.13 118.565L1474.81 123.391L1479.64 124.703ZM1442.91 259.804L1438.08 258.492L1436.77 263.315L1441.59 264.628L1442.91 259.804ZM1577.94 296.557L1576.63 301.382L1581.45 302.695L1582.76 297.869L1577.94 296.557ZM1538.53 191.103L1540.79 186.641L1540.78 186.64L1538.53 191.103ZM1547.74 219.082L1552.2 221.337L1552.2 221.332L1547.74 219.082ZM1519.77 228.295L1522.03 223.833L1522.02 223.83L1519.77 228.295ZM1510.57 200.314L1515.03 202.568L1515.03 202.564L1510.57 200.314ZM242.827 947.735L238.498 950.237L243.5 958.896L247.829 956.394L242.827 947.735ZM65.8466 1055.75L61.0168 1054.46L59.7238 1059.28L64.5519 1060.58L65.8466 1055.75ZM159.565 1080.87L158.271 1085.7L160.272 1086.24L162.066 1085.2L159.565 1080.87ZM218.98 1046.55L221.482 1050.88L223.275 1049.84L223.81 1047.84L218.98 1046.55ZM244.093 952.779L248.923 954.073L250.216 949.244L245.388 947.95L244.093 952.779ZM150.373 927.654L151.668 922.825L149.667 922.288L147.872 923.325L150.373 927.654ZM90.9582 961.978L88.4571 957.648L86.6641 958.684L86.1284 960.684L90.9582 961.978ZM304.335 917.549L299.51 916.238L298.199 921.062L303.022 922.374L304.335 917.549ZM439.359 954.289L438.046 959.114L442.872 960.427L444.184 955.601L439.359 954.289ZM476.087 819.192L480.912 820.504L482.223 815.681L477.4 814.368L476.087 819.192ZM341.061 782.439L342.375 777.614L337.549 776.301L336.237 781.127L341.061 782.439ZM380.469 887.894L378.213 892.356L378.218 892.359L380.469 887.894ZM399.231 850.701L396.975 855.163L396.98 855.166L399.231 850.701ZM1671.17 956.394L1675.5 958.896L1680.5 950.236L1676.17 947.735L1671.17 956.394ZM1853.15 1055.75L1854.44 1060.58L1859.27 1059.28L1857.98 1054.46L1853.15 1055.75ZM1759.43 1080.87L1756.93 1085.2L1758.72 1086.24L1760.73 1085.7L1759.43 1080.87ZM1700.02 1046.55L1695.19 1047.84L1695.72 1049.84L1697.52 1050.88L1700.02 1046.55ZM1674.91 952.779L1673.61 947.95L1668.78 949.244L1670.08 954.072L1674.91 952.779ZM1768.63 927.654L1771.13 923.325L1769.33 922.288L1767.33 922.825L1768.63 927.654ZM1828.04 961.978L1832.87 960.684L1832.33 958.684L1830.54 957.648L1828.04 961.978ZM1614.67 917.549L1615.98 922.374L1620.81 921.062L1619.5 916.238L1614.67 917.549ZM1479.64 954.289L1474.81 955.601L1476.13 960.427L1480.95 959.114L1479.64 954.289ZM1442.91 819.192L1441.59 814.368L1436.77 815.681L1438.08 820.504L1442.91 819.192ZM1577.94 782.439L1582.76 781.127L1581.45 776.301L1576.63 777.614L1577.94 782.439ZM1538.53 887.894L1540.78 892.358L1540.79 892.356L1538.53 887.894ZM1547.74 859.914L1552.2 857.664L1552.2 857.659L1547.74 859.914ZM1519.77 850.701L1522.02 855.166L1522.03 855.163L1519.77 850.701ZM1510.57 878.682L1515.03 876.432L1515.03 876.428L1510.57 878.682ZM247.829 122.604L243.5 120.103L238.498 128.762L242.827 131.263L247.829 122.604ZM65.8466 23.2497L64.5518 18.4203L59.7238 19.7147L61.0168 24.5431L65.8466 23.2497ZM159.565 -1.87634L162.066 -6.20584L160.272 -7.2424L158.271 -6.70578L159.565 -1.87634ZM218.98 32.4471L223.81 31.1536L223.275 29.1534L221.482 28.1176L218.98 32.4471ZM244.093 126.22L245.388 131.049L250.216 129.755L248.923 124.926L244.093 126.22ZM150.373 151.346L147.872 155.675L149.667 156.712L151.668 156.175L150.373 151.346ZM90.9582 117.023L86.1284 118.316L86.6641 120.316L88.4572 121.352L90.9582 117.023ZM304.335 161.452L303.022 156.628L298.199 157.94L299.51 162.764L304.335 161.452ZM439.359 124.703L444.184 123.391L442.872 118.565L438.046 119.878L439.359 124.703ZM476.087 259.804L477.4 264.628L482.223 263.315L480.912 258.492L476.087 259.804ZM341.061 296.557L336.237 297.869L337.549 302.695L342.375 301.382L341.061 296.557ZM380.469 191.103L378.215 186.64L378.214 186.641L380.469 191.103ZM399.231 228.295L396.98 223.83L396.975 223.833L399.231 228.295ZM408.436 200.314L403.972 202.566L403.972 202.567L408.436 200.314ZM-1 264.911V259.911H-6V264.911H-1ZM67.6071 264.911L71.1437 261.377L69.679 259.911H67.6071V264.911ZM136.214 333.558H141.214V331.488L139.751 330.023L136.214 333.558ZM136.214 745.438L139.751 748.973L141.214 747.509V745.438H136.214ZM67.6071 814.085V819.085H69.679L71.1437 817.62L67.6071 814.085ZM-1 814.085H-6V819.085H-1V814.085ZM1920 264.911H1925V259.911H1920V264.911ZM1851.39 264.911V259.911H1849.32L1847.86 261.377L1851.39 264.911ZM1782.79 333.558L1779.25 330.023L1777.79 331.488V333.558H1782.79ZM1782.79 745.438H1777.79V747.509L1779.25 748.973L1782.79 745.438ZM1851.39 814.085L1847.86 817.62L1849.32 819.085H1851.39V814.085ZM1920 814.085V819.085H1925V814.085H1920ZM1324.59 -62.3089L1329.45 -63.4814L1328.27 -68.3431L1323.41 -67.1692L1324.59 -62.3089ZM1230.26 -39.5333L1229.09 -44.3936L1227.08 -43.9073L1226 -42.1393L1230.26 -39.5333ZM1194.49 19.0403L1190.23 16.4342L1189.15 18.2003L1189.63 20.212L1194.49 19.0403ZM1311.56 90.6361L1312.74 95.4964L1314.75 95.0103L1315.83 93.2429L1311.56 90.6361ZM1347.35 32.0626L1351.62 34.6693L1352.7 32.9026L1352.21 30.8901L1347.35 32.0626ZM594.419 1141.31L589.559 1142.48L590.732 1147.34L595.593 1146.17L594.419 1141.31ZM571.657 1046.93L567.39 1044.33L566.311 1046.09L566.796 1048.11L571.657 1046.93ZM607.434 988.365L606.261 983.505L604.247 983.991L603.167 985.759L607.434 988.365ZM724.507 1059.95L728.774 1062.56L729.852 1060.79L729.367 1058.78L724.507 1059.95ZM688.735 1118.53L689.909 1123.39L691.923 1122.91L693.002 1121.14L688.735 1118.53ZM246.953 1195.61L242.487 1193.36L240.24 1197.83L244.702 1200.07L246.953 1195.61ZM277.825 1134.29L276.258 1129.55L274.291 1130.2L273.359 1132.05L277.825 1134.29ZM369.966 1103.88L372.217 1099.42L370.366 1098.49L368.399 1099.14L369.966 1103.88ZM737.583 1289.23L742.332 1287.66L741.683 1285.7L739.834 1284.77L737.583 1289.23ZM767.976 1381.42L772.442 1383.67L773.373 1381.82L772.725 1379.86L767.976 1381.42ZM737.103 1442.72L734.852 1447.19L739.319 1449.44L741.569 1444.97L737.103 1442.72ZM1672.53 1195.61L1674.78 1200.07L1679.25 1197.83L1677 1193.36L1672.53 1195.61ZM1641.67 1134.29L1646.14 1132.05L1645.21 1130.2L1643.24 1129.55L1641.67 1134.29ZM1549.52 1103.88L1551.09 1099.14L1549.12 1098.49L1547.27 1099.42L1549.52 1103.88ZM1181.91 1289.23L1179.66 1284.77L1177.81 1285.7L1177.16 1287.67L1181.91 1289.23ZM1151.52 1381.42L1146.77 1379.86L1146.12 1381.82L1147.05 1383.67L1151.52 1381.42ZM1182.39 1442.72L1177.93 1444.97L1180.18 1449.44L1184.64 1447.19L1182.39 1442.72ZM246.706 -167.3L244.455 -171.765L239.993 -169.515L242.24 -165.051L246.706 -167.3ZM277.578 -105.997L273.112 -103.748L274.044 -101.898L276.011 -101.249L277.578 -105.997ZM369.719 -75.5825L368.151 -70.8345L370.119 -70.1849L371.97 -71.1179L369.719 -75.5825ZM737.336 -260.925L739.587 -256.46L741.436 -257.392L742.085 -259.359L737.336 -260.925ZM767.729 -353.118L772.478 -351.553L773.126 -353.519L772.195 -355.367L767.729 -353.118ZM736.856 -414.423L741.322 -416.672L739.072 -421.139L734.605 -418.887L736.856 -414.423ZM1672.3 -167.3L1676.77 -165.051L1679.01 -169.515L1674.55 -171.765L1672.3 -167.3ZM1641.43 -105.997L1642.99 -101.249L1644.96 -101.898L1645.89 -103.748L1641.43 -105.997ZM1549.27 -75.5825L1547.02 -71.1179L1548.87 -70.185L1550.84 -70.8344L1549.27 -75.5825ZM1181.66 -260.925L1176.91 -259.359L1177.56 -257.392L1179.41 -256.46L1181.66 -260.925ZM1151.27 -353.118L1146.8 -355.367L1145.87 -353.519L1146.52 -351.553L1151.27 -353.118ZM1182.14 -414.423L1184.39 -418.887L1179.93 -421.139L1177.68 -416.672L1182.14 -414.423ZM1457.24 532.356L461.713 536.64L461.756 546.64L1457.28 542.356L1457.24 532.356ZM1666.62 533.822L1598.01 465.175L1590.94 472.244L1659.54 540.891L1666.62 533.822ZM1594.47 463.709H1525.87V473.709H1594.47V463.709ZM1522.33 465.175L1453.72 533.822L1460.8 540.891L1529.4 472.244L1522.33 465.175ZM1453.72 540.891L1522.33 609.537L1529.4 602.469L1460.8 533.822L1453.72 540.891ZM1525.87 611.003H1594.47V601.003H1525.87V611.003ZM1598.01 609.537L1666.62 540.891L1659.54 533.822L1590.94 602.469L1598.01 609.537ZM1590.94 465.175L1522.33 533.822L1529.4 540.891L1598.01 472.244L1590.94 465.175ZM1522.33 540.891L1590.94 609.537L1598.01 602.469L1529.4 533.822L1522.33 540.891ZM1525.87 532.356H1457.26V542.356H1525.87V532.356ZM259.45 545.174L328.057 476.528L320.984 469.459L252.377 538.105L259.45 545.174ZM324.52 477.993H393.127V467.993H324.52V477.993ZM389.591 476.528L458.198 545.174L465.271 538.105L396.664 469.459L389.591 476.528ZM458.198 538.105L389.591 606.752L396.664 613.821L465.271 545.174L458.198 538.105ZM393.127 605.287H324.52V615.287H393.127V605.287ZM328.057 606.752L259.45 538.105L252.377 545.174L320.984 613.821L328.057 606.752ZM320.984 476.528L389.591 545.174L396.664 538.105L328.057 469.459L320.984 476.528ZM389.591 538.105L320.984 606.752L328.057 613.821L396.664 545.174L389.591 538.105ZM393.127 546.64H461.735V536.64H393.127V546.64ZM697.479 116L1212.97 968.176L1221.52 963L706.035 110.824L697.479 116ZM593.246 -57.4486L687.561 -34.673L689.909 -44.3936L595.593 -67.1692L593.246 -57.4486ZM684.468 -36.9273L720.24 21.6463L728.774 16.4342L693.002 -42.1393L684.468 -36.9273ZM719.646 17.8685L696.896 112.24L706.617 114.583L729.367 20.212L719.646 17.8685ZM702.93 108.551L608.608 85.7758L606.261 95.4964L700.583 118.272L702.93 108.551ZM611.701 88.0298L575.924 29.4562L567.39 34.6689L603.167 93.2424L611.701 88.0298ZM576.517 33.2349L599.28 -61.1365L589.559 -63.4813L566.796 30.8901L576.517 33.2349ZM683.874 -40.7057L661.111 53.6658L670.832 56.0107L693.596 -38.3608L683.874 -40.7057ZM667.145 49.9779L572.831 27.2023L570.483 36.9229L664.797 59.6985L667.145 49.9779ZM661.704 57.4449L697.49 116.018L706.023 110.805L670.238 52.2314L661.704 57.4449ZM1329.45 1142.48L1352.21 1048.11L1342.49 1045.76L1319.73 1140.14L1329.45 1142.48ZM1351.62 1044.33L1315.83 985.758L1307.3 990.972L1343.08 1049.54L1351.62 1044.33ZM1312.74 983.505L1218.42 960.728L1216.07 970.449L1310.39 993.226L1312.74 983.505ZM1212.38 964.416L1189.63 1058.78L1199.35 1061.12L1222.1 966.76L1212.38 964.416ZM1190.23 1062.56L1226 1121.14L1234.53 1115.93L1198.76 1057.34L1190.23 1062.56ZM1229.09 1123.39L1323.41 1146.17L1325.76 1136.45L1231.44 1113.67L1229.09 1123.39ZM1348.52 1042.07L1254.2 1019.3L1251.86 1029.02L1346.18 1051.8L1348.52 1042.07ZM1248.17 1022.99L1225.4 1117.36L1235.13 1119.71L1257.89 1025.33L1248.17 1022.99ZM1257.3 1021.55L1221.51 962.981L1212.98 968.195L1248.76 1026.76L1257.3 1021.55ZM712.199 297.342H1206.22V287.342H712.199V297.342ZM1201.22 292.342V786.654H1211.22V292.342H1201.22ZM1206.22 781.654H712.199V791.654H1206.22V781.654ZM717.199 786.654V292.342H707.199V786.654H717.199ZM631.613 216.421H1287.39V206.421H631.613V216.421ZM1282.39 211.421V867.574H1292.39V211.421H1282.39ZM1287.39 862.574H631.613V872.574H1287.39V862.574ZM636.613 867.574V211.421H626.613V867.574H636.613ZM954.5 -285.632V539.498H964.5V-285.632H954.5ZM955.963 -496.535L887.356 -427.888L894.429 -420.819L963.036 -489.465L955.963 -496.535ZM885.893 -424.353V-355.706H895.893V-424.353H885.893ZM887.356 -352.172L955.963 -283.525L963.036 -290.594L894.429 -359.241L887.356 -352.172ZM963.036 -283.525L1031.64 -352.172L1024.57 -359.241L955.963 -290.594L963.036 -283.525ZM1033.11 -355.706V-424.353H1023.11V-355.706H1033.11ZM1031.64 -427.888L963.036 -496.535L955.963 -489.465L1024.57 -420.819L1031.64 -427.888ZM887.356 -420.819L955.963 -352.172L963.036 -359.241L894.429 -427.888L887.356 -420.819ZM963.036 -352.172L1031.64 -420.819L1024.57 -427.888L955.963 -359.241L963.036 -352.172ZM954.5 -355.706V-287.06H964.5V-355.706H954.5ZM956.347 -220.791L857.031 -122.162L864.078 -115.067L963.394 -213.695L956.347 -220.791ZM857.005 -115.093L955.58 -15.716L962.679 -22.7584L864.104 -122.136L857.005 -115.093ZM962.653 -15.6894L1061.97 -114.318L1054.92 -121.414L955.606 -22.785L962.653 -15.6894ZM1061.99 -121.387L963.42 -220.764L956.32 -213.722L1054.9 -114.345L1061.99 -121.387ZM950.207 -132.263C957.514 -137.051 967.326 -135.005 972.111 -127.692L980.479 -133.168C972.668 -145.103 956.656 -148.444 944.726 -140.627L950.207 -132.263ZM972.111 -127.692C976.899 -120.374 974.853 -110.561 967.544 -105.772L973.025 -97.4079C984.954 -105.225 988.287 -121.234 980.479 -133.167L972.111 -127.692ZM967.544 -105.772C960.237 -100.983 950.426 -103.029 945.64 -110.342L937.272 -104.867C945.083 -92.9297 961.096 -89.5905 973.025 -97.4079L967.544 -105.772ZM945.64 -110.343C940.852 -117.659 942.898 -127.473 950.207 -132.263L944.726 -140.627C932.797 -132.81 929.464 -116.799 937.272 -104.867L945.64 -110.343ZM964.5 1364.63V539.498H954.5V1364.63H964.5ZM963.036 1575.53L1031.64 1506.89L1024.57 1499.82L955.963 1568.47L963.036 1575.53ZM1033.11 1503.35V1434.71H1023.11V1503.35H1033.11ZM1031.64 1431.17L963.036 1362.53L955.963 1369.59L1024.57 1438.24L1031.64 1431.17ZM955.963 1362.53L887.356 1431.17L894.429 1438.24L963.036 1369.59L955.963 1362.53ZM885.893 1434.71V1503.35H895.893V1434.71H885.893ZM887.356 1506.89L955.963 1575.53L963.036 1568.47L894.429 1499.82L887.356 1506.89ZM1031.64 1499.82L963.036 1431.17L955.963 1438.24L1024.57 1506.89L1031.64 1499.82ZM955.963 1431.17L887.356 1499.82L894.429 1506.89L963.036 1438.24L955.963 1431.17ZM964.5 1434.71V1366.06H954.5V1434.71H964.5ZM962.652 1299.78L1061.97 1201.16L1054.92 1194.07L955.606 1292.68L962.652 1299.78ZM1061.99 1194.09L963.42 1094.71L956.32 1101.75L1054.9 1201.14L1061.99 1194.09ZM956.347 1094.68L857.031 1193.31L864.078 1200.41L963.394 1101.78L956.347 1094.68ZM857.005 1200.38L955.58 1299.75L962.679 1292.71L864.104 1193.34L857.005 1200.38ZM968.794 1211.25C961.485 1216.04 951.674 1214 946.889 1206.68L938.521 1212.16C946.332 1224.1 962.345 1227.43 974.274 1219.62L968.794 1211.25ZM946.889 1206.68C942.101 1199.37 944.147 1189.56 951.455 1184.77L945.975 1176.41C934.046 1184.22 930.712 1200.23 938.521 1212.16L946.889 1206.68ZM951.455 1184.77C958.764 1179.98 968.575 1182.03 973.36 1189.34L981.727 1183.87C973.916 1171.93 957.904 1168.59 945.975 1176.41L951.455 1184.77ZM973.36 1189.34C978.147 1196.66 976.102 1206.46 968.794 1211.25L974.274 1219.62C986.203 1211.8 989.536 1195.8 981.727 1183.87L973.36 1189.34ZM1671.17 122.604L956.999 535.169L962.001 543.828L1676.17 131.263L1671.17 122.604ZM1854.44 18.4203L1760.73 -6.70578L1758.14 2.95309L1851.85 28.0792L1854.44 18.4203ZM1756.93 -6.20581L1697.52 28.1176L1702.52 36.7766L1761.93 2.45312L1756.93 -6.20581ZM1695.19 31.1537L1670.08 124.927L1679.74 127.513L1704.85 33.7404L1695.19 31.1537ZM1673.61 131.049L1767.33 156.175L1769.92 146.517L1676.2 121.39L1673.61 131.049ZM1771.13 155.675L1830.54 121.352L1825.54 112.693L1766.12 147.017L1771.13 155.675ZM1832.87 118.316L1857.98 24.543L1848.32 21.9564L1823.21 115.729L1832.87 118.316ZM1754.6 -3.16965L1729.49 90.6032L1739.15 93.1898L1764.26 -0.583038L1754.6 -3.16965ZM1733.03 96.726L1826.74 121.852L1829.33 112.193L1735.62 87.0671L1733.03 96.726ZM1731.82 87.567L1672.41 121.89L1677.41 130.549L1736.82 96.226L1731.82 87.567ZM1615.98 156.628L1480.95 119.878L1478.32 129.527L1613.36 166.277L1615.98 156.628ZM1474.81 123.391L1438.08 258.492L1447.73 261.116L1484.46 126.015L1474.81 123.391ZM1441.59 264.628L1576.63 301.382L1579.25 291.733L1444.22 254.979L1441.59 264.628ZM1582.76 297.869L1619.5 162.764L1609.85 160.14L1573.11 295.245L1582.76 297.869ZM1536.27 195.566C1544.07 199.508 1547.2 209.025 1543.27 216.833L1552.2 221.332C1558.62 208.601 1553.51 193.075 1540.79 186.641L1536.27 195.566ZM1543.27 216.828C1539.33 224.64 1529.82 227.772 1522.03 223.833L1517.52 232.757C1530.25 239.197 1545.77 234.064 1552.2 221.337L1543.27 216.828ZM1522.02 223.83C1514.23 219.898 1511.09 210.372 1515.03 202.568L1506.1 198.06C1499.67 210.796 1504.79 226.339 1517.52 232.759L1522.02 223.83ZM1515.03 202.564C1518.96 194.762 1528.48 191.628 1536.28 195.566L1540.78 186.64C1528.06 180.211 1512.52 185.325 1506.1 198.065L1515.03 202.564ZM247.829 956.394L962.001 543.828L956.999 535.169L242.827 947.735L247.829 956.394ZM64.5519 1060.58L158.271 1085.7L160.86 1076.04L67.1413 1050.92L64.5519 1060.58ZM162.066 1085.2L221.482 1050.88L216.479 1042.22L157.064 1076.54L162.066 1085.2ZM223.81 1047.84L248.923 954.073L239.264 951.486L214.151 1045.26L223.81 1047.84ZM245.388 947.95L151.668 922.825L149.079 932.484L242.799 957.609L245.388 947.95ZM147.872 923.325L88.4571 957.648L93.4593 966.307L152.874 931.984L147.872 923.325ZM86.1284 960.684L61.0168 1054.46L70.6764 1057.04L95.7881 963.271L86.1284 960.684ZM164.395 1082.17L189.507 988.396L179.847 985.809L154.736 1079.58L164.395 1082.17ZM185.972 982.273L92.253 957.148L89.6635 966.807L183.382 991.932L185.972 982.273ZM187.178 991.432L246.594 957.109L241.592 948.449L182.176 982.773L187.178 991.432ZM303.022 922.374L438.046 959.114L440.672 949.465L305.647 912.725L303.022 922.374ZM444.184 955.601L480.912 820.504L471.262 817.88L434.534 952.977L444.184 955.601ZM477.4 814.368L342.375 777.614L339.748 787.263L474.774 824.017L477.4 814.368ZM336.237 781.127L299.51 916.238L309.16 918.861L345.886 783.75L336.237 781.127ZM382.725 883.432C374.922 879.487 371.79 869.97 375.728 862.166L366.8 857.661C360.375 870.396 365.487 885.922 378.213 892.356L382.725 883.432ZM375.728 862.166C379.667 854.357 389.181 851.223 396.975 855.163L401.487 846.239C388.75 839.8 373.223 844.931 366.8 857.661L375.728 862.166ZM396.98 855.166C404.775 859.096 407.911 868.622 403.972 876.429L412.9 880.934C419.324 868.202 414.217 852.658 401.482 846.237L396.98 855.166ZM403.972 876.429C400.036 884.233 390.522 887.363 382.721 883.429L378.218 892.359C390.947 898.777 406.475 893.67 412.9 880.934L403.972 876.429ZM1676.17 947.735L962.001 535.169L956.999 543.828L1671.17 956.394L1676.17 947.735ZM1851.85 1050.92L1758.14 1076.04L1760.73 1085.7L1854.44 1060.58L1851.85 1050.92ZM1761.93 1076.54L1702.52 1042.22L1697.52 1050.88L1756.93 1085.2L1761.93 1076.54ZM1704.85 1045.26L1679.74 951.486L1670.08 954.072L1695.19 1047.84L1704.85 1045.26ZM1676.2 957.609L1769.92 932.484L1767.33 922.825L1673.61 947.95L1676.2 957.609ZM1766.12 931.984L1825.54 966.307L1830.54 957.648L1771.13 923.325L1766.12 931.984ZM1823.21 963.271L1848.32 1057.04L1857.98 1054.46L1832.87 960.684L1823.21 963.271ZM1764.26 1079.58L1739.15 985.809L1729.49 988.396L1754.6 1082.17L1764.26 1079.58ZM1735.62 991.932L1829.33 966.807L1826.74 957.148L1733.03 982.273L1735.62 991.932ZM1736.82 982.773L1677.41 948.45L1672.41 957.109L1731.82 991.432L1736.82 982.773ZM1613.36 912.725L1478.33 949.464L1480.95 959.114L1615.98 922.374L1613.36 912.725ZM1484.46 952.977L1447.73 817.88L1438.08 820.504L1474.81 955.601L1484.46 952.977ZM1444.22 824.017L1579.25 787.263L1576.63 777.614L1441.59 814.368L1444.22 824.017ZM1573.11 783.75L1609.85 918.861L1619.5 916.238L1582.76 781.127L1573.11 783.75ZM1540.79 892.356C1553.51 885.921 1558.62 870.396 1552.2 857.664L1543.27 862.163C1547.2 869.971 1544.07 879.488 1536.27 883.432L1540.79 892.356ZM1552.2 857.659C1545.77 844.932 1530.25 839.799 1517.52 846.239L1522.03 855.163C1529.82 851.224 1539.33 854.356 1543.27 862.168L1552.2 857.659ZM1517.52 846.237C1504.79 852.657 1499.67 868.2 1506.1 880.936L1515.03 876.428C1511.09 868.624 1514.23 859.098 1522.02 855.166L1517.52 846.237ZM1506.1 880.931C1512.52 893.672 1528.06 898.776 1540.78 892.358L1536.28 883.43C1528.48 887.364 1518.96 884.231 1515.03 876.432L1506.1 880.931ZM242.827 131.263L956.999 543.828L962.001 535.169L247.829 122.604L242.827 131.263ZM67.1414 28.0792L160.86 2.95312L158.271 -6.70578L64.5518 18.4203L67.1414 28.0792ZM157.064 2.45316L216.479 36.7766L221.482 28.1176L162.066 -6.20584L157.064 2.45316ZM214.151 33.7405L239.264 127.513L248.923 124.926L223.81 31.1536L214.151 33.7405ZM242.799 121.39L149.079 146.517L151.668 156.175L245.388 131.049L242.799 121.39ZM152.874 147.016L93.4593 112.693L88.4572 121.352L147.872 155.675L152.874 147.016ZM95.7881 115.729L70.6764 21.9564L61.0168 24.5431L86.1284 118.316L95.7881 115.729ZM154.736 -0.582947L179.847 93.1899L189.507 90.6031L164.395 -3.16971L154.736 -0.582947ZM183.382 87.0671L89.6635 112.193L92.253 121.852L185.972 96.726L183.382 87.0671ZM182.176 96.226L241.592 130.549L246.594 121.89L187.178 87.567L182.176 96.226ZM305.648 166.277L440.672 129.527L438.046 119.878L303.022 156.628L305.648 166.277ZM434.534 126.014L471.262 261.115L480.912 258.492L444.184 123.391L434.534 126.014ZM474.774 254.979L339.748 291.733L342.375 301.382L477.4 264.628L474.774 254.979ZM345.886 295.246L309.16 160.14L299.51 162.764L336.237 297.869L345.886 295.246ZM378.214 186.641C365.487 193.074 360.375 208.6 366.8 221.335L375.728 216.83C371.79 209.026 374.922 199.51 382.725 195.566L378.214 186.641ZM366.8 221.335C373.223 234.065 388.75 239.196 401.487 232.757L396.975 223.833C389.181 227.773 379.667 224.639 375.728 216.83L366.8 221.335ZM401.482 232.759C414.217 226.338 419.324 210.794 412.9 198.062L403.972 202.567C407.911 210.374 404.775 219.9 396.98 223.83L401.482 232.759ZM412.901 198.062C406.476 185.327 390.948 180.21 378.215 186.64L382.723 195.567C390.521 191.629 400.034 194.76 403.972 202.566L412.901 198.062ZM-1 269.911H67.6071V259.911H-1V269.911ZM64.0706 268.446L132.678 337.092L139.751 330.023L71.1437 261.377L64.0706 268.446ZM131.214 333.558V745.438H141.214V333.558H131.214ZM132.678 741.904L64.0706 810.551L71.1437 817.62L139.751 748.973L132.678 741.904ZM67.6071 809.085H-1V819.085H67.6071V809.085ZM4 814.085V264.911H-6V814.085H4ZM62.6071 264.911V814.085H72.6071V264.911H62.6071ZM1920 259.911H1851.39V269.911H1920V259.911ZM1847.86 261.377L1779.25 330.023L1786.32 337.092L1854.93 268.446L1847.86 261.377ZM1777.79 333.558V745.438H1787.79V333.558H1777.79ZM1779.25 748.973L1847.86 817.62L1854.93 810.551L1786.32 741.904L1779.25 748.973ZM1851.39 819.085H1920V809.085H1851.39V819.085ZM1925 814.085V264.911H1915V814.085H1925ZM1846.39 264.911V814.085H1856.39V264.911H1846.39ZM1212.97 110.824L697.479 963L706.035 968.176L1221.52 116L1212.97 110.824ZM1323.41 -67.1692L1229.09 -44.3936L1231.44 -34.673L1325.76 -57.4486L1323.41 -67.1692ZM1226 -42.1393L1190.23 16.4342L1198.76 21.6463L1234.53 -36.9273L1226 -42.1393ZM1189.63 20.212L1212.38 114.583L1222.1 112.24L1199.35 17.8685L1189.63 20.212ZM1218.42 118.272L1312.74 95.4964L1310.39 85.7758L1216.07 108.551L1218.42 118.272ZM1315.83 93.2429L1351.62 34.6693L1343.08 29.4558L1307.3 88.0294L1315.83 93.2429ZM1352.21 30.8901L1329.45 -63.4814L1319.73 -61.1364L1342.49 33.235L1352.21 30.8901ZM1225.4 -38.3608L1248.17 56.0107L1257.89 53.6658L1235.13 -40.7057L1225.4 -38.3608ZM1254.2 59.6985L1348.52 36.9229L1346.18 27.2022L1251.86 49.9779L1254.2 59.6985ZM1248.76 52.2314L1212.98 110.805L1221.51 116.018L1257.3 57.4449L1248.76 52.2314ZM599.28 1140.14L576.518 1045.76L566.796 1048.11L589.559 1142.48L599.28 1140.14ZM575.924 1049.54L611.701 990.972L603.167 985.759L567.39 1044.33L575.924 1049.54ZM608.608 993.226L702.93 970.449L700.583 960.728L606.261 983.505L608.608 993.226ZM696.896 966.76L719.646 1061.12L729.367 1058.78L706.617 964.416L696.896 966.76ZM720.239 1057.34L684.468 1115.93L693.002 1121.14L728.774 1062.56L720.239 1057.34ZM687.561 1113.67L593.246 1136.45L595.593 1146.17L689.909 1123.39L687.561 1113.67ZM572.831 1051.8L667.145 1029.02L664.797 1019.3L570.483 1042.07L572.831 1051.8ZM661.11 1025.33L683.874 1119.71L693.596 1117.36L670.832 1022.99L661.11 1025.33ZM670.238 1026.76L706.023 968.195L697.49 962.981L661.704 1021.55L670.238 1026.76ZM251.419 1197.86L282.291 1136.54L273.359 1132.05L242.487 1193.36L251.419 1197.86ZM279.392 1139.04L371.533 1108.63L368.399 1099.14L276.258 1129.55L279.392 1139.04ZM367.715 1108.35L735.332 1293.69L739.834 1284.77L372.217 1099.42L367.715 1108.35ZM732.835 1290.8L763.228 1382.99L772.725 1379.86L742.332 1287.66L732.835 1290.8ZM763.511 1379.17L732.637 1440.48L741.569 1444.97L772.442 1383.67L763.511 1379.17ZM739.354 1438.26L249.204 1191.15L244.702 1200.07L734.852 1447.19L739.354 1438.26ZM275.574 1138.76L765.725 1385.89L770.227 1376.96L280.076 1129.83L275.574 1138.76ZM1677 1193.36L1646.14 1132.05L1637.21 1136.54L1668.07 1197.86L1677 1193.36ZM1643.24 1129.55L1551.09 1099.14L1547.95 1108.63L1640.11 1139.04L1643.24 1129.55ZM1547.27 1099.42L1179.66 1284.77L1184.16 1293.7L1551.77 1108.35L1547.27 1099.42ZM1177.16 1287.67L1146.77 1379.86L1156.27 1382.99L1186.66 1290.8L1177.16 1287.67ZM1147.05 1383.67L1177.93 1444.97L1186.86 1440.48L1155.98 1379.17L1147.05 1383.67ZM1184.64 1447.19L1674.78 1200.07L1670.28 1191.15L1180.14 1438.26L1184.64 1447.19ZM1639.42 1129.83L1149.27 1376.96L1153.77 1385.89L1643.93 1138.76L1639.42 1129.83ZM242.24 -165.051L273.112 -103.748L282.044 -108.246L251.172 -169.549L242.24 -165.051ZM276.011 -101.249L368.151 -70.8345L371.286 -80.3305L279.145 -110.745L276.011 -101.249ZM371.97 -71.1179L739.587 -256.46L735.085 -265.389L367.468 -80.0472L371.97 -71.1179ZM742.085 -259.359L772.478 -351.553L762.981 -354.684L732.588 -262.49L742.085 -259.359ZM772.195 -355.367L741.322 -416.672L732.39 -412.174L763.264 -350.87L772.195 -355.367ZM734.605 -418.887L244.455 -171.765L248.957 -162.835L739.107 -409.958L734.605 -418.887ZM279.829 -101.532L769.98 -348.654L765.478 -357.583L275.327 -110.462L279.829 -101.532ZM1667.84 -169.549L1636.96 -108.246L1645.89 -103.748L1676.77 -165.051L1667.84 -169.549ZM1639.86 -110.745L1547.71 -80.3306L1550.84 -70.8344L1642.99 -101.249L1639.86 -110.745ZM1551.53 -80.0471L1183.91 -265.389L1179.41 -256.46L1547.02 -71.1179L1551.53 -80.0471ZM1186.41 -262.49L1156.02 -354.684L1146.52 -351.553L1176.91 -259.359L1186.41 -262.49ZM1155.74 -350.87L1186.61 -412.174L1177.68 -416.672L1146.8 -355.367L1155.74 -350.87ZM1179.89 -409.958L1670.05 -162.835L1674.55 -171.765L1184.39 -418.887L1179.89 -409.958ZM1643.68 -110.462L1153.52 -357.583L1149.02 -348.654L1639.18 -101.532L1643.68 -110.462Z" fill="url(#paint0_radial_122_143)" fill-opacity="0.5"/>
<ellipse opacity="0.2" cx="226.5" cy="211" rx="887.5" ry="869" fill="url(#paint1_radial_122_143)"/>
<text fill="#E8E8E8" xml:space="preserve" style="white-space: pre" font-family="Inter" font-size="48" letter-spacing="0em"><tspan x="64" y="1008.45">High Output Ventures</tspan></text>
<text fill="#E8E8E8" xml:space="preserve" style="white-space: pre" font-family="Inter" font-size="48" letter-spacing="0em"><tspan x="1562.09" y="1008.45">Silver Edition</tspan></text>
<text fill="#E8E8E8" xml:space="preserve" style="white-space: pre" font-family="Aleo" font-size="48" font-weight="bold" letter-spacing="0.2em"><tspan x="346.02" y="657.64">ALEXANDER LUIE JHAMES SARITA PBD</tspan></text>
<path d="M805 542L839.333 508.333V542H805ZM942.333 542V491.5L908 525.166V542H873.667V474.667L908 441V474.667V491.5L942.333 457.833V407.334L976.667 373.666V407.334V474.667V542H942.333ZM1079.67 407.334V340V306.333L1045.33 340V407.334V508.333H1079.67V407.334ZM1079.67 542H1045.33H1011V407.334V340L1045.33 306.333L1079.67 272.667L1114 239V272.667V340V407.334V542H1079.67Z" fill="#E8E8E8"/>
</g>
<defs>
<radialGradient id="paint0_radial_122_143" cx="0" cy="0" r="1" gradientUnits="userSpaceOnUse" gradientTransform="translate(-0.999981 -1.49998) rotate(29.3903) scale(2204.76 2051.01)">
<stop stop-color="white"/>
<stop offset="0.304315" stop-color="#9A9A9A"/>
<stop offset="0.645394" stop-color="#4A4A4A"/>
<stop offset="0.807759"/>
</radialGradient>
<radialGradient id="paint1_radial_122_143" cx="0" cy="0" r="1" gradientUnits="userSpaceOnUse" gradientTransform="translate(226.5 211) rotate(90) scale(869 887.5)">
<stop stop-color="white" stop-opacity="0.5"/>
<stop offset="1" stop-color="#D9D9D9" stop-opacity="0"/>
</radialGradient>
<clipPath id="clip0_122_143">
<rect width="1920" height="1080" rx="50" fill="white"/>
</clipPath>
</defs>
</svg>
