<svg width="1920" height="1920" viewBox="0 0 1920 1920" fill="none" xmlns="http://www.w3.org/2000/svg">
<rect width="1920" height="1920" fill="#E5E5E5"/>
<g clip-path="url(#clip0_122_143)">
<rect width="1920" height="1920" fill="white"/>
<path d="M-599.461 711.032L-334.596 522.533L-119.606 473.315L15.4825 497.637M15.4825 497.637L159.801 494.55L279.481 684.679L212.805 843.497L26.6222 938.63M15.4825 497.637L-141.911 501.003L-421.11 623.62L-585.227 764.631M26.6222 938.63L130.558 789.717L84.0872 712.257L-64.5848 691.872L-320.15 827.227L-479.476 1162.84M26.6222 938.63L181.99 779.414L146.423 645.488L-39.7539 617.356L-364.324 742.795L-531.554 966.735M-248.019 1299.55L183.926 1116.73L550.394 1070.94M550.394 1070.94L1206.76 1152.28L1540.03 1071.79L1776.61 793.942L1802.75 582.459L1692.74 303.307M550.394 1070.94L1100.59 1045.8L1352.47 956.222L1501.8 765.7L1472.36 582.714L1344.38 501.328L1497.1 506.019L1609.66 592.664L1688 725.01L1705.14 873.965M1692.74 303.307L1406.63 167.688L1792.27 202.857L2011.79 381.811L2122.36 728.149L1963.97 1005.18L1700.79 1226.71M1692.74 303.307L1907.63 526.971L1953.28 820.347L1599.07 1166.5L902.175 1326.53L234.497 1395.94L-142.107 1701.93M1700.79 1226.71L893.603 1446.82L354.649 1663.15L124.397 2075.72L248.586 2373.25M1700.79 1226.71L1950.43 823.413M1419.8 865.865L1433.01 639.246L1384.3 576.498L1291.35 599.34L1401.6 540.651M556.52 2291.48L488.578 1962.76L714.241 1655.5M714.241 1655.5L1081.75 1545.28L1367.69 1565.24M714.241 1655.5L640.96 2057.45L817.429 2222.19M1367.69 1565.24L1722.75 1618.27L2047.41 1497.52L2160.88 1297.38L2076.27 1099.47L1929.77 1033.97M1367.69 1565.24L1737.74 1525.39L1921.76 1393.21L1921.55 1226.64L1837.76 1111.42L1850.12 1238.82L1764.67 1335.39L1536.13 1358.41L1359.46 1319.8M1024.63 2167.16L765.142 2032.13L670.215 1896.99M3592.29 1086.58L2875.05 815.941L2443.44 286.452L2413.3 -128.669L2457.29 -236.005M3525.44 821.697L2829.54 572.753L2423.92 17.598L2473.03 -355.535L2800.76 -495.314L3037.52 -373.379L3170.88 -139.038L2884.71 -291.773L2676.85 -196.431L2663.03 98.2208M2663.03 98.2208L2922.65 338.615L3424.11 440.152M2663.03 98.2208L2543.19 -175.885L2722.62 -421.277L2942.73 -422.2M2504.75 -369.064L2674.06 -555.531L2878.44 -533.074L2989.32 -398.2M3406.47 373.725L3181.98 389.703L2968.91 246.977L2891.57 72.5201L2944.76 -81.5064L3108.17 -76.8198L2945.08 -151.274L2719.24 -80.9789L2707.87 139.754M2853.74 274.805L2773.17 133.865L2778.65 -34.4461L2900.93 -137.533" stroke="black" stroke-opacity="0.1" stroke-width="3" stroke-miterlimit="10" stroke-linecap="square"/>
<g filter="url(#filter0_d_122_143)">
<g clip-path="url(#clip1_122_143)">
<rect x="248.633" y="777.911" width="1280" height="720" rx="50" transform="rotate(-15 248.633 777.911)" fill="#171717"/>
<path d="M186.666 886.358L290.95 812.14L375.597 792.762L428.785 802.338M428.785 802.338L485.607 801.123L532.728 875.982L506.476 938.512L433.171 975.969M428.785 802.338L366.815 803.664L256.887 851.941L192.27 907.461M433.171 975.969L474.093 917.338L455.797 886.84L397.261 878.814L296.638 932.107L233.907 1064.24M433.171 975.969L494.343 913.281L480.34 860.551L407.037 849.475L279.245 898.864L213.402 987.035M325.038 1118.07L495.106 1046.09L639.394 1028.06M639.394 1028.06L897.82 1060.09L1029.04 1028.4L1122.19 919.001L1132.48 835.735L1089.17 725.826M639.394 1028.06L856.02 1018.17L955.194 982.895L1013.99 907.882L1002.39 835.836L952.009 803.792L1012.14 805.638L1056.45 839.753L1087.3 891.861L1094.05 950.509M1089.17 725.826L976.517 672.429L1128.35 686.276L1214.79 756.735L1258.32 893.097L1195.96 1002.17L1092.33 1089.39M1089.17 725.826L1173.77 813.888L1191.75 929.398L1052.29 1065.69L777.899 1128.69L515.017 1156.02L366.738 1276.5M1092.33 1089.39L774.524 1176.06L562.324 1261.23L471.668 1423.67L520.564 1540.82M1092.33 1089.39L1190.62 930.605M981.7 947.319L986.904 858.094L967.724 833.388L931.126 842.381L974.538 819.274M641.806 1508.62L615.055 1379.2L703.905 1258.22M703.905 1258.22L848.601 1214.82L961.186 1222.68M703.905 1258.22L675.052 1416.48L744.533 1481.34M961.186 1222.68L1100.98 1243.56L1228.81 1196.02L1273.48 1117.22L1240.17 1039.3L1182.49 1013.51M961.186 1222.68L1106.88 1206.99L1179.34 1154.95L1179.25 1089.37L1146.26 1044L1151.13 1094.16L1117.49 1132.18L1027.5 1141.25L957.946 1126.04M826.113 1459.67L723.946 1406.51L686.571 1353.3M1837.07 1034.22L1554.67 927.663L1384.73 719.189L1372.87 555.745L1390.19 513.484M1810.75 929.929L1536.75 831.913L1377.05 613.334L1396.39 466.422L1525.42 411.388L1618.64 459.397L1671.15 551.663L1558.47 491.527L1476.63 529.066L1471.19 645.078M1471.19 645.078L1573.41 739.727L1770.85 779.705M1471.19 645.078L1424.01 537.155L1494.65 440.538L1581.32 440.174M1408.88 461.096L1475.54 387.678L1556.01 396.52L1599.66 449.624M1763.91 753.551L1675.52 759.842L1591.63 703.647L1561.18 634.959L1582.12 574.314L1646.46 576.16L1582.25 546.845L1493.33 574.522L1488.85 661.43M1546.28 714.604L1514.56 659.112L1516.72 592.843L1564.86 552.255" stroke="url(#paint0_radial_122_143)" stroke-opacity="0.5" stroke-width="6" stroke-miterlimit="10" stroke-linecap="square"/>
<ellipse opacity="0.2" cx="430.895" cy="874.703" rx="591.667" ry="579.333" transform="rotate(-15 430.895 874.703)" fill="url(#paint1_radial_122_143)"/>
<text transform="translate(455.423 1383.53) rotate(-15)" fill="#E8E8E8" xml:space="preserve" style="white-space: pre" font-family="Inter" font-size="32.025" letter-spacing="0em"><tspan x="0" y="31.1455">High Output Ventures</tspan></text>
<text transform="translate(1373.7 1137.47) rotate(-15)" fill="#E8E8E8" xml:space="preserve" style="white-space: pre" font-family="Inter" font-size="32.025" letter-spacing="0em"><tspan x="0.903961" y="31.1455">Platinum Edition</tspan></text>
<text transform="translate(575.938 1109.5) rotate(-15)" fill="#E8E8E8" xml:space="preserve" style="white-space: pre" font-family="Aleo" font-size="32.025" font-weight="bold" letter-spacing="0.2em"><tspan x="0.026825" y="28.7676">ALEXANDER LUIE JHAMES SARITA PBD</tspan></text>
<path d="M860.054 983.675L876.354 956.071L882.163 977.751L860.054 983.675ZM948.49 959.978L939.776 927.459L923.476 955.062L926.381 965.902L904.272 971.826L892.654 928.467L908.954 900.863L914.763 922.543L917.668 933.383L933.967 905.779L925.253 873.26L941.554 845.656L947.363 867.336L958.981 910.695L970.599 954.054L948.49 959.978ZM1013.69 849.564L1002.07 806.204L996.262 784.524L979.963 812.128L991.581 855.488L1009.01 920.526L1031.12 914.602L1013.69 849.564ZM1036.93 936.282L1014.82 942.206L992.708 948.13L969.471 861.412L957.853 818.052L974.153 790.448L990.453 762.845L1006.75 735.241L1012.56 756.921L1024.18 800.28L1035.8 843.639L1059.03 930.358L1036.93 936.282Z" fill="#E8E8E8"/>
</g>
</g>
</g>
<defs>
<filter id="filter0_d_122_143" x="228.633" y="406.622" width="1622.73" height="1226.75" filterUnits="userSpaceOnUse" color-interpolation-filters="sRGB">
<feFlood flood-opacity="0" result="BackgroundImageFix"/>
<feColorMatrix in="SourceAlpha" type="matrix" values="0 0 0 0 0 0 0 0 0 0 0 0 0 0 0 0 0 0 127 0" result="hardAlpha"/>
<feOffset dx="80" dy="60"/>
<feGaussianBlur stdDeviation="50"/>
<feComposite in2="hardAlpha" operator="out"/>
<feColorMatrix type="matrix" values="0 0 0 0 0 0 0 0 0 0 0 0 0 0 0 0 0 0 0.5 0"/>
<feBlend mode="normal" in2="BackgroundImageFix" result="effect1_dropShadow_122_143"/>
<feBlend mode="normal" in="SourceGraphic" in2="effect1_dropShadow_122_143" result="shape"/>
</filter>
<radialGradient id="paint0_radial_122_143" cx="0" cy="0" r="1" gradientUnits="userSpaceOnUse" gradientTransform="translate(259.8 797.696) rotate(13.5512) scale(1440.89 1352.7)">
<stop offset="0.0133545" stop-color="white"/>
<stop offset="0.277719" stop-color="#C1DEFF"/>
<stop offset="0.444172" stop-color="#98C7FF"/>
<stop offset="0.802083"/>
</radialGradient>
<radialGradient id="paint1_radial_122_143" cx="0" cy="0" r="1" gradientUnits="userSpaceOnUse" gradientTransform="translate(430.895 874.703) rotate(90) scale(579.333 591.667)">
<stop stop-color="white" stop-opacity="0.5"/>
<stop offset="1" stop-color="#D9D9D9" stop-opacity="0"/>
</radialGradient>
<clipPath id="clip0_122_143">
<rect width="1920" height="1920" fill="white"/>
</clipPath>
<clipPath id="clip1_122_143">
<rect x="248.633" y="777.911" width="1280" height="720" rx="50" transform="rotate(-15 248.633 777.911)" fill="white"/>
</clipPath>
</defs>
</svg>
